# Created by Kenney (www.kenney.nl)

mtllib altar-stone.mtl

g altar-stone

v -0.3125465 0.4876 0.20435 1 1 1
v -0.3225465 0.4876 0.27935 1 1 1
v -0.3225465 0.4876 0.12935 1 1 1
v -0.3975465 0.4876 0.11935 1 1 1
v -0.3975465 0.4876 0.28935 1 1 1
v -0.4725465 0.4876 0.12935 1 1 1
v -0.4725465 0.4876 0.27935 1 1 1
v -0.4825465 0.4876 0.20435 1 1 1
v -0.3975465 0.1 0.1321 1 1 1
v -0.3337965 0.1 0.1406 1 1 1
v -0.3975465 0.1 0.2766 1 1 1
v -0.4612965 0.1 0.2681 1 1 1
v -0.3252965 0.1 0.20435 1 1 1
v -0.3337965 0.1 0.2681 1 1 1
v -0.4697965 0.1 0.20435 1 1 1
v -0.4612965 0.1 0.1406 1 1 1
v 0.4825465 0.4876 -0.20435 1 1 1
v 0.4725465 0.4876 -0.12935 1 1 1
v 0.4725465 0.4876 -0.27935 1 1 1
v 0.3975465 0.4876 -0.28935 1 1 1
v 0.3975465 0.4876 -0.11935 1 1 1
v 0.3225465 0.4876 -0.27935 1 1 1
v 0.3225465 0.4876 -0.12935 1 1 1
v 0.3125465 0.4876 -0.20435 1 1 1
v 0.3975465 0.1 -0.2766 1 1 1
v 0.4612965 0.1 -0.2681 1 1 1
v 0.3975465 0.1 -0.1321 1 1 1
v 0.3337965 0.1 -0.1406 1 1 1
v 0.4697965 0.1 -0.20435 1 1 1
v 0.4612965 0.1 -0.1406 1 1 1
v 0.3252965 0.1 -0.20435 1 1 1
v 0.3337965 0.1 -0.2681 1 1 1
v 0.4825465 0.4876 0.20435 1 1 1
v 0.4725465 0.4876 0.27935 1 1 1
v 0.4725465 0.4876 0.12935 1 1 1
v 0.3975465 0.4876 0.11935 1 1 1
v 0.3975465 0.4876 0.28935 1 1 1
v 0.3225465 0.4876 0.12935 1 1 1
v 0.3225465 0.4876 0.27935 1 1 1
v 0.3125465 0.4876 0.20435 1 1 1
v 0.3975465 0.1 0.1321 1 1 1
v 0.4612965 0.1 0.1406 1 1 1
v 0.3975465 0.1 0.2766 1 1 1
v 0.3337965 0.1 0.2681 1 1 1
v 0.4697965 0.1 0.20435 1 1 1
v 0.4612965 0.1 0.2681 1 1 1
v 0.3252965 0.1 0.20435 1 1 1
v 0.3337965 0.1 0.1406 1 1 1
v -0.3125465 0.4876 -0.20435 1 1 1
v -0.3225465 0.4876 -0.12935 1 1 1
v -0.3225465 0.4876 -0.27935 1 1 1
v -0.3975465 0.4876 -0.28935 1 1 1
v -0.3975465 0.4876 -0.11935 1 1 1
v -0.4725465 0.4876 -0.27935 1 1 1
v -0.4725465 0.4876 -0.12935 1 1 1
v -0.4825465 0.4876 -0.20435 1 1 1
v -0.3975465 0.1 -0.2766 1 1 1
v -0.3337965 0.1 -0.2681 1 1 1
v -0.3975465 0.1 -0.1321 1 1 1
v -0.4612965 0.1 -0.1406 1 1 1
v -0.3252965 0.1 -0.20435 1 1 1
v -0.3337965 0.1 -0.1406 1 1 1
v -0.4697965 0.1 -0.20435 1 1 1
v -0.4612965 0.1 -0.2681 1 1 1
v 0.4225465 0.4376 -0.22935 1 1 1
v 0.4225465 0.4376 0.22935 1 1 1
v -0.4225465 0.4376 -0.22935 1 1 1
v -0.4225465 0.4376 0.22935 1 1 1
v 0.4225465 0.3188 0.22935 1 1 1
v -0.4225465 0.3188 0.22935 1 1 1
v 0.4225465 0.3188 -0.22935 1 1 1
v -0.4225465 0.3188 -0.22935 1 1 1
v -0.4014192 0.2688 -0.2178825 1 1 1
v -0.4014192 0.2688 0.2178825 1 1 1
v 0.4014192 0.2688 0.2178825 1 1 1
v 0.4014192 0.2688 -0.2178825 1 1 1
v -0.4225465 0.2188 -0.22935 1 1 1
v 0.4225465 0.2188 -0.22935 1 1 1
v -0.4225465 0.2188 0.22935 1 1 1
v 0.4225465 0.2188 0.22935 1 1 1
v 0.4014192 0.1 -0.2178825 1 1 1
v 0.4014192 0.1 0.2178825 1 1 1
v -0.4014192 0.1 -0.2178825 1 1 1
v -0.4014192 0.1 0.2178825 1 1 1
v -0.4697965 0 -0.3266 1 1 1
v 0.4697965 0 -0.3266 1 1 1
v -0.4697965 0.1 -0.3266 1 1 1
v 0.4697965 0.1 -0.3266 1 1 1
v -0.5197965 0 -0.2766 1 1 1
v -0.5197965 0.1 -0.2766 1 1 1
v -0.5197965 0 0.2766 1 1 1
v -0.5197965 0.1 0.2766 1 1 1
v 0.5197965 0.1 -0.2766 1 1 1
v 0.5197965 0 -0.2766 1 1 1
v 0.5197965 0.1 0.2766 1 1 1
v 0.5197965 0 0.2766 1 1 1
v 0.4697965 0 0.3266 1 1 1
v -0.4697965 0 0.3266 1 1 1
v 0.4697965 0.1 0.3266 1 1 1
v -0.4697965 0.1 0.3266 1 1 1
v 0.5051518 0 -0.3119553 1 1 1
v 0.5051518 0.1 -0.3119553 1 1 1
v 0.5051518 0.1 0.3119553 1 1 1
v 0.5051518 0 0.3119553 1 1 1
v -0.5051518 0 -0.3119553 1 1 1
v -0.5051518 0.1 -0.3119553 1 1 1
v -0.5051518 0 0.3119553 1 1 1
v -0.5051518 0.1 0.3119553 1 1 1

vn 0 1 0
vn 0 -0.03287696 -0.9994594
vn 0.1320935 -0.03258886 -0.9907013
vn 0 -0.03287696 0.9994594
vn -0.1320935 -0.03258886 0.9907013
vn 0.9907013 -0.03258886 -0.1320935
vn 0.9994594 -0.03287696 0
vn 0.1320935 -0.03258886 0.9907013
vn -0.9994594 -0.03287696 0
vn -0.9907013 -0.03258886 0.1320935
vn -0.9907013 -0.03258886 -0.1320935
vn -0.1320935 -0.03258886 -0.9907013
vn 0.9907013 -0.03258886 0.1320935
vn 0 0 1
vn 1 0 0
vn 0 0 -1
vn -1 0 0
vn -0.9211425 -0.3892255 0
vn 0 -0.2235459 0.9746934
vn 0 -0.2235459 -0.9746934
vn 0.9211425 -0.3892255 0
vn 0 0.2235459 -0.9746934
vn -0.9211425 0.3892255 0
vn 0.9211425 0.3892255 0
vn 0 0.2235459 0.9746934
vn 0.9845521 -0.1750922 0
vn 0 -0.0960812 -0.9953735
vn 0 -0.0960812 0.9953735
vn -0.9845521 -0.1750922 0
vn -0.1950903 0 -0.9807853
vn 0.1950903 0 -0.9807853
vn -0.9807853 0 -0.1950903
vn -0.9807853 0 0.1950903
vn 0.9807853 0 -0.1950903
vn 0.9807853 0 0.1950903
vn 0.1950903 0 0.9807853
vn -0.1950903 0 0.9807853
vn 0.7071068 0 -0.7071068
vn 0.7071068 0 0.7071068
vn -0.7071068 0 -0.7071068
vn -0.7071068 0 0.7071068
vn 0 -1 0

vt 0.96875 0.225
vt 0.96875 0.025
vt 0.96875 0.105
vt 0.96875 0.07684834
vt 0.96875 0.065
vt 0.96875 0.05315166
vt 0.96875 0.075
vt 0.96875 0.175

usemtl colormap

f 3/1/1 2/1/1 1/1/1
f 2/1/1 3/1/1 4/1/1
f 2/1/1 4/1/1 5/1/1
f 5/1/1 4/1/1 6/1/1
f 5/1/1 6/1/1 7/1/1
f 7/1/1 6/1/1 8/1/1
f 4/1/2 10/2/3 9/2/2
f 10/2/3 4/1/2 3/1/3
f 5/1/4 12/2/5 11/2/4
f 12/2/5 5/1/4 7/1/5
f 1/1/7 10/2/6 3/1/6
f 10/2/6 1/1/7 13/2/7
f 2/1/8 11/2/4 14/2/8
f 11/2/4 2/1/8 5/1/4
f 12/2/10 8/1/9 15/2/9
f 8/1/9 12/2/10 7/1/10
f 16/2/11 8/1/9 6/1/11
f 8/1/9 16/2/11 15/2/9
f 6/1/12 9/2/2 16/2/12
f 9/2/2 6/1/12 4/1/2
f 2/1/13 13/2/7 1/1/7
f 13/2/7 2/1/13 14/2/13
f 19/1/1 18/1/1 17/1/1
f 18/1/1 19/1/1 20/1/1
f 18/1/1 20/1/1 21/1/1
f 21/1/1 20/1/1 22/1/1
f 21/1/1 22/1/1 23/1/1
f 23/1/1 22/1/1 24/1/1
f 20/1/2 26/2/3 25/2/2
f 26/2/3 20/1/2 19/1/3
f 21/1/4 28/2/5 27/2/4
f 28/2/5 21/1/4 23/1/5
f 17/1/7 26/2/6 19/1/6
f 26/2/6 17/1/7 29/2/7
f 18/1/8 27/2/4 30/2/8
f 27/2/4 18/1/8 21/1/4
f 28/2/10 24/1/9 31/2/9
f 24/1/9 28/2/10 23/1/10
f 32/2/11 24/1/9 22/1/11
f 24/1/9 32/2/11 31/2/9
f 22/1/12 25/2/2 32/2/12
f 25/2/2 22/1/12 20/1/2
f 18/1/13 29/2/7 17/1/7
f 29/2/7 18/1/13 30/2/13
f 35/1/1 34/1/1 33/1/1
f 34/1/1 35/1/1 36/1/1
f 34/1/1 36/1/1 37/1/1
f 37/1/1 36/1/1 38/1/1
f 37/1/1 38/1/1 39/1/1
f 39/1/1 38/1/1 40/1/1
f 36/1/2 42/2/3 41/2/2
f 42/2/3 36/1/2 35/1/3
f 37/1/4 44/2/5 43/2/4
f 44/2/5 37/1/4 39/1/5
f 33/1/7 42/2/6 35/1/6
f 42/2/6 33/1/7 45/2/7
f 34/1/8 43/2/4 46/2/8
f 43/2/4 34/1/8 37/1/4
f 44/2/10 40/1/9 47/2/9
f 40/1/9 44/2/10 39/1/10
f 48/2/11 40/1/9 38/1/11
f 40/1/9 48/2/11 47/2/9
f 38/1/12 41/2/2 48/2/12
f 41/2/2 38/1/12 36/1/2
f 34/1/13 45/2/7 33/1/7
f 45/2/7 34/1/13 46/2/13
f 51/1/1 50/1/1 49/1/1
f 50/1/1 51/1/1 52/1/1
f 50/1/1 52/1/1 53/1/1
f 53/1/1 52/1/1 54/1/1
f 53/1/1 54/1/1 55/1/1
f 55/1/1 54/1/1 56/1/1
f 52/1/2 58/2/3 57/2/2
f 58/2/3 52/1/2 51/1/3
f 53/1/4 60/2/5 59/2/4
f 60/2/5 53/1/4 55/1/5
f 49/1/7 58/2/6 51/1/6
f 58/2/6 49/1/7 61/2/7
f 50/1/8 59/2/4 62/2/8
f 59/2/4 50/1/8 53/1/4
f 60/2/10 56/1/9 63/2/9
f 56/1/9 60/2/10 55/1/10
f 64/2/11 56/1/9 54/1/11
f 56/1/9 64/2/11 63/2/9
f 54/1/12 57/2/2 64/2/12
f 57/2/2 54/1/12 52/1/2
f 50/1/13 61/2/7 49/1/7
f 61/2/7 50/1/13 62/2/13
f 67/3/1 66/3/1 65/3/1
f 66/3/1 67/3/1 68/3/1
f 66/3/14 70/4/14 69/4/14
f 70/4/14 66/3/14 68/3/14
f 66/3/15 71/4/15 65/3/15
f 71/4/15 66/3/15 69/4/15
f 67/3/16 71/4/16 72/4/16
f 71/4/16 67/3/16 65/3/16
f 70/4/17 67/3/17 72/4/17
f 67/3/17 70/4/17 68/3/17
f 73/5/17 70/4/18 72/4/18
f 70/4/18 73/5/17 74/5/17
f 69/4/19 74/5/14 75/5/14
f 74/5/14 69/4/19 70/4/19
f 72/4/20 76/5/16 73/5/16
f 76/5/16 72/4/20 71/4/20
f 69/4/21 76/5/15 71/4/21
f 76/5/15 69/4/21 75/5/15
f 73/5/16 78/6/22 77/6/22
f 78/6/22 73/5/16 76/5/16
f 79/6/23 73/5/17 77/6/23
f 73/5/17 79/6/23 74/5/17
f 76/5/15 80/6/24 78/6/24
f 80/6/24 76/5/15 75/5/15
f 75/5/14 79/6/25 80/6/25
f 79/6/25 75/5/14 74/5/14
f 80/6/26 81/2/26 78/6/26
f 81/2/26 80/6/26 82/2/26
f 77/6/27 81/2/27 83/2/27
f 81/2/27 77/6/27 78/6/27
f 80/6/28 84/2/28 82/2/28
f 84/2/28 80/6/28 79/6/28
f 83/2/29 79/6/29 77/6/29
f 79/6/29 83/2/29 84/2/29
f 87/8/30 86/7/31 85/7/30
f 86/7/31 87/8/30 88/8/31
f 91/7/33 90/8/32 89/7/32
f 90/8/32 91/7/33 92/8/33
f 95/8/35 94/7/34 93/8/34
f 94/7/34 95/8/35 96/7/35
f 99/8/36 98/7/37 97/7/36
f 98/7/37 99/8/36 100/8/37
f 88/8/31 101/7/38 86/7/31
f 101/7/38 88/8/31 102/8/38
f 103/8/39 96/7/35 95/8/35
f 96/7/35 103/8/39 104/7/39
f 103/8/39 97/7/36 104/7/39
f 97/7/36 103/8/39 99/8/36
f 106/8/40 85/7/30 105/7/40
f 85/7/30 106/8/40 87/8/30
f 100/8/37 107/7/41 98/7/37
f 107/7/41 100/8/37 108/8/41
f 89/7/32 106/8/40 105/7/40
f 106/8/40 89/7/32 90/8/32
f 107/7/41 92/8/33 91/7/33
f 92/8/33 107/7/41 108/8/41
f 93/8/34 101/7/38 102/8/38
f 101/7/38 93/8/34 94/7/34
f 104/7/42 94/7/42 96/7/42
f 94/7/42 104/7/42 101/7/42
f 101/7/42 104/7/42 97/7/42
f 101/7/42 97/7/42 86/7/42
f 86/7/42 97/7/42 98/7/42
f 86/7/42 98/7/42 85/7/42
f 85/7/42 98/7/42 107/7/42
f 85/7/42 107/7/42 105/7/42
f 105/7/42 107/7/42 91/7/42
f 105/7/42 91/7/42 89/7/42
f 102/8/1 95/8/1 93/8/1
f 95/8/1 102/8/1 103/8/1
f 103/8/1 102/8/1 88/8/1
f 103/8/1 88/8/1 99/8/1
f 99/8/1 88/8/1 87/8/1
f 99/8/1 87/8/1 100/8/1
f 100/8/1 87/8/1 106/8/1
f 100/8/1 106/8/1 108/8/1
f 108/8/1 106/8/1 90/8/1
f 108/8/1 90/8/1 92/8/1

g altar-stone




usemtl colormap

f 3/1/1 2/1/1 1/1/1
f 2/1/1 3/1/1 4/1/1
f 2/1/1 4/1/1 5/1/1
f 5/1/1 4/1/1 6/1/1
f 5/1/1 6/1/1 7/1/1
f 7/1/1 6/1/1 8/1/1
f 4/1/2 10/2/3 9/2/2
f 10/2/3 4/1/2 3/1/3
f 5/1/4 12/2/5 11/2/4
f 12/2/5 5/1/4 7/1/5
f 1/1/7 10/2/6 3/1/6
f 10/2/6 1/1/7 13/2/7
f 2/1/8 11/2/4 14/2/8
f 11/2/4 2/1/8 5/1/4
f 12/2/10 8/1/9 15/2/9
f 8/1/9 12/2/10 7/1/10
f 16/2/11 8/1/9 6/1/11
f 8/1/9 16/2/11 15/2/9
f 6/1/12 9/2/2 16/2/12
f 9/2/2 6/1/12 4/1/2
f 2/1/13 13/2/7 1/1/7
f 13/2/7 2/1/13 14/2/13
f 19/1/1 18/1/1 17/1/1
f 18/1/1 19/1/1 20/1/1
f 18/1/1 20/1/1 21/1/1
f 21/1/1 20/1/1 22/1/1
f 21/1/1 22/1/1 23/1/1
f 23/1/1 22/1/1 24/1/1
f 20/1/2 26/2/3 25/2/2
f 26/2/3 20/1/2 19/1/3
f 21/1/4 28/2/5 27/2/4
f 28/2/5 21/1/4 23/1/5
f 17/1/7 26/2/6 19/1/6
f 26/2/6 17/1/7 29/2/7
f 18/1/8 27/2/4 30/2/8
f 27/2/4 18/1/8 21/1/4
f 28/2/10 24/1/9 31/2/9
f 24/1/9 28/2/10 23/1/10
f 32/2/11 24/1/9 22/1/11
f 24/1/9 32/2/11 31/2/9
f 22/1/12 25/2/2 32/2/12
f 25/2/2 22/1/12 20/1/2
f 18/1/13 29/2/7 17/1/7
f 29/2/7 18/1/13 30/2/13
f 35/1/1 34/1/1 33/1/1
f 34/1/1 35/1/1 36/1/1
f 34/1/1 36/1/1 37/1/1
f 37/1/1 36/1/1 38/1/1
f 37/1/1 38/1/1 39/1/1
f 39/1/1 38/1/1 40/1/1
f 36/1/2 42/2/3 41/2/2
f 42/2/3 36/1/2 35/1/3
f 37/1/4 44/2/5 43/2/4
f 44/2/5 37/1/4 39/1/5
f 33/1/7 42/2/6 35/1/6
f 42/2/6 33/1/7 45/2/7
f 34/1/8 43/2/4 46/2/8
f 43/2/4 34/1/8 37/1/4
f 44/2/10 40/1/9 47/2/9
f 40/1/9 44/2/10 39/1/10
f 48/2/11 40/1/9 38/1/11
f 40/1/9 48/2/11 47/2/9
f 38/1/12 41/2/2 48/2/12
f 41/2/2 38/1/12 36/1/2
f 34/1/13 45/2/7 33/1/7
f 45/2/7 34/1/13 46/2/13
f 51/1/1 50/1/1 49/1/1
f 50/1/1 51/1/1 52/1/1
f 50/1/1 52/1/1 53/1/1
f 53/1/1 52/1/1 54/1/1
f 53/1/1 54/1/1 55/1/1
f 55/1/1 54/1/1 56/1/1
f 52/1/2 58/2/3 57/2/2
f 58/2/3 52/1/2 51/1/3
f 53/1/4 60/2/5 59/2/4
f 60/2/5 53/1/4 55/1/5
f 49/1/7 58/2/6 51/1/6
f 58/2/6 49/1/7 61/2/7
f 50/1/8 59/2/4 62/2/8
f 59/2/4 50/1/8 53/1/4
f 60/2/10 56/1/9 63/2/9
f 56/1/9 60/2/10 55/1/10
f 64/2/11 56/1/9 54/1/11
f 56/1/9 64/2/11 63/2/9
f 54/1/12 57/2/2 64/2/12
f 57/2/2 54/1/12 52/1/2
f 50/1/13 61/2/7 49/1/7
f 61/2/7 50/1/13 62/2/13
f 67/3/1 66/3/1 65/3/1
f 66/3/1 67/3/1 68/3/1
f 66/3/14 70/4/14 69/4/14
f 70/4/14 66/3/14 68/3/14
f 66/3/15 71/4/15 65/3/15
f 71/4/15 66/3/15 69/4/15
f 67/3/16 71/4/16 72/4/16
f 71/4/16 67/3/16 65/3/16
f 70/4/17 67/3/17 72/4/17
f 67/3/17 70/4/17 68/3/17
f 73/5/17 70/4/18 72/4/18
f 70/4/18 73/5/17 74/5/17
f 69/4/19 74/5/14 75/5/14
f 74/5/14 69/4/19 70/4/19
f 72/4/20 76/5/16 73/5/16
f 76/5/16 72/4/20 71/4/20
f 69/4/21 76/5/15 71/4/21
f 76/5/15 69/4/21 75/5/15
f 73/5/16 78/6/22 77/6/22
f 78/6/22 73/5/16 76/5/16
f 79/6/23 73/5/17 77/6/23
f 73/5/17 79/6/23 74/5/17
f 76/5/15 80/6/24 78/6/24
f 80/6/24 76/5/15 75/5/15
f 75/5/14 79/6/25 80/6/25
f 79/6/25 75/5/14 74/5/14
f 80/6/26 81/2/26 78/6/26
f 81/2/26 80/6/26 82/2/26
f 77/6/27 81/2/27 83/2/27
f 81/2/27 77/6/27 78/6/27
f 80/6/28 84/2/28 82/2/28
f 84/2/28 80/6/28 79/6/28
f 83/2/29 79/6/29 77/6/29
f 79/6/29 83/2/29 84/2/29
f 87/8/30 86/7/31 85/7/30
f 86/7/31 87/8/30 88/8/31
f 91/7/33 90/8/32 89/7/32
f 90/8/32 91/7/33 92/8/33
f 95/8/35 94/7/34 93/8/34
f 94/7/34 95/8/35 96/7/35
f 99/8/36 98/7/37 97/7/36
f 98/7/37 99/8/36 100/8/37
f 88/8/31 101/7/38 86/7/31
f 101/7/38 88/8/31 102/8/38
f 103/8/39 96/7/35 95/8/35
f 96/7/35 103/8/39 104/7/39
f 103/8/39 97/7/36 104/7/39
f 97/7/36 103/8/39 99/8/36
f 106/8/40 85/7/30 105/7/40
f 85/7/30 106/8/40 87/8/30
f 100/8/37 107/7/41 98/7/37
f 107/7/41 100/8/37 108/8/41
f 89/7/32 106/8/40 105/7/40
f 106/8/40 89/7/32 90/8/32
f 107/7/41 92/8/33 91/7/33
f 92/8/33 107/7/41 108/8/41
f 93/8/34 101/7/38 102/8/38
f 101/7/38 93/8/34 94/7/34
f 104/7/42 94/7/42 96/7/42
f 94/7/42 104/7/42 101/7/42
f 101/7/42 104/7/42 97/7/42
f 101/7/42 97/7/42 86/7/42
f 86/7/42 97/7/42 98/7/42
f 86/7/42 98/7/42 85/7/42
f 85/7/42 98/7/42 107/7/42
f 85/7/42 107/7/42 105/7/42
f 105/7/42 107/7/42 91/7/42
f 105/7/42 91/7/42 89/7/42
f 102/8/1 95/8/1 93/8/1
f 95/8/1 102/8/1 103/8/1
f 103/8/1 102/8/1 88/8/1
f 103/8/1 88/8/1 99/8/1
f 99/8/1 88/8/1 87/8/1
f 99/8/1 87/8/1 100/8/1
f 100/8/1 87/8/1 106/8/1
f 100/8/1 106/8/1 108/8/1
f 108/8/1 106/8/1 90/8/1
f 108/8/1 90/8/1 92/8/1

