# Created by Kenney (www.kenney.nl)

mtllib brick-wall.mtl

g brick-wall

v 0.5 0.55 -0.22 1 1 1
v 0.5 0.55 -0.48 1 1 1
v -0.5 0.55 -0.22 1 1 1
v -0.5 0.55 -0.48 1 1 1
v -0.5 0.57 -0.5 1 1 1
v 0.5 0.57 -0.5 1 1 1
v -0.5 0.68 -0.5 1 1 1
v 0.5 0.68 -0.5 1 1 1
v 0.5 0.57 -0.2 1 1 1
v -0.5 0.57 -0.2 1 1 1
v 0.5 0.68 -0.2 1 1 1
v -0.5 0.68 -0.2 1 1 1
v 0.5 0.7 -0.48 1 1 1
v 0.5 0.725 -0.35 1 1 1
v -0.5 0.7 -0.48 1 1 1
v -0.5 0.725 -0.35 1 1 1
v 0.5 0.7 -0.22 1 1 1
v -0.5 0.7 -0.22 1 1 1
v 0.5 0 -0.2 1 1 1
v 0.5 0 -0.5 1 1 1
v -0.5 0 -0.2 1 1 1
v -0.5 0 -0.5 1 1 1
v -0.5 0.18 -0.5 1 1 1
v 0.5 0.18 -0.5 1 1 1
v 0.5 0.18 -0.2 1 1 1
v -0.5 0.18 -0.2 1 1 1
v 0.5 0.2 -0.48 1 1 1
v 0.5 0.2 -0.22 1 1 1
v -0.5 0.2 -0.48 1 1 1
v -0.5 0.2 -0.22 1 1 1
v -0.2359061 0.4511054 -0.2298839 1 1 1
v -0.2359061 0.4111053 -0.2298839 1 1 1
v -0.2359061 0.4511054 -0.2039699 1 1 1
v -0.2359061 0.4111053 -0.2039699 1 1 1
v -0.2509061 0.4661053 -0.2298839 1 1 1
v -0.2509061 0.4661053 -0.2039699 1 1 1
v -0.3368461 0.4661053 -0.2298839 1 1 1
v -0.3368461 0.4661053 -0.2039699 1 1 1
v -0.3518461 0.4111053 -0.2298839 1 1 1
v -0.3518461 0.4511054 -0.2298839 1 1 1
v -0.3518461 0.4111053 -0.2039699 1 1 1
v -0.3518461 0.4511054 -0.2039699 1 1 1
v -0.2509061 0.3961053 -0.2039699 1 1 1
v -0.2509061 0.3961053 -0.2298839 1 1 1
v -0.3368461 0.3961053 -0.2039699 1 1 1
v -0.3368461 0.3961053 -0.2298839 1 1 1
v -0.1241836 0.3465459 -0.2262343 1 1 1
v -0.1241836 0.2897459 -0.2262343 1 1 1
v -0.1241836 0.3465459 -0.2003203 1 1 1
v -0.1241836 0.2897459 -0.2003203 1 1 1
v -0.1454836 0.367846 -0.2262343 1 1 1
v -0.1454836 0.367846 -0.2003203 1 1 1
v -0.2675184 0.367846 -0.2262343 1 1 1
v -0.2675184 0.367846 -0.2003203 1 1 1
v -0.2888184 0.2897459 -0.2262343 1 1 1
v -0.2888184 0.3465459 -0.2262343 1 1 1
v -0.2888184 0.2897459 -0.2003203 1 1 1
v -0.2888184 0.3465459 -0.2003203 1 1 1
v -0.1454836 0.2684459 -0.2003203 1 1 1
v -0.1454836 0.2684459 -0.2262343 1 1 1
v -0.2675184 0.2684459 -0.2003203 1 1 1
v -0.2675184 0.2684459 -0.2262343 1 1 1
v 0.3880384 0.4721392 -0.2306652 1 1 1
v 0.3880384 0.4321392 -0.2306652 1 1 1
v 0.3880384 0.4721392 -0.2047512 1 1 1
v 0.3880384 0.4321392 -0.2047512 1 1 1
v 0.3730384 0.4871392 -0.2306652 1 1 1
v 0.3730384 0.4871392 -0.2047512 1 1 1
v 0.2870984 0.4871392 -0.2306652 1 1 1
v 0.2870984 0.4871392 -0.2047512 1 1 1
v 0.2720984 0.4321392 -0.2306652 1 1 1
v 0.2720984 0.4721392 -0.2306652 1 1 1
v 0.2720984 0.4321392 -0.2047512 1 1 1
v 0.2720984 0.4721392 -0.2047512 1 1 1
v 0.3730384 0.4171392 -0.2047512 1 1 1
v 0.3730384 0.4171392 -0.2306652 1 1 1
v 0.2870984 0.4171392 -0.2047512 1 1 1
v 0.2870984 0.4171392 -0.2306652 1 1 1
v 0.263962 0.4637184 -0.4696476 1 1 1
v 0.263962 0.4237184 -0.4696476 1 1 1
v 0.263962 0.4637184 -0.4955616 1 1 1
v 0.263962 0.4237184 -0.4955616 1 1 1
v 0.278962 0.4787184 -0.4696476 1 1 1
v 0.278962 0.4787184 -0.4955616 1 1 1
v 0.364902 0.4787184 -0.4696476 1 1 1
v 0.364902 0.4787184 -0.4955616 1 1 1
v 0.379902 0.4237184 -0.4696476 1 1 1
v 0.379902 0.4637184 -0.4696476 1 1 1
v 0.379902 0.4237184 -0.4955616 1 1 1
v 0.379902 0.4637184 -0.4955616 1 1 1
v 0.278962 0.4087184 -0.4955616 1 1 1
v 0.278962 0.4087184 -0.4696476 1 1 1
v 0.364902 0.4087184 -0.4955616 1 1 1
v 0.364902 0.4087184 -0.4696476 1 1 1
v 0.09944058 0.3546433 -0.4734649 1 1 1
v 0.09944058 0.2978433 -0.4734649 1 1 1
v 0.09944058 0.3546433 -0.4993789 1 1 1
v 0.09944058 0.2978433 -0.4993789 1 1 1
v 0.1207406 0.3759434 -0.4734649 1 1 1
v 0.1207406 0.3759434 -0.4993789 1 1 1
v 0.2427754 0.3759434 -0.4734649 1 1 1
v 0.2427754 0.3759434 -0.4993789 1 1 1
v 0.2640754 0.2978433 -0.4734649 1 1 1
v 0.2640754 0.3546433 -0.4734649 1 1 1
v 0.2640754 0.2978433 -0.4993789 1 1 1
v 0.2640754 0.3546433 -0.4993789 1 1 1
v 0.1207406 0.2765433 -0.4993789 1 1 1
v 0.1207406 0.2765433 -0.4734649 1 1 1
v 0.2427754 0.2765433 -0.4993789 1 1 1
v 0.2427754 0.2765433 -0.4734649 1 1 1
v -0.4217544 0.4364757 -0.4706594 1 1 1
v -0.4217544 0.3964757 -0.4706594 1 1 1
v -0.4217544 0.4364757 -0.4965734 1 1 1
v -0.4217544 0.3964757 -0.4965734 1 1 1
v -0.4067544 0.4514757 -0.4706594 1 1 1
v -0.4067544 0.4514757 -0.4965734 1 1 1
v -0.3208144 0.4514757 -0.4706594 1 1 1
v -0.3208144 0.4514757 -0.4965734 1 1 1
v -0.3058144 0.3964757 -0.4706594 1 1 1
v -0.3058144 0.4364757 -0.4706594 1 1 1
v -0.3058144 0.3964757 -0.4965734 1 1 1
v -0.3058144 0.4364757 -0.4965734 1 1 1
v -0.4067544 0.3814757 -0.4965734 1 1 1
v -0.4067544 0.3814757 -0.4706594 1 1 1
v -0.3208144 0.3814757 -0.4965734 1 1 1
v -0.3208144 0.3814757 -0.4706594 1 1 1
v -0.5 0.55 -0.467 1 1 1
v -0.5 0.55 -0.233 1 1 1
v 0.5 0.55 -0.233 1 1 1
v 0.5 0.55 -0.467 1 1 1

vn 0 -0.9238795 0.3826834
vn 0 -0.9238795 -0.3826834
vn 0 0 -1
vn 0 0 1
vn 0 0.8834162 -0.4685894
vn 0 1 0
vn 0 -0.7071068 -0.7071068
vn 0 -0.7071068 0.7071068
vn 0 0.7071068 0.7071068
vn 0 0.8834162 0.4685894
vn 0 0.7071068 -0.7071068
vn -1 0 0
vn 1 0 0
vn 0 -1 0
vn 0 0.3826834 -0.9238795
vn 0 0.3826834 0.9238795
vn 0 0.9238795 -0.3826834
vn 0 0.9238795 0.3826834
vn 0.9238795 0.3826834 0
vn 0.9238795 -0.3826834 0
vn -0.9238795 -0.3826834 0
vn -0.9238795 0.3826834 0
vn 0.7071068 -0.7071068 0
vn -0.7071068 -0.7071068 0
vn -0.7071068 0.7071068 0
vn 0.7071068 0.7071068 0
vn -0.9238795 0.3826834 1.741147E-14
vn -0.9238795 -0.3826834 1.741147E-14
vn 0.9238795 -0.3826834 -1.741147E-14
vn 0.9238795 0.3826834 -1.741147E-14
vn -0.7071068 -0.7071068 1.332616E-14
vn 0.7071068 -0.7071068 -1.332616E-14
vn 0.7071068 0.7071068 -1.332616E-14
vn -0.7071068 0.7071068 1.332616E-14
vn -1.884604E-14 0 -1
vn -0.9238795 0.3826834 1.741147E-14
vn -0.9238795 -0.3826834 1.741147E-14
vn 0.9238795 -0.3826834 -1.741147E-14
vn 0.9238795 0.3826834 -1.741147E-14
vn 0 0.03711726 0.9993109
vn 0 0.03711726 -0.9993109

vt 0.96875 0.075
vt 0.96875 0.08642857
vt 0.96875 0.1492857
vt 0.96875 0.1607143
vt 0.96875 0.175
vt 0.96875 0.165
vt 0.34375 0.1535714
vt 0.34375 0.09642857
vt 0.34375 0.175
vt 0.34375 0.075
vt 0.34375 0.065
vt 0.34375 0.135

usemtl colormap

f 3/1/1 2/1/2 1/1/1
f 2/1/2 3/1/1 4/1/2
f 7/3/3 6/2/3 5/2/3
f 6/2/3 7/3/3 8/3/3
f 11/3/4 10/2/4 9/2/4
f 10/2/4 11/3/4 12/3/4
f 15/4/5 14/5/6 13/4/5
f 14/5/6 15/4/5 16/5/6
f 5/2/7 2/1/2 4/1/2
f 2/1/2 5/2/7 6/2/7
f 9/2/8 3/1/1 1/1/1
f 3/1/1 9/2/8 10/2/8
f 17/4/10 12/3/9 11/3/9
f 12/3/9 17/4/10 18/4/10
f 15/4/5 8/3/11 7/3/11
f 8/3/11 15/4/5 13/4/5
f 4/1/12 7/3/12 5/2/12
f 7/3/12 4/1/12 15/4/12
f 15/4/12 4/1/12 3/1/12
f 15/4/12 3/1/12 16/5/12
f 16/5/12 3/1/12 18/4/12
f 18/4/12 3/1/12 10/2/12
f 18/4/12 10/2/12 12/3/12
f 13/4/13 6/2/13 8/3/13
f 6/2/13 13/4/13 2/1/13
f 2/1/13 13/4/13 14/5/13
f 2/1/13 14/5/13 1/1/13
f 1/1/13 14/5/13 17/4/13
f 1/1/13 17/4/13 11/3/13
f 1/1/13 11/3/13 9/2/13
f 16/5/6 17/4/10 14/5/6
f 17/4/10 16/5/6 18/4/10
f 21/1/14 20/1/14 19/1/14
f 20/1/14 21/1/14 22/1/14
f 23/6/15 20/1/3 22/1/3
f 20/1/3 23/6/15 24/6/15
f 25/6/16 21/1/4 19/1/4
f 21/1/4 25/6/16 26/6/16
f 29/5/17 28/5/18 27/5/17
f 28/5/18 29/5/17 30/5/18
f 28/5/18 26/6/16 25/6/16
f 26/6/16 28/5/18 30/5/18
f 29/5/17 24/6/15 23/6/15
f 24/6/15 29/5/17 27/5/17
f 27/5/13 20/1/13 24/6/13
f 20/1/13 27/5/13 19/1/13
f 19/1/13 27/5/13 28/5/13
f 19/1/13 28/5/13 25/6/13
f 21/1/12 23/6/12 22/1/12
f 23/6/12 21/1/12 29/5/12
f 29/5/12 21/1/12 30/5/12
f 30/5/12 21/1/12 26/6/12
f 33/7/19 32/8/20 31/7/19
f 32/8/20 33/7/19 34/8/20
f 37/9/6 36/9/6 35/9/6
f 36/9/6 37/9/6 38/9/6
f 41/8/21 40/7/22 39/8/21
f 40/7/22 41/8/21 42/7/22
f 45/10/14 44/10/14 43/10/14
f 44/10/14 45/10/14 46/10/14
f 34/8/20 44/10/23 32/8/20
f 44/10/23 34/8/20 43/10/23
f 45/10/24 39/8/21 46/10/24
f 39/8/21 45/10/24 41/8/21
f 42/7/22 37/9/25 40/7/22
f 37/9/25 42/7/22 38/9/25
f 36/9/26 31/7/19 35/9/26
f 31/7/19 36/9/26 33/7/19
f 34/8/4 45/10/4 43/10/4
f 45/10/4 34/8/4 41/8/4
f 41/8/4 34/8/4 33/7/4
f 41/8/4 33/7/4 42/7/4
f 42/7/4 33/7/4 36/9/4
f 42/7/4 36/9/4 38/9/4
f 49/7/19 48/8/20 47/7/19
f 48/8/20 49/7/19 50/8/20
f 53/9/6 52/9/6 51/9/6
f 52/9/6 53/9/6 54/9/6
f 57/8/21 56/7/22 55/8/21
f 56/7/22 57/8/21 58/7/22
f 61/10/14 60/10/14 59/10/14
f 60/10/14 61/10/14 62/10/14
f 50/8/20 60/10/23 48/8/20
f 60/10/23 50/8/20 59/10/23
f 61/10/24 55/8/21 62/10/24
f 55/8/21 61/10/24 57/8/21
f 58/7/22 53/9/25 56/7/22
f 53/9/25 58/7/22 54/9/25
f 52/9/26 47/7/19 51/9/26
f 47/7/19 52/9/26 49/7/19
f 50/8/4 61/10/4 59/10/4
f 61/10/4 50/8/4 57/8/4
f 57/8/4 50/8/4 49/7/4
f 57/8/4 49/7/4 58/7/4
f 58/7/4 49/7/4 52/9/4
f 58/7/4 52/9/4 54/9/4
f 65/7/19 64/8/20 63/7/19
f 64/8/20 65/7/19 66/8/20
f 69/9/6 68/9/6 67/9/6
f 68/9/6 69/9/6 70/9/6
f 73/8/21 72/7/22 71/8/21
f 72/7/22 73/8/21 74/7/22
f 77/10/14 76/10/14 75/10/14
f 76/10/14 77/10/14 78/10/14
f 66/8/20 76/10/23 64/8/20
f 76/10/23 66/8/20 75/10/23
f 77/10/24 71/8/21 78/10/24
f 71/8/21 77/10/24 73/8/21
f 74/7/22 69/9/25 72/7/22
f 69/9/25 74/7/22 70/9/25
f 68/9/26 63/7/19 67/9/26
f 63/7/19 68/9/26 65/7/19
f 66/8/4 77/10/4 75/10/4
f 77/10/4 66/8/4 73/8/4
f 73/8/4 66/8/4 65/7/4
f 73/8/4 65/7/4 74/7/4
f 74/7/4 65/7/4 68/9/4
f 74/7/4 68/9/4 70/9/4
f 81/7/27 80/8/28 79/7/27
f 80/8/28 81/7/27 82/8/28
f 85/9/6 84/9/6 83/9/6
f 84/9/6 85/9/6 86/9/6
f 89/8/29 88/7/30 87/8/29
f 88/7/30 89/8/29 90/7/30
f 93/10/14 92/10/14 91/10/14
f 92/10/14 93/10/14 94/10/14
f 82/8/28 92/10/31 80/8/28
f 92/10/31 82/8/28 91/10/31
f 93/10/32 87/8/29 94/10/32
f 87/8/29 93/10/32 89/8/29
f 90/7/30 85/9/33 88/7/30
f 85/9/33 90/7/30 86/9/33
f 84/9/34 79/7/27 83/9/34
f 79/7/27 84/9/34 81/7/27
f 82/8/35 93/10/35 91/10/35
f 93/10/35 82/8/35 89/8/35
f 89/8/35 82/8/35 81/7/35
f 89/8/35 81/7/35 90/7/35
f 90/7/35 81/7/35 84/9/35
f 90/7/35 84/9/35 86/9/35
f 97/7/36 96/8/37 95/7/36
f 96/8/37 97/7/36 98/8/37
f 101/9/6 100/9/6 99/9/6
f 100/9/6 101/9/6 102/9/6
f 105/8/38 104/7/39 103/8/38
f 104/7/39 105/8/38 106/7/39
f 109/10/14 108/10/14 107/10/14
f 108/10/14 109/10/14 110/10/14
f 98/8/37 108/10/31 96/8/37
f 108/10/31 98/8/37 107/10/31
f 109/10/32 103/8/38 110/10/32
f 103/8/38 109/10/32 105/8/38
f 106/7/39 101/9/33 104/7/39
f 101/9/33 106/7/39 102/9/33
f 100/9/34 95/7/36 99/9/34
f 95/7/36 100/9/34 97/7/36
f 98/8/35 109/10/35 107/10/35
f 109/10/35 98/8/35 105/8/35
f 105/8/35 98/8/35 97/7/35
f 105/8/35 97/7/35 106/7/35
f 106/7/35 97/7/35 100/9/35
f 106/7/35 100/9/35 102/9/35
f 113/7/27 112/8/28 111/7/27
f 112/8/28 113/7/27 114/8/28
f 117/9/6 116/9/6 115/9/6
f 116/9/6 117/9/6 118/9/6
f 121/8/29 120/7/30 119/8/29
f 120/7/30 121/8/29 122/7/30
f 125/10/14 124/10/14 123/10/14
f 124/10/14 125/10/14 126/10/14
f 114/8/28 124/10/31 112/8/28
f 124/10/31 114/8/28 123/10/31
f 125/10/32 119/8/29 126/10/32
f 119/8/29 125/10/32 121/8/29
f 122/7/30 117/9/33 120/7/30
f 117/9/33 122/7/30 118/9/33
f 116/9/34 111/7/27 115/9/34
f 111/7/27 116/9/34 113/7/27
f 114/8/35 125/10/35 123/10/35
f 125/10/35 114/8/35 121/8/35
f 121/8/35 114/8/35 113/7/35
f 121/8/35 113/7/35 122/7/35
f 122/7/35 113/7/35 116/9/35
f 122/7/35 116/9/35 118/9/35
f 30/11/12 127/12/12 29/11/12
f 127/12/12 30/11/12 128/12/12
f 129/12/40 30/11/40 28/11/40
f 30/11/40 129/12/40 128/12/40
f 130/12/13 28/11/13 27/11/13
f 28/11/13 130/12/13 129/12/13
f 127/12/41 27/11/41 29/11/41
f 27/11/41 127/12/41 130/12/41

g brick-wall




usemtl colormap

f 3/1/1 2/1/2 1/1/1
f 2/1/2 3/1/1 4/1/2
f 7/3/3 6/2/3 5/2/3
f 6/2/3 7/3/3 8/3/3
f 11/3/4 10/2/4 9/2/4
f 10/2/4 11/3/4 12/3/4
f 15/4/5 14/5/6 13/4/5
f 14/5/6 15/4/5 16/5/6
f 5/2/7 2/1/2 4/1/2
f 2/1/2 5/2/7 6/2/7
f 9/2/8 3/1/1 1/1/1
f 3/1/1 9/2/8 10/2/8
f 17/4/10 12/3/9 11/3/9
f 12/3/9 17/4/10 18/4/10
f 15/4/5 8/3/11 7/3/11
f 8/3/11 15/4/5 13/4/5
f 4/1/12 7/3/12 5/2/12
f 7/3/12 4/1/12 15/4/12
f 15/4/12 4/1/12 3/1/12
f 15/4/12 3/1/12 16/5/12
f 16/5/12 3/1/12 18/4/12
f 18/4/12 3/1/12 10/2/12
f 18/4/12 10/2/12 12/3/12
f 13/4/13 6/2/13 8/3/13
f 6/2/13 13/4/13 2/1/13
f 2/1/13 13/4/13 14/5/13
f 2/1/13 14/5/13 1/1/13
f 1/1/13 14/5/13 17/4/13
f 1/1/13 17/4/13 11/3/13
f 1/1/13 11/3/13 9/2/13
f 16/5/6 17/4/10 14/5/6
f 17/4/10 16/5/6 18/4/10
f 21/1/14 20/1/14 19/1/14
f 20/1/14 21/1/14 22/1/14
f 23/6/15 20/1/3 22/1/3
f 20/1/3 23/6/15 24/6/15
f 25/6/16 21/1/4 19/1/4
f 21/1/4 25/6/16 26/6/16
f 29/5/17 28/5/18 27/5/17
f 28/5/18 29/5/17 30/5/18
f 28/5/18 26/6/16 25/6/16
f 26/6/16 28/5/18 30/5/18
f 29/5/17 24/6/15 23/6/15
f 24/6/15 29/5/17 27/5/17
f 27/5/13 20/1/13 24/6/13
f 20/1/13 27/5/13 19/1/13
f 19/1/13 27/5/13 28/5/13
f 19/1/13 28/5/13 25/6/13
f 21/1/12 23/6/12 22/1/12
f 23/6/12 21/1/12 29/5/12
f 29/5/12 21/1/12 30/5/12
f 30/5/12 21/1/12 26/6/12
f 33/7/19 32/8/20 31/7/19
f 32/8/20 33/7/19 34/8/20
f 37/9/6 36/9/6 35/9/6
f 36/9/6 37/9/6 38/9/6
f 41/8/21 40/7/22 39/8/21
f 40/7/22 41/8/21 42/7/22
f 45/10/14 44/10/14 43/10/14
f 44/10/14 45/10/14 46/10/14
f 34/8/20 44/10/23 32/8/20
f 44/10/23 34/8/20 43/10/23
f 45/10/24 39/8/21 46/10/24
f 39/8/21 45/10/24 41/8/21
f 42/7/22 37/9/25 40/7/22
f 37/9/25 42/7/22 38/9/25
f 36/9/26 31/7/19 35/9/26
f 31/7/19 36/9/26 33/7/19
f 34/8/4 45/10/4 43/10/4
f 45/10/4 34/8/4 41/8/4
f 41/8/4 34/8/4 33/7/4
f 41/8/4 33/7/4 42/7/4
f 42/7/4 33/7/4 36/9/4
f 42/7/4 36/9/4 38/9/4
f 49/7/19 48/8/20 47/7/19
f 48/8/20 49/7/19 50/8/20
f 53/9/6 52/9/6 51/9/6
f 52/9/6 53/9/6 54/9/6
f 57/8/21 56/7/22 55/8/21
f 56/7/22 57/8/21 58/7/22
f 61/10/14 60/10/14 59/10/14
f 60/10/14 61/10/14 62/10/14
f 50/8/20 60/10/23 48/8/20
f 60/10/23 50/8/20 59/10/23
f 61/10/24 55/8/21 62/10/24
f 55/8/21 61/10/24 57/8/21
f 58/7/22 53/9/25 56/7/22
f 53/9/25 58/7/22 54/9/25
f 52/9/26 47/7/19 51/9/26
f 47/7/19 52/9/26 49/7/19
f 50/8/4 61/10/4 59/10/4
f 61/10/4 50/8/4 57/8/4
f 57/8/4 50/8/4 49/7/4
f 57/8/4 49/7/4 58/7/4
f 58/7/4 49/7/4 52/9/4
f 58/7/4 52/9/4 54/9/4
f 65/7/19 64/8/20 63/7/19
f 64/8/20 65/7/19 66/8/20
f 69/9/6 68/9/6 67/9/6
f 68/9/6 69/9/6 70/9/6
f 73/8/21 72/7/22 71/8/21
f 72/7/22 73/8/21 74/7/22
f 77/10/14 76/10/14 75/10/14
f 76/10/14 77/10/14 78/10/14
f 66/8/20 76/10/23 64/8/20
f 76/10/23 66/8/20 75/10/23
f 77/10/24 71/8/21 78/10/24
f 71/8/21 77/10/24 73/8/21
f 74/7/22 69/9/25 72/7/22
f 69/9/25 74/7/22 70/9/25
f 68/9/26 63/7/19 67/9/26
f 63/7/19 68/9/26 65/7/19
f 66/8/4 77/10/4 75/10/4
f 77/10/4 66/8/4 73/8/4
f 73/8/4 66/8/4 65/7/4
f 73/8/4 65/7/4 74/7/4
f 74/7/4 65/7/4 68/9/4
f 74/7/4 68/9/4 70/9/4
f 81/7/27 80/8/28 79/7/27
f 80/8/28 81/7/27 82/8/28
f 85/9/6 84/9/6 83/9/6
f 84/9/6 85/9/6 86/9/6
f 89/8/29 88/7/30 87/8/29
f 88/7/30 89/8/29 90/7/30
f 93/10/14 92/10/14 91/10/14
f 92/10/14 93/10/14 94/10/14
f 82/8/28 92/10/31 80/8/28
f 92/10/31 82/8/28 91/10/31
f 93/10/32 87/8/29 94/10/32
f 87/8/29 93/10/32 89/8/29
f 90/7/30 85/9/33 88/7/30
f 85/9/33 90/7/30 86/9/33
f 84/9/34 79/7/27 83/9/34
f 79/7/27 84/9/34 81/7/27
f 82/8/35 93/10/35 91/10/35
f 93/10/35 82/8/35 89/8/35
f 89/8/35 82/8/35 81/7/35
f 89/8/35 81/7/35 90/7/35
f 90/7/35 81/7/35 84/9/35
f 90/7/35 84/9/35 86/9/35
f 97/7/36 96/8/37 95/7/36
f 96/8/37 97/7/36 98/8/37
f 101/9/6 100/9/6 99/9/6
f 100/9/6 101/9/6 102/9/6
f 105/8/38 104/7/39 103/8/38
f 104/7/39 105/8/38 106/7/39
f 109/10/14 108/10/14 107/10/14
f 108/10/14 109/10/14 110/10/14
f 98/8/37 108/10/31 96/8/37
f 108/10/31 98/8/37 107/10/31
f 109/10/32 103/8/38 110/10/32
f 103/8/38 109/10/32 105/8/38
f 106/7/39 101/9/33 104/7/39
f 101/9/33 106/7/39 102/9/33
f 100/9/34 95/7/36 99/9/34
f 95/7/36 100/9/34 97/7/36
f 98/8/35 109/10/35 107/10/35
f 109/10/35 98/8/35 105/8/35
f 105/8/35 98/8/35 97/7/35
f 105/8/35 97/7/35 106/7/35
f 106/7/35 97/7/35 100/9/35
f 106/7/35 100/9/35 102/9/35
f 113/7/27 112/8/28 111/7/27
f 112/8/28 113/7/27 114/8/28
f 117/9/6 116/9/6 115/9/6
f 116/9/6 117/9/6 118/9/6
f 121/8/29 120/7/30 119/8/29
f 120/7/30 121/8/29 122/7/30
f 125/10/14 124/10/14 123/10/14
f 124/10/14 125/10/14 126/10/14
f 114/8/28 124/10/31 112/8/28
f 124/10/31 114/8/28 123/10/31
f 125/10/32 119/8/29 126/10/32
f 119/8/29 125/10/32 121/8/29
f 122/7/30 117/9/33 120/7/30
f 117/9/33 122/7/30 118/9/33
f 116/9/34 111/7/27 115/9/34
f 111/7/27 116/9/34 113/7/27
f 114/8/35 125/10/35 123/10/35
f 125/10/35 114/8/35 121/8/35
f 121/8/35 114/8/35 113/7/35
f 121/8/35 113/7/35 122/7/35
f 122/7/35 113/7/35 116/9/35
f 122/7/35 116/9/35 118/9/35
f 30/11/12 127/12/12 29/11/12
f 127/12/12 30/11/12 128/12/12
f 129/12/40 30/11/40 28/11/40
f 30/11/40 129/12/40 128/12/40
f 130/12/13 28/11/13 27/11/13
f 28/11/13 130/12/13 129/12/13
f 127/12/41 27/11/41 29/11/41
f 27/11/41 127/12/41 130/12/41

