# Created by Kenney (www.kenney.nl)

mtllib coffin-old.mtl

g coffin-old

v 0.2359187 0.05 -0.1205821 1 1 1
v 0.09091396 0.05 0.368912 1 1 1
v 0.2306209 0.05 -0.1597813 1 1 1
v 0.1082022 0.05 -0.3564945 1 1 1
v 0.0858489 0.05 -0.368912 1 1 1
v -0.09091396 0.05 0.368912 1 1 1
v -0.0858489 0.05 -0.368912 1 1 1
v -0.1082022 0.05 -0.3564945 1 1 1
v -0.2359187 0.05 -0.1205821 1 1 1
v -0.2306209 0.05 -0.1597813 1 1 1
v -0.0858489 0.2 -0.368912 1 1 1
v -0.1082022 0.2 -0.3564945 1 1 1
v 0.1082022 0.2 -0.3564945 1 1 1
v 0.2306209 0.2 -0.1597813 1 1 1
v -0.2306209 0.2 -0.1597813 1 1 1
v -0.2359187 0.2 -0.1205821 1 1 1
v 0.2359187 0.2 -0.1205821 1 1 1
v 0.0858489 0.2 -0.368912 1 1 1
v -0.09091396 0.2 0.368912 1 1 1
v 0.09091396 0.2 0.368912 1 1 1
v -0.143808 0 -0.393912 1 1 1
v -0.143808 0.2 -0.393912 1 1 1
v -0.278735 0 -0.1770995 1 1 1
v -0.278735 0.2 -0.1770995 1 1 1
v 0.143808 0.2 -0.393912 1 1 1
v 0.143808 0 -0.393912 1 1 1
v 0.278735 0.2 -0.1770995 1 1 1
v 0.278735 0 -0.1770995 1 1 1
v 0.1356558 0 0.393912 1 1 1
v 0.1021761 0 0.418912 1 1 1
v 0.1356558 0.2 0.393912 1 1 1
v 0.1021761 0.2 0.418912 1 1 1
v -0.1915288 0.2 0.02926555 1 1 1
v -0.1691759 0.1475347 0.1047223 1 1 1
v -0.1499741 0.1475347 0.169542 1 1 1
v -0.1276212 0.2 0.2449988 1 1 1
v -0.2869037 0 -0.1166572 1 1 1
v -0.2869037 0.2 -0.1166572 1 1 1
v -0.1356558 0 0.393912 1 1 1
v -0.2171166 0.1475347 0.118924 1 1 1
v -0.2394695 0.2 0.04346721 1 1 1
v -0.1979148 0.1475347 0.1837437 1 1 1
v -0.175562 0.2 0.2592005 1 1 1
v -0.1356558 0.2 0.393912 1 1 1
v 0.2869037 0.2 -0.1166572 1 1 1
v 0.2869037 0 -0.1166572 1 1 1
v -0.1021761 0 0.418912 1 1 1
v -0.1021761 0.2 0.418912 1 1 1
v 0.09880425 0 -0.418912 1 1 1
v 0.09880425 0.2 -0.418912 1 1 1
v -0.09880425 0 -0.418912 1 1 1
v -0.09880425 0.2 -0.418912 1 1 1
v 0.1784805 0.1650231 0.2493485 1 1 1
v 0.1635786 0.2 0.299653 1 1 1
v 0.1305397 0.1650231 0.2351468 1 1 1
v 0.1156378 0.2 0.2854513 1 1 1
v 0.2061836 0.2 0.1558308 1 1 1
v 0.1912817 0.1650231 0.2061353 1 1 1
v 0.1582429 0.2 0.1416292 1 1 1
v 0.1433409 0.1650231 0.1919336 1 1 1
v 0.2254994 0.2 -0.08540957 1 1 1
v 0.2105975 0.1398398 -0.03510509 1 1 1
v 0.1977963 0.1398398 0.008108094 1 1 1
v 0.1828944 0.2 0.05841259 1 1 1
v 0.2734402 0.2 -0.07120791 1 1 1
v 0.2585382 0.1398398 -0.02090342 1 1 1
v 0.245737 0.1398398 0.02230976 1 1 1
v 0.2308351 0.2 0.07261425 1 1 1
v 0.0424625 0.2 -0.418912 1 1 1
v 0.0424625 0.2 -0.368912 1 1 1
v 0.01329584 0.178125 -0.418912 1 1 1
v 0.01329584 0.178125 -0.368912 1 1 1
v -0.02837083 0.178125 -0.418912 1 1 1
v -0.05753749 0.2 -0.418912 1 1 1
v -0.05753749 0.2 -0.368912 1 1 1
v -0.02837083 0.178125 -0.368912 1 1 1
v 0.05 0.15 -0.318912 1 1 1
v -0.05 0.15 -0.318912 1 1 1
v 0.05 0.15 -0.368912 1 1 1
v -0.05 0.15 -0.368912 1 1 1
v 0.05 0.05 -0.318912 1 1 1
v -0.05 0.05 -0.318912 1 1 1
v 0.05 0.05 -0.368912 1 1 1
v -0.05 0.05 -0.368912 1 1 1
v -0.1932698 0.05 -0.09018171 1 1 1
v -0.2432698 0.05 -0.09018171 1 1 1
v -0.1932698 0.15 -0.09018171 1 1 1
v -0.2432698 0.15 -0.09018171 1 1 1
v -0.1932698 0.15 -0.1901817 1 1 1
v -0.1932698 0.05 -0.1901817 1 1 1
v -0.2432698 0.05 -0.1901817 1 1 1
v -0.2432698 0.15 -0.1901817 1 1 1
v 0.2432698 0.05 -0.09018171 1 1 1
v 0.1932698 0.05 -0.09018171 1 1 1
v 0.2432698 0.15 -0.09018171 1 1 1
v 0.1932698 0.15 -0.09018171 1 1 1
v 0.2432698 0.15 -0.1901817 1 1 1
v 0.1932698 0.15 -0.1901817 1 1 1
v 0.1932698 0.05 -0.1901817 1 1 1
v 0.2432698 0.05 -0.1901817 1 1 1
v -0.05 0.05 0.318912 1 1 1
v -0.05 0.15 0.318912 1 1 1
v -0.05 0.05 0.368912 1 1 1
v -0.05 0.15 0.368912 1 1 1
v 0.05 0.15 0.368912 1 1 1
v 0.05 0.15 0.318912 1 1 1
v 0.05 0.05 0.318912 1 1 1
v 0.05 0.05 0.368912 1 1 1
v -0.1077248 0.05 -0.2339596 1 1 1
v -0.08687007 0.05 -0.2441756 1 1 1
v -0.1077248 0.1 -0.2339596 1 1 1
v -0.08687007 0.1 -0.2441756 1 1 1
v -0.05562293 0.05 -0.2310387 1 1 1
v -0.02199366 0.05 -0.226792 1 1 1
v -0.05562293 0.1 -0.2310387 1 1 1
v -0.02199366 0.1 -0.226792 1 1 1
v -0.009040959 0.05 -0.2075174 1 1 1
v -0.009040959 0.1 -0.2075174 1 1 1
v -0.09373929 0.05 0.04096628 1 1 1
v -0.1249864 0.05 0.02782937 1 1 1
v -0.09373929 0.1 0.04096628 1 1 1
v -0.1249864 0.1 0.02782937 1 1 1
v -0.1586157 0.05 0.0235827 1 1 1
v -0.1715684 0.05 0.004308067 1 1 1
v -0.1586157 0.1 0.0235827 1 1 1
v -0.1715684 0.1 0.004308067 1 1 1
v -0.0728846 0.1 0.03075031 1 1 1
v -0.0728846 0.05 0.03075031 1 1 1

vn 0 1 0
vn 0.2508241 0 0.9680327
vn 0.6893522 0 0.7244263
vn -0.6893522 0 0.7244263
vn -0.9409052 0 0.3386703
vn 0.9409052 0 0.3386703
vn 0.9970499 0 -0.07675541
vn -0.9970499 0 -0.07675541
vn -0.2508241 0 0.9680327
vn 0.5983171 0 -0.8012594
vn -0.5983171 0 -0.8012594
vn -0.6893522 0 -0.7244263
vn -0.9409052 0 -0.3386703
vn 0.6893522 0 -0.7244263
vn 0.9409052 0 -0.3386703
vn 0.8203934 0 0.5717995
vn 0.3152305 0 0.9490151
vn 0.9588144 0 -0.2840334
vn -0.9970499 0 0.07675541
vn -0.8203934 0 0.5717995
vn -0.9588144 0 0.2840334
vn 0.9970499 0 0.07675541
vn -0.3152305 0 0.9490151
vn 0.2508241 0 -0.9680327
vn -0.2508241 0 -0.9680327
vn 0 -1 0
vn 0.08230835 0.957092 -0.2778492
vn 0.1575533 0.8320503 -0.5318545
vn -0.1575533 0.8320503 0.5318545
vn -0.08230835 0.957092 0.2778492
vn -0.9588144 0 -0.2840334
vn 0.9588144 0 0.2840334
vn 0.1175804 0.910292 -0.3969174
vn 0.214065 0.6572629 -0.7226214
vn -0.1175804 0.910292 0.3969174
vn -0.214065 0.6572629 0.7226214
vn 0.08230835 0.957092 0.2778492
vn 0.1575533 0.8320503 0.5318545
vn -0.08230835 0.957092 -0.2778492
vn -0.1575533 0.8320503 -0.5318545
vn -0.6 0.8 0
vn -0.3162278 0.9486833 0
vn 0 0 -1
vn 0 0 1
vn 0.3162278 0.9486833 0
vn 0.6 0.8 0
vn 1 0 0
vn -1 0 0
vn -0.7721715 0 -0.6354141
vn -0.02875693 0 -0.9995863
vn 0.1252843 0 -0.9921208
vn 0.5246974 0 -0.8512886
vn 0.9864272 0 -0.164199
vn 0.3875611 0 -0.9218439
vn 0.02875693 0 0.9995863
vn -0.3875611 0 0.9218439
vn -0.5246974 0 0.8512886
vn -0.9864272 0 0.164199
vn -0.1252843 0 0.9921208
vn 0.7721715 0 0.6354141

vt 0.34375 0.325
vt 0.21875 0.325
vt 0.21875 0.475
vt 0.21875 0.275
vt 0.21875 0.4225347
vt 0.21875 0.4400231
vt 0.21875 0.4148398
vt 0.21875 0.453125
vt 0.21875 0.355

usemtl colormap

f 3/1/1 2/1/1 1/1/1
f 2/1/1 3/1/1 4/1/1
f 2/1/1 4/1/1 5/1/1
f 2/1/1 5/1/1 6/1/1
f 6/1/1 5/1/1 7/1/1
f 6/1/1 7/1/1 8/1/1
f 6/1/1 8/1/1 9/1/1
f 9/1/1 8/1/1 10/1/1
f 11/3/2 8/2/3 7/2/2
f 8/2/3 11/3/2 12/3/3
f 3/2/5 13/3/4 4/2/4
f 13/3/4 3/2/5 14/3/5
f 15/3/6 8/2/3 12/3/3
f 8/2/3 15/3/6 10/2/6
f 16/3/7 10/2/6 15/3/6
f 10/2/6 16/3/7 9/2/7
f 1/2/8 14/3/5 3/2/5
f 14/3/5 1/2/8 17/3/8
f 13/3/4 5/2/9 4/2/4
f 5/2/9 13/3/4 18/3/9
f 19/3/10 2/2/11 6/2/10
f 2/2/11 19/3/10 20/3/11
f 23/4/13 22/3/12 21/4/12
f 22/3/12 23/4/13 24/3/13
f 27/3/15 26/4/14 25/3/14
f 26/4/14 27/3/15 28/4/15
f 31/3/16 30/4/17 29/4/16
f 30/4/17 31/3/16 32/3/17
f 33/3/18 9/2/7 16/3/7
f 9/2/7 33/3/18 34/5/18
f 9/2/7 34/5/18 6/2/10
f 6/2/10 34/5/18 35/5/18
f 6/2/10 35/5/18 36/3/18
f 6/2/10 36/3/18 19/3/10
f 37/4/19 24/3/13 23/4/13
f 24/3/13 37/4/19 38/3/19
f 39/4/20 38/3/19 37/4/19
f 38/3/19 39/4/20 40/5/21
f 38/3/19 40/5/21 41/3/21
f 40/5/21 39/4/20 42/5/21
f 42/5/21 39/4/20 43/3/21
f 43/3/21 39/4/20 44/3/20
f 45/3/22 28/4/15 27/3/15
f 28/4/15 45/3/22 46/4/22
f 48/3/23 39/4/20 47/4/23
f 39/4/20 48/3/23 44/3/20
f 50/3/24 26/4/14 49/4/24
f 26/4/14 50/3/24 25/3/14
f 32/3/17 47/4/23 30/4/17
f 47/4/23 32/3/17 48/3/23
f 22/3/12 51/4/25 21/4/12
f 51/4/25 22/3/12 52/3/25
f 29/4/26 28/4/26 46/4/26
f 28/4/26 29/4/26 26/4/26
f 26/4/26 29/4/26 49/4/26
f 49/4/26 29/4/26 30/4/26
f 49/4/26 30/4/26 47/4/26
f 49/4/26 47/4/26 51/4/26
f 51/4/26 47/4/26 21/4/26
f 21/4/26 47/4/26 39/4/26
f 21/4/26 39/4/26 37/4/26
f 21/4/26 37/4/26 23/4/26
f 55/6/27 54/3/28 53/6/27
f 54/3/28 55/6/27 56/3/28
f 59/3/29 58/6/30 57/3/29
f 58/6/30 59/3/29 60/6/30
f 60/6/30 53/6/27 58/6/30
f 53/6/27 60/6/30 55/6/27
f 17/3/8 62/7/31 61/3/31
f 1/2/8 62/7/31 17/3/8
f 62/7/31 1/2/8 2/2/11
f 62/7/31 2/2/11 63/7/31
f 63/7/31 2/2/11 64/3/31
f 64/3/31 2/2/11 60/6/31
f 64/3/31 60/6/31 59/3/31
f 60/6/31 2/2/11 55/6/31
f 55/6/31 2/2/11 56/3/31
f 56/3/31 2/2/11 20/3/11
f 65/3/32 46/4/22 45/3/22
f 46/4/22 65/3/32 66/7/32
f 46/4/22 66/7/32 29/4/16
f 29/4/16 66/7/32 67/7/32
f 29/4/16 67/7/32 68/3/32
f 29/4/16 68/3/32 57/3/32
f 29/4/16 57/3/32 58/6/32
f 29/4/16 58/6/32 53/6/32
f 29/4/16 53/6/32 54/3/32
f 29/4/16 54/3/32 31/3/16
f 64/3/34 67/7/33 63/7/33
f 67/7/33 64/3/34 68/3/34
f 62/7/35 67/7/33 66/7/35
f 67/7/33 62/7/35 63/7/33
f 65/3/36 62/7/35 66/7/35
f 62/7/35 65/3/36 61/3/36
f 64/3/1 57/3/1 68/3/1
f 57/3/1 64/3/1 59/3/1
f 56/3/1 31/3/1 54/3/1
f 31/3/1 56/3/1 32/3/1
f 32/3/1 56/3/1 20/3/1
f 32/3/1 20/3/1 48/3/1
f 48/3/1 20/3/1 19/3/1
f 48/3/1 19/3/1 36/3/1
f 48/3/1 36/3/1 44/3/1
f 44/3/1 36/3/1 43/3/1
f 33/3/38 40/5/37 34/5/37
f 40/5/37 33/3/38 41/3/38
f 34/5/37 42/5/39 35/5/39
f 42/5/39 34/5/37 40/5/37
f 35/5/39 43/3/40 36/3/40
f 43/3/40 35/5/39 42/5/39
f 71/8/42 70/3/41 69/3/41
f 70/3/41 71/8/42 72/8/42
f 52/3/25 49/4/24 51/4/25
f 49/4/24 52/3/25 73/8/43
f 73/8/43 52/3/25 74/3/43
f 71/8/43 49/4/24 73/8/43
f 49/4/24 71/8/43 50/3/24
f 50/3/24 71/8/43 69/3/43
f 27/3/1 65/3/1 45/3/1
f 65/3/1 27/3/1 25/3/1
f 65/3/1 25/3/1 14/3/1
f 65/3/1 14/3/1 17/3/1
f 61/3/1 65/3/1 17/3/1
f 14/3/1 25/3/1 13/3/1
f 13/3/1 25/3/1 50/3/1
f 13/3/1 50/3/1 18/3/1
f 18/3/1 50/3/1 69/3/1
f 18/3/1 69/3/1 70/3/1
f 52/3/1 75/3/1 74/3/1
f 75/3/1 52/3/1 11/3/1
f 11/3/1 52/3/1 12/3/1
f 12/3/1 52/3/1 22/3/1
f 12/3/1 22/3/1 15/3/1
f 15/3/1 22/3/1 24/3/1
f 15/3/1 24/3/1 16/3/1
f 16/3/1 24/3/1 41/3/1
f 41/3/1 24/3/1 38/3/1
f 41/3/1 33/3/1 16/3/1
f 18/3/9 7/2/2 5/2/9
f 7/2/2 18/3/9 72/8/44
f 72/8/44 18/3/9 70/3/44
f 76/8/44 7/2/2 72/8/44
f 7/2/2 76/8/44 11/3/2
f 11/3/2 76/8/44 75/3/44
f 74/3/46 76/8/45 73/8/45
f 76/8/45 74/3/46 75/3/46
f 73/8/45 72/8/42 71/8/42
f 72/8/42 73/8/45 76/8/45
f 79/3/1 78/3/1 77/3/1
f 78/3/1 79/3/1 80/3/1
f 77/3/44 82/4/44 81/4/44
f 82/4/44 77/3/44 78/3/44
f 77/3/47 83/4/47 79/3/47
f 83/4/47 77/3/47 81/4/47
f 82/4/48 80/3/48 84/4/48
f 80/3/48 82/4/48 78/3/48
f 87/3/44 86/4/44 85/4/44
f 86/4/44 87/3/44 88/3/44
f 87/3/47 90/4/47 89/3/47
f 90/4/47 87/3/47 85/4/47
f 92/3/43 90/4/43 91/4/43
f 90/4/43 92/3/43 89/3/43
f 92/3/1 87/3/1 89/3/1
f 87/3/1 92/3/1 88/3/1
f 95/3/44 94/4/44 93/4/44
f 94/4/44 95/3/44 96/3/44
f 98/3/1 95/3/1 97/3/1
f 95/3/1 98/3/1 96/3/1
f 94/4/48 98/3/48 99/4/48
f 98/3/48 94/4/48 96/3/48
f 98/3/43 100/4/43 99/4/43
f 100/4/43 98/3/43 97/3/43
f 103/4/48 102/3/48 101/4/48
f 102/3/48 103/4/48 104/3/48
f 106/3/1 104/3/1 105/3/1
f 104/3/1 106/3/1 102/3/1
f 105/3/47 107/4/47 106/3/47
f 107/4/47 105/3/47 108/4/47
f 102/3/43 107/4/43 101/4/43
f 107/4/43 102/3/43 106/3/43
f 111/9/49 110/4/50 109/4/49
f 110/4/50 111/9/49 112/9/50
f 115/9/51 114/4/52 113/4/51
f 114/4/52 115/9/51 116/9/52
f 116/9/52 117/4/53 114/4/52
f 117/4/53 116/9/52 118/9/53
f 112/9/50 113/4/54 110/4/50
f 113/4/54 112/9/50 115/9/54
f 121/9/55 120/4/56 119/4/55
f 120/4/56 121/9/55 122/9/56
f 125/9/57 124/4/58 123/4/57
f 124/4/58 125/9/57 126/9/58
f 122/9/59 123/4/57 120/4/59
f 123/4/57 122/9/59 125/9/57
f 127/9/60 117/4/53 118/9/53
f 117/4/53 127/9/60 128/4/60
f 116/9/1 127/9/1 118/9/1
f 127/9/1 116/9/1 121/9/1
f 121/9/1 116/9/1 115/9/1
f 121/9/1 115/9/1 122/9/1
f 122/9/1 115/9/1 112/9/1
f 122/9/1 112/9/1 125/9/1
f 125/9/1 112/9/1 111/9/1
f 125/9/1 111/9/1 126/9/1
f 124/4/58 111/9/49 109/4/49
f 111/9/49 124/4/58 126/9/58
f 128/4/26 114/4/26 117/4/26
f 114/4/26 128/4/26 119/4/26
f 114/4/26 119/4/26 113/4/26
f 113/4/26 119/4/26 120/4/26
f 113/4/26 120/4/26 110/4/26
f 110/4/26 120/4/26 123/4/26
f 110/4/26 123/4/26 109/4/26
f 109/4/26 123/4/26 124/4/26
f 127/9/60 119/4/55 128/4/60
f 119/4/55 127/9/60 121/9/55

g coffin-old




usemtl colormap

f 3/1/1 2/1/1 1/1/1
f 2/1/1 3/1/1 4/1/1
f 2/1/1 4/1/1 5/1/1
f 2/1/1 5/1/1 6/1/1
f 6/1/1 5/1/1 7/1/1
f 6/1/1 7/1/1 8/1/1
f 6/1/1 8/1/1 9/1/1
f 9/1/1 8/1/1 10/1/1
f 11/3/2 8/2/3 7/2/2
f 8/2/3 11/3/2 12/3/3
f 3/2/5 13/3/4 4/2/4
f 13/3/4 3/2/5 14/3/5
f 15/3/6 8/2/3 12/3/3
f 8/2/3 15/3/6 10/2/6
f 16/3/7 10/2/6 15/3/6
f 10/2/6 16/3/7 9/2/7
f 1/2/8 14/3/5 3/2/5
f 14/3/5 1/2/8 17/3/8
f 13/3/4 5/2/9 4/2/4
f 5/2/9 13/3/4 18/3/9
f 19/3/10 2/2/11 6/2/10
f 2/2/11 19/3/10 20/3/11
f 23/4/13 22/3/12 21/4/12
f 22/3/12 23/4/13 24/3/13
f 27/3/15 26/4/14 25/3/14
f 26/4/14 27/3/15 28/4/15
f 31/3/16 30/4/17 29/4/16
f 30/4/17 31/3/16 32/3/17
f 33/3/18 9/2/7 16/3/7
f 9/2/7 33/3/18 34/5/18
f 9/2/7 34/5/18 6/2/10
f 6/2/10 34/5/18 35/5/18
f 6/2/10 35/5/18 36/3/18
f 6/2/10 36/3/18 19/3/10
f 37/4/19 24/3/13 23/4/13
f 24/3/13 37/4/19 38/3/19
f 39/4/20 38/3/19 37/4/19
f 38/3/19 39/4/20 40/5/21
f 38/3/19 40/5/21 41/3/21
f 40/5/21 39/4/20 42/5/21
f 42/5/21 39/4/20 43/3/21
f 43/3/21 39/4/20 44/3/20
f 45/3/22 28/4/15 27/3/15
f 28/4/15 45/3/22 46/4/22
f 48/3/23 39/4/20 47/4/23
f 39/4/20 48/3/23 44/3/20
f 50/3/24 26/4/14 49/4/24
f 26/4/14 50/3/24 25/3/14
f 32/3/17 47/4/23 30/4/17
f 47/4/23 32/3/17 48/3/23
f 22/3/12 51/4/25 21/4/12
f 51/4/25 22/3/12 52/3/25
f 29/4/26 28/4/26 46/4/26
f 28/4/26 29/4/26 26/4/26
f 26/4/26 29/4/26 49/4/26
f 49/4/26 29/4/26 30/4/26
f 49/4/26 30/4/26 47/4/26
f 49/4/26 47/4/26 51/4/26
f 51/4/26 47/4/26 21/4/26
f 21/4/26 47/4/26 39/4/26
f 21/4/26 39/4/26 37/4/26
f 21/4/26 37/4/26 23/4/26
f 55/6/27 54/3/28 53/6/27
f 54/3/28 55/6/27 56/3/28
f 59/3/29 58/6/30 57/3/29
f 58/6/30 59/3/29 60/6/30
f 60/6/30 53/6/27 58/6/30
f 53/6/27 60/6/30 55/6/27
f 17/3/8 62/7/31 61/3/31
f 1/2/8 62/7/31 17/3/8
f 62/7/31 1/2/8 2/2/11
f 62/7/31 2/2/11 63/7/31
f 63/7/31 2/2/11 64/3/31
f 64/3/31 2/2/11 60/6/31
f 64/3/31 60/6/31 59/3/31
f 60/6/31 2/2/11 55/6/31
f 55/6/31 2/2/11 56/3/31
f 56/3/31 2/2/11 20/3/11
f 65/3/32 46/4/22 45/3/22
f 46/4/22 65/3/32 66/7/32
f 46/4/22 66/7/32 29/4/16
f 29/4/16 66/7/32 67/7/32
f 29/4/16 67/7/32 68/3/32
f 29/4/16 68/3/32 57/3/32
f 29/4/16 57/3/32 58/6/32
f 29/4/16 58/6/32 53/6/32
f 29/4/16 53/6/32 54/3/32
f 29/4/16 54/3/32 31/3/16
f 64/3/34 67/7/33 63/7/33
f 67/7/33 64/3/34 68/3/34
f 62/7/35 67/7/33 66/7/35
f 67/7/33 62/7/35 63/7/33
f 65/3/36 62/7/35 66/7/35
f 62/7/35 65/3/36 61/3/36
f 64/3/1 57/3/1 68/3/1
f 57/3/1 64/3/1 59/3/1
f 56/3/1 31/3/1 54/3/1
f 31/3/1 56/3/1 32/3/1
f 32/3/1 56/3/1 20/3/1
f 32/3/1 20/3/1 48/3/1
f 48/3/1 20/3/1 19/3/1
f 48/3/1 19/3/1 36/3/1
f 48/3/1 36/3/1 44/3/1
f 44/3/1 36/3/1 43/3/1
f 33/3/38 40/5/37 34/5/37
f 40/5/37 33/3/38 41/3/38
f 34/5/37 42/5/39 35/5/39
f 42/5/39 34/5/37 40/5/37
f 35/5/39 43/3/40 36/3/40
f 43/3/40 35/5/39 42/5/39
f 71/8/42 70/3/41 69/3/41
f 70/3/41 71/8/42 72/8/42
f 52/3/25 49/4/24 51/4/25
f 49/4/24 52/3/25 73/8/43
f 73/8/43 52/3/25 74/3/43
f 71/8/43 49/4/24 73/8/43
f 49/4/24 71/8/43 50/3/24
f 50/3/24 71/8/43 69/3/43
f 27/3/1 65/3/1 45/3/1
f 65/3/1 27/3/1 25/3/1
f 65/3/1 25/3/1 14/3/1
f 65/3/1 14/3/1 17/3/1
f 61/3/1 65/3/1 17/3/1
f 14/3/1 25/3/1 13/3/1
f 13/3/1 25/3/1 50/3/1
f 13/3/1 50/3/1 18/3/1
f 18/3/1 50/3/1 69/3/1
f 18/3/1 69/3/1 70/3/1
f 52/3/1 75/3/1 74/3/1
f 75/3/1 52/3/1 11/3/1
f 11/3/1 52/3/1 12/3/1
f 12/3/1 52/3/1 22/3/1
f 12/3/1 22/3/1 15/3/1
f 15/3/1 22/3/1 24/3/1
f 15/3/1 24/3/1 16/3/1
f 16/3/1 24/3/1 41/3/1
f 41/3/1 24/3/1 38/3/1
f 41/3/1 33/3/1 16/3/1
f 18/3/9 7/2/2 5/2/9
f 7/2/2 18/3/9 72/8/44
f 72/8/44 18/3/9 70/3/44
f 76/8/44 7/2/2 72/8/44
f 7/2/2 76/8/44 11/3/2
f 11/3/2 76/8/44 75/3/44
f 74/3/46 76/8/45 73/8/45
f 76/8/45 74/3/46 75/3/46
f 73/8/45 72/8/42 71/8/42
f 72/8/42 73/8/45 76/8/45
f 79/3/1 78/3/1 77/3/1
f 78/3/1 79/3/1 80/3/1
f 77/3/44 82/4/44 81/4/44
f 82/4/44 77/3/44 78/3/44
f 77/3/47 83/4/47 79/3/47
f 83/4/47 77/3/47 81/4/47
f 82/4/48 80/3/48 84/4/48
f 80/3/48 82/4/48 78/3/48
f 87/3/44 86/4/44 85/4/44
f 86/4/44 87/3/44 88/3/44
f 87/3/47 90/4/47 89/3/47
f 90/4/47 87/3/47 85/4/47
f 92/3/43 90/4/43 91/4/43
f 90/4/43 92/3/43 89/3/43
f 92/3/1 87/3/1 89/3/1
f 87/3/1 92/3/1 88/3/1
f 95/3/44 94/4/44 93/4/44
f 94/4/44 95/3/44 96/3/44
f 98/3/1 95/3/1 97/3/1
f 95/3/1 98/3/1 96/3/1
f 94/4/48 98/3/48 99/4/48
f 98/3/48 94/4/48 96/3/48
f 98/3/43 100/4/43 99/4/43
f 100/4/43 98/3/43 97/3/43
f 103/4/48 102/3/48 101/4/48
f 102/3/48 103/4/48 104/3/48
f 106/3/1 104/3/1 105/3/1
f 104/3/1 106/3/1 102/3/1
f 105/3/47 107/4/47 106/3/47
f 107/4/47 105/3/47 108/4/47
f 102/3/43 107/4/43 101/4/43
f 107/4/43 102/3/43 106/3/43
f 111/9/49 110/4/50 109/4/49
f 110/4/50 111/9/49 112/9/50
f 115/9/51 114/4/52 113/4/51
f 114/4/52 115/9/51 116/9/52
f 116/9/52 117/4/53 114/4/52
f 117/4/53 116/9/52 118/9/53
f 112/9/50 113/4/54 110/4/50
f 113/4/54 112/9/50 115/9/54
f 121/9/55 120/4/56 119/4/55
f 120/4/56 121/9/55 122/9/56
f 125/9/57 124/4/58 123/4/57
f 124/4/58 125/9/57 126/9/58
f 122/9/59 123/4/57 120/4/59
f 123/4/57 122/9/59 125/9/57
f 127/9/60 117/4/53 118/9/53
f 117/4/53 127/9/60 128/4/60
f 116/9/1 127/9/1 118/9/1
f 127/9/1 116/9/1 121/9/1
f 121/9/1 116/9/1 115/9/1
f 121/9/1 115/9/1 122/9/1
f 122/9/1 115/9/1 112/9/1
f 122/9/1 112/9/1 125/9/1
f 125/9/1 112/9/1 111/9/1
f 125/9/1 111/9/1 126/9/1
f 124/4/58 111/9/49 109/4/49
f 111/9/49 124/4/58 126/9/58
f 128/4/26 114/4/26 117/4/26
f 114/4/26 128/4/26 119/4/26
f 114/4/26 119/4/26 113/4/26
f 113/4/26 119/4/26 120/4/26
f 113/4/26 120/4/26 110/4/26
f 110/4/26 120/4/26 123/4/26
f 110/4/26 123/4/26 109/4/26
f 109/4/26 123/4/26 124/4/26
f 127/9/60 119/4/55 128/4/60
f 119/4/55 127/9/60 121/9/55

