# Created by Kenney (www.kenney.nl)

mtllib crypt-door.mtl

g door

v 0.165 0.5641659 -0.0625 1 1 1
v 0.165 0.05 -0.0625 1 1 1
v 0.165 0.5641659 0.0625 1 1 1
v 0.165 0.05 0.0625 1 1 1
v 0.02330001 0.6312512 0.0625 1 1 1
v 0.02330001 0.6312512 0.0125 1 1 1
v 0 0.6358858 0.0625 1 1 1
v 0 0.6358858 0.0125 1 1 1
v -0.165 0.05 -0.0625 1 1 1
v -0.165 0.5641659 -0.0625 1 1 1
v -0.165 0.05 0.0625 1 1 1
v -0.165 0.5641659 0.0625 1 1 1
v 0.065 0.1 0.0125 1 1 1
v 0.065 0.1 0.0625 1 1 1
v -0.06500001 0.1 0.0125 1 1 1
v -0.06500001 0.1 0.0625 1 1 1
v -0.1504491 0.6373181 -0.0625 1 1 1
v -0.1504491 0.6373181 0.0625 1 1 1
v 0.06231807 0.7254491 -0.0625 1 1 1
v 0.06231807 0.7254491 0.0625 1 1 1
v 0 0.7378449 -0.0625 1 1 1
v 0 0.7378449 0.0625 1 1 1
v 0.115 0 0.0625 1 1 1
v 0.115 0 -0.0625 1 1 1
v -0.04305281 0.6180528 0.0125 1 1 1
v -0.05625121 0.5983 0.0125 1 1 1
v -0.04305281 0.6180528 0.0625 1 1 1
v -0.05625121 0.5983 0.0625 1 1 1
v -0.06500001 0.5543168 0.0125 1 1 1
v -0.06500001 0.5543168 0.0625 1 1 1
v 0.1151488 0.6901488 -0.0625 1 1 1
v 0.1504491 0.6373181 -0.0625 1 1 1
v 0.1151488 0.6901488 0.0625 1 1 1
v 0.1504491 0.6373181 0.0625 1 1 1
v -0.1151488 0.6901488 -0.0625 1 1 1
v -0.1151488 0.6901488 0.0625 1 1 1
v -0.06231809 0.7254491 -0.0625 1 1 1
v -0.06231809 0.7254491 0.0625 1 1 1
v -0.02330002 0.6312512 0.0625 1 1 1
v -0.02330002 0.6312512 0.0125 1 1 1
v 0.04305279 0.6180528 0.0625 1 1 1
v 0.05625118 0.5983 0.0625 1 1 1
v 0.065 0.5543168 0.0625 1 1 1
v -0.115 0 0.0625 1 1 1
v -0.115 0 -0.0625 1 1 1
v 0.065 0.5543168 0.0125 1 1 1
v 0.05625118 0.5983 0.0125 1 1 1
v 0.04305279 0.6180528 0.0125 1 1 1
v 0.02330001 0.6312512 -0.0625 1 1 1
v -1.490116E-08 0.6358858 -0.0625 1 1 1
v 0.02329999 0.6312512 -0.0125 1 1 1
v -1.490116E-08 0.6358858 -0.0125 1 1 1
v -0.06500001 0.5543168 -0.06250001 1 1 1
v -0.06500001 0.1 -0.06250001 1 1 1
v -0.06500001 0.5543168 -0.0125 1 1 1
v -0.06500001 0.1 -0.0125 1 1 1
v -0.05625121 0.5983 -0.06250001 1 1 1
v -0.05625121 0.5983 -0.0125 1 1 1
v -0.04305281 0.6180528 -0.06250001 1 1 1
v -0.04305281 0.6180528 -0.0125 1 1 1
v 0.065 0.1 -0.0625 1 1 1
v 0.065 0.1 -0.0125 1 1 1
v 0.065 0.5543168 -0.0625 1 1 1
v 0.05625118 0.5983 -0.0625 1 1 1
v 0.04305279 0.6180528 -0.0625 1 1 1
v -0.02330002 0.6312512 -0.06250001 1 1 1
v 0.04305279 0.6180528 -0.0125 1 1 1
v -0.02330002 0.6312512 -0.0125 1 1 1
v 0.05625118 0.5983 -0.0125 1 1 1
v 0.06499998 0.5543168 -0.0125 1 1 1

vn 0.9951847 0.09801715 0
vn 0.9238795 -0.3826834 0
vn -0.3826834 -0.9238795 0
vn 0 -1 0
vn -0.9238795 -0.3826834 0
vn -0.9951847 0.09801714 0
vn -0.7071068 0.7071068 0
vn 0.7071068 0.7071068 0
vn -0.9238795 0.3826834 0
vn 0.3826834 0.9238795 0
vn 0 1 0
vn 0.3826834 -0.9238795 0
vn 0.7071068 -0.7071068 0
vn 0.9951847 -0.09801714 0
vn 0.9238795 0.3826834 0
vn -0.3826834 0.9238795 0
vn 0 0 1
vn -0.3826834 -0.9238795 0
vn -0.9951847 -0.09801715 0
vn -0.7071068 -0.7071068 0
vn 0.9951847 -0.09801715 0
vn 0 0 -1
vn 0.3826834 -0.9238795 0
vn -0.9951847 -0.09801714 0

vt 0.09375 0.1779226
vt 0.09375 0.03855298
vt 0.09375 0.1961067
vt 0.09375 0.197363
vt 0.09375 0.05210597
vt 0.09375 0.1977512
vt 0.09375 0.22164
vt 0.09375 0.225
vt 0.09375 0.025
vt 0.09375 0.1925292
vt 0.09375 0.187175
vt 0.09375 0.1752529
vt 0.09375 0.2120715
vt 0.09375 0.1925292
vt 0.96875 0.05210597
vt 0.96875 0.1752529
vt 0.96875 0.187175
vt 0.96875 0.1925292
vt 0.96875 0.1925292
vt 0.96875 0.1961067
vt 0.96875 0.197363

usemtl colormap

f 3/1/1 2/2/2 1/1/1
f 2/2/2 3/1/1 4/2/2
f 7/4/4 6/3/3 5/3/3
f 6/3/3 7/4/4 8/4/4
f 11/2/5 10/1/6 9/2/5
f 10/1/6 11/2/5 12/1/6
f 15/5/8 14/5/7 13/5/7
f 14/5/7 15/5/8 16/5/8
f 12/1/6 17/6/9 10/1/6
f 17/6/9 12/1/6 18/6/9
f 21/8/11 20/7/10 19/7/10
f 20/7/10 21/8/11 22/8/11
f 23/9/12 2/2/2 4/2/2
f 2/2/2 23/9/12 24/9/12
f 27/10/13 26/11/2 25/10/13
f 26/11/2 27/10/13 28/11/2
f 30/12/14 15/5/8 29/12/14
f 15/5/8 30/12/14 16/5/8
f 33/13/8 32/6/15 31/13/8
f 32/6/15 33/13/8 34/6/15
f 18/6/9 35/13/7 17/6/9
f 35/13/7 18/6/9 36/13/7
f 37/7/16 22/8/11 21/8/11
f 22/8/11 37/7/16 38/7/16
f 39/3/12 8/4/4 7/4/4
f 8/4/4 39/3/12 40/3/12
f 35/13/7 38/7/16 37/7/16
f 38/7/16 35/13/7 36/13/7
f 38/7/17 20/7/17 22/8/17
f 38/7/17 33/13/17 20/7/17
f 36/13/17 33/13/17 38/7/17
f 36/13/17 34/6/17 33/13/17
f 18/6/17 34/6/17 36/13/17
f 7/4/17 34/6/17 18/6/17
f 18/6/17 39/3/17 7/4/17
f 18/6/17 27/10/17 39/3/17
f 18/6/17 28/11/17 27/10/17
f 5/3/17 34/6/17 7/4/17
f 41/14/17 34/6/17 5/3/17
f 42/11/17 34/6/17 41/14/17
f 12/1/17 28/11/17 18/6/17
f 12/1/17 30/12/17 28/11/17
f 42/11/17 3/1/17 34/6/17
f 43/12/17 3/1/17 42/11/17
f 14/5/17 3/1/17 43/12/17
f 12/1/17 16/5/17 30/12/17
f 14/5/17 4/2/17 3/1/17
f 4/2/17 14/5/17 16/5/17
f 11/2/17 16/5/17 12/1/17
f 11/2/17 4/2/17 16/5/17
f 44/9/17 4/2/17 11/2/17
f 4/2/17 44/9/17 23/9/17
f 28/11/2 29/12/14 26/11/2
f 29/12/14 28/11/2 30/12/14
f 27/10/13 40/3/12 39/3/12
f 40/3/12 27/10/13 25/10/13
f 44/9/18 9/2/5 45/9/18
f 9/2/5 44/9/18 11/2/5
f 14/5/7 46/12/19 13/5/7
f 46/12/19 14/5/7 43/12/19
f 43/12/19 47/11/5 46/12/19
f 47/11/5 43/12/19 42/11/5
f 19/7/10 33/13/8 31/13/8
f 33/13/8 19/7/10 20/7/10
f 5/3/3 48/14/20 41/14/20
f 48/14/20 5/3/3 6/3/3
f 44/9/18 24/9/12 23/9/12
f 24/9/12 44/9/18 45/9/18
f 34/6/15 1/1/1 32/6/15
f 1/1/1 34/6/15 3/1/1
f 42/11/5 48/14/20 47/11/5
f 48/14/20 42/11/5 41/14/20
f 51/3/18 50/4/4 49/3/18
f 50/4/4 51/3/18 52/4/4
f 55/12/21 54/5/8 53/12/21
f 54/5/8 55/12/21 56/5/8
f 59/14/13 58/11/2 57/11/2
f 58/11/2 59/14/13 60/14/13
f 54/5/8 62/5/7 61/5/7
f 62/5/7 54/5/8 56/5/8
f 9/2/22 24/9/22 45/9/22
f 24/9/22 9/2/22 2/2/22
f 2/2/22 9/2/22 54/5/22
f 54/5/22 9/2/22 10/1/22
f 2/2/22 54/5/22 61/5/22
f 54/5/22 10/1/22 53/12/22
f 53/12/22 10/1/22 57/11/22
f 61/5/22 1/1/22 2/2/22
f 1/1/22 61/5/22 63/12/22
f 1/1/22 63/12/22 64/11/22
f 57/11/22 10/1/22 17/6/22
f 1/1/22 64/11/22 32/6/22
f 57/11/22 17/6/22 59/14/22
f 32/6/22 64/11/22 65/10/22
f 59/14/22 17/6/22 66/3/22
f 32/6/22 65/10/22 49/3/22
f 66/3/22 17/6/22 50/4/22
f 32/6/22 49/3/22 50/4/22
f 32/6/22 50/4/22 17/6/22
f 32/6/22 17/6/22 35/13/22
f 32/6/22 35/13/22 31/13/22
f 31/13/22 35/13/22 37/7/22
f 31/13/22 37/7/22 19/7/22
f 19/7/22 37/7/22 21/8/22
f 67/10/20 49/3/18 65/10/20
f 49/3/18 67/10/20 51/3/18
f 52/4/4 66/3/23 50/4/4
f 66/3/23 52/4/4 68/3/23
f 68/3/23 59/14/13 66/3/23
f 59/14/13 68/3/23 60/14/13
f 64/11/5 67/10/20 65/10/20
f 67/10/20 64/11/5 69/11/5
f 63/12/24 69/11/5 64/11/5
f 69/11/5 63/12/24 70/12/24
f 57/11/2 55/12/21 53/12/21
f 55/12/21 57/11/2 58/11/2
f 61/5/7 70/12/24 63/12/24
f 70/12/24 61/5/7 62/5/7
f 13/15/17 29/16/17 15/15/17
f 29/16/17 13/15/17 46/16/17
f 29/16/17 46/16/17 26/17/17
f 26/17/17 46/16/17 47/17/17
f 26/17/17 47/17/17 25/18/17
f 25/18/17 47/17/17 48/19/17
f 25/18/17 48/19/17 40/20/17
f 40/20/17 48/19/17 6/20/17
f 40/20/17 6/20/17 8/21/17
f 56/15/22 70/16/22 62/15/22
f 70/16/22 56/15/22 55/16/22
f 70/16/22 55/16/22 69/17/22
f 69/17/22 55/16/22 58/17/22
f 69/17/22 58/17/22 67/18/22
f 67/18/22 58/17/22 60/19/22
f 67/18/22 60/19/22 51/20/22
f 51/20/22 60/19/22 68/20/22
f 51/20/22 68/20/22 52/21/22

