# Created by Kenney (www.kenney.nl)

mtllib debris.mtl

g debris

v -0.04745372 0.0355 0.2292573 1 1 1
v -0.0614019 0.0355 0.1720017 1 1 1
v 0.009801796 0.0355 0.2153091 1 1 1
v -0.004146388 0.0355 0.1580536 1 1 1
v -0.06869385 0 0.1675667 1 1 1
v -0.05188881 0 0.2365492 1 1 1
v 0.0002887007 0 0.1507616 1 1 1
v 0.01709374 0 0.2197442 1 1 1
v 0.02196051 0.08 -0.06641018 1 1 1
v -0.1199608 0.08 -0.1380998 1 1 1
v 0.02196051 0.16 -0.06641018 1 1 1
v -0.1199608 0.16 -0.1380998 1 1 1
v -0.08456349 0.08 -0.263623 1 1 1
v 0.05735786 0.08 -0.1919333 1 1 1
v -0.08456349 0.16 -0.263623 1 1 1
v 0.05735786 0.16 -0.1919333 1 1 1
v -0.1310036 0.16 -0.1716865 1 1 1
v -0.1310036 0.08 -0.1716865 1 1 1
v 0.06840064 0.08 -0.1583467 1 1 1
v 0.06840064 0.16 -0.1583467 1 1 1
v -0.1958712 0.0355 -0.07448278 1 1 1
v -0.2376325 0.0355 -0.03290466 1 1 1
v -0.2374493 0.0355 -0.1162441 1 1 1
v -0.2792107 0.0355 -0.07466596 1 1 1
v -0.2376513 0 -0.0243699 1 1 1
v -0.1873365 0 -0.07446402 1 1 1
v -0.2877454 0 -0.07468472 1 1 1
v -0.2374306 0 -0.1247788 1 1 1
v -0.2014621 0.08 0.08930013 1 1 1
v -0.2106127 0.08 0.0551495 1 1 1
v -0.1122616 0.08 0.1408001 1 1 1
v -0.1311125 0.08 -0.08254838 1 1 1
v -0.02026132 0.08 -0.01854841 1 1 1
v -0.2106127 0 0.0551495 1 1 1
v -0.1311125 0 -0.08254838 1 1 1
v -0.02026132 0 -0.01854841 1 1 1
v -0.1122616 0 0.1408001 1 1 1
v -0.2014621 0 0.08930013 1 1 1
v -0.06972909 0.08 -0.1760582 1 1 1
v -0.03660029 0.08 -0.2996966 1 1 1
v 0.1080013 0.08 -0.128435 1 1 1
v 0.1411301 0.08 -0.2520734 1 1 1
v 0.1080013 0 -0.128435 1 1 1
v -0.06972909 0 -0.1760582 1 1 1
v -0.03660029 0 -0.2996966 1 1 1
v 0.1411301 0 -0.2520734 1 1 1
v -0.2368771 0 -0.2944566 1 1 1
v -0.1099147 0 -0.3107206 1 1 1
v -0.2368771 0.08 -0.2944566 1 1 1
v -0.1099147 0.08 -0.3107206 1 1 1
v -0.08653469 0 -0.1282118 1 1 1
v -0.08653469 0.08 -0.1282118 1 1 1
v -0.2166737 0.08 -0.1367451 1 1 1
v -0.2166737 0 -0.1367451 1 1 1
v -0.1886997 0 -0.1151243 1 1 1
v -0.1886997 0.08 -0.1151243 1 1 1
v 0.1361068 0.0355 0.1615113 1 1 1
v 0.09361607 0.0355 0.2023436 1 1 1
v 0.09527448 0.0355 0.1190205 1 1 1
v 0.05278372 0.0355 0.1598529 1 1 1
v 0.09344623 0 0.2108767 1 1 1
v 0.1446399 0 0.1616811 1 1 1
v 0.04425063 0 0.159683 1 1 1
v 0.09544431 0 0.1104875 1 1 1
v 0.1934235 0.0355 -0.214068 1 1 1
v 0.2400037 0.0355 -0.1779705 1 1 1
v 0.157326 0.0355 -0.1674878 1 1 1
v 0.2039063 0.0355 -0.1313903 1 1 1
v 0.2484707 0 -0.1790441 1 1 1
v 0.19235 0 -0.222535 1 1 1
v 0.2049798 0 -0.1229233 1 1 1
v 0.148859 0 -0.1664142 1 1 1
v 0.05531731 0.08 0.1025746 1 1 1
v 0.05531731 0 0.1025746 1 1 1
v 0.007694907 0.08 -0.07515577 1 1 1
v 0.007694907 0 -0.07515577 1 1 1
v 0.1789557 0 0.06944583 1 1 1
v 0.1789557 0.08 0.06944583 1 1 1
v 0.1378037 0 -0.08413641 1 1 1
v 0.1378037 0.08 -0.08413641 1 1 1
v 0.1071852 0 -0.1018141 1 1 1
v 0.1071852 0.08 -0.1018141 1 1 1
v 0.1071109 0.08 0.05694342 1 1 1
v -0.03058725 0.08 0.1364434 1 1 1
v 0.1071109 0.16 0.05694342 1 1 1
v -0.03058725 0.16 0.1364434 1 1 1
v -0.1162379 0.08 0.03809223 1 1 1
v 0.04311091 0.08 -0.05390777 1 1 1
v -0.1162379 0.16 0.03809223 1 1 1
v 0.04311091 0.16 -0.05390777 1 1 1
v -0.06473789 0.16 0.1272928 1 1 1
v -0.06473789 0.08 0.1272928 1 1 1

vn 0 0.9999998 0
vn 0 -0.9999998 0
vn 0.9578428 0.1675955 -0.2333429
vn 0.2333429 0.1675955 0.9578428
vn -0.9578428 0.1675955 0.2333429
vn -0.2333429 0.1675955 -0.9578428
vn -0.4508777 0 0.8925857
vn 0.4508777 0 -0.8925857
vn -0.8925871 0 -0.4508748
vn 0.8925871 0 0.4508748
vn 0.9499716 0 -0.3123363
vn -0.9499716 0 0.3123363
vn 0 -1 0
vn 0 1 0
vn 0 0.9999999 0
vn 0 -0.9999999 0
vn -0.6955714 0.1675955 -0.6986359
vn 0.6986359 0.1675955 -0.6955714
vn 0.6955714 0.1675955 0.6986359
vn -0.6986359 0.1675955 0.6955714
vn -0.8660246 0 -0.5000015
vn 0.8660246 0 0.5000015
vn 0.5000001 0 -0.8660253
vn -0.5000001 0 0.8660253
vn -0.9659262 0 0.2588181
vn 0.9659262 0 -0.2588181
vn -0.2588215 0 0.9659252
vn 0.2588215 0 -0.9659252
vn -0.9659258 0 -0.258819
vn 0.9659258 0 0.258819
vn -0.1270626 0 -0.9918947
vn 0.1270626 0 0.9918947
vn 0.9918944 0 -0.1270651
vn -0.9918944 0 0.1270651
vn -0.6115277 0 0.791223
vn 0.6115277 0 -0.791223
vn -0.6830954 0.1675955 -0.7108393
vn 0.7108393 0.1675955 -0.6830954
vn 0.6830954 0.1675955 0.7108393
vn -0.7108393 0.1675955 0.6830954
vn -0.6038844 0.1675955 0.7792531
vn -0.7792531 0.1675955 -0.6038844
vn 0.6038844 0.1675955 -0.7792531
vn 0.7792531 0.1675955 0.6038844
vn -0.9659263 0 0.2588174
vn 0.9659263 0 -0.2588174
vn 0.258819 0 0.9659258
vn -0.258819 0 -0.9659258
vn 0.5000008 0 -0.866025
vn -0.5000008 0 0.866025
vn 0.4999998 0 0.8660256
vn -0.4999998 0 -0.8660256
vn 0.8660253 0 -0.5000002
vn -0.8660253 0 0.5000002
vn -0.2588191 0 0.9659258
vn 0.2588191 0 -0.9659258

vt 0.96875 0.175
vt 0.96875 0.075

usemtl colormap

f 3/1/1 2/1/1 1/1/1
f 2/1/1 3/1/1 4/1/1
f 7/2/2 6/2/2 5/2/2
f 6/2/2 7/2/2 8/2/2
f 7/2/3 3/1/3 8/2/3
f 3/1/3 7/2/3 4/1/3
f 3/1/4 6/2/4 8/2/4
f 6/2/4 3/1/4 1/1/4
f 1/1/5 5/2/5 6/2/5
f 5/2/5 1/1/5 2/1/5
f 2/1/6 7/2/6 5/2/6
f 7/2/6 2/1/6 4/1/6
f 11/1/7 10/2/7 9/2/7
f 10/2/7 11/1/7 12/1/7
f 9/2/8 10/2/8 11/1/8
f 12/1/8 11/1/8 10/2/8
f 15/1/8 14/2/8 13/2/8
f 14/2/8 15/1/8 16/1/8
f 13/2/7 14/2/7 15/1/7
f 16/1/7 15/1/7 14/2/7
f 15/1/9 18/2/9 17/1/9
f 18/2/9 15/1/9 13/2/9
f 17/1/10 18/2/10 15/1/10
f 13/2/10 15/1/10 18/2/10
f 19/2/10 11/1/10 9/2/10
f 11/1/10 19/2/10 20/1/10
f 9/2/9 11/1/9 19/2/9
f 20/1/9 19/2/9 11/1/9
f 14/2/11 20/1/11 19/2/11
f 20/1/11 14/2/11 16/1/11
f 19/2/12 20/1/12 14/2/12
f 16/1/12 14/2/12 20/1/12
f 17/1/12 10/2/12 12/1/12
f 10/2/12 17/1/12 18/2/12
f 12/1/11 10/2/11 17/1/11
f 18/2/11 17/1/11 10/2/11
f 13/2/13 10/2/13 18/2/13
f 10/2/13 13/2/13 9/2/13
f 9/2/13 13/2/13 14/2/13
f 9/2/13 14/2/13 19/2/13
f 18/2/14 10/2/14 13/2/14
f 9/2/14 13/2/14 10/2/14
f 14/2/14 13/2/14 9/2/14
f 19/2/14 14/2/14 9/2/14
f 12/1/14 15/1/14 17/1/14
f 15/1/14 12/1/14 11/1/14
f 15/1/14 11/1/14 16/1/14
f 16/1/14 11/1/14 20/1/14
f 17/1/13 15/1/13 12/1/13
f 11/1/13 12/1/13 15/1/13
f 16/1/13 11/1/13 15/1/13
f 20/1/13 11/1/13 16/1/13
f 23/1/15 22/1/15 21/1/15
f 22/1/15 23/1/15 24/1/15
f 27/2/16 26/2/16 25/2/16
f 26/2/16 27/2/16 28/2/16
f 27/2/17 23/1/17 28/2/17
f 23/1/17 27/2/17 24/1/17
f 23/1/18 26/2/18 28/2/18
f 26/2/18 23/1/18 21/1/18
f 21/1/19 25/2/19 26/2/19
f 25/2/19 21/1/19 22/1/19
f 22/1/20 27/2/20 25/2/20
f 27/2/20 22/1/20 24/1/20
f 31/1/14 30/1/14 29/1/14
f 30/1/14 31/1/14 32/1/14
f 32/1/14 31/1/14 33/1/14
f 29/1/13 30/1/13 31/1/13
f 32/1/13 31/1/13 30/1/13
f 33/1/13 31/1/13 32/1/13
f 30/1/21 35/2/21 34/2/21
f 35/2/21 30/1/21 32/1/21
f 34/2/22 35/2/22 30/1/22
f 32/1/22 30/1/22 35/2/22
f 35/2/23 33/1/23 36/2/23
f 33/1/23 35/2/23 32/1/23
f 36/2/24 33/1/24 35/2/24
f 32/1/24 35/2/24 33/1/24
f 33/1/22 37/2/22 36/2/22
f 37/2/22 33/1/22 31/1/22
f 36/2/21 37/2/21 33/1/21
f 31/1/21 33/1/21 37/2/21
f 34/2/13 37/2/13 38/2/13
f 37/2/13 34/2/13 35/2/13
f 37/2/13 35/2/13 36/2/13
f 38/2/14 37/2/14 34/2/14
f 35/2/14 34/2/14 37/2/14
f 36/2/14 35/2/14 37/2/14
f 29/1/24 37/2/24 31/1/24
f 37/2/24 29/1/24 38/2/24
f 31/1/23 37/2/23 29/1/23
f 38/2/23 29/1/23 37/2/23
f 30/1/25 38/2/25 29/1/25
f 38/2/25 30/1/25 34/2/25
f 29/1/26 38/2/26 30/1/26
f 34/2/26 30/1/26 38/2/26
f 41/1/14 40/1/14 39/1/14
f 40/1/14 41/1/14 42/1/14
f 39/1/13 40/1/13 41/1/13
f 42/1/13 41/1/13 40/1/13
f 41/1/27 44/2/27 43/2/27
f 44/2/27 41/1/27 39/1/27
f 43/2/28 44/2/28 41/1/28
f 39/1/28 41/1/28 44/2/28
f 40/1/29 44/2/29 39/1/29
f 44/2/29 40/1/29 45/2/29
f 39/1/30 44/2/30 40/1/30
f 45/2/30 40/1/30 44/2/30
f 40/1/28 46/2/28 45/2/28
f 46/2/28 40/1/28 42/1/28
f 45/2/27 46/2/27 40/1/27
f 42/1/27 40/1/27 46/2/27
f 46/2/30 41/1/30 43/2/30
f 41/1/30 46/2/30 42/1/30
f 43/2/29 41/1/29 46/2/29
f 42/1/29 46/2/29 41/1/29
f 45/2/13 43/2/13 44/2/13
f 43/2/13 45/2/13 46/2/13
f 44/2/14 43/2/14 45/2/14
f 46/2/14 45/2/14 43/2/14
f 49/1/31 48/2/31 47/2/31
f 48/2/31 49/1/31 50/1/31
f 47/2/32 48/2/32 49/1/32
f 50/1/32 49/1/32 48/2/32
f 48/2/33 52/1/33 51/2/33
f 52/1/33 48/2/33 50/1/33
f 51/2/34 52/1/34 48/2/34
f 50/1/34 48/2/34 52/1/34
f 49/1/34 54/2/34 53/1/34
f 54/2/34 49/1/34 47/2/34
f 53/1/33 54/2/33 49/1/33
f 47/2/33 49/1/33 54/2/33
f 52/1/32 55/2/32 51/2/32
f 55/2/32 52/1/32 56/1/32
f 51/2/31 55/2/31 52/1/31
f 56/1/31 52/1/31 55/2/31
f 56/1/35 54/2/35 55/2/35
f 54/2/35 56/1/35 53/1/35
f 55/2/36 54/2/36 56/1/36
f 53/1/36 56/1/36 54/2/36
f 48/2/13 54/2/13 47/2/13
f 54/2/13 48/2/13 55/2/13
f 55/2/13 48/2/13 51/2/13
f 47/2/14 54/2/14 48/2/14
f 55/2/14 48/2/14 54/2/14
f 51/2/14 48/2/14 55/2/14
f 53/1/14 50/1/14 49/1/14
f 50/1/14 53/1/14 56/1/14
f 50/1/14 56/1/14 52/1/14
f 49/1/13 50/1/13 53/1/13
f 56/1/13 53/1/13 50/1/13
f 52/1/13 56/1/13 50/1/13
f 59/1/14 58/1/14 57/1/14
f 58/1/14 59/1/14 60/1/14
f 63/2/13 62/2/13 61/2/13
f 62/2/13 63/2/13 64/2/13
f 63/2/37 59/1/37 64/2/37
f 59/1/37 63/2/37 60/1/37
f 59/1/38 62/2/38 64/2/38
f 62/2/38 59/1/38 57/1/38
f 57/1/39 61/2/39 62/2/39
f 61/2/39 57/1/39 58/1/39
f 58/1/40 63/2/40 61/2/40
f 63/2/40 58/1/40 60/1/40
f 67/1/15 66/1/15 65/1/15
f 66/1/15 67/1/15 68/1/15
f 71/2/16 70/2/16 69/2/16
f 70/2/16 71/2/16 72/2/16
f 71/2/41 67/1/41 72/2/41
f 67/1/41 71/2/41 68/1/41
f 67/1/42 70/2/42 72/2/42
f 70/2/42 67/1/42 65/1/42
f 65/1/43 69/2/43 70/2/43
f 69/2/43 65/1/43 66/1/43
f 66/1/44 71/2/44 69/2/44
f 71/2/44 66/1/44 68/1/44
f 75/1/45 74/2/45 73/1/45
f 74/2/45 75/1/45 76/2/45
f 73/1/46 74/2/46 75/1/46
f 76/2/46 75/1/46 74/2/46
f 78/1/47 74/2/47 77/2/47
f 74/2/47 78/1/47 73/1/47
f 77/2/48 74/2/48 78/1/48
f 73/1/48 78/1/48 74/2/48
f 79/2/46 78/1/46 77/2/46
f 78/1/46 79/2/46 80/1/46
f 77/2/45 78/1/45 79/2/45
f 80/1/45 79/2/45 78/1/45
f 75/1/48 81/2/48 76/2/48
f 81/2/48 75/1/48 82/1/48
f 76/2/47 81/2/47 75/1/47
f 82/1/47 75/1/47 81/2/47
f 82/1/49 79/2/49 81/2/49
f 79/2/49 82/1/49 80/1/49
f 81/2/50 79/2/50 82/1/50
f 80/1/50 82/1/50 79/2/50
f 81/2/13 74/2/13 76/2/13
f 74/2/13 81/2/13 77/2/13
f 77/2/13 81/2/13 79/2/13
f 76/2/14 74/2/14 81/2/14
f 77/2/14 81/2/14 74/2/14
f 79/2/14 81/2/14 77/2/14
f 73/1/14 82/1/14 75/1/14
f 82/1/14 73/1/14 78/1/14
f 82/1/14 78/1/14 80/1/14
f 75/1/13 82/1/13 73/1/13
f 78/1/13 73/1/13 82/1/13
f 80/1/13 78/1/13 82/1/13
f 85/1/51 84/2/51 83/2/51
f 84/2/51 85/1/51 86/1/51
f 83/2/52 84/2/52 85/1/52
f 86/1/52 85/1/52 84/2/52
f 89/1/52 88/2/52 87/2/52
f 88/2/52 89/1/52 90/1/52
f 87/2/51 88/2/51 89/1/51
f 90/1/51 89/1/51 88/2/51
f 88/2/53 85/1/53 83/2/53
f 85/1/53 88/2/53 90/1/53
f 83/2/54 85/1/54 88/2/54
f 90/1/54 88/2/54 85/1/54
f 89/1/54 92/2/54 91/1/54
f 92/2/54 89/1/54 87/2/54
f 91/1/53 92/2/53 89/1/53
f 87/2/53 89/1/53 92/2/53
f 86/1/55 92/2/55 84/2/55
f 92/2/55 86/1/55 91/1/55
f 84/2/56 92/2/56 86/1/56
f 91/1/56 86/1/56 92/2/56
f 91/1/14 90/1/14 89/1/14
f 90/1/14 91/1/14 86/1/14
f 90/1/14 86/1/14 85/1/14
f 89/1/13 90/1/13 91/1/13
f 86/1/13 91/1/13 90/1/13
f 85/1/13 86/1/13 90/1/13
f 88/2/13 92/2/13 87/2/13
f 92/2/13 88/2/13 84/2/13
f 84/2/13 88/2/13 83/2/13
f 87/2/14 92/2/14 88/2/14
f 84/2/14 88/2/14 92/2/14
f 83/2/14 88/2/14 84/2/14

g debris




usemtl colormap

f 3/1/1 2/1/1 1/1/1
f 2/1/1 3/1/1 4/1/1
f 7/2/2 6/2/2 5/2/2
f 6/2/2 7/2/2 8/2/2
f 7/2/3 3/1/3 8/2/3
f 3/1/3 7/2/3 4/1/3
f 3/1/4 6/2/4 8/2/4
f 6/2/4 3/1/4 1/1/4
f 1/1/5 5/2/5 6/2/5
f 5/2/5 1/1/5 2/1/5
f 2/1/6 7/2/6 5/2/6
f 7/2/6 2/1/6 4/1/6
f 11/1/7 10/2/7 9/2/7
f 10/2/7 11/1/7 12/1/7
f 9/2/8 10/2/8 11/1/8
f 12/1/8 11/1/8 10/2/8
f 15/1/8 14/2/8 13/2/8
f 14/2/8 15/1/8 16/1/8
f 13/2/7 14/2/7 15/1/7
f 16/1/7 15/1/7 14/2/7
f 15/1/9 18/2/9 17/1/9
f 18/2/9 15/1/9 13/2/9
f 17/1/10 18/2/10 15/1/10
f 13/2/10 15/1/10 18/2/10
f 19/2/10 11/1/10 9/2/10
f 11/1/10 19/2/10 20/1/10
f 9/2/9 11/1/9 19/2/9
f 20/1/9 19/2/9 11/1/9
f 14/2/11 20/1/11 19/2/11
f 20/1/11 14/2/11 16/1/11
f 19/2/12 20/1/12 14/2/12
f 16/1/12 14/2/12 20/1/12
f 17/1/12 10/2/12 12/1/12
f 10/2/12 17/1/12 18/2/12
f 12/1/11 10/2/11 17/1/11
f 18/2/11 17/1/11 10/2/11
f 13/2/13 10/2/13 18/2/13
f 10/2/13 13/2/13 9/2/13
f 9/2/13 13/2/13 14/2/13
f 9/2/13 14/2/13 19/2/13
f 18/2/14 10/2/14 13/2/14
f 9/2/14 13/2/14 10/2/14
f 14/2/14 13/2/14 9/2/14
f 19/2/14 14/2/14 9/2/14
f 12/1/14 15/1/14 17/1/14
f 15/1/14 12/1/14 11/1/14
f 15/1/14 11/1/14 16/1/14
f 16/1/14 11/1/14 20/1/14
f 17/1/13 15/1/13 12/1/13
f 11/1/13 12/1/13 15/1/13
f 16/1/13 11/1/13 15/1/13
f 20/1/13 11/1/13 16/1/13
f 23/1/15 22/1/15 21/1/15
f 22/1/15 23/1/15 24/1/15
f 27/2/16 26/2/16 25/2/16
f 26/2/16 27/2/16 28/2/16
f 27/2/17 23/1/17 28/2/17
f 23/1/17 27/2/17 24/1/17
f 23/1/18 26/2/18 28/2/18
f 26/2/18 23/1/18 21/1/18
f 21/1/19 25/2/19 26/2/19
f 25/2/19 21/1/19 22/1/19
f 22/1/20 27/2/20 25/2/20
f 27/2/20 22/1/20 24/1/20
f 31/1/14 30/1/14 29/1/14
f 30/1/14 31/1/14 32/1/14
f 32/1/14 31/1/14 33/1/14
f 29/1/13 30/1/13 31/1/13
f 32/1/13 31/1/13 30/1/13
f 33/1/13 31/1/13 32/1/13
f 30/1/21 35/2/21 34/2/21
f 35/2/21 30/1/21 32/1/21
f 34/2/22 35/2/22 30/1/22
f 32/1/22 30/1/22 35/2/22
f 35/2/23 33/1/23 36/2/23
f 33/1/23 35/2/23 32/1/23
f 36/2/24 33/1/24 35/2/24
f 32/1/24 35/2/24 33/1/24
f 33/1/22 37/2/22 36/2/22
f 37/2/22 33/1/22 31/1/22
f 36/2/21 37/2/21 33/1/21
f 31/1/21 33/1/21 37/2/21
f 34/2/13 37/2/13 38/2/13
f 37/2/13 34/2/13 35/2/13
f 37/2/13 35/2/13 36/2/13
f 38/2/14 37/2/14 34/2/14
f 35/2/14 34/2/14 37/2/14
f 36/2/14 35/2/14 37/2/14
f 29/1/24 37/2/24 31/1/24
f 37/2/24 29/1/24 38/2/24
f 31/1/23 37/2/23 29/1/23
f 38/2/23 29/1/23 37/2/23
f 30/1/25 38/2/25 29/1/25
f 38/2/25 30/1/25 34/2/25
f 29/1/26 38/2/26 30/1/26
f 34/2/26 30/1/26 38/2/26
f 41/1/14 40/1/14 39/1/14
f 40/1/14 41/1/14 42/1/14
f 39/1/13 40/1/13 41/1/13
f 42/1/13 41/1/13 40/1/13
f 41/1/27 44/2/27 43/2/27
f 44/2/27 41/1/27 39/1/27
f 43/2/28 44/2/28 41/1/28
f 39/1/28 41/1/28 44/2/28
f 40/1/29 44/2/29 39/1/29
f 44/2/29 40/1/29 45/2/29
f 39/1/30 44/2/30 40/1/30
f 45/2/30 40/1/30 44/2/30
f 40/1/28 46/2/28 45/2/28
f 46/2/28 40/1/28 42/1/28
f 45/2/27 46/2/27 40/1/27
f 42/1/27 40/1/27 46/2/27
f 46/2/30 41/1/30 43/2/30
f 41/1/30 46/2/30 42/1/30
f 43/2/29 41/1/29 46/2/29
f 42/1/29 46/2/29 41/1/29
f 45/2/13 43/2/13 44/2/13
f 43/2/13 45/2/13 46/2/13
f 44/2/14 43/2/14 45/2/14
f 46/2/14 45/2/14 43/2/14
f 49/1/31 48/2/31 47/2/31
f 48/2/31 49/1/31 50/1/31
f 47/2/32 48/2/32 49/1/32
f 50/1/32 49/1/32 48/2/32
f 48/2/33 52/1/33 51/2/33
f 52/1/33 48/2/33 50/1/33
f 51/2/34 52/1/34 48/2/34
f 50/1/34 48/2/34 52/1/34
f 49/1/34 54/2/34 53/1/34
f 54/2/34 49/1/34 47/2/34
f 53/1/33 54/2/33 49/1/33
f 47/2/33 49/1/33 54/2/33
f 52/1/32 55/2/32 51/2/32
f 55/2/32 52/1/32 56/1/32
f 51/2/31 55/2/31 52/1/31
f 56/1/31 52/1/31 55/2/31
f 56/1/35 54/2/35 55/2/35
f 54/2/35 56/1/35 53/1/35
f 55/2/36 54/2/36 56/1/36
f 53/1/36 56/1/36 54/2/36
f 48/2/13 54/2/13 47/2/13
f 54/2/13 48/2/13 55/2/13
f 55/2/13 48/2/13 51/2/13
f 47/2/14 54/2/14 48/2/14
f 55/2/14 48/2/14 54/2/14
f 51/2/14 48/2/14 55/2/14
f 53/1/14 50/1/14 49/1/14
f 50/1/14 53/1/14 56/1/14
f 50/1/14 56/1/14 52/1/14
f 49/1/13 50/1/13 53/1/13
f 56/1/13 53/1/13 50/1/13
f 52/1/13 56/1/13 50/1/13
f 59/1/14 58/1/14 57/1/14
f 58/1/14 59/1/14 60/1/14
f 63/2/13 62/2/13 61/2/13
f 62/2/13 63/2/13 64/2/13
f 63/2/37 59/1/37 64/2/37
f 59/1/37 63/2/37 60/1/37
f 59/1/38 62/2/38 64/2/38
f 62/2/38 59/1/38 57/1/38
f 57/1/39 61/2/39 62/2/39
f 61/2/39 57/1/39 58/1/39
f 58/1/40 63/2/40 61/2/40
f 63/2/40 58/1/40 60/1/40
f 67/1/15 66/1/15 65/1/15
f 66/1/15 67/1/15 68/1/15
f 71/2/16 70/2/16 69/2/16
f 70/2/16 71/2/16 72/2/16
f 71/2/41 67/1/41 72/2/41
f 67/1/41 71/2/41 68/1/41
f 67/1/42 70/2/42 72/2/42
f 70/2/42 67/1/42 65/1/42
f 65/1/43 69/2/43 70/2/43
f 69/2/43 65/1/43 66/1/43
f 66/1/44 71/2/44 69/2/44
f 71/2/44 66/1/44 68/1/44
f 75/1/45 74/2/45 73/1/45
f 74/2/45 75/1/45 76/2/45
f 73/1/46 74/2/46 75/1/46
f 76/2/46 75/1/46 74/2/46
f 78/1/47 74/2/47 77/2/47
f 74/2/47 78/1/47 73/1/47
f 77/2/48 74/2/48 78/1/48
f 73/1/48 78/1/48 74/2/48
f 79/2/46 78/1/46 77/2/46
f 78/1/46 79/2/46 80/1/46
f 77/2/45 78/1/45 79/2/45
f 80/1/45 79/2/45 78/1/45
f 75/1/48 81/2/48 76/2/48
f 81/2/48 75/1/48 82/1/48
f 76/2/47 81/2/47 75/1/47
f 82/1/47 75/1/47 81/2/47
f 82/1/49 79/2/49 81/2/49
f 79/2/49 82/1/49 80/1/49
f 81/2/50 79/2/50 82/1/50
f 80/1/50 82/1/50 79/2/50
f 81/2/13 74/2/13 76/2/13
f 74/2/13 81/2/13 77/2/13
f 77/2/13 81/2/13 79/2/13
f 76/2/14 74/2/14 81/2/14
f 77/2/14 81/2/14 74/2/14
f 79/2/14 81/2/14 77/2/14
f 73/1/14 82/1/14 75/1/14
f 82/1/14 73/1/14 78/1/14
f 82/1/14 78/1/14 80/1/14
f 75/1/13 82/1/13 73/1/13
f 78/1/13 73/1/13 82/1/13
f 80/1/13 78/1/13 82/1/13
f 85/1/51 84/2/51 83/2/51
f 84/2/51 85/1/51 86/1/51
f 83/2/52 84/2/52 85/1/52
f 86/1/52 85/1/52 84/2/52
f 89/1/52 88/2/52 87/2/52
f 88/2/52 89/1/52 90/1/52
f 87/2/51 88/2/51 89/1/51
f 90/1/51 89/1/51 88/2/51
f 88/2/53 85/1/53 83/2/53
f 85/1/53 88/2/53 90/1/53
f 83/2/54 85/1/54 88/2/54
f 90/1/54 88/2/54 85/1/54
f 89/1/54 92/2/54 91/1/54
f 92/2/54 89/1/54 87/2/54
f 91/1/53 92/2/53 89/1/53
f 87/2/53 89/1/53 92/2/53
f 86/1/55 92/2/55 84/2/55
f 92/2/55 86/1/55 91/1/55
f 84/2/56 92/2/56 86/1/56
f 91/1/56 86/1/56 92/2/56
f 91/1/14 90/1/14 89/1/14
f 90/1/14 91/1/14 86/1/14
f 90/1/14 86/1/14 85/1/14
f 89/1/13 90/1/13 91/1/13
f 86/1/13 91/1/13 90/1/13
f 85/1/13 86/1/13 90/1/13
f 88/2/13 92/2/13 87/2/13
f 92/2/13 88/2/13 84/2/13
f 84/2/13 88/2/13 83/2/13
f 87/2/14 92/2/14 88/2/14
f 84/2/14 88/2/14 92/2/14
f 83/2/14 88/2/14 84/2/14

