# Created by Kenney (www.kenney.nl)

mtllib detail-bowl.mtl

g detail-bowl

v -0.04046055 0.03 0.1004606 1 1 1
v -0.05803414 0.03 0.142887 1 1 1
v -0.05803414 0.03 0.05803414 1 1 1
v -0.1004606 0.03 0.04046055 1 1 1
v -0.1004606 0.03 0.1604606 1 1 1
v -0.142887 0.03 0.05803414 1 1 1
v -0.142887 0.03 0.142887 1 1 1
v -0.1604606 0.03 0.1004606 1 1 1
v -0.1500146 0.006 0.05090651 1 1 1
v -0.1705406 0.006 0.1004606 1 1 1
v -0.1004606 0.006 0.03038055 1 1 1
v -0.05090651 0.006 0.05090651 1 1 1
v -0.03038055 0.006 0.1004606 1 1 1
v -0.05090651 0.006 0.1500146 1 1 1
v -0.1500146 0.006 0.1500146 1 1 1
v -0.1004606 0.006 0.1705406 1 1 1
v -0.03482668 0 0.1004606 1 1 1
v -0.0540504 0 0.0540504 1 1 1
v -0.0540504 0 0.1468707 1 1 1
v -0.1004606 0 0.03482668 1 1 1
v -0.1004606 0 0.1660944 1 1 1
v -0.1468707 0 0.1468707 1 1 1
v -0.1468707 0 0.0540504 1 1 1
v -0.1660944 0 0.1004606 1 1 1
v -0.1874619 0.117235 0.05023028 1 1 1
v -0.2009211 0.117235 0.1004606 1 1 1
v -0.1746936 0.0538325 0.05760206 1 1 1
v -0.1861775 0.0538325 0.1004606 1 1 1
v -0.05341903 0.09596001 0.1004606 1 1 1
v -0.0597214 0.09596001 0.1239813 1 1 1
v -0.0597214 0.09596001 0.07693979 1 1 1
v -0.07693979 0.09596001 0.0597214 1 1 1
v -0.07693979 0.09596001 0.1411997 1 1 1
v -0.1004606 0.09596001 0.05341903 1 1 1
v -0.1004606 0.09596001 0.1475021 1 1 1
v -0.1239813 0.09596001 0.0597214 1 1 1
v -0.1239813 0.09596001 0.1411997 1 1 1
v -0.1411997 0.09596001 0.1239813 1 1 1
v -0.1411997 0.09596001 0.07693979 1 1 1
v -0.1475021 0.09596001 0.1004606 1 1 1
v -0.1746936 0.0538325 0.143319 1 1 1
v -0.1874619 0.117235 0.1506908 1 1 1
v -0.1595028 0.13 0.1345486 1 1 1
v -0.1345486 0.13 0.1595028 1 1 1
v -0.0414183 0.13 0.06637249 1 1 1
v -0.03228443 0.13 0.1004606 1 1 1
v -0.0414183 0.13 0.1345486 1 1 1
v -0.06637249 0.13 0.1595028 1 1 1
v -0.1004606 0.13 0.03228443 1 1 1
v -0.1345486 0.13 0.0414183 1 1 1
v -0.01474357 0.0538325 0.1004606 1 1 1
v -0.02622747 0.0538325 0.05760206 1 1 1
v -0.02622747 0.0538325 0.143319 1 1 1
v -0.05760206 0.0538325 0.1746936 1 1 1
v -0.05760206 0.0538325 0.02622747 1 1 1
v -0.1004606 0.0538325 0.01474357 1 1 1
v -0.1004606 0.0538325 0.1861775 1 1 1
v -0.143319 0.0538325 0.1746936 1 1 1
v -0.143319 0.0538325 0.02622747 1 1 1
v -0.1595028 0.13 0.06637249 1 1 1
v -0.1686367 0.13 0.1004606 1 1 1
v -0.05023028 0.117235 0.01345917 1 1 1
v -0.01345917 0.117235 0.05023028 1 1 1
v 0 0.117235 0.1004606 1 1 1
v -0.01345917 0.117235 0.1506908 1 1 1
v -0.1506908 0.117235 0.01345917 1 1 1
v -0.1004606 0.117235 0 1 1 1
v -0.05023028 0.117235 0.1874619 1 1 1
v -0.1004606 0.117235 0.2009211 1 1 1
v -0.06637249 0.13 0.0414183 1 1 1
v -0.007427931 0.13 0.1004606 1 1 1
v -0.01989193 0.13 0.1469769 1 1 1
v -0.01989193 0.13 0.05394424 1 1 1
v -0.05394424 0.13 0.01989193 1 1 1
v -0.05394424 0.13 0.1810292 1 1 1
v -0.1004606 0.13 0.007427931 1 1 1
v -0.1004606 0.13 0.1934932 1 1 1
v -0.1004606 0.13 0.1686367 1 1 1
v -0.1469769 0.13 0.1810292 1 1 1
v -0.1469769 0.13 0.01989193 1 1 1
v -0.1810292 0.13 0.1469769 1 1 1
v -0.1810292 0.13 0.05394424 1 1 1
v -0.1934932 0.13 0.1004606 1 1 1
v -0.1506908 0.117235 0.1874619 1 1 1
v -0.08502795 0.03 0.1158932 1 1 1
v -0.1004606 0.03 0.1222856 1 1 1
v -0.08216416 0.0538325 0.1187569 1 1 1
v -0.1004606 0.0538325 0.1263355 1 1 1
v -0.1004606 0.03 0.07863555 1 1 1
v -0.08502795 0.03 0.08502795 1 1 1
v -0.1004606 0.0538325 0.07458555 1 1 1
v -0.08216416 0.0538325 0.08216416 1 1 1
v -0.07458555 0.0538325 0.1004606 1 1 1
v -0.07863555 0.03 0.1004606 1 1 1
v -0.1222856 0.03 0.1004606 1 1 1
v -0.1263355 0.0538325 0.1004606 1 1 1
v -0.1158932 0.03 0.1158932 1 1 1
v -0.1187569 0.0538325 0.1187569 1 1 1
v -0.1187569 0.0538325 0.08216416 1 1 1
v -0.1158932 0.03 0.08502795 1 1 1

vn 0 1 0
vn -0.7030054 -0.1075483 -0.7030054
vn -0.6519398 0.3872325 -0.6519398
vn -0.9941999 -0.1075483 0
vn -0.9219821 0.3872325 0
vn 0 -0.1075483 -0.9941999
vn 0 0.3872325 -0.9219821
vn 0.7030054 -0.1075483 -0.7030054
vn 0.6519398 0.3872325 -0.6519398
vn 0.9941999 -0.1075483 0
vn 0.7030054 -0.1075483 0.7030054
vn 0.9219821 0.3872325 0
vn 0.6519398 0.3872325 0.6519398
vn -0.7030054 -0.1075483 0.7030054
vn -0.6519398 0.3872325 0.6519398
vn 0 -0.1075483 0.9941999
vn 0 0.3872325 0.9219821
vn 0.5301781 -0.8478864 0
vn 0.3748925 -0.8478863 -0.3748925
vn 0.3748925 -0.8478863 0.3748925
vn 0 -0.8478864 -0.5301781
vn 0 -0.8478864 0.5301781
vn -0.3748925 -0.8478863 0.3748925
vn -0.3748925 -0.8478863 -0.3748925
vn -0.5301781 -0.8478864 0
vn -0.8574365 0.1404876 -0.4950412
vn -0.9900824 0.1404876 0
vn -0.8435192 -0.2264961 -0.487006
vn -0.9740121 -0.2264961 0
vn -0.8435192 -0.2264961 0.487006
vn -0.8574365 0.1404876 0.4950412
vn 0.7357487 0.5274767 -0.4247847
vn 0.4247847 0.5274768 -0.7357488
vn -0.7357487 0.5274767 0.4247847
vn -0.8495694 0.5274767 0
vn -0.7357487 0.5274767 -0.4247847
vn -0.4247847 0.5274768 -0.7357488
vn 0 0.5274767 0.8495694
vn 0.4247847 0.5274768 0.7357488
vn 0 -1 0
vn 0.7357487 0.5274767 0.4247847
vn 0.8495694 0.5274767 0
vn 0.487006 -0.2264961 -0.8435192
vn 0.8435192 -0.2264961 -0.487006
vn 0.4950412 0.1404876 -0.8574365
vn 0.8574365 0.1404876 -0.4950412
vn 0.9740121 -0.2264961 0
vn 0.8435192 -0.2264961 0.487006
vn 0.9900824 0.1404876 0
vn 0.8574365 0.1404876 0.4950412
vn -0.487006 -0.2264961 -0.8435192
vn 0 -0.2264961 -0.9740121
vn -0.4950412 0.1404876 -0.8574365
vn 0 0.1404876 -0.9900824
vn 0.487006 -0.2264961 0.8435192
vn 0 -0.2264961 0.9740121
vn 0.4950412 0.1404876 0.8574365
vn 0 0.1404876 0.9900824
vn -0.4247847 0.5274768 0.7357488
vn 0 0.5029451 -0.8643184
vn 0.4321592 0.5029451 -0.7485216
vn -0.8643184 0.5029451 0
vn -0.7485216 0.5029451 0.4321592
vn 0.7485216 0.5029451 -0.4321592
vn 0.4321592 0.5029451 0.7485216
vn 0 0.5029451 0.8643184
vn -0.4321592 0.5029451 0.7485216
vn -0.4950412 0.1404876 0.8574365
vn -0.7485216 0.5029451 -0.4321592
vn 0.8643184 0.5029451 0
vn 0.7485216 0.5029451 0.4321592
vn 0 0.5274767 -0.8495694
vn -0.487006 -0.2264961 0.8435192
vn -0.4321592 0.5029451 -0.7485216
vn 0.6971127 -0.1675342 0.6971127
vn 0 -0.1675342 0.9858663
vn 0 -0.1675342 -0.9858663
vn 0.6971127 -0.1675342 -0.6971127
vn 0.9858663 -0.1675342 0
vn -0.9858663 -0.1675342 0
vn -0.6971127 -0.1675342 0.6971127
vn -0.6971127 -0.1675342 -0.6971127

vt 0.21875 0.225
vt 0.21875 0.065
vt 0.21875 0.025
vt 0.21875 0.1914818
vt 0.21875 0.135618

usemtl colormap

f 3/1/1 2/1/1 1/1/1
f 2/1/1 3/1/1 4/1/1
f 2/1/1 4/1/1 5/1/1
f 5/1/1 4/1/1 6/1/1
f 5/1/1 6/1/1 7/1/1
f 7/1/1 6/1/1 8/1/1
f 10/2/4 6/1/3 9/2/2
f 6/1/3 10/2/4 8/1/5
f 6/1/3 11/2/6 9/2/2
f 11/2/6 6/1/3 4/1/7
f 4/1/7 12/2/8 11/2/6
f 12/2/8 4/1/7 3/1/9
f 1/1/12 14/2/11 13/2/10
f 14/2/11 1/1/12 2/1/13
f 15/2/14 8/1/5 10/2/4
f 8/1/5 15/2/14 7/1/15
f 2/1/13 16/2/16 14/2/11
f 16/2/16 2/1/13 5/1/17
f 5/1/17 15/2/14 16/2/16
f 15/2/14 5/1/17 7/1/15
f 3/1/9 13/2/10 12/2/8
f 13/2/10 3/1/9 1/1/12
f 19/3/20 18/3/19 17/3/18
f 18/3/19 19/3/20 20/3/21
f 20/3/21 19/3/20 21/3/22
f 20/3/21 21/3/22 22/3/23
f 20/3/21 22/3/23 23/3/24
f 23/3/24 22/3/23 24/3/25
f 23/3/24 10/2/4 9/2/2
f 10/2/4 23/3/24 24/3/25
f 9/2/2 20/3/21 23/3/24
f 20/3/21 9/2/2 11/2/6
f 22/3/23 10/2/4 24/3/25
f 10/2/4 22/3/23 15/2/14
f 13/2/10 18/3/19 12/2/8
f 18/3/19 13/2/10 17/3/18
f 11/2/6 18/3/19 20/3/21
f 18/3/19 11/2/6 12/2/8
f 16/2/16 22/3/23 21/3/22
f 22/3/23 16/2/16 15/2/14
f 13/2/10 19/3/20 17/3/18
f 19/3/20 13/2/10 14/2/11
f 14/2/11 21/3/22 19/3/20
f 21/3/22 14/2/11 16/2/16
f 27/3/28 26/4/27 25/4/26
f 26/4/27 27/3/28 28/3/29
f 31/5/1 30/5/1 29/5/1
f 30/5/1 31/5/1 32/5/1
f 30/5/1 32/5/1 33/5/1
f 33/5/1 32/5/1 34/5/1
f 33/5/1 34/5/1 35/5/1
f 35/5/1 34/5/1 36/5/1
f 35/5/1 36/5/1 37/5/1
f 37/5/1 36/5/1 38/5/1
f 38/5/1 36/5/1 39/5/1
f 38/5/1 39/5/1 40/5/1
f 41/3/30 26/4/27 28/3/29
f 26/4/27 41/3/30 42/4/31
f 43/1/32 37/5/33 38/5/32
f 37/5/33 43/1/32 44/1/33
f 31/5/34 46/1/35 45/1/34
f 46/1/35 31/5/34 29/5/35
f 33/5/37 47/1/36 30/5/36
f 47/1/36 33/5/37 48/1/37
f 49/1/38 36/5/39 34/5/38
f 36/5/39 49/1/38 50/1/39
f 53/3/40 52/3/40 51/3/40
f 52/3/40 53/3/40 54/3/40
f 52/3/40 54/3/40 55/3/40
f 55/3/40 54/3/40 56/3/40
f 56/3/40 54/3/40 57/3/40
f 56/3/40 57/3/40 58/3/40
f 56/3/40 58/3/40 59/3/40
f 59/3/40 58/3/40 41/3/40
f 59/3/40 41/3/40 27/3/40
f 27/3/40 41/3/40 28/3/40
f 61/1/42 39/5/41 60/1/41
f 39/5/41 61/1/42 40/5/42
f 62/4/45 52/3/44 55/3/43
f 52/3/44 62/4/45 63/4/46
f 64/4/49 53/3/48 51/3/47
f 53/3/48 64/4/49 65/4/50
f 66/4/53 56/3/52 59/3/51
f 56/3/52 66/4/53 67/4/54
f 68/4/57 57/3/56 54/3/55
f 57/3/56 68/4/57 69/4/58
f 25/4/26 59/3/51 27/3/28
f 59/3/51 25/4/26 66/4/53
f 61/1/42 38/5/32 40/5/42
f 38/5/32 61/1/42 43/1/32
f 67/4/54 55/3/43 56/3/52
f 55/3/43 67/4/54 62/4/45
f 70/1/59 34/5/38 32/5/59
f 34/5/38 70/1/59 49/1/38
f 73/1/1 72/1/1 71/1/1
f 72/1/1 73/1/1 46/1/1
f 46/1/1 73/1/1 45/1/1
f 47/1/1 72/1/1 46/1/1
f 45/1/1 73/1/1 74/1/1
f 72/1/1 47/1/1 75/1/1
f 45/1/1 74/1/1 70/1/1
f 75/1/1 47/1/1 48/1/1
f 70/1/1 74/1/1 76/1/1
f 70/1/1 76/1/1 49/1/1
f 75/1/1 48/1/1 77/1/1
f 77/1/1 48/1/1 78/1/1
f 77/1/1 78/1/1 44/1/1
f 77/1/1 44/1/1 79/1/1
f 79/1/1 44/1/1 43/1/1
f 49/1/1 76/1/1 80/1/1
f 49/1/1 80/1/1 50/1/1
f 50/1/1 80/1/1 60/1/1
f 79/1/1 43/1/1 81/1/1
f 60/1/1 80/1/1 82/1/1
f 81/1/1 82/1/1 83/1/1
f 81/1/1 43/1/1 61/1/1
f 60/1/1 82/1/1 61/1/1
f 61/1/1 82/1/1 81/1/1
f 76/1/60 62/4/45 67/4/54
f 62/4/45 76/1/60 74/1/61
f 42/4/31 83/1/62 26/4/27
f 83/1/62 42/4/31 81/1/63
f 74/1/61 63/4/46 62/4/45
f 63/4/46 74/1/61 73/1/64
f 75/1/65 69/4/58 68/4/57
f 69/4/58 75/1/65 77/1/66
f 42/4/31 79/1/67 81/1/63
f 79/1/67 42/4/31 84/4/68
f 26/4/27 82/1/69 25/4/26
f 82/1/69 26/4/27 83/1/62
f 72/1/71 64/4/49 71/1/70
f 64/4/49 72/1/71 65/4/50
f 75/1/65 65/4/50 72/1/71
f 65/4/50 75/1/65 68/4/57
f 77/1/66 84/4/68 69/4/58
f 84/4/68 77/1/66 79/1/67
f 78/1/72 33/5/37 35/5/72
f 33/5/37 78/1/72 48/1/37
f 69/4/58 58/3/73 57/3/56
f 58/3/73 69/4/58 84/4/68
f 58/3/73 42/4/31 41/3/30
f 42/4/31 58/3/73 84/4/68
f 60/1/41 36/5/39 50/1/39
f 36/5/39 60/1/41 39/5/41
f 80/1/74 67/4/54 66/4/53
f 67/4/54 80/1/74 76/1/60
f 82/1/69 66/4/53 25/4/26
f 66/4/53 82/1/69 80/1/74
f 64/4/49 52/3/44 63/4/46
f 52/3/44 64/4/49 51/3/47
f 30/5/36 46/1/35 29/5/35
f 46/1/35 30/5/36 47/1/36
f 44/1/33 35/5/72 37/5/33
f 35/5/72 44/1/33 78/1/72
f 65/4/50 54/3/55 53/3/48
f 54/3/55 65/4/50 68/4/57
f 73/1/64 64/4/49 63/4/46
f 64/4/49 73/1/64 71/1/70
f 32/5/59 45/1/34 70/1/59
f 45/1/34 32/5/59 31/5/34
f 87/3/75 86/1/76 85/1/75
f 86/1/76 87/3/75 88/3/76
f 91/3/77 90/1/78 89/1/77
f 90/1/78 91/3/77 92/3/78
f 93/3/79 90/1/78 92/3/78
f 90/1/78 93/3/79 94/1/79
f 97/1/81 96/3/80 95/1/80
f 96/3/80 97/1/81 98/3/81
f 100/1/82 96/3/80 99/3/82
f 96/3/80 100/1/82 95/1/80
f 99/3/82 89/1/77 100/1/82
f 89/1/77 99/3/82 91/3/77
f 88/3/76 97/1/81 86/1/76
f 97/1/81 88/3/76 98/3/81
f 87/3/75 94/1/79 93/3/79
f 94/1/79 87/3/75 85/1/75

g detail-bowl




usemtl colormap

f 3/1/1 2/1/1 1/1/1
f 2/1/1 3/1/1 4/1/1
f 2/1/1 4/1/1 5/1/1
f 5/1/1 4/1/1 6/1/1
f 5/1/1 6/1/1 7/1/1
f 7/1/1 6/1/1 8/1/1
f 10/2/4 6/1/3 9/2/2
f 6/1/3 10/2/4 8/1/5
f 6/1/3 11/2/6 9/2/2
f 11/2/6 6/1/3 4/1/7
f 4/1/7 12/2/8 11/2/6
f 12/2/8 4/1/7 3/1/9
f 1/1/12 14/2/11 13/2/10
f 14/2/11 1/1/12 2/1/13
f 15/2/14 8/1/5 10/2/4
f 8/1/5 15/2/14 7/1/15
f 2/1/13 16/2/16 14/2/11
f 16/2/16 2/1/13 5/1/17
f 5/1/17 15/2/14 16/2/16
f 15/2/14 5/1/17 7/1/15
f 3/1/9 13/2/10 12/2/8
f 13/2/10 3/1/9 1/1/12
f 19/3/20 18/3/19 17/3/18
f 18/3/19 19/3/20 20/3/21
f 20/3/21 19/3/20 21/3/22
f 20/3/21 21/3/22 22/3/23
f 20/3/21 22/3/23 23/3/24
f 23/3/24 22/3/23 24/3/25
f 23/3/24 10/2/4 9/2/2
f 10/2/4 23/3/24 24/3/25
f 9/2/2 20/3/21 23/3/24
f 20/3/21 9/2/2 11/2/6
f 22/3/23 10/2/4 24/3/25
f 10/2/4 22/3/23 15/2/14
f 13/2/10 18/3/19 12/2/8
f 18/3/19 13/2/10 17/3/18
f 11/2/6 18/3/19 20/3/21
f 18/3/19 11/2/6 12/2/8
f 16/2/16 22/3/23 21/3/22
f 22/3/23 16/2/16 15/2/14
f 13/2/10 19/3/20 17/3/18
f 19/3/20 13/2/10 14/2/11
f 14/2/11 21/3/22 19/3/20
f 21/3/22 14/2/11 16/2/16
f 27/3/28 26/4/27 25/4/26
f 26/4/27 27/3/28 28/3/29
f 31/5/1 30/5/1 29/5/1
f 30/5/1 31/5/1 32/5/1
f 30/5/1 32/5/1 33/5/1
f 33/5/1 32/5/1 34/5/1
f 33/5/1 34/5/1 35/5/1
f 35/5/1 34/5/1 36/5/1
f 35/5/1 36/5/1 37/5/1
f 37/5/1 36/5/1 38/5/1
f 38/5/1 36/5/1 39/5/1
f 38/5/1 39/5/1 40/5/1
f 41/3/30 26/4/27 28/3/29
f 26/4/27 41/3/30 42/4/31
f 43/1/32 37/5/33 38/5/32
f 37/5/33 43/1/32 44/1/33
f 31/5/34 46/1/35 45/1/34
f 46/1/35 31/5/34 29/5/35
f 33/5/37 47/1/36 30/5/36
f 47/1/36 33/5/37 48/1/37
f 49/1/38 36/5/39 34/5/38
f 36/5/39 49/1/38 50/1/39
f 53/3/40 52/3/40 51/3/40
f 52/3/40 53/3/40 54/3/40
f 52/3/40 54/3/40 55/3/40
f 55/3/40 54/3/40 56/3/40
f 56/3/40 54/3/40 57/3/40
f 56/3/40 57/3/40 58/3/40
f 56/3/40 58/3/40 59/3/40
f 59/3/40 58/3/40 41/3/40
f 59/3/40 41/3/40 27/3/40
f 27/3/40 41/3/40 28/3/40
f 61/1/42 39/5/41 60/1/41
f 39/5/41 61/1/42 40/5/42
f 62/4/45 52/3/44 55/3/43
f 52/3/44 62/4/45 63/4/46
f 64/4/49 53/3/48 51/3/47
f 53/3/48 64/4/49 65/4/50
f 66/4/53 56/3/52 59/3/51
f 56/3/52 66/4/53 67/4/54
f 68/4/57 57/3/56 54/3/55
f 57/3/56 68/4/57 69/4/58
f 25/4/26 59/3/51 27/3/28
f 59/3/51 25/4/26 66/4/53
f 61/1/42 38/5/32 40/5/42
f 38/5/32 61/1/42 43/1/32
f 67/4/54 55/3/43 56/3/52
f 55/3/43 67/4/54 62/4/45
f 70/1/59 34/5/38 32/5/59
f 34/5/38 70/1/59 49/1/38
f 73/1/1 72/1/1 71/1/1
f 72/1/1 73/1/1 46/1/1
f 46/1/1 73/1/1 45/1/1
f 47/1/1 72/1/1 46/1/1
f 45/1/1 73/1/1 74/1/1
f 72/1/1 47/1/1 75/1/1
f 45/1/1 74/1/1 70/1/1
f 75/1/1 47/1/1 48/1/1
f 70/1/1 74/1/1 76/1/1
f 70/1/1 76/1/1 49/1/1
f 75/1/1 48/1/1 77/1/1
f 77/1/1 48/1/1 78/1/1
f 77/1/1 78/1/1 44/1/1
f 77/1/1 44/1/1 79/1/1
f 79/1/1 44/1/1 43/1/1
f 49/1/1 76/1/1 80/1/1
f 49/1/1 80/1/1 50/1/1
f 50/1/1 80/1/1 60/1/1
f 79/1/1 43/1/1 81/1/1
f 60/1/1 80/1/1 82/1/1
f 81/1/1 82/1/1 83/1/1
f 81/1/1 43/1/1 61/1/1
f 60/1/1 82/1/1 61/1/1
f 61/1/1 82/1/1 81/1/1
f 76/1/60 62/4/45 67/4/54
f 62/4/45 76/1/60 74/1/61
f 42/4/31 83/1/62 26/4/27
f 83/1/62 42/4/31 81/1/63
f 74/1/61 63/4/46 62/4/45
f 63/4/46 74/1/61 73/1/64
f 75/1/65 69/4/58 68/4/57
f 69/4/58 75/1/65 77/1/66
f 42/4/31 79/1/67 81/1/63
f 79/1/67 42/4/31 84/4/68
f 26/4/27 82/1/69 25/4/26
f 82/1/69 26/4/27 83/1/62
f 72/1/71 64/4/49 71/1/70
f 64/4/49 72/1/71 65/4/50
f 75/1/65 65/4/50 72/1/71
f 65/4/50 75/1/65 68/4/57
f 77/1/66 84/4/68 69/4/58
f 84/4/68 77/1/66 79/1/67
f 78/1/72 33/5/37 35/5/72
f 33/5/37 78/1/72 48/1/37
f 69/4/58 58/3/73 57/3/56
f 58/3/73 69/4/58 84/4/68
f 58/3/73 42/4/31 41/3/30
f 42/4/31 58/3/73 84/4/68
f 60/1/41 36/5/39 50/1/39
f 36/5/39 60/1/41 39/5/41
f 80/1/74 67/4/54 66/4/53
f 67/4/54 80/1/74 76/1/60
f 82/1/69 66/4/53 25/4/26
f 66/4/53 82/1/69 80/1/74
f 64/4/49 52/3/44 63/4/46
f 52/3/44 64/4/49 51/3/47
f 30/5/36 46/1/35 29/5/35
f 46/1/35 30/5/36 47/1/36
f 44/1/33 35/5/72 37/5/33
f 35/5/72 44/1/33 78/1/72
f 65/4/50 54/3/55 53/3/48
f 54/3/55 65/4/50 68/4/57
f 73/1/64 64/4/49 63/4/46
f 64/4/49 73/1/64 71/1/70
f 32/5/59 45/1/34 70/1/59
f 45/1/34 32/5/59 31/5/34
f 87/3/75 86/1/76 85/1/75
f 86/1/76 87/3/75 88/3/76
f 91/3/77 90/1/78 89/1/77
f 90/1/78 91/3/77 92/3/78
f 93/3/79 90/1/78 92/3/78
f 90/1/78 93/3/79 94/1/79
f 97/1/81 96/3/80 95/1/80
f 96/3/80 97/1/81 98/3/81
f 100/1/82 96/3/80 99/3/82
f 96/3/80 100/1/82 95/1/80
f 99/3/82 89/1/77 100/1/82
f 89/1/77 99/3/82 91/3/77
f 88/3/76 97/1/81 86/1/76
f 97/1/81 88/3/76 98/3/81
f 87/3/75 94/1/79 93/3/79
f 94/1/79 87/3/75 85/1/75

