# Created by Kenney (www.kenney.nl)

mtllib fence-gate.mtl

g fence-gate

v 0.5 0.5801219 -0.042 1 1 1
v 0.5 0.5801219 0.042 1 1 1
v 0.4884756 0.5801219 -0.042 1 1 1
v 0.4884756 0.5801219 0.042 1 1 1
v 0.5 2.489603E-31 0.042 1 1 1
v 0.5 2.489603E-31 -0.042 1 1 1
v 0.4166666 2.489603E-31 0.042 1 1 1
v 0.4166666 2.489603E-31 -0.042 1 1 1
v 0.4166666 0.4988152 -0.042 1 1 1
v 0.4316667 0.5314286 -0.042 1 1 1
v 0.4166666 0.4988152 0.042 1 1 1
v 0.4316667 0.5314286 0.042 1 1 1
v -0.5 0.5801219 0.042 1 1 1
v -0.5 0.5801219 -0.042 1 1 1
v -0.4884756 0.5801219 0.042 1 1 1
v -0.4884756 0.5801219 -0.042 1 1 1
v -0.5 2.489603E-31 -0.042 1 1 1
v -0.5 2.489603E-31 0.042 1 1 1
v -0.4166666 2.489603E-31 -0.042 1 1 1
v -0.4166666 2.489603E-31 0.042 1 1 1
v -0.4166666 0.4988152 0.042 1 1 1
v -0.4316667 0.5314286 0.042 1 1 1
v -0.4166666 0.4988152 -0.042 1 1 1
v -0.4316667 0.5314286 -0.042 1 1 1
v -0.25 0 -0.0836 1 1 1
v -0.25 2.489603E-31 0.0836 1 1 1
v -0.2 0 -0.0836 1 1 1
v -0.2 2.489603E-31 0.0836 1 1 1
v -0.25 0.4988152 -0.077 1 1 1
v -0.2 0.4988152 -0.077 1 1 1
v -0.25 0.4988152 0.077 1 1 1
v -0.2 0.4988152 0.077 1 1 1
v -0.2 0.4738153 0.102 1 1 1
v -0.25 0.4738153 0.102 1 1 1
v -0.25 0.4738153 -0.102 1 1 1
v -0.2 0.4738153 -0.102 1 1 1
v 0.2 1.244801E-31 -0.0836 1 1 1
v 0.2 3.734404E-31 0.0836 1 1 1
v 0.25 1.244801E-31 -0.0836 1 1 1
v 0.25 3.734404E-31 0.0836 1 1 1
v 0.2 0.4988152 -0.077 1 1 1
v 0.25 0.4988152 -0.077 1 1 1
v 0.2 0.4988152 0.077 1 1 1
v 0.25 0.4988152 0.077 1 1 1
v 0.25 0.4738153 0.102 1 1 1
v 0.2 0.4738153 0.102 1 1 1
v 0.2 0.4738153 -0.102 1 1 1
v 0.25 0.4738153 -0.102 1 1 1
v -0.25 0.21 0.092 1 1 1
v -0.25 0.21 0.042 1 1 1
v -0.5 0.21 0.092 1 1 1
v -0.5 0.21 0.042 1 1 1
v 0.5 0.38 0.042 1 1 1
v 0.5 0.38 0.092 1 1 1
v 0.25 0.38 0.042 1 1 1
v 0.25 0.38 0.092 1 1 1
v 0.5 0.21 0.042 1 1 1
v 0.5 0.21 0.092 1 1 1
v -0.5 0.38 0.042 1 1 1
v -0.5 0.38 0.092 1 1 1
v -0.25 0.3612896 0.092 1 1 1
v -0.2832629 0.38 0.092 1 1 1
v -0.25 0.3612896 0.042 1 1 1
v -0.2832629 0.38 0.042 1 1 1
v 0.2875 0.21 0.092 1 1 1
v 0.2875 0.21 0.042 1 1 1
v 0.25 0.2310937 0.092 1 1 1
v 0.25 0.2310937 0.042 1 1 1
v -0.25 0.21 -0.042 1 1 1
v -0.25 0.21 -0.092 1 1 1
v -0.5 0.21 -0.042 1 1 1
v -0.5 0.21 -0.092 1 1 1
v 0.5 0.38 -0.092 1 1 1
v 0.5 0.38 -0.042 1 1 1
v 0.25 0.38 -0.092 1 1 1
v 0.25 0.38 -0.042 1 1 1
v 0.5 0.21 -0.092 1 1 1
v 0.5 0.21 -0.042 1 1 1
v -0.5 0.38 -0.092 1 1 1
v -0.5 0.38 -0.042 1 1 1
v -0.25 0.3612896 -0.042 1 1 1
v -0.2832629 0.38 -0.042 1 1 1
v -0.25 0.3612896 -0.092 1 1 1
v -0.2832629 0.38 -0.092 1 1 1
v 0.2875 0.21 -0.042 1 1 1
v 0.2875 0.21 -0.092 1 1 1
v 0.25 0.2310937 -0.042 1 1 1
v 0.25 0.2310937 -0.092 1 1 1
v 0.4016666 0.5014285 -0.0315 1 1 1
v 0.4016666 0.5014285 0.0315 1 1 1
v 0.3448578 0.5501219 -0.0315 1 1 1
v 0.3448578 0.5501219 0.0315 1 1 1
v 0.3218089 0.5501219 -0.0315 1 1 1
v 0.3218089 0.5501219 0.0315 1 1 1
v 0.4166667 2.489603E-31 0.0315 1 1 1
v 0.4166667 2.489603E-31 -0.0315 1 1 1
v 0.25 2.489603E-31 0.0315 1 1 1
v 0.25 2.489603E-31 -0.0315 1 1 1
v 0.4166667 0.4688153 -0.0315 1 1 1
v 0.4166667 0.4688153 0.0315 1 1 1
v 0.25 0.4688153 -0.0315 1 1 1
v 0.265 0.5014285 -0.0315 1 1 1
v 0.25 0.4688153 0.0315 1 1 1
v 0.265 0.5014285 0.0315 1 1 1
v -0.265 0.5714286 -0.0315 1 1 1
v -0.265 0.5714286 0.0315 1 1 1
v -0.3218089 0.620122 -0.0315 1 1 1
v -0.3218089 0.620122 0.0315 1 1 1
v -0.3448578 0.620122 -0.0315 1 1 1
v -0.3448578 0.620122 0.0315 1 1 1
v -0.25 2.489603E-31 0.0315 1 1 1
v -0.25 2.489603E-31 -0.0315 1 1 1
v -0.4166667 2.489603E-31 0.0315 1 1 1
v -0.4166667 2.489603E-31 -0.0315 1 1 1
v -0.25 0.5388153 -0.0315 1 1 1
v -0.25 0.5388153 0.0315 1 1 1
v -0.4166667 0.5388153 -0.0315 1 1 1
v -0.4016666 0.5714286 -0.0315 1 1 1
v -0.4166667 0.5388153 0.0315 1 1 1
v -0.4016666 0.5714286 0.0315 1 1 1

vn 0 1 0
vn -0.3469462 0.937885 0
vn 0.3469462 -0.937885 0
vn 0 -1 0
vn -0.9768605 0.2138774 0
vn -0.7981202 0.6024982 0
vn 0.9768605 -0.2138774 0
vn 0.7981202 -0.6024982 0
vn -1 0 0
vn 1 0 0
vn 0 0 -1
vn 0 0 1
vn 0.3469462 0.937885 2.082902E-14
vn -0.3469462 -0.937885 -2.082902E-14
vn 0.9768605 0.2138774 5.864612E-14
vn 0.7981202 0.6024982 4.791539E-14
vn -0.9768605 -0.2138774 -5.864612E-14
vn -0.7981202 -0.6024982 -4.791539E-14
vn 1 0 6.003531E-14
vn -1 0 -6.003531E-14
vn -6.003531E-14 0 1
vn 6.003531E-14 0 -1
vn 4.582448E-09 0.9515398 -0.3075254
vn -4.582448E-09 0.9515398 0.3075254
vn -1.360339E-08 0.4081481 0.9129157
vn 1.360339E-08 0.4081481 -0.9129157
vn -1.488981E-08 -0.03880445 0.9992468
vn 1.488981E-08 -0.03880445 -0.9992468
vn 1 0 1.490104E-08
vn -1 0 -1.490104E-08
vn 0.8632094 0.5048459 0
vn 0.2534013 0.9673612 0
vn -0.2534013 -0.9673612 0
vn -0.8632094 -0.5048459 0
vn 0.7981202 0.6024982 0
vn 0.3469462 0.937885 0
vn -0.3469462 -0.937885 0
vn -0.7981202 -0.6024982 0
vn 0.9768605 0.2138774 0
vn -0.9768605 -0.2138774 0

vt 0.21875 0.475
vt 0.21875 0.275
vt 0.21875 0.4469691
vt 0.21875 0.4582127
vt 0.21875 0.4649763
vt 0.15625 0.375
vt 0.21875 0.4161486
vt 0.21875 0.425
vt 0.21875 0.325
vt 0.21875 0.4102203
vt 0.21875 0.4171478
vt 0.21875 0.4118886

usemtl colormap

f 3/1/2 2/1/1 1/1/1
f 2/1/1 3/1/2 4/1/2
f 1/1/4 2/1/4 3/1/3
f 4/1/3 3/1/3 2/1/4
f 7/2/4 6/2/4 5/2/4
f 6/2/4 7/2/4 8/2/4
f 5/2/1 6/2/1 7/2/1
f 8/2/1 7/2/1 6/2/1
f 11/3/5 10/4/6 9/3/5
f 10/4/6 11/3/5 12/4/6
f 9/3/7 10/4/8 11/3/7
f 12/4/8 11/3/7 10/4/8
f 7/2/9 9/3/5 8/2/9
f 9/3/5 7/2/9 11/3/5
f 8/2/10 9/3/7 7/2/10
f 11/3/7 7/2/10 9/3/7
f 10/4/6 4/1/2 3/1/2
f 4/1/2 10/4/6 12/4/6
f 3/1/3 4/1/3 10/4/8
f 12/4/8 10/4/8 4/1/3
f 9/3/11 6/2/11 8/2/11
f 6/2/11 9/3/11 1/1/11
f 1/1/11 9/3/11 10/4/11
f 1/1/11 10/4/11 3/1/11
f 8/2/12 6/2/12 9/3/12
f 1/1/12 9/3/12 6/2/12
f 10/4/12 9/3/12 1/1/12
f 3/1/12 10/4/12 1/1/12
f 2/1/12 7/2/12 5/2/12
f 7/2/12 2/1/12 11/3/12
f 11/3/12 2/1/12 12/4/12
f 12/4/12 2/1/12 4/1/12
f 5/2/11 7/2/11 2/1/11
f 11/3/11 2/1/11 7/2/11
f 12/4/11 2/1/11 11/3/11
f 4/1/11 2/1/11 12/4/11
f 2/1/10 6/2/10 1/1/10
f 6/2/10 2/1/10 5/2/10
f 1/1/9 6/2/9 2/1/9
f 5/2/9 2/1/9 6/2/9
f 15/1/13 14/1/1 13/1/1
f 14/1/1 15/1/13 16/1/13
f 13/1/4 14/1/4 15/1/14
f 16/1/14 15/1/14 14/1/4
f 19/2/4 18/2/4 17/2/4
f 18/2/4 19/2/4 20/2/4
f 17/2/1 18/2/1 19/2/1
f 20/2/1 19/2/1 18/2/1
f 23/3/15 22/4/16 21/3/15
f 22/4/16 23/3/15 24/4/16
f 21/3/17 22/4/18 23/3/17
f 24/4/18 23/3/17 22/4/18
f 19/2/19 21/3/15 20/2/19
f 21/3/15 19/2/19 23/3/15
f 20/2/20 21/3/17 19/2/20
f 23/3/17 19/2/20 21/3/17
f 22/4/16 16/1/13 15/1/13
f 16/1/13 22/4/16 24/4/16
f 15/1/14 16/1/14 22/4/18
f 24/4/18 22/4/18 16/1/14
f 21/3/21 18/2/21 20/2/21
f 18/2/21 21/3/21 13/1/21
f 13/1/21 21/3/21 22/4/21
f 13/1/21 22/4/21 15/1/21
f 20/2/22 18/2/22 21/3/22
f 13/1/22 21/3/22 18/2/22
f 22/4/22 21/3/22 13/1/22
f 15/1/22 22/4/22 13/1/22
f 14/1/22 19/2/22 17/2/22
f 19/2/22 14/1/22 23/3/22
f 23/3/22 14/1/22 24/4/22
f 24/4/22 14/1/22 16/1/22
f 17/2/21 19/2/21 14/1/21
f 23/3/21 14/1/21 19/2/21
f 24/4/21 14/1/21 23/3/21
f 16/1/21 14/1/21 24/4/21
f 14/1/20 18/2/20 13/1/20
f 18/2/20 14/1/20 17/2/20
f 13/1/19 18/2/19 14/1/19
f 17/2/19 14/1/19 18/2/19
f 27/2/4 26/2/4 25/2/4
f 26/2/4 27/2/4 28/2/4
f 31/1/24 30/1/23 29/1/23
f 30/1/23 31/1/24 32/1/24
f 32/1/24 34/5/25 33/5/25
f 34/5/25 32/1/24 31/1/24
f 29/1/23 36/5/26 35/5/26
f 36/5/26 29/1/23 30/1/23
f 33/5/25 26/2/27 28/2/27
f 26/2/27 33/5/25 34/5/25
f 35/5/26 27/2/28 25/2/28
f 27/2/28 35/5/26 36/5/26
f 28/2/29 32/1/29 33/5/29
f 32/1/29 28/2/29 27/2/29
f 32/1/29 27/2/29 30/1/29
f 30/1/29 27/2/29 36/5/29
f 31/1/30 26/2/30 34/5/30
f 26/2/30 31/1/30 25/2/30
f 25/2/30 31/1/30 29/1/30
f 25/2/30 29/1/30 35/5/30
f 39/2/4 38/2/4 37/2/4
f 38/2/4 39/2/4 40/2/4
f 43/1/24 42/1/23 41/1/23
f 42/1/23 43/1/24 44/1/24
f 44/1/24 46/5/25 45/5/25
f 46/5/25 44/1/24 43/1/24
f 41/1/23 48/5/26 47/5/26
f 48/5/26 41/1/23 42/1/23
f 45/5/25 38/2/27 40/2/27
f 38/2/27 45/5/25 46/5/25
f 47/5/26 39/2/28 37/2/28
f 39/2/28 47/5/26 48/5/26
f 40/2/29 44/1/29 45/5/29
f 44/1/29 40/2/29 39/2/29
f 44/1/29 39/2/29 42/1/29
f 42/1/29 39/2/29 48/5/29
f 43/1/30 38/2/30 46/5/30
f 38/2/30 43/1/30 37/2/30
f 37/2/30 43/1/30 41/1/30
f 37/2/30 41/1/30 47/5/30
f 51/6/4 50/6/4 49/6/4
f 50/6/4 51/6/4 52/6/4
f 55/6/1 54/6/1 53/6/1
f 54/6/1 55/6/1 56/6/1
f 54/6/10 57/6/10 53/6/10
f 57/6/10 54/6/10 58/6/10
f 51/6/9 59/6/9 52/6/9
f 59/6/9 51/6/9 60/6/9
f 63/6/31 62/6/32 61/6/31
f 62/6/32 63/6/31 64/6/32
f 59/6/1 62/6/32 64/6/32
f 62/6/32 59/6/1 60/6/1
f 67/6/34 66/6/33 65/6/33
f 66/6/33 67/6/34 68/6/34
f 65/6/33 57/6/4 58/6/4
f 57/6/4 65/6/33 66/6/33
f 66/6/11 53/6/11 57/6/11
f 53/6/11 66/6/11 68/6/11
f 53/6/11 68/6/11 55/6/11
f 61/6/12 51/6/12 49/6/12
f 51/6/12 61/6/12 60/6/12
f 60/6/12 61/6/12 62/6/12
f 54/6/12 65/6/12 58/6/12
f 65/6/12 54/6/12 67/6/12
f 67/6/12 54/6/12 56/6/12
f 67/6/34 55/6/9 68/6/34
f 55/6/9 67/6/34 56/6/9
f 59/6/11 50/6/11 52/6/11
f 50/6/11 59/6/11 63/6/11
f 63/6/11 59/6/11 64/6/11
f 61/6/31 50/6/10 63/6/31
f 50/6/10 61/6/31 49/6/10
f 71/6/4 70/6/4 69/6/4
f 70/6/4 71/6/4 72/6/4
f 75/6/1 74/6/1 73/6/1
f 74/6/1 75/6/1 76/6/1
f 74/6/10 77/6/10 73/6/10
f 77/6/10 74/6/10 78/6/10
f 71/6/9 79/6/9 72/6/9
f 79/6/9 71/6/9 80/6/9
f 83/6/31 82/6/32 81/6/31
f 82/6/32 83/6/31 84/6/32
f 79/6/1 82/6/32 84/6/32
f 82/6/32 79/6/1 80/6/1
f 87/6/34 86/6/33 85/6/33
f 86/6/33 87/6/34 88/6/34
f 85/6/33 77/6/4 78/6/4
f 77/6/4 85/6/33 86/6/33
f 86/6/11 73/6/11 77/6/11
f 73/6/11 86/6/11 88/6/11
f 73/6/11 88/6/11 75/6/11
f 81/6/12 71/6/12 69/6/12
f 71/6/12 81/6/12 80/6/12
f 80/6/12 81/6/12 82/6/12
f 74/6/12 85/6/12 78/6/12
f 85/6/12 74/6/12 87/6/12
f 87/6/12 74/6/12 76/6/12
f 87/6/34 75/6/9 88/6/34
f 75/6/9 87/6/34 76/6/9
f 79/6/11 70/6/11 72/6/11
f 70/6/11 79/6/11 83/6/11
f 83/6/11 79/6/11 84/6/11
f 81/6/31 70/6/10 83/6/31
f 70/6/10 81/6/31 69/6/10
f 91/8/36 90/7/35 89/7/35
f 90/7/35 91/8/36 92/8/36
f 89/7/38 90/7/38 91/8/37
f 92/8/37 91/8/37 90/7/38
f 93/8/2 92/8/36 91/8/36
f 92/8/36 93/8/2 94/8/2
f 91/8/37 92/8/37 93/8/3
f 94/8/3 93/8/3 92/8/37
f 97/9/4 96/9/4 95/9/4
f 96/9/4 97/9/4 98/9/4
f 95/9/1 96/9/1 97/9/1
f 98/9/1 97/9/1 96/9/1
f 100/10/39 96/9/10 99/10/39
f 96/9/10 100/10/39 95/9/10
f 99/10/40 96/9/9 100/10/40
f 95/9/9 100/10/40 96/9/9
f 103/10/5 102/7/6 101/10/5
f 102/7/6 103/10/5 104/7/6
f 101/10/7 102/7/8 103/10/7
f 104/7/8 103/10/7 102/7/8
f 100/10/12 97/9/12 95/9/12
f 97/9/12 100/10/12 103/10/12
f 103/10/12 100/10/12 90/7/12
f 103/10/12 90/7/12 104/7/12
f 104/7/12 90/7/12 94/8/12
f 94/8/12 90/7/12 92/8/12
f 95/9/11 97/9/11 100/10/11
f 103/10/11 100/10/11 97/9/11
f 90/7/11 100/10/11 103/10/11
f 104/7/11 90/7/11 103/10/11
f 94/8/11 90/7/11 104/7/11
f 92/8/11 90/7/11 94/8/11
f 97/9/9 101/10/5 98/9/9
f 101/10/5 97/9/9 103/10/5
f 98/9/10 101/10/7 97/9/10
f 103/10/7 97/9/10 101/10/7
f 102/7/6 94/8/2 93/8/2
f 94/8/2 102/7/6 104/7/6
f 93/8/3 94/8/3 102/7/8
f 104/7/8 102/7/8 94/8/3
f 101/10/11 96/9/11 98/9/11
f 96/9/11 101/10/11 99/10/11
f 99/10/11 101/10/11 89/7/11
f 89/7/11 101/10/11 102/7/11
f 89/7/11 102/7/11 93/8/11
f 89/7/11 93/8/11 91/8/11
f 98/9/12 96/9/12 101/10/12
f 99/10/12 101/10/12 96/9/12
f 89/7/12 101/10/12 99/10/12
f 102/7/12 101/10/12 89/7/12
f 93/8/12 102/7/12 89/7/12
f 91/8/12 93/8/12 89/7/12
f 90/7/35 99/10/39 89/7/35
f 99/10/39 90/7/35 100/10/39
f 89/7/38 99/10/40 90/7/38
f 100/10/40 90/7/38 99/10/40
f 107/8/36 106/11/35 105/11/35
f 106/11/35 107/8/36 108/8/36
f 105/11/38 106/11/38 107/8/37
f 108/8/37 107/8/37 106/11/38
f 109/8/2 108/8/36 107/8/36
f 108/8/36 109/8/2 110/8/2
f 107/8/37 108/8/37 109/8/3
f 110/8/3 109/8/3 108/8/37
f 113/9/4 112/9/4 111/9/4
f 112/9/4 113/9/4 114/9/4
f 111/9/1 112/9/1 113/9/1
f 114/9/1 113/9/1 112/9/1
f 116/12/39 112/9/10 115/12/39
f 112/9/10 116/12/39 111/9/10
f 115/12/40 112/9/9 116/12/40
f 111/9/9 116/12/40 112/9/9
f 119/12/5 118/11/6 117/12/5
f 118/11/6 119/12/5 120/11/6
f 117/12/7 118/11/8 119/12/7
f 120/11/8 119/12/7 118/11/8
f 116/12/12 113/9/12 111/9/12
f 113/9/12 116/12/12 119/12/12
f 119/12/12 116/12/12 106/11/12
f 119/12/12 106/11/12 120/11/12
f 120/11/12 106/11/12 110/8/12
f 110/8/12 106/11/12 108/8/12
f 111/9/11 113/9/11 116/12/11
f 119/12/11 116/12/11 113/9/11
f 106/11/11 116/12/11 119/12/11
f 120/11/11 106/11/11 119/12/11
f 110/8/11 106/11/11 120/11/11
f 108/8/11 106/11/11 110/8/11
f 113/9/9 117/12/5 114/9/9
f 117/12/5 113/9/9 119/12/5
f 114/9/10 117/12/7 113/9/10
f 119/12/7 113/9/10 117/12/7
f 118/11/6 110/8/2 109/8/2
f 110/8/2 118/11/6 120/11/6
f 109/8/3 110/8/3 118/11/8
f 120/11/8 118/11/8 110/8/3
f 117/12/11 112/9/11 114/9/11
f 112/9/11 117/12/11 115/12/11
f 115/12/11 117/12/11 105/11/11
f 105/11/11 117/12/11 118/11/11
f 105/11/11 118/11/11 109/8/11
f 105/11/11 109/8/11 107/8/11
f 114/9/12 112/9/12 117/12/12
f 115/12/12 117/12/12 112/9/12
f 105/11/12 117/12/12 115/12/12
f 118/11/12 117/12/12 105/11/12
f 109/8/12 118/11/12 105/11/12
f 107/8/12 109/8/12 105/11/12
f 106/11/35 115/12/39 105/11/35
f 115/12/39 106/11/35 116/12/39
f 105/11/38 115/12/40 106/11/38
f 116/12/40 106/11/38 115/12/40

g fence-gate




usemtl colormap

f 3/1/2 2/1/1 1/1/1
f 2/1/1 3/1/2 4/1/2
f 1/1/4 2/1/4 3/1/3
f 4/1/3 3/1/3 2/1/4
f 7/2/4 6/2/4 5/2/4
f 6/2/4 7/2/4 8/2/4
f 5/2/1 6/2/1 7/2/1
f 8/2/1 7/2/1 6/2/1
f 11/3/5 10/4/6 9/3/5
f 10/4/6 11/3/5 12/4/6
f 9/3/7 10/4/8 11/3/7
f 12/4/8 11/3/7 10/4/8
f 7/2/9 9/3/5 8/2/9
f 9/3/5 7/2/9 11/3/5
f 8/2/10 9/3/7 7/2/10
f 11/3/7 7/2/10 9/3/7
f 10/4/6 4/1/2 3/1/2
f 4/1/2 10/4/6 12/4/6
f 3/1/3 4/1/3 10/4/8
f 12/4/8 10/4/8 4/1/3
f 9/3/11 6/2/11 8/2/11
f 6/2/11 9/3/11 1/1/11
f 1/1/11 9/3/11 10/4/11
f 1/1/11 10/4/11 3/1/11
f 8/2/12 6/2/12 9/3/12
f 1/1/12 9/3/12 6/2/12
f 10/4/12 9/3/12 1/1/12
f 3/1/12 10/4/12 1/1/12
f 2/1/12 7/2/12 5/2/12
f 7/2/12 2/1/12 11/3/12
f 11/3/12 2/1/12 12/4/12
f 12/4/12 2/1/12 4/1/12
f 5/2/11 7/2/11 2/1/11
f 11/3/11 2/1/11 7/2/11
f 12/4/11 2/1/11 11/3/11
f 4/1/11 2/1/11 12/4/11
f 2/1/10 6/2/10 1/1/10
f 6/2/10 2/1/10 5/2/10
f 1/1/9 6/2/9 2/1/9
f 5/2/9 2/1/9 6/2/9
f 15/1/13 14/1/1 13/1/1
f 14/1/1 15/1/13 16/1/13
f 13/1/4 14/1/4 15/1/14
f 16/1/14 15/1/14 14/1/4
f 19/2/4 18/2/4 17/2/4
f 18/2/4 19/2/4 20/2/4
f 17/2/1 18/2/1 19/2/1
f 20/2/1 19/2/1 18/2/1
f 23/3/15 22/4/16 21/3/15
f 22/4/16 23/3/15 24/4/16
f 21/3/17 22/4/18 23/3/17
f 24/4/18 23/3/17 22/4/18
f 19/2/19 21/3/15 20/2/19
f 21/3/15 19/2/19 23/3/15
f 20/2/20 21/3/17 19/2/20
f 23/3/17 19/2/20 21/3/17
f 22/4/16 16/1/13 15/1/13
f 16/1/13 22/4/16 24/4/16
f 15/1/14 16/1/14 22/4/18
f 24/4/18 22/4/18 16/1/14
f 21/3/21 18/2/21 20/2/21
f 18/2/21 21/3/21 13/1/21
f 13/1/21 21/3/21 22/4/21
f 13/1/21 22/4/21 15/1/21
f 20/2/22 18/2/22 21/3/22
f 13/1/22 21/3/22 18/2/22
f 22/4/22 21/3/22 13/1/22
f 15/1/22 22/4/22 13/1/22
f 14/1/22 19/2/22 17/2/22
f 19/2/22 14/1/22 23/3/22
f 23/3/22 14/1/22 24/4/22
f 24/4/22 14/1/22 16/1/22
f 17/2/21 19/2/21 14/1/21
f 23/3/21 14/1/21 19/2/21
f 24/4/21 14/1/21 23/3/21
f 16/1/21 14/1/21 24/4/21
f 14/1/20 18/2/20 13/1/20
f 18/2/20 14/1/20 17/2/20
f 13/1/19 18/2/19 14/1/19
f 17/2/19 14/1/19 18/2/19
f 27/2/4 26/2/4 25/2/4
f 26/2/4 27/2/4 28/2/4
f 31/1/24 30/1/23 29/1/23
f 30/1/23 31/1/24 32/1/24
f 32/1/24 34/5/25 33/5/25
f 34/5/25 32/1/24 31/1/24
f 29/1/23 36/5/26 35/5/26
f 36/5/26 29/1/23 30/1/23
f 33/5/25 26/2/27 28/2/27
f 26/2/27 33/5/25 34/5/25
f 35/5/26 27/2/28 25/2/28
f 27/2/28 35/5/26 36/5/26
f 28/2/29 32/1/29 33/5/29
f 32/1/29 28/2/29 27/2/29
f 32/1/29 27/2/29 30/1/29
f 30/1/29 27/2/29 36/5/29
f 31/1/30 26/2/30 34/5/30
f 26/2/30 31/1/30 25/2/30
f 25/2/30 31/1/30 29/1/30
f 25/2/30 29/1/30 35/5/30
f 39/2/4 38/2/4 37/2/4
f 38/2/4 39/2/4 40/2/4
f 43/1/24 42/1/23 41/1/23
f 42/1/23 43/1/24 44/1/24
f 44/1/24 46/5/25 45/5/25
f 46/5/25 44/1/24 43/1/24
f 41/1/23 48/5/26 47/5/26
f 48/5/26 41/1/23 42/1/23
f 45/5/25 38/2/27 40/2/27
f 38/2/27 45/5/25 46/5/25
f 47/5/26 39/2/28 37/2/28
f 39/2/28 47/5/26 48/5/26
f 40/2/29 44/1/29 45/5/29
f 44/1/29 40/2/29 39/2/29
f 44/1/29 39/2/29 42/1/29
f 42/1/29 39/2/29 48/5/29
f 43/1/30 38/2/30 46/5/30
f 38/2/30 43/1/30 37/2/30
f 37/2/30 43/1/30 41/1/30
f 37/2/30 41/1/30 47/5/30
f 51/6/4 50/6/4 49/6/4
f 50/6/4 51/6/4 52/6/4
f 55/6/1 54/6/1 53/6/1
f 54/6/1 55/6/1 56/6/1
f 54/6/10 57/6/10 53/6/10
f 57/6/10 54/6/10 58/6/10
f 51/6/9 59/6/9 52/6/9
f 59/6/9 51/6/9 60/6/9
f 63/6/31 62/6/32 61/6/31
f 62/6/32 63/6/31 64/6/32
f 59/6/1 62/6/32 64/6/32
f 62/6/32 59/6/1 60/6/1
f 67/6/34 66/6/33 65/6/33
f 66/6/33 67/6/34 68/6/34
f 65/6/33 57/6/4 58/6/4
f 57/6/4 65/6/33 66/6/33
f 66/6/11 53/6/11 57/6/11
f 53/6/11 66/6/11 68/6/11
f 53/6/11 68/6/11 55/6/11
f 61/6/12 51/6/12 49/6/12
f 51/6/12 61/6/12 60/6/12
f 60/6/12 61/6/12 62/6/12
f 54/6/12 65/6/12 58/6/12
f 65/6/12 54/6/12 67/6/12
f 67/6/12 54/6/12 56/6/12
f 67/6/34 55/6/9 68/6/34
f 55/6/9 67/6/34 56/6/9
f 59/6/11 50/6/11 52/6/11
f 50/6/11 59/6/11 63/6/11
f 63/6/11 59/6/11 64/6/11
f 61/6/31 50/6/10 63/6/31
f 50/6/10 61/6/31 49/6/10
f 71/6/4 70/6/4 69/6/4
f 70/6/4 71/6/4 72/6/4
f 75/6/1 74/6/1 73/6/1
f 74/6/1 75/6/1 76/6/1
f 74/6/10 77/6/10 73/6/10
f 77/6/10 74/6/10 78/6/10
f 71/6/9 79/6/9 72/6/9
f 79/6/9 71/6/9 80/6/9
f 83/6/31 82/6/32 81/6/31
f 82/6/32 83/6/31 84/6/32
f 79/6/1 82/6/32 84/6/32
f 82/6/32 79/6/1 80/6/1
f 87/6/34 86/6/33 85/6/33
f 86/6/33 87/6/34 88/6/34
f 85/6/33 77/6/4 78/6/4
f 77/6/4 85/6/33 86/6/33
f 86/6/11 73/6/11 77/6/11
f 73/6/11 86/6/11 88/6/11
f 73/6/11 88/6/11 75/6/11
f 81/6/12 71/6/12 69/6/12
f 71/6/12 81/6/12 80/6/12
f 80/6/12 81/6/12 82/6/12
f 74/6/12 85/6/12 78/6/12
f 85/6/12 74/6/12 87/6/12
f 87/6/12 74/6/12 76/6/12
f 87/6/34 75/6/9 88/6/34
f 75/6/9 87/6/34 76/6/9
f 79/6/11 70/6/11 72/6/11
f 70/6/11 79/6/11 83/6/11
f 83/6/11 79/6/11 84/6/11
f 81/6/31 70/6/10 83/6/31
f 70/6/10 81/6/31 69/6/10
f 91/8/36 90/7/35 89/7/35
f 90/7/35 91/8/36 92/8/36
f 89/7/38 90/7/38 91/8/37
f 92/8/37 91/8/37 90/7/38
f 93/8/2 92/8/36 91/8/36
f 92/8/36 93/8/2 94/8/2
f 91/8/37 92/8/37 93/8/3
f 94/8/3 93/8/3 92/8/37
f 97/9/4 96/9/4 95/9/4
f 96/9/4 97/9/4 98/9/4
f 95/9/1 96/9/1 97/9/1
f 98/9/1 97/9/1 96/9/1
f 100/10/39 96/9/10 99/10/39
f 96/9/10 100/10/39 95/9/10
f 99/10/40 96/9/9 100/10/40
f 95/9/9 100/10/40 96/9/9
f 103/10/5 102/7/6 101/10/5
f 102/7/6 103/10/5 104/7/6
f 101/10/7 102/7/8 103/10/7
f 104/7/8 103/10/7 102/7/8
f 100/10/12 97/9/12 95/9/12
f 97/9/12 100/10/12 103/10/12
f 103/10/12 100/10/12 90/7/12
f 103/10/12 90/7/12 104/7/12
f 104/7/12 90/7/12 94/8/12
f 94/8/12 90/7/12 92/8/12
f 95/9/11 97/9/11 100/10/11
f 103/10/11 100/10/11 97/9/11
f 90/7/11 100/10/11 103/10/11
f 104/7/11 90/7/11 103/10/11
f 94/8/11 90/7/11 104/7/11
f 92/8/11 90/7/11 94/8/11
f 97/9/9 101/10/5 98/9/9
f 101/10/5 97/9/9 103/10/5
f 98/9/10 101/10/7 97/9/10
f 103/10/7 97/9/10 101/10/7
f 102/7/6 94/8/2 93/8/2
f 94/8/2 102/7/6 104/7/6
f 93/8/3 94/8/3 102/7/8
f 104/7/8 102/7/8 94/8/3
f 101/10/11 96/9/11 98/9/11
f 96/9/11 101/10/11 99/10/11
f 99/10/11 101/10/11 89/7/11
f 89/7/11 101/10/11 102/7/11
f 89/7/11 102/7/11 93/8/11
f 89/7/11 93/8/11 91/8/11
f 98/9/12 96/9/12 101/10/12
f 99/10/12 101/10/12 96/9/12
f 89/7/12 101/10/12 99/10/12
f 102/7/12 101/10/12 89/7/12
f 93/8/12 102/7/12 89/7/12
f 91/8/12 93/8/12 89/7/12
f 90/7/35 99/10/39 89/7/35
f 99/10/39 90/7/35 100/10/39
f 89/7/38 99/10/40 90/7/38
f 100/10/40 90/7/38 99/10/40
f 107/8/36 106/11/35 105/11/35
f 106/11/35 107/8/36 108/8/36
f 105/11/38 106/11/38 107/8/37
f 108/8/37 107/8/37 106/11/38
f 109/8/2 108/8/36 107/8/36
f 108/8/36 109/8/2 110/8/2
f 107/8/37 108/8/37 109/8/3
f 110/8/3 109/8/3 108/8/37
f 113/9/4 112/9/4 111/9/4
f 112/9/4 113/9/4 114/9/4
f 111/9/1 112/9/1 113/9/1
f 114/9/1 113/9/1 112/9/1
f 116/12/39 112/9/10 115/12/39
f 112/9/10 116/12/39 111/9/10
f 115/12/40 112/9/9 116/12/40
f 111/9/9 116/12/40 112/9/9
f 119/12/5 118/11/6 117/12/5
f 118/11/6 119/12/5 120/11/6
f 117/12/7 118/11/8 119/12/7
f 120/11/8 119/12/7 118/11/8
f 116/12/12 113/9/12 111/9/12
f 113/9/12 116/12/12 119/12/12
f 119/12/12 116/12/12 106/11/12
f 119/12/12 106/11/12 120/11/12
f 120/11/12 106/11/12 110/8/12
f 110/8/12 106/11/12 108/8/12
f 111/9/11 113/9/11 116/12/11
f 119/12/11 116/12/11 113/9/11
f 106/11/11 116/12/11 119/12/11
f 120/11/11 106/11/11 119/12/11
f 110/8/11 106/11/11 120/11/11
f 108/8/11 106/11/11 110/8/11
f 113/9/9 117/12/5 114/9/9
f 117/12/5 113/9/9 119/12/5
f 114/9/10 117/12/7 113/9/10
f 119/12/7 113/9/10 117/12/7
f 118/11/6 110/8/2 109/8/2
f 110/8/2 118/11/6 120/11/6
f 109/8/3 110/8/3 118/11/8
f 120/11/8 118/11/8 110/8/3
f 117/12/11 112/9/11 114/9/11
f 112/9/11 117/12/11 115/12/11
f 115/12/11 117/12/11 105/11/11
f 105/11/11 117/12/11 118/11/11
f 105/11/11 118/11/11 109/8/11
f 105/11/11 109/8/11 107/8/11
f 114/9/12 112/9/12 117/12/12
f 115/12/12 117/12/12 112/9/12
f 105/11/12 117/12/12 115/12/12
f 118/11/12 117/12/12 105/11/12
f 109/8/12 118/11/12 105/11/12
f 107/8/12 109/8/12 105/11/12
f 106/11/35 115/12/39 105/11/35
f 115/12/39 106/11/35 116/12/39
f 105/11/38 115/12/40 106/11/38
f 116/12/40 106/11/38 115/12/40

