# Created by Kenney (www.kenney.nl)

mtllib fence-damaged.mtl

g fence-damaged

v 0.5 0.5801219 -0.042 1 1 1
v 0.5 0.5801219 0.042 1 1 1
v 0.4884756 0.5801219 -0.042 1 1 1
v 0.4884756 0.5801219 0.042 1 1 1
v 0.5 0 0.042 1 1 1
v 0.5 0 -0.042 1 1 1
v 0.4166666 0 0.042 1 1 1
v 0.4166666 0 -0.042 1 1 1
v 0.4166666 0.4988152 -0.042 1 1 1
v 0.4316667 0.5314286 -0.042 1 1 1
v 0.4166666 0.4988152 0.042 1 1 1
v 0.4316667 0.5314286 0.042 1 1 1
v -0.5 0.5801219 0.042 1 1 1
v -0.5 0.5801219 -0.042 1 1 1
v -0.4884756 0.5801219 0.042 1 1 1
v -0.4884756 0.5801219 -0.042 1 1 1
v -0.5 0 -0.042 1 1 1
v -0.5 0 0.042 1 1 1
v -0.4166666 0 -0.042 1 1 1
v -0.4166666 0 0.042 1 1 1
v -0.4166666 0.4988152 0.042 1 1 1
v -0.4316667 0.5314286 0.042 1 1 1
v -0.4166666 0.4988152 -0.042 1 1 1
v -0.4316667 0.5314286 -0.042 1 1 1
v 0.5 0.21 -0.042 1 1 1
v 0.5 0.38 -0.042 1 1 1
v 0.5 0.21 -0.092 1 1 1
v 0.5 0.38 -0.092 1 1 1
v 0.5 0.21 0.092 1 1 1
v 0.5 0.38 0.092 1 1 1
v 0.5 0.21 0.042 1 1 1
v 0.5 0.38 0.042 1 1 1
v 0.2 0.38 0.06699999 1 1 1
v 0.2 0.38 -0.06699999 1 1 1
v 0.225 0.38 0.092 1 1 1
v 0.225 0.38 -0.092 1 1 1
v 0.25 0.38 0.042 1 1 1
v 0.25 0.38 -0.042 1 1 1
v 0.25 0.21 -0.042 1 1 1
v 0.225 0.21 -0.092 1 1 1
v 0.25 0.21 0.042 1 1 1
v 0.225 0.21 0.092 1 1 1
v 0.2 0.21 -0.06699999 1 1 1
v 0.2 0.21 0.06699999 1 1 1
v -0.5 0.21 0.042 1 1 1
v -0.5 0.38 0.042 1 1 1
v -0.5 0.21 0.092 1 1 1
v -0.5 0.38 0.092 1 1 1
v -0.5 0.21 -0.092 1 1 1
v -0.5 0.38 -0.092 1 1 1
v -0.5 0.21 -0.042 1 1 1
v -0.5 0.38 -0.042 1 1 1
v -0.2 0.38 -0.06699999 1 1 1
v -0.2 0.38 0.06699999 1 1 1
v -0.225 0.38 -0.092 1 1 1
v -0.225 0.38 0.092 1 1 1
v -0.25 0.38 -0.042 1 1 1
v -0.25 0.38 0.042 1 1 1
v -0.25 0.21 0.042 1 1 1
v -0.225 0.21 0.092 1 1 1
v -0.25 0.21 -0.042 1 1 1
v -0.225 0.21 -0.092 1 1 1
v -0.2 0.21 0.06699999 1 1 1
v -0.2 0.21 -0.06699999 1 1 1
v 0.21472 2.036573E-15 0.05704205 1 1 1
v -0.07004239 4.677525E-17 -0.1073656 1 1 1
v 0.1313866 3.639042E-15 0.2013796 1 1 1
v -0.1533757 1.649244E-15 0.03697198 1 1 1
v -0.1057863 0 -0.1106819 1 1 1
v -0.1763605 2.61038E-16 -0.08583058 1 1 1
v -0.1741197 1.314025E-15 0.007674944 1 1 1
v -0.1878849 4.826485E-16 -0.06586969 1 1 1
v 0.21472 0.063 0.05704205 1 1 1
v 0.1313866 0.063 0.2013796 1 1 1
v -0.1057863 0.063 -0.1106819 1 1 1
v -0.1763605 0.063 -0.08583058 1 1 1
v -0.1878849 0.063 -0.06586969 1 1 1
v -0.07004239 0.063 -0.1073656 1 1 1
v -0.1741197 0.063 0.007674944 1 1 1
v -0.1533757 0.063 0.03697198 1 1 1
v -0.265 0.5714286 -0.0315 1 1 1
v -0.265 0.5714286 0.0315 1 1 1
v -0.3218089 0.620122 -0.0315 1 1 1
v -0.3218089 0.620122 0.0315 1 1 1
v -0.3448578 0.620122 -0.0315 1 1 1
v -0.3448578 0.620122 0.0315 1 1 1
v -0.25 0 0.0315 1 1 1
v -0.25 0 -0.0315 1 1 1
v -0.4166667 0 0.0315 1 1 1
v -0.4166667 0 -0.0315 1 1 1
v -0.25 0.5388153 -0.0315 1 1 1
v -0.25 0.5388153 0.0315 1 1 1
v -0.4166667 0.5388153 -0.0315 1 1 1
v -0.4016666 0.5714286 -0.0315 1 1 1
v -0.4166667 0.5388153 0.0315 1 1 1
v -0.4016666 0.5714286 0.0315 1 1 1
v 0.4016666 0.5014285 -0.0315 1 1 1
v 0.4016666 0.5014285 0.0315 1 1 1
v 0.3448578 0.5501219 -0.0315 1 1 1
v 0.3448578 0.5501219 0.0315 1 1 1
v 0.3218089 0.5501219 -0.0315 1 1 1
v 0.3218089 0.5501219 0.0315 1 1 1
v 0.4166667 0 0.0315 1 1 1
v 0.4166667 0 -0.0315 1 1 1
v 0.25 0 0.0315 1 1 1
v 0.25 0 -0.0315 1 1 1
v 0.4166667 0.4688153 -0.0315 1 1 1
v 0.4166667 0.4688153 0.0315 1 1 1
v 0.25 0.4688153 -0.0315 1 1 1
v 0.265 0.5014285 -0.0315 1 1 1
v 0.25 0.4688153 0.0315 1 1 1
v 0.265 0.5014285 0.0315 1 1 1

vn 0 1 0
vn -0.3469462 0.937885 0
vn 0.3469462 -0.937885 0
vn 0 -1 0
vn -0.9768605 0.2138774 0
vn -0.7981202 0.6024982 0
vn 0.9768605 -0.2138774 0
vn 0.7981202 -0.6024982 0
vn -1 0 0
vn 1 0 0
vn 0 0 -1
vn 0 0 1
vn 0.3469462 0.937885 2.082902E-14
vn -0.3469462 -0.937885 -2.082902E-14
vn 0.9768605 0.2138774 5.864612E-14
vn 0.7981202 0.6024982 4.791539E-14
vn -0.9768605 -0.2138774 -5.864612E-14
vn -0.7981202 -0.6024982 -4.791539E-14
vn 1 0 6.003531E-14
vn -1 0 -6.003531E-14
vn -6.003531E-14 0 1
vn 6.003531E-14 0 -1
vn 1 0 -1.490117E-08
vn -0.9238795 0 0.3826834
vn -0.9238795 0 -0.3826834
vn 1.490117E-08 0 1
vn -0.3826834 0 0.9238795
vn -0.3826834 0 -0.9238795
vn -1.490117E-08 0 -1
vn 0.9238795 0 -0.3826834
vn 0.9238795 0 0.3826834
vn 0.3826834 0 -0.9238795
vn 0.3826834 0 0.9238795
vn 0.8660254 0 0.5
vn -0.8660254 0 -0.5
vn -0.1227186 0 -0.9924415
vn -0.6387591 0 -0.7694067
vn 0.6387591 0 0.7694067
vn 0.1227186 0 0.9924415
vn -0.9857054 0 -0.1684783
vn 0.9857054 0 0.1684783
vn 0.303207 0 -0.9529247
vn 0.5 0 -0.8660254
vn -0.303207 0 0.9529247
vn -0.5 0 0.8660254
vn -0.9208388 0 0.3899433
vn 0.9208388 0 -0.3899433
vn -0.6736535 0 0.7390473
vn 0.6736535 0 -0.7390473
vn 0.7981202 0.6024982 0
vn 0.3469462 0.937885 0
vn -0.3469462 -0.937885 0
vn -0.7981202 -0.6024982 0
vn 0.9768605 0.2138774 0
vn -0.9768605 -0.2138774 0

vt 0.21875 0.475
vt 0.21875 0.275
vt 0.21875 0.4469691
vt 0.21875 0.4582127
vt 0.15625 0.375
vt 0.21875 0.325
vt 0.21875 0.425
vt 0.21875 0.4171478
vt 0.21875 0.4118886
vt 0.21875 0.4161486
vt 0.21875 0.4102203

usemtl colormap

f 3/1/2 2/1/1 1/1/1
f 2/1/1 3/1/2 4/1/2
f 1/1/4 2/1/4 3/1/3
f 4/1/3 3/1/3 2/1/4
f 7/2/4 6/2/4 5/2/4
f 6/2/4 7/2/4 8/2/4
f 5/2/1 6/2/1 7/2/1
f 8/2/1 7/2/1 6/2/1
f 11/3/5 10/4/6 9/3/5
f 10/4/6 11/3/5 12/4/6
f 9/3/7 10/4/8 11/3/7
f 12/4/8 11/3/7 10/4/8
f 7/2/9 9/3/5 8/2/9
f 9/3/5 7/2/9 11/3/5
f 8/2/10 9/3/7 7/2/10
f 11/3/7 7/2/10 9/3/7
f 10/4/6 4/1/2 3/1/2
f 4/1/2 10/4/6 12/4/6
f 3/1/3 4/1/3 10/4/8
f 12/4/8 10/4/8 4/1/3
f 9/3/11 6/2/11 8/2/11
f 6/2/11 9/3/11 1/1/11
f 1/1/11 9/3/11 10/4/11
f 1/1/11 10/4/11 3/1/11
f 8/2/12 6/2/12 9/3/12
f 1/1/12 9/3/12 6/2/12
f 10/4/12 9/3/12 1/1/12
f 3/1/12 10/4/12 1/1/12
f 2/1/12 7/2/12 5/2/12
f 7/2/12 2/1/12 11/3/12
f 11/3/12 2/1/12 12/4/12
f 12/4/12 2/1/12 4/1/12
f 5/2/11 7/2/11 2/1/11
f 11/3/11 2/1/11 7/2/11
f 12/4/11 2/1/11 11/3/11
f 4/1/11 2/1/11 12/4/11
f 2/1/10 6/2/10 1/1/10
f 6/2/10 2/1/10 5/2/10
f 1/1/9 6/2/9 2/1/9
f 5/2/9 2/1/9 6/2/9
f 15/1/13 14/1/1 13/1/1
f 14/1/1 15/1/13 16/1/13
f 13/1/4 14/1/4 15/1/14
f 16/1/14 15/1/14 14/1/4
f 19/2/4 18/2/4 17/2/4
f 18/2/4 19/2/4 20/2/4
f 17/2/1 18/2/1 19/2/1
f 20/2/1 19/2/1 18/2/1
f 23/3/15 22/4/16 21/3/15
f 22/4/16 23/3/15 24/4/16
f 21/3/17 22/4/18 23/3/17
f 24/4/18 23/3/17 22/4/18
f 19/2/19 21/3/15 20/2/19
f 21/3/15 19/2/19 23/3/15
f 20/2/20 21/3/17 19/2/20
f 23/3/17 19/2/20 21/3/17
f 22/4/16 16/1/13 15/1/13
f 16/1/13 22/4/16 24/4/16
f 15/1/14 16/1/14 22/4/18
f 24/4/18 22/4/18 16/1/14
f 21/3/21 18/2/21 20/2/21
f 18/2/21 21/3/21 13/1/21
f 13/1/21 21/3/21 22/4/21
f 13/1/21 22/4/21 15/1/21
f 20/2/22 18/2/22 21/3/22
f 13/1/22 21/3/22 18/2/22
f 22/4/22 21/3/22 13/1/22
f 15/1/22 22/4/22 13/1/22
f 14/1/22 19/2/22 17/2/22
f 19/2/22 14/1/22 23/3/22
f 23/3/22 14/1/22 24/4/22
f 24/4/22 14/1/22 16/1/22
f 17/2/21 19/2/21 14/1/21
f 23/3/21 14/1/21 19/2/21
f 24/4/21 14/1/21 23/3/21
f 16/1/21 14/1/21 24/4/21
f 14/1/20 18/2/20 13/1/20
f 18/2/20 14/1/20 17/2/20
f 13/1/19 18/2/19 14/1/19
f 17/2/19 14/1/19 18/2/19
f 27/5/23 26/5/23 25/5/23
f 26/5/23 27/5/23 28/5/23
f 31/5/23 30/5/23 29/5/23
f 30/5/23 31/5/23 32/5/23
f 35/5/1 34/5/1 33/5/1
f 34/5/1 35/5/1 36/5/1
f 36/5/1 35/5/1 37/5/1
f 37/5/1 35/5/1 30/5/1
f 37/5/1 30/5/1 32/5/1
f 36/5/1 37/5/1 38/5/1
f 38/5/1 28/5/1 36/5/1
f 28/5/1 38/5/1 26/5/1
f 39/5/4 27/5/4 25/5/4
f 27/5/4 39/5/4 40/5/4
f 41/5/4 40/5/4 39/5/4
f 42/5/4 40/5/4 41/5/4
f 42/5/4 43/5/4 40/5/4
f 43/5/4 42/5/4 44/5/4
f 42/5/4 41/5/4 29/5/4
f 29/5/4 41/5/4 31/5/4
f 34/5/25 44/5/24 33/5/24
f 44/5/24 34/5/25 43/5/25
f 30/5/26 42/5/27 29/5/26
f 42/5/27 30/5/26 35/5/27
f 36/5/28 27/5/29 40/5/28
f 27/5/29 36/5/28 28/5/29
f 35/5/27 44/5/24 42/5/27
f 44/5/24 35/5/27 33/5/24
f 36/5/28 43/5/25 34/5/25
f 43/5/25 36/5/28 40/5/28
f 37/5/29 31/5/29 41/5/29
f 31/5/29 37/5/29 32/5/29
f 26/5/26 39/5/26 25/5/26
f 39/5/26 26/5/26 38/5/26
f 39/5/23 37/5/23 41/5/23
f 37/5/23 39/5/23 38/5/23
f 47/5/9 46/5/9 45/5/9
f 46/5/9 47/5/9 48/5/9
f 51/5/9 50/5/9 49/5/9
f 50/5/9 51/5/9 52/5/9
f 55/5/1 54/5/1 53/5/1
f 54/5/1 55/5/1 56/5/1
f 56/5/1 55/5/1 57/5/1
f 57/5/1 55/5/1 50/5/1
f 57/5/1 50/5/1 52/5/1
f 56/5/1 57/5/1 58/5/1
f 58/5/1 48/5/1 56/5/1
f 48/5/1 58/5/1 46/5/1
f 59/5/4 47/5/4 45/5/4
f 47/5/4 59/5/4 60/5/4
f 61/5/4 60/5/4 59/5/4
f 62/5/4 60/5/4 61/5/4
f 62/5/4 63/5/4 60/5/4
f 63/5/4 62/5/4 64/5/4
f 62/5/4 61/5/4 49/5/4
f 49/5/4 61/5/4 51/5/4
f 54/5/31 64/5/30 53/5/30
f 64/5/30 54/5/31 63/5/31
f 50/5/11 62/5/32 49/5/11
f 62/5/32 50/5/11 55/5/32
f 56/5/33 47/5/12 60/5/33
f 47/5/12 56/5/33 48/5/12
f 53/5/30 62/5/32 55/5/32
f 62/5/32 53/5/30 64/5/30
f 56/5/33 63/5/31 54/5/31
f 63/5/31 56/5/33 60/5/33
f 57/5/12 51/5/12 61/5/12
f 51/5/12 57/5/12 52/5/12
f 46/5/11 59/5/11 45/5/11
f 59/5/11 46/5/11 58/5/11
f 59/5/9 57/5/9 61/5/9
f 57/5/9 59/5/9 58/5/9
f 67/6/4 66/6/4 65/6/4
f 66/6/4 67/6/4 68/6/4
f 66/6/4 68/6/4 69/6/4
f 69/6/4 68/6/4 70/6/4
f 70/6/4 68/6/4 71/6/4
f 70/6/4 71/6/4 72/6/4
f 65/6/1 66/6/1 67/6/1
f 68/6/1 67/6/1 66/6/1
f 69/6/1 68/6/1 66/6/1
f 70/6/1 68/6/1 69/6/1
f 71/6/1 68/6/1 70/6/1
f 72/6/1 71/6/1 70/6/1
f 74/7/34 65/6/34 73/7/34
f 65/6/34 74/7/34 67/6/34
f 73/7/35 65/6/35 74/7/35
f 67/6/35 74/7/35 65/6/35
f 70/6/37 75/7/36 69/6/36
f 75/7/36 70/6/37 76/7/37
f 69/6/39 75/7/39 70/6/38
f 76/7/38 70/6/38 75/7/39
f 72/6/40 76/7/37 70/6/37
f 76/7/37 72/6/40 77/7/40
f 70/6/38 76/7/38 72/6/41
f 77/7/41 72/6/41 76/7/38
f 78/7/42 65/6/43 66/6/42
f 65/6/43 78/7/42 73/7/43
f 66/6/44 65/6/45 78/7/44
f 73/7/45 78/7/44 65/6/45
f 72/6/40 79/7/46 77/7/40
f 79/7/46 72/6/40 71/6/46
f 77/7/41 79/7/47 72/6/41
f 71/6/47 72/6/41 79/7/47
f 67/6/45 80/7/48 68/6/48
f 80/7/48 67/6/45 74/7/45
f 68/6/49 80/7/49 67/6/43
f 74/7/43 67/6/43 80/7/49
f 71/6/46 80/7/48 79/7/46
f 80/7/48 71/6/46 68/6/48
f 79/7/47 80/7/49 71/6/47
f 68/6/49 71/6/47 80/7/49
f 78/7/1 74/7/1 73/7/1
f 74/7/1 78/7/1 80/7/1
f 80/7/1 78/7/1 75/7/1
f 80/7/1 75/7/1 76/7/1
f 80/7/1 76/7/1 79/7/1
f 79/7/1 76/7/1 77/7/1
f 73/7/4 74/7/4 78/7/4
f 80/7/4 78/7/4 74/7/4
f 75/7/4 78/7/4 80/7/4
f 76/7/4 75/7/4 80/7/4
f 79/7/4 76/7/4 80/7/4
f 77/7/4 76/7/4 79/7/4
f 75/7/36 66/6/42 69/6/36
f 66/6/42 75/7/36 78/7/42
f 69/6/39 66/6/44 75/7/39
f 78/7/44 75/7/39 66/6/44
f 83/7/51 82/8/50 81/8/50
f 82/8/50 83/7/51 84/7/51
f 81/8/53 82/8/53 83/7/52
f 84/7/52 83/7/52 82/8/53
f 85/7/2 84/7/51 83/7/51
f 84/7/51 85/7/2 86/7/2
f 83/7/52 84/7/52 85/7/3
f 86/7/3 85/7/3 84/7/52
f 89/6/4 88/6/4 87/6/4
f 88/6/4 89/6/4 90/6/4
f 87/6/1 88/6/1 89/6/1
f 90/6/1 89/6/1 88/6/1
f 92/9/54 88/6/10 91/9/54
f 88/6/10 92/9/54 87/6/10
f 91/9/55 88/6/9 92/9/55
f 87/6/9 92/9/55 88/6/9
f 95/9/5 94/8/6 93/9/5
f 94/8/6 95/9/5 96/8/6
f 93/9/7 94/8/8 95/9/7
f 96/8/8 95/9/7 94/8/8
f 92/9/12 89/6/12 87/6/12
f 89/6/12 92/9/12 95/9/12
f 95/9/12 92/9/12 82/8/12
f 95/9/12 82/8/12 96/8/12
f 96/8/12 82/8/12 86/7/12
f 86/7/12 82/8/12 84/7/12
f 87/6/11 89/6/11 92/9/11
f 95/9/11 92/9/11 89/6/11
f 82/8/11 92/9/11 95/9/11
f 96/8/11 82/8/11 95/9/11
f 86/7/11 82/8/11 96/8/11
f 84/7/11 82/8/11 86/7/11
f 89/6/9 93/9/5 90/6/9
f 93/9/5 89/6/9 95/9/5
f 90/6/10 93/9/7 89/6/10
f 95/9/7 89/6/10 93/9/7
f 94/8/6 86/7/2 85/7/2
f 86/7/2 94/8/6 96/8/6
f 85/7/3 86/7/3 94/8/8
f 96/8/8 94/8/8 86/7/3
f 93/9/11 88/6/11 90/6/11
f 88/6/11 93/9/11 91/9/11
f 91/9/11 93/9/11 81/8/11
f 81/8/11 93/9/11 94/8/11
f 81/8/11 94/8/11 85/7/11
f 81/8/11 85/7/11 83/7/11
f 90/6/12 88/6/12 93/9/12
f 91/9/12 93/9/12 88/6/12
f 81/8/12 93/9/12 91/9/12
f 94/8/12 93/9/12 81/8/12
f 85/7/12 94/8/12 81/8/12
f 83/7/12 85/7/12 81/8/12
f 82/8/50 91/9/54 81/8/50
f 91/9/54 82/8/50 92/9/54
f 81/8/53 91/9/55 82/8/53
f 92/9/55 82/8/53 91/9/55
f 99/7/51 98/10/50 97/10/50
f 98/10/50 99/7/51 100/7/51
f 97/10/53 98/10/53 99/7/52
f 100/7/52 99/7/52 98/10/53
f 101/7/2 100/7/51 99/7/51
f 100/7/51 101/7/2 102/7/2
f 99/7/52 100/7/52 101/7/3
f 102/7/3 101/7/3 100/7/52
f 105/6/4 104/6/4 103/6/4
f 104/6/4 105/6/4 106/6/4
f 103/6/1 104/6/1 105/6/1
f 106/6/1 105/6/1 104/6/1
f 108/11/54 104/6/10 107/11/54
f 104/6/10 108/11/54 103/6/10
f 107/11/55 104/6/9 108/11/55
f 103/6/9 108/11/55 104/6/9
f 111/11/5 110/10/6 109/11/5
f 110/10/6 111/11/5 112/10/6
f 109/11/7 110/10/8 111/11/7
f 112/10/8 111/11/7 110/10/8
f 108/11/12 105/6/12 103/6/12
f 105/6/12 108/11/12 111/11/12
f 111/11/12 108/11/12 98/10/12
f 111/11/12 98/10/12 112/10/12
f 112/10/12 98/10/12 102/7/12
f 102/7/12 98/10/12 100/7/12
f 103/6/11 105/6/11 108/11/11
f 111/11/11 108/11/11 105/6/11
f 98/10/11 108/11/11 111/11/11
f 112/10/11 98/10/11 111/11/11
f 102/7/11 98/10/11 112/10/11
f 100/7/11 98/10/11 102/7/11
f 105/6/9 109/11/5 106/6/9
f 109/11/5 105/6/9 111/11/5
f 106/6/10 109/11/7 105/6/10
f 111/11/7 105/6/10 109/11/7
f 110/10/6 102/7/2 101/7/2
f 102/7/2 110/10/6 112/10/6
f 101/7/3 102/7/3 110/10/8
f 112/10/8 110/10/8 102/7/3
f 109/11/11 104/6/11 106/6/11
f 104/6/11 109/11/11 107/11/11
f 107/11/11 109/11/11 97/10/11
f 97/10/11 109/11/11 110/10/11
f 97/10/11 110/10/11 101/7/11
f 97/10/11 101/7/11 99/7/11
f 106/6/12 104/6/12 109/11/12
f 107/11/12 109/11/12 104/6/12
f 97/10/12 109/11/12 107/11/12
f 110/10/12 109/11/12 97/10/12
f 101/7/12 110/10/12 97/10/12
f 99/7/12 101/7/12 97/10/12
f 98/10/50 107/11/54 97/10/50
f 107/11/54 98/10/50 108/11/54
f 97/10/53 107/11/55 98/10/53
f 108/11/55 98/10/53 107/11/55

g fence-damaged




usemtl colormap

f 3/1/2 2/1/1 1/1/1
f 2/1/1 3/1/2 4/1/2
f 1/1/4 2/1/4 3/1/3
f 4/1/3 3/1/3 2/1/4
f 7/2/4 6/2/4 5/2/4
f 6/2/4 7/2/4 8/2/4
f 5/2/1 6/2/1 7/2/1
f 8/2/1 7/2/1 6/2/1
f 11/3/5 10/4/6 9/3/5
f 10/4/6 11/3/5 12/4/6
f 9/3/7 10/4/8 11/3/7
f 12/4/8 11/3/7 10/4/8
f 7/2/9 9/3/5 8/2/9
f 9/3/5 7/2/9 11/3/5
f 8/2/10 9/3/7 7/2/10
f 11/3/7 7/2/10 9/3/7
f 10/4/6 4/1/2 3/1/2
f 4/1/2 10/4/6 12/4/6
f 3/1/3 4/1/3 10/4/8
f 12/4/8 10/4/8 4/1/3
f 9/3/11 6/2/11 8/2/11
f 6/2/11 9/3/11 1/1/11
f 1/1/11 9/3/11 10/4/11
f 1/1/11 10/4/11 3/1/11
f 8/2/12 6/2/12 9/3/12
f 1/1/12 9/3/12 6/2/12
f 10/4/12 9/3/12 1/1/12
f 3/1/12 10/4/12 1/1/12
f 2/1/12 7/2/12 5/2/12
f 7/2/12 2/1/12 11/3/12
f 11/3/12 2/1/12 12/4/12
f 12/4/12 2/1/12 4/1/12
f 5/2/11 7/2/11 2/1/11
f 11/3/11 2/1/11 7/2/11
f 12/4/11 2/1/11 11/3/11
f 4/1/11 2/1/11 12/4/11
f 2/1/10 6/2/10 1/1/10
f 6/2/10 2/1/10 5/2/10
f 1/1/9 6/2/9 2/1/9
f 5/2/9 2/1/9 6/2/9
f 15/1/13 14/1/1 13/1/1
f 14/1/1 15/1/13 16/1/13
f 13/1/4 14/1/4 15/1/14
f 16/1/14 15/1/14 14/1/4
f 19/2/4 18/2/4 17/2/4
f 18/2/4 19/2/4 20/2/4
f 17/2/1 18/2/1 19/2/1
f 20/2/1 19/2/1 18/2/1
f 23/3/15 22/4/16 21/3/15
f 22/4/16 23/3/15 24/4/16
f 21/3/17 22/4/18 23/3/17
f 24/4/18 23/3/17 22/4/18
f 19/2/19 21/3/15 20/2/19
f 21/3/15 19/2/19 23/3/15
f 20/2/20 21/3/17 19/2/20
f 23/3/17 19/2/20 21/3/17
f 22/4/16 16/1/13 15/1/13
f 16/1/13 22/4/16 24/4/16
f 15/1/14 16/1/14 22/4/18
f 24/4/18 22/4/18 16/1/14
f 21/3/21 18/2/21 20/2/21
f 18/2/21 21/3/21 13/1/21
f 13/1/21 21/3/21 22/4/21
f 13/1/21 22/4/21 15/1/21
f 20/2/22 18/2/22 21/3/22
f 13/1/22 21/3/22 18/2/22
f 22/4/22 21/3/22 13/1/22
f 15/1/22 22/4/22 13/1/22
f 14/1/22 19/2/22 17/2/22
f 19/2/22 14/1/22 23/3/22
f 23/3/22 14/1/22 24/4/22
f 24/4/22 14/1/22 16/1/22
f 17/2/21 19/2/21 14/1/21
f 23/3/21 14/1/21 19/2/21
f 24/4/21 14/1/21 23/3/21
f 16/1/21 14/1/21 24/4/21
f 14/1/20 18/2/20 13/1/20
f 18/2/20 14/1/20 17/2/20
f 13/1/19 18/2/19 14/1/19
f 17/2/19 14/1/19 18/2/19
f 27/5/23 26/5/23 25/5/23
f 26/5/23 27/5/23 28/5/23
f 31/5/23 30/5/23 29/5/23
f 30/5/23 31/5/23 32/5/23
f 35/5/1 34/5/1 33/5/1
f 34/5/1 35/5/1 36/5/1
f 36/5/1 35/5/1 37/5/1
f 37/5/1 35/5/1 30/5/1
f 37/5/1 30/5/1 32/5/1
f 36/5/1 37/5/1 38/5/1
f 38/5/1 28/5/1 36/5/1
f 28/5/1 38/5/1 26/5/1
f 39/5/4 27/5/4 25/5/4
f 27/5/4 39/5/4 40/5/4
f 41/5/4 40/5/4 39/5/4
f 42/5/4 40/5/4 41/5/4
f 42/5/4 43/5/4 40/5/4
f 43/5/4 42/5/4 44/5/4
f 42/5/4 41/5/4 29/5/4
f 29/5/4 41/5/4 31/5/4
f 34/5/25 44/5/24 33/5/24
f 44/5/24 34/5/25 43/5/25
f 30/5/26 42/5/27 29/5/26
f 42/5/27 30/5/26 35/5/27
f 36/5/28 27/5/29 40/5/28
f 27/5/29 36/5/28 28/5/29
f 35/5/27 44/5/24 42/5/27
f 44/5/24 35/5/27 33/5/24
f 36/5/28 43/5/25 34/5/25
f 43/5/25 36/5/28 40/5/28
f 37/5/29 31/5/29 41/5/29
f 31/5/29 37/5/29 32/5/29
f 26/5/26 39/5/26 25/5/26
f 39/5/26 26/5/26 38/5/26
f 39/5/23 37/5/23 41/5/23
f 37/5/23 39/5/23 38/5/23
f 47/5/9 46/5/9 45/5/9
f 46/5/9 47/5/9 48/5/9
f 51/5/9 50/5/9 49/5/9
f 50/5/9 51/5/9 52/5/9
f 55/5/1 54/5/1 53/5/1
f 54/5/1 55/5/1 56/5/1
f 56/5/1 55/5/1 57/5/1
f 57/5/1 55/5/1 50/5/1
f 57/5/1 50/5/1 52/5/1
f 56/5/1 57/5/1 58/5/1
f 58/5/1 48/5/1 56/5/1
f 48/5/1 58/5/1 46/5/1
f 59/5/4 47/5/4 45/5/4
f 47/5/4 59/5/4 60/5/4
f 61/5/4 60/5/4 59/5/4
f 62/5/4 60/5/4 61/5/4
f 62/5/4 63/5/4 60/5/4
f 63/5/4 62/5/4 64/5/4
f 62/5/4 61/5/4 49/5/4
f 49/5/4 61/5/4 51/5/4
f 54/5/31 64/5/30 53/5/30
f 64/5/30 54/5/31 63/5/31
f 50/5/11 62/5/32 49/5/11
f 62/5/32 50/5/11 55/5/32
f 56/5/33 47/5/12 60/5/33
f 47/5/12 56/5/33 48/5/12
f 53/5/30 62/5/32 55/5/32
f 62/5/32 53/5/30 64/5/30
f 56/5/33 63/5/31 54/5/31
f 63/5/31 56/5/33 60/5/33
f 57/5/12 51/5/12 61/5/12
f 51/5/12 57/5/12 52/5/12
f 46/5/11 59/5/11 45/5/11
f 59/5/11 46/5/11 58/5/11
f 59/5/9 57/5/9 61/5/9
f 57/5/9 59/5/9 58/5/9
f 67/6/4 66/6/4 65/6/4
f 66/6/4 67/6/4 68/6/4
f 66/6/4 68/6/4 69/6/4
f 69/6/4 68/6/4 70/6/4
f 70/6/4 68/6/4 71/6/4
f 70/6/4 71/6/4 72/6/4
f 65/6/1 66/6/1 67/6/1
f 68/6/1 67/6/1 66/6/1
f 69/6/1 68/6/1 66/6/1
f 70/6/1 68/6/1 69/6/1
f 71/6/1 68/6/1 70/6/1
f 72/6/1 71/6/1 70/6/1
f 74/7/34 65/6/34 73/7/34
f 65/6/34 74/7/34 67/6/34
f 73/7/35 65/6/35 74/7/35
f 67/6/35 74/7/35 65/6/35
f 70/6/37 75/7/36 69/6/36
f 75/7/36 70/6/37 76/7/37
f 69/6/39 75/7/39 70/6/38
f 76/7/38 70/6/38 75/7/39
f 72/6/40 76/7/37 70/6/37
f 76/7/37 72/6/40 77/7/40
f 70/6/38 76/7/38 72/6/41
f 77/7/41 72/6/41 76/7/38
f 78/7/42 65/6/43 66/6/42
f 65/6/43 78/7/42 73/7/43
f 66/6/44 65/6/45 78/7/44
f 73/7/45 78/7/44 65/6/45
f 72/6/40 79/7/46 77/7/40
f 79/7/46 72/6/40 71/6/46
f 77/7/41 79/7/47 72/6/41
f 71/6/47 72/6/41 79/7/47
f 67/6/45 80/7/48 68/6/48
f 80/7/48 67/6/45 74/7/45
f 68/6/49 80/7/49 67/6/43
f 74/7/43 67/6/43 80/7/49
f 71/6/46 80/7/48 79/7/46
f 80/7/48 71/6/46 68/6/48
f 79/7/47 80/7/49 71/6/47
f 68/6/49 71/6/47 80/7/49
f 78/7/1 74/7/1 73/7/1
f 74/7/1 78/7/1 80/7/1
f 80/7/1 78/7/1 75/7/1
f 80/7/1 75/7/1 76/7/1
f 80/7/1 76/7/1 79/7/1
f 79/7/1 76/7/1 77/7/1
f 73/7/4 74/7/4 78/7/4
f 80/7/4 78/7/4 74/7/4
f 75/7/4 78/7/4 80/7/4
f 76/7/4 75/7/4 80/7/4
f 79/7/4 76/7/4 80/7/4
f 77/7/4 76/7/4 79/7/4
f 75/7/36 66/6/42 69/6/36
f 66/6/42 75/7/36 78/7/42
f 69/6/39 66/6/44 75/7/39
f 78/7/44 75/7/39 66/6/44
f 83/7/51 82/8/50 81/8/50
f 82/8/50 83/7/51 84/7/51
f 81/8/53 82/8/53 83/7/52
f 84/7/52 83/7/52 82/8/53
f 85/7/2 84/7/51 83/7/51
f 84/7/51 85/7/2 86/7/2
f 83/7/52 84/7/52 85/7/3
f 86/7/3 85/7/3 84/7/52
f 89/6/4 88/6/4 87/6/4
f 88/6/4 89/6/4 90/6/4
f 87/6/1 88/6/1 89/6/1
f 90/6/1 89/6/1 88/6/1
f 92/9/54 88/6/10 91/9/54
f 88/6/10 92/9/54 87/6/10
f 91/9/55 88/6/9 92/9/55
f 87/6/9 92/9/55 88/6/9
f 95/9/5 94/8/6 93/9/5
f 94/8/6 95/9/5 96/8/6
f 93/9/7 94/8/8 95/9/7
f 96/8/8 95/9/7 94/8/8
f 92/9/12 89/6/12 87/6/12
f 89/6/12 92/9/12 95/9/12
f 95/9/12 92/9/12 82/8/12
f 95/9/12 82/8/12 96/8/12
f 96/8/12 82/8/12 86/7/12
f 86/7/12 82/8/12 84/7/12
f 87/6/11 89/6/11 92/9/11
f 95/9/11 92/9/11 89/6/11
f 82/8/11 92/9/11 95/9/11
f 96/8/11 82/8/11 95/9/11
f 86/7/11 82/8/11 96/8/11
f 84/7/11 82/8/11 86/7/11
f 89/6/9 93/9/5 90/6/9
f 93/9/5 89/6/9 95/9/5
f 90/6/10 93/9/7 89/6/10
f 95/9/7 89/6/10 93/9/7
f 94/8/6 86/7/2 85/7/2
f 86/7/2 94/8/6 96/8/6
f 85/7/3 86/7/3 94/8/8
f 96/8/8 94/8/8 86/7/3
f 93/9/11 88/6/11 90/6/11
f 88/6/11 93/9/11 91/9/11
f 91/9/11 93/9/11 81/8/11
f 81/8/11 93/9/11 94/8/11
f 81/8/11 94/8/11 85/7/11
f 81/8/11 85/7/11 83/7/11
f 90/6/12 88/6/12 93/9/12
f 91/9/12 93/9/12 88/6/12
f 81/8/12 93/9/12 91/9/12
f 94/8/12 93/9/12 81/8/12
f 85/7/12 94/8/12 81/8/12
f 83/7/12 85/7/12 81/8/12
f 82/8/50 91/9/54 81/8/50
f 91/9/54 82/8/50 92/9/54
f 81/8/53 91/9/55 82/8/53
f 92/9/55 82/8/53 91/9/55
f 99/7/51 98/10/50 97/10/50
f 98/10/50 99/7/51 100/7/51
f 97/10/53 98/10/53 99/7/52
f 100/7/52 99/7/52 98/10/53
f 101/7/2 100/7/51 99/7/51
f 100/7/51 101/7/2 102/7/2
f 99/7/52 100/7/52 101/7/3
f 102/7/3 101/7/3 100/7/52
f 105/6/4 104/6/4 103/6/4
f 104/6/4 105/6/4 106/6/4
f 103/6/1 104/6/1 105/6/1
f 106/6/1 105/6/1 104/6/1
f 108/11/54 104/6/10 107/11/54
f 104/6/10 108/11/54 103/6/10
f 107/11/55 104/6/9 108/11/55
f 103/6/9 108/11/55 104/6/9
f 111/11/5 110/10/6 109/11/5
f 110/10/6 111/11/5 112/10/6
f 109/11/7 110/10/8 111/11/7
f 112/10/8 111/11/7 110/10/8
f 108/11/12 105/6/12 103/6/12
f 105/6/12 108/11/12 111/11/12
f 111/11/12 108/11/12 98/10/12
f 111/11/12 98/10/12 112/10/12
f 112/10/12 98/10/12 102/7/12
f 102/7/12 98/10/12 100/7/12
f 103/6/11 105/6/11 108/11/11
f 111/11/11 108/11/11 105/6/11
f 98/10/11 108/11/11 111/11/11
f 112/10/11 98/10/11 111/11/11
f 102/7/11 98/10/11 112/10/11
f 100/7/11 98/10/11 102/7/11
f 105/6/9 109/11/5 106/6/9
f 109/11/5 105/6/9 111/11/5
f 106/6/10 109/11/7 105/6/10
f 111/11/7 105/6/10 109/11/7
f 110/10/6 102/7/2 101/7/2
f 102/7/2 110/10/6 112/10/6
f 101/7/3 102/7/3 110/10/8
f 112/10/8 110/10/8 102/7/3
f 109/11/11 104/6/11 106/6/11
f 104/6/11 109/11/11 107/11/11
f 107/11/11 109/11/11 97/10/11
f 97/10/11 109/11/11 110/10/11
f 97/10/11 110/10/11 101/7/11
f 97/10/11 101/7/11 99/7/11
f 106/6/12 104/6/12 109/11/12
f 107/11/12 109/11/12 104/6/12
f 97/10/12 109/11/12 107/11/12
f 110/10/12 109/11/12 97/10/12
f 101/7/12 110/10/12 97/10/12
f 99/7/12 101/7/12 97/10/12
f 98/10/50 107/11/54 97/10/50
f 107/11/54 98/10/50 108/11/54
f 97/10/53 107/11/55 98/10/53
f 108/11/55 98/10/53 107/11/55

