# Created by Kenney (www.kenney.nl)

mtllib fire-basket.mtl

g fire-basket

v 0.05 0 0.05 1 1 1
v -0.05 0 0.05 1 1 1
v 0.05 0.075 0.05 1 1 1
v -0.05 0.075 0.05 1 1 1
v 0.05 0.075 -0.05 1 1 1
v 0.05 0 -0.05 1 1 1
v -0.05 0 -0.05 1 1 1
v -0.05 0.075 -0.05 1 1 1
v -0.0625 0.1125 -0.0625 1 1 1
v 0.0625 0.1125 -0.0625 1 1 1
v 0.0625 0.1125 0.0625 1 1 1
v -0.0625 0.1125 0.0625 1 1 1
v -0.05 0.15 -0.05 1 1 1
v 0.05 0.15 -0.05 1 1 1
v 0.05 0.15 0.05 1 1 1
v -0.05 0.15 0.05 1 1 1
v -0.1599826 0.167799 0.03750001 1 1 1
v -0.2082789 0.1548581 0.03750001 1 1 1
v -0.1599826 0.167799 -0.0375 1 1 1
v -0.2082789 0.1548581 -0.03749999 1 1 1
v -0.03705904 0.02670371 0.0375 1 1 1
v -0.09132531 0.06392691 0.0375 1 1 1
v -0.04999999 0.075 0.0375 1 1 1
v -0.1919218 0.09381276 0.03750001 1 1 1
v -0.1062682 0.00815916 0.03750001 1 1 1
v -0.1470931 0.1196947 0.03750001 1 1 1
v -0.1062682 0.00815916 -0.0375 1 1 1
v -0.1919218 0.09381276 -0.03749999 1 1 1
v -0.09132531 0.06392691 -0.0375 1 1 1
v -0.1470931 0.1196947 -0.0375 1 1 1
v -0.03705904 0.02670371 -0.0375 1 1 1
v -0.04999999 0.075 -0.0375 1 1 1
v 0.1599826 0.167799 -0.03750001 1 1 1
v 0.2082789 0.1548581 -0.03750001 1 1 1
v 0.1599826 0.167799 0.0375 1 1 1
v 0.2082789 0.1548581 0.03749999 1 1 1
v 0.03705904 0.02670371 -0.0375 1 1 1
v 0.09132531 0.06392691 -0.0375 1 1 1
v 0.04999999 0.075 -0.0375 1 1 1
v 0.1919218 0.09381276 -0.03750001 1 1 1
v 0.1062682 0.00815916 -0.03750001 1 1 1
v 0.1470931 0.1196947 -0.03750001 1 1 1
v 0.1062682 0.00815916 0.0375 1 1 1
v 0.1919218 0.09381276 0.03749999 1 1 1
v 0.09132531 0.06392691 0.0375 1 1 1
v 0.1470931 0.1196947 0.0375 1 1 1
v 0.03705904 0.02670371 0.0375 1 1 1
v 0.04999999 0.075 0.0375 1 1 1
v -0.03750001 0.167799 -0.1599826 1 1 1
v -0.03750001 0.1548581 -0.2082789 1 1 1
v 0.0375 0.167799 -0.1599826 1 1 1
v 0.0375 0.1548581 -0.2082789 1 1 1
v -0.03750002 0.02670371 -0.03705903 1 1 1
v -0.03750002 0.06392691 -0.09132531 1 1 1
v -0.03750002 0.075 -0.04999999 1 1 1
v -0.03750001 0.09381276 -0.1919219 1 1 1
v -0.03750002 0.00815916 -0.1062682 1 1 1
v -0.03750001 0.1196947 -0.1470931 1 1 1
v 0.03749999 0.00815916 -0.1062682 1 1 1
v 0.0375 0.09381276 -0.1919218 1 1 1
v 0.03749999 0.06392691 -0.0913253 1 1 1
v 0.0375 0.1196947 -0.1470931 1 1 1
v 0.03749999 0.02670371 -0.03705902 1 1 1
v 0.03749999 0.075 -0.04999997 1 1 1
v 0.03750001 0.167799 0.1599826 1 1 1
v 0.03750002 0.1548581 0.2082789 1 1 1
v -0.0375 0.167799 0.1599826 1 1 1
v -0.03749999 0.1548581 0.2082789 1 1 1
v 0.03749999 0.02670371 0.03705902 1 1 1
v 0.0375 0.06392691 0.0913253 1 1 1
v 0.03749999 0.075 0.04999997 1 1 1
v 0.03750002 0.09381276 0.1919218 1 1 1
v 0.03750001 0.00815916 0.1062682 1 1 1
v 0.03750001 0.1196947 0.1470931 1 1 1
v -0.03750001 0.00815916 0.1062682 1 1 1
v -0.03749999 0.09381276 0.1919219 1 1 1
v -0.03750001 0.06392691 0.09132531 1 1 1
v -0.0375 0.1196947 0.1470931 1 1 1
v -0.03750001 0.02670371 0.03705903 1 1 1
v -0.03750001 0.075 0.04999999 1 1 1
v -0.19035 0.055965 -4.634671E-14 1 1 1
v -0.19035 0.094035 -4.634671E-14 1 1 1
v -0.1345978 0.055965 0.1345978 1 1 1
v -0.1345978 0.094035 0.1345978 1 1 1
v 0.19035 0.094035 -4.634671E-14 1 1 1
v 0.19035 0.055965 -4.634671E-14 1 1 1
v 0.1345978 0.094035 0.1345978 1 1 1
v 0.1345978 0.055965 0.1345978 1 1 1
v -0.1454308 0.094035 -4.770391E-14 1 1 1
v -0.1454308 0.055965 -4.770391E-14 1 1 1
v -0.1028351 0.094035 0.1028351 1 1 1
v -0.1028351 0.055965 0.1028351 1 1 1
v -0.1345978 0.055965 -0.1345978 1 1 1
v -0.1345978 0.094035 -0.1345978 1 1 1
v 0.1345978 0.094035 -0.1345978 1 1 1
v 0.1345978 0.055965 -0.1345978 1 1 1
v -7.363497E-16 0.055965 0.19035 1 1 1
v -7.363497E-16 0.094035 0.19035 1 1 1
v -0.1028351 0.094035 -0.1028351 1 1 1
v -0.1028351 0.055965 -0.1028351 1 1 1
v -1.66942E-15 0.055965 0.1454308 1 1 1
v -1.66942E-15 0.094035 0.1454308 1 1 1
v -7.363497E-16 0.055965 -0.19035 1 1 1
v -7.363497E-16 0.094035 -0.19035 1 1 1
v 0.1028351 0.055965 0.1028351 1 1 1
v 0.1028351 0.094035 0.1028351 1 1 1
v 0.1028351 0.055965 -0.1028351 1 1 1
v 0.1028351 0.094035 -0.1028351 1 1 1
v 0.1454308 0.055965 -4.770391E-14 1 1 1
v 0.1454308 0.094035 -4.770391E-14 1 1 1
v -3.122267E-16 0.055965 -0.1454308 1 1 1
v -3.122267E-16 0.094035 -0.1454308 1 1 1

vn 0 0 1
vn 1 0 0
vn -1 0 0
vn 0 0 -1
vn 0 -1 0
vn 0 -0.3162278 -0.9486833
vn 0 -0.3162278 0.9486833
vn -0.9486833 -0.3162278 0
vn 0 0.3162278 -0.9486833
vn 0 1 0
vn -0.9486833 0.3162278 0
vn 0 0.3162278 0.9486833
vn 0.9486833 -0.3162278 0
vn 0.9486833 0.3162278 0
vn -0.2588191 0.9659258 0
vn -0.258819 -0.9659258 0
vn -0.8660254 -0.5 0
vn -0.9659258 -0.258819 0
vn 0.7071068 0.7071068 0
vn 0.258819 -0.9659258 0
vn 0.9659258 0.2588191 0
vn -0.258819 0.9659258 0
vn 0.2588191 0.9659258 1.120653E-15
vn 4.32987E-15 0 -1
vn 0.258819 -0.9659258 1.120653E-15
vn 0.8660254 -0.5 3.749778E-15
vn 0.9659258 -0.258819 4.182333E-15
vn -0.7071068 0.7071068 -3.06168E-15
vn -0.258819 -0.9659258 -1.120653E-15
vn -4.32987E-15 0 1
vn -0.9659258 0.2588191 -4.182333E-15
vn 0.258819 0.9659258 1.120653E-15
vn 3.085364E-08 0.9659258 -0.2588191
vn -1 0 -1.192093E-07
vn 3.085363E-08 -0.9659258 -0.2588191
vn 1.032383E-07 -0.5 -0.8660256
vn 1.151473E-07 -0.258819 -0.9659259
vn -8.42937E-08 0.7071068 0.7071068
vn -3.085363E-08 -0.9659258 0.2588191
vn 1 0 1.192093E-07
vn -1.151473E-07 0.2588191 0.9659259
vn 3.085363E-08 0.9659258 -0.2588191
vn 3.085364E-08 0.9659258 0.2588191
vn 1 0 -1.192093E-07
vn 3.085363E-08 -0.9659258 0.2588191
vn 1.032383E-07 -0.5 0.8660256
vn 1.151473E-07 -0.258819 0.9659259
vn -8.42937E-08 0.7071068 -0.7071068
vn -3.085363E-08 -0.9659258 -0.2588191
vn -1 0 1.192093E-07
vn -1.151473E-07 0.2588191 -0.9659259
vn 3.085363E-08 0.9659258 0.2588191
vn -0.7071068 0 0.7071068
vn 0.7071068 0 0.7071068
vn 0.7071068 0 -0.7071068
vn -0.7071068 0 -0.7071068

vt 0.71875 0.275
vt 0.71875 0.355
vt 0.71875 0.415
vt 0.71875 0.475
vt 0.71875 0.4598389
vt 0.71875 0.3096988
vt 0.71875 0.3533079
vt 0.71875 0.3662806
vt 0.71875 0.3883209
vt 0.71875 0.2879727
vt 0.71875 0.418643
vt 0.71875 0.325
vt 0.71875 0.425

usemtl colormap

f 3/2/1 2/1/1 1/1/1
f 2/1/1 3/2/1 4/2/1
f 3/2/2 6/1/2 5/2/2
f 6/1/2 3/2/2 1/1/2
f 2/1/3 8/2/3 7/1/3
f 8/2/3 2/1/3 4/2/3
f 8/2/4 6/1/4 7/1/4
f 6/1/4 8/2/4 5/2/4
f 2/1/5 6/1/5 1/1/5
f 6/1/5 2/1/5 7/1/5
f 9/3/4 5/2/6 8/2/6
f 5/2/6 9/3/4 10/3/4
f 11/3/1 4/2/7 3/2/7
f 4/2/7 11/3/1 12/3/1
f 8/2/8 12/3/3 9/3/3
f 12/3/3 8/2/8 4/2/8
f 13/4/9 10/3/4 9/3/4
f 10/3/4 13/4/9 14/4/9
f 13/4/10 15/4/10 14/4/10
f 15/4/10 13/4/10 16/4/10
f 12/3/3 13/4/11 9/3/3
f 13/4/11 12/3/3 16/4/11
f 15/4/12 12/3/1 11/3/1
f 12/3/1 15/4/12 16/4/12
f 11/3/2 5/2/13 10/3/2
f 5/2/13 11/3/2 3/2/13
f 14/4/14 11/3/2 10/3/2
f 11/3/2 14/4/14 15/4/14
f 19/4/15 18/5/15 17/4/15
f 18/5/15 19/4/15 20/5/15
f 23/8/1 22/7/1 21/6/1
f 24/9/1 21/6/1 22/7/1
f 21/6/1 24/9/1 25/10/1
f 24/9/1 22/7/1 26/11/1
f 24/9/1 26/11/1 18/5/1
f 18/5/1 26/11/1 17/4/1
f 24/9/17 27/10/16 25/10/16
f 27/10/16 24/9/17 28/9/17
f 24/9/17 20/5/18 28/9/17
f 20/5/18 24/9/17 18/5/18
f 29/7/19 26/11/19 22/7/19
f 26/11/19 29/7/19 30/11/19
f 25/10/16 31/6/20 21/6/20
f 31/6/20 25/10/16 27/10/16
f 28/9/4 31/6/4 27/10/4
f 31/6/4 28/9/4 29/7/4
f 32/8/4 31/6/4 29/7/4
f 29/7/4 28/9/4 30/11/4
f 30/11/4 28/9/4 20/5/4
f 30/11/4 20/5/4 19/4/4
f 19/4/21 26/11/21 30/11/21
f 26/11/21 19/4/21 17/4/21
f 32/8/22 22/7/22 23/8/22
f 22/7/22 32/8/22 29/7/22
f 35/4/23 34/5/23 33/4/23
f 34/5/23 35/4/23 36/5/23
f 39/8/24 38/7/24 37/6/24
f 40/9/24 37/6/24 38/7/24
f 37/6/24 40/9/24 41/10/24
f 40/9/24 38/7/24 42/11/24
f 40/9/24 42/11/24 34/5/24
f 34/5/24 42/11/24 33/4/24
f 40/9/26 43/10/25 41/10/25
f 43/10/25 40/9/26 44/9/26
f 40/9/26 36/5/27 44/9/26
f 36/5/27 40/9/26 34/5/27
f 45/7/28 42/11/28 38/7/28
f 42/11/28 45/7/28 46/11/28
f 41/10/25 47/6/29 37/6/29
f 47/6/29 41/10/25 43/10/25
f 44/9/30 47/6/30 43/10/30
f 47/6/30 44/9/30 45/7/30
f 48/8/30 47/6/30 45/7/30
f 45/7/30 44/9/30 46/11/30
f 46/11/30 44/9/30 36/5/30
f 46/11/30 36/5/30 35/4/30
f 35/4/31 42/11/31 46/11/31
f 42/11/31 35/4/31 33/4/31
f 48/8/32 38/7/32 39/8/32
f 38/7/32 48/8/32 45/7/32
f 51/4/33 50/5/33 49/4/33
f 50/5/33 51/4/33 52/5/33
f 55/8/34 54/7/34 53/6/34
f 56/9/34 53/6/34 54/7/34
f 53/6/34 56/9/34 57/10/34
f 56/9/34 54/7/34 58/11/34
f 56/9/34 58/11/34 50/5/34
f 50/5/34 58/11/34 49/4/34
f 56/9/36 59/10/35 57/10/35
f 59/10/35 56/9/36 60/9/36
f 56/9/36 52/5/37 60/9/36
f 52/5/37 56/9/36 50/5/37
f 61/7/38 58/11/38 54/7/38
f 58/11/38 61/7/38 62/11/38
f 57/10/35 63/6/39 53/6/39
f 63/6/39 57/10/35 59/10/35
f 60/9/40 63/6/40 59/10/40
f 63/6/40 60/9/40 61/7/40
f 64/8/40 63/6/40 61/7/40
f 61/7/40 60/9/40 62/11/40
f 62/11/40 60/9/40 52/5/40
f 62/11/40 52/5/40 51/4/40
f 51/4/41 58/11/41 62/11/41
f 58/11/41 51/4/41 49/4/41
f 64/8/42 54/7/42 55/8/42
f 54/7/42 64/8/42 61/7/42
f 67/4/43 66/5/43 65/4/43
f 66/5/43 67/4/43 68/5/43
f 71/8/44 70/7/44 69/6/44
f 72/9/44 69/6/44 70/7/44
f 69/6/44 72/9/44 73/10/44
f 72/9/44 70/7/44 74/11/44
f 72/9/44 74/11/44 66/5/44
f 66/5/44 74/11/44 65/4/44
f 72/9/46 75/10/45 73/10/45
f 75/10/45 72/9/46 76/9/46
f 72/9/46 68/5/47 76/9/46
f 68/5/47 72/9/46 66/5/47
f 77/7/48 74/11/48 70/7/48
f 74/11/48 77/7/48 78/11/48
f 73/10/45 79/6/49 69/6/49
f 79/6/49 73/10/45 75/10/45
f 76/9/50 79/6/50 75/10/50
f 79/6/50 76/9/50 77/7/50
f 80/8/50 79/6/50 77/7/50
f 77/7/50 76/9/50 78/11/50
f 78/11/50 76/9/50 68/5/50
f 78/11/50 68/5/50 67/4/50
f 67/4/51 74/11/51 78/11/51
f 74/11/51 67/4/51 65/4/51
f 80/8/52 70/7/52 71/8/52
f 70/7/52 80/8/52 77/7/52
f 83/12/53 82/13/3 81/12/3
f 82/13/3 83/12/53 84/13/53
f 87/13/54 86/12/2 85/13/2
f 86/12/2 87/13/54 88/12/54
f 91/13/55 90/12/2 89/13/2
f 90/12/2 91/13/55 92/12/55
f 81/12/3 94/13/56 93/12/56
f 94/13/56 81/12/3 82/13/3
f 85/13/2 96/12/55 95/13/55
f 96/12/55 85/13/2 86/12/2
f 87/13/54 97/12/1 88/12/54
f 97/12/1 87/13/54 98/13/1
f 98/13/1 83/12/53 97/12/1
f 83/12/53 98/13/1 84/13/53
f 89/13/2 100/12/54 99/13/54
f 100/12/54 89/13/2 90/12/2
f 91/13/55 101/12/4 92/12/55
f 101/12/4 91/13/55 102/13/4
f 104/13/4 96/12/55 103/12/4
f 96/12/55 104/13/4 95/13/55
f 102/13/4 105/12/56 101/12/4
f 105/12/56 102/13/4 106/13/56
f 109/12/3 108/13/53 107/12/53
f 108/13/53 109/12/3 110/13/3
f 108/13/53 111/12/1 107/12/53
f 111/12/1 108/13/53 112/13/1
f 112/13/1 100/12/54 111/12/1
f 100/12/54 112/13/1 99/13/54
f 94/13/56 103/12/4 93/12/56
f 103/12/4 94/13/56 104/13/4
f 105/12/56 110/13/3 109/12/3
f 110/13/3 105/12/56 106/13/56
f 84/13/10 102/13/10 91/13/10
f 84/13/10 91/13/10 89/13/10
f 98/13/10 102/13/10 84/13/10
f 84/13/10 89/13/10 82/13/10
f 98/13/10 106/13/10 102/13/10
f 89/13/10 94/13/10 82/13/10
f 87/13/10 106/13/10 98/13/10
f 99/13/10 94/13/10 89/13/10
f 87/13/10 110/13/10 106/13/10
f 110/13/10 87/13/10 85/13/10
f 95/13/10 110/13/10 85/13/10
f 110/13/10 95/13/10 108/13/10
f 99/13/10 104/13/10 94/13/10
f 108/13/10 95/13/10 104/13/10
f 112/13/10 104/13/10 99/13/10
f 108/13/10 104/13/10 112/13/10
f 103/12/5 107/12/5 111/12/5
f 103/12/5 111/12/5 100/12/5
f 96/12/5 107/12/5 103/12/5
f 103/12/5 100/12/5 93/12/5
f 96/12/5 109/12/5 107/12/5
f 109/12/5 96/12/5 86/12/5
f 88/12/5 109/12/5 86/12/5
f 109/12/5 88/12/5 105/12/5
f 105/12/5 88/12/5 97/12/5
f 105/12/5 97/12/5 101/12/5
f 93/12/5 100/12/5 90/12/5
f 93/12/5 90/12/5 81/12/5
f 101/12/5 97/12/5 83/12/5
f 90/12/5 83/12/5 81/12/5
f 101/12/5 83/12/5 92/12/5
f 92/12/5 83/12/5 90/12/5

g fire-basket




usemtl colormap

f 3/2/1 2/1/1 1/1/1
f 2/1/1 3/2/1 4/2/1
f 3/2/2 6/1/2 5/2/2
f 6/1/2 3/2/2 1/1/2
f 2/1/3 8/2/3 7/1/3
f 8/2/3 2/1/3 4/2/3
f 8/2/4 6/1/4 7/1/4
f 6/1/4 8/2/4 5/2/4
f 2/1/5 6/1/5 1/1/5
f 6/1/5 2/1/5 7/1/5
f 9/3/4 5/2/6 8/2/6
f 5/2/6 9/3/4 10/3/4
f 11/3/1 4/2/7 3/2/7
f 4/2/7 11/3/1 12/3/1
f 8/2/8 12/3/3 9/3/3
f 12/3/3 8/2/8 4/2/8
f 13/4/9 10/3/4 9/3/4
f 10/3/4 13/4/9 14/4/9
f 13/4/10 15/4/10 14/4/10
f 15/4/10 13/4/10 16/4/10
f 12/3/3 13/4/11 9/3/3
f 13/4/11 12/3/3 16/4/11
f 15/4/12 12/3/1 11/3/1
f 12/3/1 15/4/12 16/4/12
f 11/3/2 5/2/13 10/3/2
f 5/2/13 11/3/2 3/2/13
f 14/4/14 11/3/2 10/3/2
f 11/3/2 14/4/14 15/4/14
f 19/4/15 18/5/15 17/4/15
f 18/5/15 19/4/15 20/5/15
f 23/8/1 22/7/1 21/6/1
f 24/9/1 21/6/1 22/7/1
f 21/6/1 24/9/1 25/10/1
f 24/9/1 22/7/1 26/11/1
f 24/9/1 26/11/1 18/5/1
f 18/5/1 26/11/1 17/4/1
f 24/9/17 27/10/16 25/10/16
f 27/10/16 24/9/17 28/9/17
f 24/9/17 20/5/18 28/9/17
f 20/5/18 24/9/17 18/5/18
f 29/7/19 26/11/19 22/7/19
f 26/11/19 29/7/19 30/11/19
f 25/10/16 31/6/20 21/6/20
f 31/6/20 25/10/16 27/10/16
f 28/9/4 31/6/4 27/10/4
f 31/6/4 28/9/4 29/7/4
f 32/8/4 31/6/4 29/7/4
f 29/7/4 28/9/4 30/11/4
f 30/11/4 28/9/4 20/5/4
f 30/11/4 20/5/4 19/4/4
f 19/4/21 26/11/21 30/11/21
f 26/11/21 19/4/21 17/4/21
f 32/8/22 22/7/22 23/8/22
f 22/7/22 32/8/22 29/7/22
f 35/4/23 34/5/23 33/4/23
f 34/5/23 35/4/23 36/5/23
f 39/8/24 38/7/24 37/6/24
f 40/9/24 37/6/24 38/7/24
f 37/6/24 40/9/24 41/10/24
f 40/9/24 38/7/24 42/11/24
f 40/9/24 42/11/24 34/5/24
f 34/5/24 42/11/24 33/4/24
f 40/9/26 43/10/25 41/10/25
f 43/10/25 40/9/26 44/9/26
f 40/9/26 36/5/27 44/9/26
f 36/5/27 40/9/26 34/5/27
f 45/7/28 42/11/28 38/7/28
f 42/11/28 45/7/28 46/11/28
f 41/10/25 47/6/29 37/6/29
f 47/6/29 41/10/25 43/10/25
f 44/9/30 47/6/30 43/10/30
f 47/6/30 44/9/30 45/7/30
f 48/8/30 47/6/30 45/7/30
f 45/7/30 44/9/30 46/11/30
f 46/11/30 44/9/30 36/5/30
f 46/11/30 36/5/30 35/4/30
f 35/4/31 42/11/31 46/11/31
f 42/11/31 35/4/31 33/4/31
f 48/8/32 38/7/32 39/8/32
f 38/7/32 48/8/32 45/7/32
f 51/4/33 50/5/33 49/4/33
f 50/5/33 51/4/33 52/5/33
f 55/8/34 54/7/34 53/6/34
f 56/9/34 53/6/34 54/7/34
f 53/6/34 56/9/34 57/10/34
f 56/9/34 54/7/34 58/11/34
f 56/9/34 58/11/34 50/5/34
f 50/5/34 58/11/34 49/4/34
f 56/9/36 59/10/35 57/10/35
f 59/10/35 56/9/36 60/9/36
f 56/9/36 52/5/37 60/9/36
f 52/5/37 56/9/36 50/5/37
f 61/7/38 58/11/38 54/7/38
f 58/11/38 61/7/38 62/11/38
f 57/10/35 63/6/39 53/6/39
f 63/6/39 57/10/35 59/10/35
f 60/9/40 63/6/40 59/10/40
f 63/6/40 60/9/40 61/7/40
f 64/8/40 63/6/40 61/7/40
f 61/7/40 60/9/40 62/11/40
f 62/11/40 60/9/40 52/5/40
f 62/11/40 52/5/40 51/4/40
f 51/4/41 58/11/41 62/11/41
f 58/11/41 51/4/41 49/4/41
f 64/8/42 54/7/42 55/8/42
f 54/7/42 64/8/42 61/7/42
f 67/4/43 66/5/43 65/4/43
f 66/5/43 67/4/43 68/5/43
f 71/8/44 70/7/44 69/6/44
f 72/9/44 69/6/44 70/7/44
f 69/6/44 72/9/44 73/10/44
f 72/9/44 70/7/44 74/11/44
f 72/9/44 74/11/44 66/5/44
f 66/5/44 74/11/44 65/4/44
f 72/9/46 75/10/45 73/10/45
f 75/10/45 72/9/46 76/9/46
f 72/9/46 68/5/47 76/9/46
f 68/5/47 72/9/46 66/5/47
f 77/7/48 74/11/48 70/7/48
f 74/11/48 77/7/48 78/11/48
f 73/10/45 79/6/49 69/6/49
f 79/6/49 73/10/45 75/10/45
f 76/9/50 79/6/50 75/10/50
f 79/6/50 76/9/50 77/7/50
f 80/8/50 79/6/50 77/7/50
f 77/7/50 76/9/50 78/11/50
f 78/11/50 76/9/50 68/5/50
f 78/11/50 68/5/50 67/4/50
f 67/4/51 74/11/51 78/11/51
f 74/11/51 67/4/51 65/4/51
f 80/8/52 70/7/52 71/8/52
f 70/7/52 80/8/52 77/7/52
f 83/12/53 82/13/3 81/12/3
f 82/13/3 83/12/53 84/13/53
f 87/13/54 86/12/2 85/13/2
f 86/12/2 87/13/54 88/12/54
f 91/13/55 90/12/2 89/13/2
f 90/12/2 91/13/55 92/12/55
f 81/12/3 94/13/56 93/12/56
f 94/13/56 81/12/3 82/13/3
f 85/13/2 96/12/55 95/13/55
f 96/12/55 85/13/2 86/12/2
f 87/13/54 97/12/1 88/12/54
f 97/12/1 87/13/54 98/13/1
f 98/13/1 83/12/53 97/12/1
f 83/12/53 98/13/1 84/13/53
f 89/13/2 100/12/54 99/13/54
f 100/12/54 89/13/2 90/12/2
f 91/13/55 101/12/4 92/12/55
f 101/12/4 91/13/55 102/13/4
f 104/13/4 96/12/55 103/12/4
f 96/12/55 104/13/4 95/13/55
f 102/13/4 105/12/56 101/12/4
f 105/12/56 102/13/4 106/13/56
f 109/12/3 108/13/53 107/12/53
f 108/13/53 109/12/3 110/13/3
f 108/13/53 111/12/1 107/12/53
f 111/12/1 108/13/53 112/13/1
f 112/13/1 100/12/54 111/12/1
f 100/12/54 112/13/1 99/13/54
f 94/13/56 103/12/4 93/12/56
f 103/12/4 94/13/56 104/13/4
f 105/12/56 110/13/3 109/12/3
f 110/13/3 105/12/56 106/13/56
f 84/13/10 102/13/10 91/13/10
f 84/13/10 91/13/10 89/13/10
f 98/13/10 102/13/10 84/13/10
f 84/13/10 89/13/10 82/13/10
f 98/13/10 106/13/10 102/13/10
f 89/13/10 94/13/10 82/13/10
f 87/13/10 106/13/10 98/13/10
f 99/13/10 94/13/10 89/13/10
f 87/13/10 110/13/10 106/13/10
f 110/13/10 87/13/10 85/13/10
f 95/13/10 110/13/10 85/13/10
f 110/13/10 95/13/10 108/13/10
f 99/13/10 104/13/10 94/13/10
f 108/13/10 95/13/10 104/13/10
f 112/13/10 104/13/10 99/13/10
f 108/13/10 104/13/10 112/13/10
f 103/12/5 107/12/5 111/12/5
f 103/12/5 111/12/5 100/12/5
f 96/12/5 107/12/5 103/12/5
f 103/12/5 100/12/5 93/12/5
f 96/12/5 109/12/5 107/12/5
f 109/12/5 96/12/5 86/12/5
f 88/12/5 109/12/5 86/12/5
f 109/12/5 88/12/5 105/12/5
f 105/12/5 88/12/5 97/12/5
f 105/12/5 97/12/5 101/12/5
f 93/12/5 100/12/5 90/12/5
f 93/12/5 90/12/5 81/12/5
f 101/12/5 97/12/5 83/12/5
f 90/12/5 83/12/5 81/12/5
f 101/12/5 83/12/5 92/12/5
f 92/12/5 83/12/5 90/12/5

