# Created by Kenney (www.kenney.nl)

mtllib gravestone-round.mtl

g gravestone-round

v -0.175 0.1 -0.075 1 1 1
v 0.175 0.1 -0.075 1 1 1
v -0.175 0.4 -0.075 1 1 1
v 0.175 0.4 -0.075 1 1 1
v -0.1616789 0.4669696 -0.075 1 1 1
v 0.1616789 0.4669696 -0.075 1 1 1
v -0.1237437 0.5237437 -0.075 1 1 1
v 0.1237437 0.5237437 -0.075 1 1 1
v -0.0669696 0.5616789 -0.075 1 1 1
v 0.0669696 0.5616789 -0.075 1 1 1
v 7.219114E-16 0.575 -0.075 1 1 1
v -0.175 0.1 0.075 1 1 1
v -0.175 0.4 0.075 1 1 1
v 0.175 0.1 0.075 1 1 1
v 0.125 0.1 0.075 1 1 1
v 0.175 0.4 0.075 1 1 1
v 0.125 0.3950754 0.075 1 1 1
v 0.1145799 0.4474606 0.075 1 1 1
v 0.1616789 0.4669696 0.075 1 1 1
v 0.0876957 0.4876957 0.075 1 1 1
v 0.1237437 0.5237437 0.075 1 1 1
v 0.04746057 0.51458 0.075 1 1 1
v 7.219114E-16 0.5240204 0.075 1 1 1
v 0.0669696 0.5616789 0.075 1 1 1
v -0.0669696 0.5616789 0.075 1 1 1
v 7.219114E-16 0.575 0.075 1 1 1
v -0.1237437 0.5237437 0.075 1 1 1
v -0.04746057 0.51458 0.075 1 1 1
v -0.0876957 0.4876957 0.075 1 1 1
v -0.1616789 0.4669696 0.075 1 1 1
v -0.1145799 0.4474606 0.075 1 1 1
v -0.125 0.3950754 0.075 1 1 1
v -0.125 0.1 0.075 1 1 1
v 0.125 0.1 0.025 1 1 1
v -0.125 0.1 0.025 1 1 1
v 0.125 0.3950754 0.025 1 1 1
v -0.125 0.3950754 0.025 1 1 1
v 0.1145799 0.4474606 0.025 1 1 1
v -0.1145799 0.4474606 0.025 1 1 1
v -0.0876957 0.4876957 0.025 1 1 1
v 0.0876957 0.4876957 0.025 1 1 1
v -0.04746057 0.51458 0.025 1 1 1
v 0.04746057 0.51458 0.025 1 1 1
v 7.219114E-16 0.5240204 0.025 1 1 1
v 0.225 0.1 -0.075 1 1 1
v 0.225 0 -0.075 1 1 1
v 0.225 0.1 0.075 1 1 1
v 0.225 0 0.075 1 1 1
v -0.175 0 -0.125 1 1 1
v 0.175 0 -0.125 1 1 1
v -0.175 0.1 -0.125 1 1 1
v 0.175 0.1 -0.125 1 1 1
v -0.075 0 0.125 1 1 1
v -0.075 0 0.075 1 1 1
v -0.175 0 0.125 1 1 1
v -0.225 0 0.075 1 1 1
v -0.225 0 -0.075 1 1 1
v 0.075 0 0.075 1 1 1
v 0.075 0 0.125 1 1 1
v 0.175 0 0.125 1 1 1
v 0.175 0.1 0.125 1 1 1
v -0.225 0.1 0.075 1 1 1
v -0.175 0.1 0.125 1 1 1
v -0.225 0.1 -0.075 1 1 1
v -0.075 0.1 0.125 1 1 1
v 0.075 0.1 0.075 1 1 1
v 0.075 0.1 0.125 1 1 1
v -0.075 0.1 0.075 1 1 1
v 0.09910246 0.3891421 -0.1025 1 1 1
v 0.1358579 0.4258975 -0.1025 1 1 1
v 0.09910246 0.3891421 0.1025 1 1 1
v 0.1358579 0.4258975 0.1025 1 1 1
v 0.2008975 0.3608578 -0.1025 1 1 1
v 0.1641421 0.3241024 -0.1025 1 1 1
v 0.2008975 0.3608578 0.1025 1 1 1
v 0.1641421 0.3241024 0.1025 1 1 1
v 0.1358579 0.3241024 0.1025 1 1 1
v 0.1358579 0.3241024 -0.1025 1 1 1
v 0.09910246 0.3608578 0.1025 1 1 1
v 0.09910246 0.3608578 -0.1025 1 1 1
v 0.2008975 0.3891421 -0.1025 1 1 1
v 0.2008975 0.3891421 0.1025 1 1 1
v 0.1641421 0.4258975 -0.1025 1 1 1
v 0.1641421 0.4258975 0.1025 1 1 1
v -0.2008975 0.3891421 -0.1025 1 1 1
v -0.1641421 0.4258975 -0.1025 1 1 1
v -0.2008975 0.3891421 0.1025 1 1 1
v -0.1641421 0.4258975 0.1025 1 1 1
v -0.09910246 0.3608578 -0.1025 1 1 1
v -0.1358579 0.3241024 -0.1025 1 1 1
v -0.09910246 0.3608578 0.1025 1 1 1
v -0.1358579 0.3241024 0.1025 1 1 1
v -0.1641421 0.3241024 0.1025 1 1 1
v -0.1641421 0.3241024 -0.1025 1 1 1
v -0.2008975 0.3608578 0.1025 1 1 1
v -0.2008975 0.3608578 -0.1025 1 1 1
v -0.09910246 0.3891421 -0.1025 1 1 1
v -0.09910246 0.3891421 0.1025 1 1 1
v -0.1358579 0.4258975 -0.1025 1 1 1
v -0.1358579 0.4258975 0.1025 1 1 1

vn 0 0 -1
vn -1 0 0
vn 0 0 1
vn 1 0 0
vn -0.9807853 0.1950903 0
vn -0.9238795 0.3826834 0
vn -0.7071068 0.7071068 0
vn -0.3826834 0.9238795 0
vn 0 1 0
vn 0.3826834 0.9238795 0
vn 0.7071068 0.7071068 0
vn 0.9238795 0.3826834 0
vn 0.9807853 0.1950903 0
vn -0.9238795 -0.3826834 0
vn -0.7071068 -0.7071068 0
vn -0.3826834 -0.9238795 0
vn 0 -1 0
vn 0.3826834 -0.9238795 0
vn 0.7071068 -0.7071068 0
vn 0.9238795 -0.3826834 0
vn 0.9807853 -0.1950903 0
vn -0.9807853 -0.1950903 0
vn 0.9238795 0 -0.3826834
vn 0.9238795 0 0.3826834
vn -0.3826834 0 -0.9238795
vn 0.3826834 0 -0.9238795
vn 0.3826834 0 0.9238795
vn -0.9238795 0 0.3826834
vn -0.3826834 0 0.9238795
vn -0.9238795 0 -0.3826834
vn -0.9238796 0.3826835 0
vn -0.3826835 0.9238796 0
vn 0.9238796 -0.3826835 0
vn 0.3826835 -0.9238796 0
vn -0.3826835 -0.9238796 0
vn -0.9238796 -0.3826835 0
vn 0.9238796 0.3826835 0
vn 0.3826835 0.9238796 0

vt 0.96875 0.025
vt 0.96875 0.1513158
vt 0.96875 0.1795135
vt 0.96875 0.2034184
vt 0.96875 0.2193911
vt 0.96875 0.225
vt 0.96875 0.1492423
vt 0.96875 0.1712992
vt 0.96875 0.1882403
vt 0.96875 0.19956
vt 0.96875 0.2035349
vt 0.96875 0.175
vt 0.96875 0.075
vt 0.96875 0.1432972
vt 0.96875 0.118901
vt 0.96875 0.08719809

usemtl colormap

f 3/2/1 2/1/1 1/1/1
f 2/1/1 3/2/1 4/2/1
f 4/2/1 3/2/1 5/3/1
f 4/2/1 5/3/1 6/3/1
f 6/3/1 5/3/1 7/4/1
f 6/3/1 7/4/1 8/4/1
f 8/4/1 7/4/1 9/5/1
f 8/4/1 9/5/1 10/5/1
f 10/5/1 9/5/1 11/6/1
f 12/1/2 3/2/2 1/1/2
f 3/2/2 12/1/2 13/2/2
f 16/2/3 15/1/3 14/1/3
f 15/1/3 16/2/3 17/7/3
f 17/7/3 16/2/3 18/8/3
f 18/8/3 16/2/3 19/3/3
f 18/8/3 19/3/3 20/9/3
f 20/9/3 19/3/3 21/4/3
f 20/9/3 21/4/3 22/10/3
f 22/10/3 21/4/3 23/11/3
f 23/11/3 21/4/3 24/5/3
f 25/5/3 23/11/3 24/5/3
f 25/5/3 24/5/3 26/6/3
f 27/4/3 23/11/3 25/5/3
f 27/4/3 28/10/3 23/11/3
f 27/4/3 29/9/3 28/10/3
f 30/3/3 29/9/3 27/4/3
f 30/3/3 31/8/3 29/9/3
f 13/2/3 31/8/3 30/3/3
f 13/2/3 32/7/3 31/8/3
f 12/1/3 32/7/3 13/2/3
f 32/7/3 12/1/3 33/1/3
f 16/2/4 2/1/4 4/2/4
f 2/1/4 16/2/4 14/1/4
f 13/2/5 5/3/6 3/2/5
f 5/3/6 13/2/5 30/3/6
f 30/3/6 7/4/7 5/3/6
f 7/4/7 30/3/6 27/4/7
f 7/4/7 25/5/8 9/5/8
f 25/5/8 7/4/7 27/4/7
f 9/5/8 26/6/9 11/6/9
f 26/6/9 9/5/8 25/5/8
f 11/6/9 24/5/10 10/5/10
f 24/5/10 11/6/9 26/6/9
f 10/5/10 21/4/11 8/4/11
f 21/4/11 10/5/10 24/5/10
f 21/4/11 6/3/12 8/4/11
f 6/3/12 21/4/11 19/3/12
f 19/3/12 4/2/13 6/3/12
f 4/2/13 19/3/12 16/2/13
f 36/7/3 35/1/3 34/1/3
f 35/1/3 36/7/3 37/7/3
f 37/7/3 36/7/3 38/8/3
f 37/7/3 38/8/3 39/8/3
f 39/8/3 38/8/3 40/9/3
f 40/9/3 38/8/3 41/9/3
f 40/9/3 41/9/3 42/10/3
f 42/10/3 41/9/3 43/10/3
f 42/10/3 43/10/3 44/11/3
f 18/8/14 41/9/15 38/8/14
f 41/9/15 18/8/14 20/9/15
f 22/10/16 41/9/15 20/9/15
f 41/9/15 22/10/16 43/10/16
f 23/11/17 43/10/16 22/10/16
f 43/10/16 23/11/17 44/11/17
f 28/10/18 44/11/17 23/11/17
f 44/11/17 28/10/18 42/10/18
f 29/9/19 42/10/18 28/10/18
f 42/10/18 29/9/19 40/9/19
f 29/9/19 39/8/20 40/9/19
f 39/8/20 29/9/19 31/8/20
f 31/8/20 37/7/21 39/8/20
f 37/7/21 31/8/20 32/7/21
f 32/7/4 35/1/4 37/7/4
f 35/1/4 32/7/4 33/1/4
f 15/1/2 36/7/2 34/1/2
f 36/7/2 15/1/2 17/7/2
f 17/7/22 38/8/14 36/7/22
f 38/8/14 17/7/22 18/8/14
f 47/12/24 46/13/23 45/12/23
f 46/13/23 47/12/24 48/13/24
f 51/12/25 50/13/26 49/13/25
f 50/13/26 51/12/25 52/12/26
f 45/12/23 50/13/26 52/12/26
f 50/13/26 45/12/23 46/13/23
f 55/13/17 54/13/17 53/13/17
f 49/13/17 54/13/17 55/13/17
f 49/13/17 55/13/17 56/13/17
f 49/13/17 56/13/17 57/13/17
f 49/13/17 58/13/17 54/13/17
f 50/13/17 58/13/17 49/13/17
f 50/13/17 59/13/17 58/13/17
f 50/13/17 60/13/17 59/13/17
f 46/13/17 60/13/17 50/13/17
f 60/13/17 46/13/17 48/13/17
f 61/12/27 48/13/24 47/12/24
f 48/13/24 61/12/27 60/13/27
f 55/13/29 62/12/28 56/13/28
f 62/12/28 55/13/29 63/12/29
f 56/13/28 64/12/30 57/13/30
f 64/12/30 56/13/28 62/12/28
f 57/13/30 51/12/25 49/13/25
f 51/12/25 57/13/30 64/12/30
f 65/12/3 55/13/29 53/13/3
f 55/13/29 65/12/3 63/12/29
f 67/12/9 61/12/9 66/12/9
f 61/12/9 51/12/9 66/12/9
f 66/12/9 51/12/9 68/12/9
f 68/12/9 51/12/9 65/12/9
f 65/12/9 51/12/9 63/12/9
f 63/12/9 51/12/9 64/12/9
f 63/12/9 64/12/9 62/12/9
f 61/12/9 52/12/9 51/12/9
f 47/12/9 52/12/9 61/12/9
f 52/12/9 47/12/9 45/12/9
f 59/13/2 66/12/2 58/13/2
f 66/12/2 59/13/2 67/12/2
f 66/12/3 54/13/3 58/13/3
f 54/13/3 66/12/3 68/12/3
f 65/12/4 54/13/4 68/12/4
f 54/13/4 65/12/4 53/13/4
f 61/12/27 59/13/3 60/13/27
f 59/13/3 61/12/27 67/12/3
f 71/14/31 70/12/32 69/14/31
f 70/12/32 71/14/31 72/12/32
f 75/15/33 74/16/34 73/15/33
f 74/16/34 75/15/33 76/16/34
f 79/15/36 78/16/35 77/16/35
f 78/16/35 79/15/36 80/15/36
f 83/12/38 82/14/37 81/14/37
f 82/14/37 83/12/38 84/12/38
f 70/12/32 84/12/38 83/12/38
f 84/12/38 70/12/32 72/12/32
f 82/14/37 73/15/33 81/14/37
f 73/15/33 82/14/37 75/15/33
f 77/16/35 74/16/34 76/16/34
f 74/16/34 77/16/35 78/16/35
f 79/15/36 69/14/31 80/15/36
f 69/14/31 79/15/36 71/14/31
f 80/15/1 74/16/1 78/16/1
f 74/16/1 80/15/1 73/15/1
f 73/15/1 80/15/1 69/14/1
f 73/15/1 69/14/1 81/14/1
f 81/14/1 69/14/1 70/12/1
f 81/14/1 70/12/1 83/12/1
f 76/16/3 79/15/3 77/16/3
f 79/15/3 76/16/3 75/15/3
f 79/15/3 75/15/3 71/14/3
f 71/14/3 75/15/3 82/14/3
f 71/14/3 82/14/3 72/12/3
f 72/12/3 82/14/3 84/12/3
f 87/14/31 86/12/32 85/14/31
f 86/12/32 87/14/31 88/12/32
f 91/15/33 90/16/34 89/15/33
f 90/16/34 91/15/33 92/16/34
f 95/15/36 94/16/35 93/16/35
f 94/16/35 95/15/36 96/15/36
f 99/12/38 98/14/37 97/14/37
f 98/14/37 99/12/38 100/12/38
f 86/12/32 100/12/38 99/12/38
f 100/12/38 86/12/32 88/12/32
f 98/14/37 89/15/33 97/14/37
f 89/15/33 98/14/37 91/15/33
f 93/16/35 90/16/34 92/16/34
f 90/16/34 93/16/35 94/16/35
f 95/15/36 85/14/31 96/15/36
f 85/14/31 95/15/36 87/14/31
f 96/15/1 90/16/1 94/16/1
f 90/16/1 96/15/1 89/15/1
f 89/15/1 96/15/1 85/14/1
f 89/15/1 85/14/1 97/14/1
f 97/14/1 85/14/1 86/12/1
f 97/14/1 86/12/1 99/12/1
f 92/16/3 95/15/3 93/16/3
f 95/15/3 92/16/3 91/15/3
f 95/15/3 91/15/3 87/14/3
f 87/14/3 91/15/3 98/14/3
f 87/14/3 98/14/3 88/12/3
f 88/12/3 98/14/3 100/12/3

g gravestone-round




usemtl colormap

f 3/2/1 2/1/1 1/1/1
f 2/1/1 3/2/1 4/2/1
f 4/2/1 3/2/1 5/3/1
f 4/2/1 5/3/1 6/3/1
f 6/3/1 5/3/1 7/4/1
f 6/3/1 7/4/1 8/4/1
f 8/4/1 7/4/1 9/5/1
f 8/4/1 9/5/1 10/5/1
f 10/5/1 9/5/1 11/6/1
f 12/1/2 3/2/2 1/1/2
f 3/2/2 12/1/2 13/2/2
f 16/2/3 15/1/3 14/1/3
f 15/1/3 16/2/3 17/7/3
f 17/7/3 16/2/3 18/8/3
f 18/8/3 16/2/3 19/3/3
f 18/8/3 19/3/3 20/9/3
f 20/9/3 19/3/3 21/4/3
f 20/9/3 21/4/3 22/10/3
f 22/10/3 21/4/3 23/11/3
f 23/11/3 21/4/3 24/5/3
f 25/5/3 23/11/3 24/5/3
f 25/5/3 24/5/3 26/6/3
f 27/4/3 23/11/3 25/5/3
f 27/4/3 28/10/3 23/11/3
f 27/4/3 29/9/3 28/10/3
f 30/3/3 29/9/3 27/4/3
f 30/3/3 31/8/3 29/9/3
f 13/2/3 31/8/3 30/3/3
f 13/2/3 32/7/3 31/8/3
f 12/1/3 32/7/3 13/2/3
f 32/7/3 12/1/3 33/1/3
f 16/2/4 2/1/4 4/2/4
f 2/1/4 16/2/4 14/1/4
f 13/2/5 5/3/6 3/2/5
f 5/3/6 13/2/5 30/3/6
f 30/3/6 7/4/7 5/3/6
f 7/4/7 30/3/6 27/4/7
f 7/4/7 25/5/8 9/5/8
f 25/5/8 7/4/7 27/4/7
f 9/5/8 26/6/9 11/6/9
f 26/6/9 9/5/8 25/5/8
f 11/6/9 24/5/10 10/5/10
f 24/5/10 11/6/9 26/6/9
f 10/5/10 21/4/11 8/4/11
f 21/4/11 10/5/10 24/5/10
f 21/4/11 6/3/12 8/4/11
f 6/3/12 21/4/11 19/3/12
f 19/3/12 4/2/13 6/3/12
f 4/2/13 19/3/12 16/2/13
f 36/7/3 35/1/3 34/1/3
f 35/1/3 36/7/3 37/7/3
f 37/7/3 36/7/3 38/8/3
f 37/7/3 38/8/3 39/8/3
f 39/8/3 38/8/3 40/9/3
f 40/9/3 38/8/3 41/9/3
f 40/9/3 41/9/3 42/10/3
f 42/10/3 41/9/3 43/10/3
f 42/10/3 43/10/3 44/11/3
f 18/8/14 41/9/15 38/8/14
f 41/9/15 18/8/14 20/9/15
f 22/10/16 41/9/15 20/9/15
f 41/9/15 22/10/16 43/10/16
f 23/11/17 43/10/16 22/10/16
f 43/10/16 23/11/17 44/11/17
f 28/10/18 44/11/17 23/11/17
f 44/11/17 28/10/18 42/10/18
f 29/9/19 42/10/18 28/10/18
f 42/10/18 29/9/19 40/9/19
f 29/9/19 39/8/20 40/9/19
f 39/8/20 29/9/19 31/8/20
f 31/8/20 37/7/21 39/8/20
f 37/7/21 31/8/20 32/7/21
f 32/7/4 35/1/4 37/7/4
f 35/1/4 32/7/4 33/1/4
f 15/1/2 36/7/2 34/1/2
f 36/7/2 15/1/2 17/7/2
f 17/7/22 38/8/14 36/7/22
f 38/8/14 17/7/22 18/8/14
f 47/12/24 46/13/23 45/12/23
f 46/13/23 47/12/24 48/13/24
f 51/12/25 50/13/26 49/13/25
f 50/13/26 51/12/25 52/12/26
f 45/12/23 50/13/26 52/12/26
f 50/13/26 45/12/23 46/13/23
f 55/13/17 54/13/17 53/13/17
f 49/13/17 54/13/17 55/13/17
f 49/13/17 55/13/17 56/13/17
f 49/13/17 56/13/17 57/13/17
f 49/13/17 58/13/17 54/13/17
f 50/13/17 58/13/17 49/13/17
f 50/13/17 59/13/17 58/13/17
f 50/13/17 60/13/17 59/13/17
f 46/13/17 60/13/17 50/13/17
f 60/13/17 46/13/17 48/13/17
f 61/12/27 48/13/24 47/12/24
f 48/13/24 61/12/27 60/13/27
f 55/13/29 62/12/28 56/13/28
f 62/12/28 55/13/29 63/12/29
f 56/13/28 64/12/30 57/13/30
f 64/12/30 56/13/28 62/12/28
f 57/13/30 51/12/25 49/13/25
f 51/12/25 57/13/30 64/12/30
f 65/12/3 55/13/29 53/13/3
f 55/13/29 65/12/3 63/12/29
f 67/12/9 61/12/9 66/12/9
f 61/12/9 51/12/9 66/12/9
f 66/12/9 51/12/9 68/12/9
f 68/12/9 51/12/9 65/12/9
f 65/12/9 51/12/9 63/12/9
f 63/12/9 51/12/9 64/12/9
f 63/12/9 64/12/9 62/12/9
f 61/12/9 52/12/9 51/12/9
f 47/12/9 52/12/9 61/12/9
f 52/12/9 47/12/9 45/12/9
f 59/13/2 66/12/2 58/13/2
f 66/12/2 59/13/2 67/12/2
f 66/12/3 54/13/3 58/13/3
f 54/13/3 66/12/3 68/12/3
f 65/12/4 54/13/4 68/12/4
f 54/13/4 65/12/4 53/13/4
f 61/12/27 59/13/3 60/13/27
f 59/13/3 61/12/27 67/12/3
f 71/14/31 70/12/32 69/14/31
f 70/12/32 71/14/31 72/12/32
f 75/15/33 74/16/34 73/15/33
f 74/16/34 75/15/33 76/16/34
f 79/15/36 78/16/35 77/16/35
f 78/16/35 79/15/36 80/15/36
f 83/12/38 82/14/37 81/14/37
f 82/14/37 83/12/38 84/12/38
f 70/12/32 84/12/38 83/12/38
f 84/12/38 70/12/32 72/12/32
f 82/14/37 73/15/33 81/14/37
f 73/15/33 82/14/37 75/15/33
f 77/16/35 74/16/34 76/16/34
f 74/16/34 77/16/35 78/16/35
f 79/15/36 69/14/31 80/15/36
f 69/14/31 79/15/36 71/14/31
f 80/15/1 74/16/1 78/16/1
f 74/16/1 80/15/1 73/15/1
f 73/15/1 80/15/1 69/14/1
f 73/15/1 69/14/1 81/14/1
f 81/14/1 69/14/1 70/12/1
f 81/14/1 70/12/1 83/12/1
f 76/16/3 79/15/3 77/16/3
f 79/15/3 76/16/3 75/15/3
f 79/15/3 75/15/3 71/14/3
f 71/14/3 75/15/3 82/14/3
f 71/14/3 82/14/3 72/12/3
f 72/12/3 82/14/3 84/12/3
f 87/14/31 86/12/32 85/14/31
f 86/12/32 87/14/31 88/12/32
f 91/15/33 90/16/34 89/15/33
f 90/16/34 91/15/33 92/16/34
f 95/15/36 94/16/35 93/16/35
f 94/16/35 95/15/36 96/15/36
f 99/12/38 98/14/37 97/14/37
f 98/14/37 99/12/38 100/12/38
f 86/12/32 100/12/38 99/12/38
f 100/12/38 86/12/32 88/12/32
f 98/14/37 89/15/33 97/14/37
f 89/15/33 98/14/37 91/15/33
f 93/16/35 90/16/34 92/16/34
f 90/16/34 93/16/35 94/16/35
f 95/15/36 85/14/31 96/15/36
f 85/14/31 95/15/36 87/14/31
f 96/15/1 90/16/1 94/16/1
f 90/16/1 96/15/1 89/15/1
f 89/15/1 96/15/1 85/14/1
f 89/15/1 85/14/1 97/14/1
f 97/14/1 85/14/1 86/12/1
f 97/14/1 86/12/1 99/12/1
f 92/16/3 95/15/3 93/16/3
f 95/15/3 92/16/3 91/15/3
f 95/15/3 91/15/3 87/14/3
f 87/14/3 91/15/3 98/14/3
f 87/14/3 98/14/3 88/12/3
f 88/12/3 98/14/3 100/12/3

