# Created by Kenney (www.kenney.nl)

mtllib gravestone-cross.mtl

g gravestone-cross

v 0.07428942 0.58 -0.0785 1 1 1
v 0.07428942 0.58 0.0785 1 1 1
v -0.07428942 0.58 -0.0785 1 1 1
v -0.07428942 0.58 0.0785 1 1 1
v -0.1074144 0.18 -0.0785 1 1 1
v 0.1074144 0.18 -0.0785 1 1 1
v -0.1304297 0.205 -0.0785 1 1 1
v 0.1304297 0.205 -0.0785 1 1 1
v -0.1014453 0.555 -0.0785 1 1 1
v 0.1014453 0.555 -0.0785 1 1 1
v 0.1074144 0.18 0.0785 1 1 1
v -0.1074144 0.18 0.0785 1 1 1
v 0.1304297 0.205 0.0785 1 1 1
v -0.1304297 0.205 0.0785 1 1 1
v 0.06564543 0.23 0.0785 1 1 1
v 0.07715306 0.2425 0.0785 1 1 1
v -0.06564543 0.23 0.0785 1 1 1
v -0.07715306 0.2425 0.0785 1 1 1
v 0.1014453 0.555 0.0785 1 1 1
v -0.1014453 0.555 0.0785 1 1 1
v 0.05437963 0.5175 0.0785 1 1 1
v -0.05437963 0.5175 0.0785 1 1 1
v 0.04080168 0.53 0.0785 1 1 1
v -0.04080168 0.53 0.0785 1 1 1
v 0.038595 0.58 0.032625 1 1 1
v 0.038595 0.58 -0.032625 1 1 1
v -0.038595 0.58 0.032625 1 1 1
v -0.038595 0.58 -0.032625 1 1 1
v 0.03479513 0.9149956 -0.032625 1 1 1
v 0.03479513 0.9149956 0.032625 1 1 1
v -0.03479513 0.9149956 -0.032625 1 1 1
v -0.03479513 0.9149956 0.032625 1 1 1
v -0.04620934 0.8999956 -0.032625 1 1 1
v -0.04620934 0.8999956 0.032625 1 1 1
v 0.04620934 0.8999956 -0.032625 1 1 1
v 0.04620934 0.8999956 0.032625 1 1 1
v 5.775291E-15 0.9041955 -0.01699705 1 1 1
v 5.775291E-15 0.9041955 0.01699705 1 1 1
v -0.07925891 0.8722116 -0.01699705 1 1 1
v -0.07925891 0.8722116 0.01699705 1 1 1
v 0.07925891 0.8722116 -0.01699705 1 1 1
v 0.07925891 0.8722116 0.01699705 1 1 1
v 0.112089 0.7949956 -0.01699705 1 1 1
v 0.112089 0.7949956 0.01699705 1 1 1
v 0.07925891 0.7177795 -0.01699705 1 1 1
v 0.07925891 0.7177795 0.01699705 1 1 1
v 5.775291E-15 0.6857956 0.01699705 1 1 1
v 5.775291E-15 0.6857956 -0.01699705 1 1 1
v -0.07925891 0.7177795 0.01699705 1 1 1
v -0.07925891 0.7177795 -0.01699705 1 1 1
v -0.112089 0.7949956 -0.01699705 1 1 1
v -0.112089 0.7949956 0.01699705 1 1 1
v 0.05765385 0.7397872 -0.01699705 1 1 1
v 0.08112691 0.7949956 -0.01699705 1 1 1
v 0.05765385 0.7397872 0.01699705 1 1 1
v 0.08112691 0.7949956 0.01699705 1 1 1
v 0.05765385 0.8502039 -0.01699705 1 1 1
v 0.05765385 0.8502039 0.01699705 1 1 1
v 5.775291E-15 0.8734694 0.01699705 1 1 1
v 5.775291E-15 0.8734694 -0.01699705 1 1 1
v -0.05765385 0.8502039 0.01699705 1 1 1
v -0.05765385 0.8502039 -0.01699705 1 1 1
v -0.08112691 0.7949956 -0.01699705 1 1 1
v -0.08112691 0.7949956 0.01699705 1 1 1
v -0.05765385 0.7397872 -0.01699705 1 1 1
v -0.05765385 0.7397872 0.01699705 1 1 1
v 5.775291E-15 0.7165217 -0.01699705 1 1 1
v 5.775291E-15 0.7165217 0.01699705 1 1 1
v 0.225 0.1 -0.115 1 1 1
v 0.225 0.1 0.115 1 1 1
v 0.175 0.1 -0.165 1 1 1
v 0.175 0.1 0.165 1 1 1
v -0.175 0.1 -0.165 1 1 1
v -0.175 0.1 0.165 1 1 1
v -0.225 0.1 -0.115 1 1 1
v -0.225 0.1 0.115 1 1 1
v 0.225 0 -0.115 1 1 1
v 0.225 0 0.115 1 1 1
v -0.175 0 -0.165 1 1 1
v 0.175 0 -0.165 1 1 1
v 0.175 0 0.165 1 1 1
v -0.175 0 0.165 1 1 1
v -0.225 0 0.115 1 1 1
v -0.225 0 -0.115 1 1 1
v 0.1575 0.18 -0.08486039 1 1 1
v 0.1575 0.18 0.08486039 1 1 1
v 0.1388604 0.18 -0.1035 1 1 1
v 0.1388604 0.18 0.1035 1 1 1
v -0.1388604 0.18 -0.1035 1 1 1
v -0.1388604 0.18 0.1035 1 1 1
v -0.1575 0.18 -0.08486039 1 1 1
v -0.1575 0.18 0.08486039 1 1 1
v -0.175 0.1 -0.09428932 1 1 1
v -0.175 0.1 0.09428932 1 1 1
v -0.1542893 0.1 -0.115 1 1 1
v 0.1542893 0.1 -0.115 1 1 1
v 0.175 0.1 -0.09428932 1 1 1
v 0.175 0.1 0.09428932 1 1 1
v -0.1542893 0.1 0.115 1 1 1
v 0.1542893 0.1 0.115 1 1 1
v 0.1081748 0.8309956 -0.05286375 1 1 1
v 0.1081748 0.8309956 0.05286375 1 1 1
v -0.1081748 0.8309956 -0.05286375 1 1 1
v -0.1081748 0.8309956 0.05286375 1 1 1
v -0.1231748 0.7739956 -0.05286375 1 1 1
v -0.1231748 0.8159956 -0.05286375 1 1 1
v -0.1231748 0.7739956 0.05286375 1 1 1
v -0.1231748 0.8159956 0.05286375 1 1 1
v 0.1231748 0.8159956 -0.05286375 1 1 1
v 0.1231748 0.7739956 -0.05286375 1 1 1
v 0.1231748 0.8159956 0.05286375 1 1 1
v 0.1231748 0.7739956 0.05286375 1 1 1
v 0.1081748 0.7589956 0.05286375 1 1 1
v 0.1081748 0.7589956 -0.05286375 1 1 1
v -0.1081748 0.7589956 0.05286375 1 1 1
v -0.1081748 0.7589956 -0.05286375 1 1 1
v 0.07715306 0.2425 0.0285 1 1 1
v 0.05437963 0.5175 0.0285 1 1 1
v 0.06564543 0.23 0.0285 1 1 1
v -0.06564543 0.23 0.0285 1 1 1
v -0.07715306 0.2425 0.0285 1 1 1
v -0.05437963 0.5175 0.0285 1 1 1
v 0.04080168 0.53 0.0285 1 1 1
v -0.04080168 0.53 0.0285 1 1 1

vn 0.3635195 0.9315866 0
vn -0.3635195 0.9315866 0
vn 0 0 -1
vn 0 0 1
vn 0.4016841 -0.9157783 0
vn -0.4016841 -0.9157783 0
vn -0.9458052 -0.3247346 0
vn 0.9458052 -0.3247346 0
vn 0.8984073 0.4391632 0
vn -0.8984073 0.4391632 0
vn 0 -1 0
vn 0.4440941 0.8959801 0
vn -0.4440941 0.8959801 0
vn -0.9513094 0.3082376 0
vn 0.9513094 0.3082376 0
vn 0.9997171 -0.02378839 0
vn -0.9997171 -0.02378839 0
vn 0 1 0
vn -0.7005486 0.7136047 0
vn 0.7005486 0.7136047 0
vn 1 0 0
vn 0.7005486 -0.7136047 0
vn -0.7005486 -0.7136047 0
vn -1 0 0
vn 0.9238795 0 -0.3826834
vn 0.9238795 0 0.3826834
vn -0.3826834 0 -0.9238795
vn 0.3826834 0 -0.9238795
vn 0.3826834 0 0.9238795
vn -0.9238795 0 0.3826834
vn -0.3826834 0 0.9238795
vn -0.9238795 0 -0.3826834
vn -0.8948031 0.2401016 -0.3764022
vn -0.8993185 0.2398238 -0.365665
vn -0.8948031 0.2401016 0.3764022
vn -0.8993185 0.2398238 0.365665
vn -0.3990334 0.2054177 -0.8936307
vn -0.3463525 0.1985942 -0.9168426
vn 0.3990334 0.2054177 -0.8936307
vn 0.8948031 0.2401016 -0.3764022
vn 0.3463525 0.1985942 -0.9168426
vn 0.8993185 0.2398238 -0.365665
vn 0.8948031 0.2401016 0.3764022
vn 0.8993185 0.2398238 0.365665
vn -0.3463525 0.1985942 0.9168426
vn -0.3990334 0.2054177 0.8936307
vn 0.3463525 0.1985942 0.9168426
vn 0.3990334 0.2054177 0.8936307
vn 0.2442587 0.9697101 0
vn -0.2442587 0.9697101 0
vn -0.8997732 -0.4363578 0
vn -0.8997732 0.4363578 0
vn 0.8997732 0.4363578 0
vn 0.8997732 -0.4363578 0
vn 0.2442587 -0.9697101 0
vn -0.2442587 -0.9697101 0
vn -0.9458052 0.3247346 0
vn -0.8984073 -0.4391632 0
vn -0.4016841 0.9157783 0
vn 0.4016841 0.9157783 0
vn 0.9458052 0.3247346 0
vn 0.8984073 -0.4391632 0
vn -0.3635195 -0.9315866 0
vn 0.3635195 -0.9315866 0

vt 0.96875 0.225
vt 0.96875 0.025
vt 0.96875 0.0375
vt 0.96875 0.2125
vt 0.96875 0.05
vt 0.96875 0.05625
vt 0.96875 0.19375
vt 0.96875 0.2
vt 0.96875 0.2160447
vt 0.96875 0.105
vt 0.96875 0.09274505
vt 0.96875 0.063159
vt 0.96875 0.03357294
vt 0.96875 0.0420054
vt 0.96875 0.0843126
vt 0.96875 0.09322699
vt 0.96875 0.03309101
vt 0.96875 0.175
vt 0.96875 0.075
vt 0.96875 0.09583333
vt 0.96875 0.1541667
vt 0.09375 0.05625
vt 0.09375 0.19375
vt 0.09375 0.05
vt 0.09375 0.2

usemtl colormap

f 3/1/2 2/1/1 1/1/1
f 2/1/1 3/1/2 4/1/2
f 7/3/3 6/2/3 5/2/3
f 6/2/3 7/3/3 8/3/3
f 8/3/3 7/3/3 9/4/3
f 8/3/3 9/4/3 10/4/3
f 10/4/3 9/4/3 3/1/3
f 10/4/3 3/1/3 1/1/3
f 13/3/4 12/2/4 11/2/4
f 12/2/4 13/3/4 14/3/4
f 14/3/4 13/3/4 15/5/4
f 15/5/4 13/3/4 16/6/4
f 17/5/4 14/3/4 15/5/4
f 18/6/4 14/3/4 17/5/4
f 16/6/4 13/3/4 19/4/4
f 14/3/4 18/6/4 20/4/4
f 16/6/4 19/4/4 21/7/4
f 20/4/4 18/6/4 22/7/4
f 21/7/4 19/4/4 23/8/4
f 23/8/4 19/4/4 24/8/4
f 20/4/4 22/7/4 24/8/4
f 20/4/4 24/8/4 19/4/4
f 20/4/4 19/4/4 2/1/4
f 20/4/4 2/1/4 4/1/4
f 12/2/6 6/2/5 11/2/5
f 6/2/5 12/2/6 5/2/6
f 12/2/6 7/3/7 5/2/6
f 7/3/7 12/2/6 14/3/7
f 13/3/8 6/2/5 8/3/8
f 6/2/5 13/3/8 11/2/5
f 19/4/9 8/3/8 10/4/9
f 8/3/8 19/4/9 13/3/8
f 14/3/7 9/4/10 7/3/7
f 9/4/10 14/3/7 20/4/10
f 1/1/1 19/4/9 10/4/9
f 19/4/9 1/1/1 2/1/1
f 9/4/10 4/1/2 3/1/2
f 4/1/2 9/4/10 20/4/10
f 27/2/11 26/2/11 25/2/11
f 26/2/11 27/2/11 28/2/11
f 31/1/13 30/1/12 29/1/12
f 30/1/12 31/1/13 32/1/13
f 34/9/14 31/1/13 33/9/14
f 31/1/13 34/9/14 32/1/13
f 30/1/12 35/9/15 29/1/12
f 35/9/15 30/1/12 36/9/15
f 36/9/4 27/2/4 25/2/4
f 27/2/4 36/9/4 34/9/4
f 34/9/4 36/9/4 30/1/4
f 34/9/4 30/1/4 32/1/4
f 36/9/15 26/2/16 35/9/15
f 26/2/16 36/9/15 25/2/16
f 33/9/3 26/2/3 28/2/3
f 26/2/3 33/9/3 35/9/3
f 35/9/3 33/9/3 31/1/3
f 35/9/3 31/1/3 29/1/3
f 27/2/17 33/9/14 28/2/17
f 33/9/14 27/2/17 34/9/14
f 39/11/19 38/10/18 37/10/18
f 38/10/18 39/11/19 40/11/19
f 37/10/18 42/11/20 41/11/20
f 42/11/20 37/10/18 38/10/18
f 42/11/20 43/12/21 41/11/20
f 43/12/21 42/11/20 44/12/21
f 44/12/21 45/13/22 43/12/21
f 45/13/22 44/12/21 46/13/22
f 47/2/11 45/13/22 46/13/22
f 45/13/22 47/2/11 48/2/11
f 49/13/23 48/2/11 47/2/11
f 48/2/11 49/13/23 50/13/23
f 49/13/23 51/12/24 50/13/23
f 51/12/24 49/13/23 52/12/24
f 52/12/24 39/11/19 51/12/24
f 39/11/19 52/12/24 40/11/19
f 55/14/19 54/12/24 53/14/19
f 54/12/24 55/14/19 56/12/24
f 56/12/24 57/15/23 54/12/24
f 57/15/23 56/12/24 58/15/23
f 59/16/11 57/15/23 58/15/23
f 57/15/23 59/16/11 60/16/11
f 61/15/22 60/16/11 59/16/11
f 60/16/11 61/15/22 62/15/22
f 61/15/22 63/12/21 62/15/22
f 63/12/21 61/15/22 64/12/21
f 64/12/21 65/14/20 63/12/21
f 65/14/20 64/12/21 66/14/20
f 65/14/20 68/17/18 67/17/18
f 68/17/18 65/14/20 66/14/20
f 67/17/18 55/14/19 53/14/19
f 55/14/19 67/17/18 68/17/18
f 41/11/3 54/12/3 57/15/3
f 41/11/3 57/15/3 60/16/3
f 43/12/3 54/12/3 41/11/3
f 41/11/3 60/16/3 37/10/3
f 43/12/3 53/14/3 54/12/3
f 60/16/3 39/11/3 37/10/3
f 45/13/3 53/14/3 43/12/3
f 62/15/3 39/11/3 60/16/3
f 45/13/3 67/17/3 53/14/3
f 67/17/3 45/13/3 48/2/3
f 50/13/3 67/17/3 48/2/3
f 67/17/3 50/13/3 65/14/3
f 62/15/3 51/12/3 39/11/3
f 65/14/3 50/13/3 51/12/3
f 63/12/3 51/12/3 62/15/3
f 65/14/3 51/12/3 63/12/3
f 52/12/4 66/14/4 64/12/4
f 52/12/4 64/12/4 61/15/4
f 49/13/4 66/14/4 52/12/4
f 52/12/4 61/15/4 40/11/4
f 49/13/4 68/17/4 66/14/4
f 68/17/4 49/13/4 47/2/4
f 46/13/4 68/17/4 47/2/4
f 68/17/4 46/13/4 55/14/4
f 55/14/4 46/13/4 44/12/4
f 55/14/4 44/12/4 56/12/4
f 40/11/4 61/15/4 59/16/4
f 40/11/4 59/16/4 38/10/4
f 56/12/4 44/12/4 42/11/4
f 59/16/4 42/11/4 38/10/4
f 56/12/4 42/11/4 58/15/4
f 58/15/4 42/11/4 59/16/4
f 71/18/18 70/18/18 69/18/18
f 70/18/18 71/18/18 72/18/18
f 72/18/18 71/18/18 73/18/18
f 72/18/18 73/18/18 74/18/18
f 74/18/18 73/18/18 75/18/18
f 74/18/18 75/18/18 76/18/18
f 70/18/26 77/19/25 69/18/25
f 77/19/25 70/18/26 78/19/26
f 73/18/27 80/19/28 79/19/27
f 80/19/28 73/18/27 71/18/28
f 69/18/25 80/19/28 71/18/28
f 80/19/28 69/18/25 77/19/25
f 81/19/11 77/19/11 78/19/11
f 77/19/11 81/19/11 80/19/11
f 80/19/11 81/19/11 82/19/11
f 80/19/11 82/19/11 79/19/11
f 79/19/11 82/19/11 83/19/11
f 79/19/11 83/19/11 84/19/11
f 72/18/29 78/19/26 70/18/26
f 78/19/26 72/18/29 81/19/29
f 82/19/31 76/18/30 83/19/30
f 76/18/30 82/19/31 74/18/31
f 83/19/30 75/18/32 84/19/32
f 75/18/32 83/19/30 76/18/30
f 84/19/32 73/18/27 79/19/27
f 73/18/27 84/19/32 75/18/32
f 72/18/29 82/19/31 81/19/29
f 82/19/31 72/18/29 74/18/31
f 87/18/18 86/18/18 85/18/18
f 86/18/18 87/18/18 88/18/18
f 88/18/18 87/18/18 89/18/18
f 88/18/18 89/18/18 90/18/18
f 90/18/18 89/18/18 91/18/18
f 90/18/18 91/18/18 92/18/18
f 94/19/35 91/18/34 93/19/33
f 91/18/34 94/19/35 92/18/36
f 93/19/33 89/18/38 95/19/37
f 89/18/38 93/19/33 91/18/34
f 87/18/41 97/19/40 96/19/39
f 97/19/40 87/18/41 85/18/42
f 85/18/42 98/19/43 97/19/40
f 98/19/43 85/18/42 86/18/44
f 89/18/38 96/19/39 95/19/37
f 96/19/39 89/18/38 87/18/41
f 94/19/35 90/18/45 92/18/36
f 90/18/45 94/19/35 99/19/46
f 88/18/47 98/19/43 86/18/44
f 98/19/43 88/18/47 100/19/48
f 88/18/47 99/19/46 100/19/48
f 99/19/46 88/18/47 90/18/45
f 103/18/50 102/18/49 101/18/49
f 102/18/49 103/18/50 104/18/50
f 107/20/51 106/21/52 105/20/51
f 106/21/52 107/20/51 108/21/52
f 111/21/53 110/20/54 109/21/53
f 110/20/54 111/21/53 112/20/54
f 115/19/56 114/19/55 113/19/55
f 114/19/55 115/19/56 116/19/56
f 108/21/52 103/18/50 106/21/52
f 103/18/50 108/21/52 104/18/50
f 112/20/54 114/19/55 110/20/54
f 114/19/55 112/20/54 113/19/55
f 115/19/56 105/20/51 116/19/56
f 105/20/51 115/19/56 107/20/51
f 102/18/49 109/21/53 101/18/49
f 109/21/53 102/18/49 111/21/53
f 112/20/4 115/19/4 113/19/4
f 115/19/4 112/20/4 107/20/4
f 107/20/4 112/20/4 111/21/4
f 107/20/4 111/21/4 108/21/4
f 108/21/4 111/21/4 102/18/4
f 108/21/4 102/18/4 104/18/4
f 105/20/3 114/19/3 116/19/3
f 114/19/3 105/20/3 110/20/3
f 110/20/3 105/20/3 106/21/3
f 110/20/3 106/21/3 109/21/3
f 109/21/3 106/21/3 103/18/3
f 109/21/3 103/18/3 101/18/3
f 16/22/57 118/23/58 117/22/57
f 118/23/58 16/22/57 21/23/58
f 120/24/60 15/24/59 119/24/59
f 15/24/59 120/24/60 17/24/60
f 18/22/61 120/24/60 121/22/61
f 120/24/60 18/22/61 17/24/60
f 15/24/59 117/22/57 119/24/59
f 117/22/57 15/24/59 16/22/57
f 117/22/4 120/24/4 119/24/4
f 120/24/4 117/22/4 121/22/4
f 121/22/4 117/22/4 122/23/4
f 122/23/4 117/22/4 118/23/4
f 122/23/4 118/23/4 123/25/4
f 122/23/4 123/25/4 124/25/4
f 22/23/62 121/22/61 122/23/62
f 121/22/61 22/23/62 18/22/61
f 24/25/64 123/25/63 23/25/63
f 123/25/63 24/25/64 124/25/64
f 23/25/63 118/23/58 21/23/58
f 118/23/58 23/25/63 123/25/63
f 22/23/62 124/25/64 24/25/64
f 124/25/64 22/23/62 122/23/62

g gravestone-cross




usemtl colormap

f 3/1/2 2/1/1 1/1/1
f 2/1/1 3/1/2 4/1/2
f 7/3/3 6/2/3 5/2/3
f 6/2/3 7/3/3 8/3/3
f 8/3/3 7/3/3 9/4/3
f 8/3/3 9/4/3 10/4/3
f 10/4/3 9/4/3 3/1/3
f 10/4/3 3/1/3 1/1/3
f 13/3/4 12/2/4 11/2/4
f 12/2/4 13/3/4 14/3/4
f 14/3/4 13/3/4 15/5/4
f 15/5/4 13/3/4 16/6/4
f 17/5/4 14/3/4 15/5/4
f 18/6/4 14/3/4 17/5/4
f 16/6/4 13/3/4 19/4/4
f 14/3/4 18/6/4 20/4/4
f 16/6/4 19/4/4 21/7/4
f 20/4/4 18/6/4 22/7/4
f 21/7/4 19/4/4 23/8/4
f 23/8/4 19/4/4 24/8/4
f 20/4/4 22/7/4 24/8/4
f 20/4/4 24/8/4 19/4/4
f 20/4/4 19/4/4 2/1/4
f 20/4/4 2/1/4 4/1/4
f 12/2/6 6/2/5 11/2/5
f 6/2/5 12/2/6 5/2/6
f 12/2/6 7/3/7 5/2/6
f 7/3/7 12/2/6 14/3/7
f 13/3/8 6/2/5 8/3/8
f 6/2/5 13/3/8 11/2/5
f 19/4/9 8/3/8 10/4/9
f 8/3/8 19/4/9 13/3/8
f 14/3/7 9/4/10 7/3/7
f 9/4/10 14/3/7 20/4/10
f 1/1/1 19/4/9 10/4/9
f 19/4/9 1/1/1 2/1/1
f 9/4/10 4/1/2 3/1/2
f 4/1/2 9/4/10 20/4/10
f 27/2/11 26/2/11 25/2/11
f 26/2/11 27/2/11 28/2/11
f 31/1/13 30/1/12 29/1/12
f 30/1/12 31/1/13 32/1/13
f 34/9/14 31/1/13 33/9/14
f 31/1/13 34/9/14 32/1/13
f 30/1/12 35/9/15 29/1/12
f 35/9/15 30/1/12 36/9/15
f 36/9/4 27/2/4 25/2/4
f 27/2/4 36/9/4 34/9/4
f 34/9/4 36/9/4 30/1/4
f 34/9/4 30/1/4 32/1/4
f 36/9/15 26/2/16 35/9/15
f 26/2/16 36/9/15 25/2/16
f 33/9/3 26/2/3 28/2/3
f 26/2/3 33/9/3 35/9/3
f 35/9/3 33/9/3 31/1/3
f 35/9/3 31/1/3 29/1/3
f 27/2/17 33/9/14 28/2/17
f 33/9/14 27/2/17 34/9/14
f 39/11/19 38/10/18 37/10/18
f 38/10/18 39/11/19 40/11/19
f 37/10/18 42/11/20 41/11/20
f 42/11/20 37/10/18 38/10/18
f 42/11/20 43/12/21 41/11/20
f 43/12/21 42/11/20 44/12/21
f 44/12/21 45/13/22 43/12/21
f 45/13/22 44/12/21 46/13/22
f 47/2/11 45/13/22 46/13/22
f 45/13/22 47/2/11 48/2/11
f 49/13/23 48/2/11 47/2/11
f 48/2/11 49/13/23 50/13/23
f 49/13/23 51/12/24 50/13/23
f 51/12/24 49/13/23 52/12/24
f 52/12/24 39/11/19 51/12/24
f 39/11/19 52/12/24 40/11/19
f 55/14/19 54/12/24 53/14/19
f 54/12/24 55/14/19 56/12/24
f 56/12/24 57/15/23 54/12/24
f 57/15/23 56/12/24 58/15/23
f 59/16/11 57/15/23 58/15/23
f 57/15/23 59/16/11 60/16/11
f 61/15/22 60/16/11 59/16/11
f 60/16/11 61/15/22 62/15/22
f 61/15/22 63/12/21 62/15/22
f 63/12/21 61/15/22 64/12/21
f 64/12/21 65/14/20 63/12/21
f 65/14/20 64/12/21 66/14/20
f 65/14/20 68/17/18 67/17/18
f 68/17/18 65/14/20 66/14/20
f 67/17/18 55/14/19 53/14/19
f 55/14/19 67/17/18 68/17/18
f 41/11/3 54/12/3 57/15/3
f 41/11/3 57/15/3 60/16/3
f 43/12/3 54/12/3 41/11/3
f 41/11/3 60/16/3 37/10/3
f 43/12/3 53/14/3 54/12/3
f 60/16/3 39/11/3 37/10/3
f 45/13/3 53/14/3 43/12/3
f 62/15/3 39/11/3 60/16/3
f 45/13/3 67/17/3 53/14/3
f 67/17/3 45/13/3 48/2/3
f 50/13/3 67/17/3 48/2/3
f 67/17/3 50/13/3 65/14/3
f 62/15/3 51/12/3 39/11/3
f 65/14/3 50/13/3 51/12/3
f 63/12/3 51/12/3 62/15/3
f 65/14/3 51/12/3 63/12/3
f 52/12/4 66/14/4 64/12/4
f 52/12/4 64/12/4 61/15/4
f 49/13/4 66/14/4 52/12/4
f 52/12/4 61/15/4 40/11/4
f 49/13/4 68/17/4 66/14/4
f 68/17/4 49/13/4 47/2/4
f 46/13/4 68/17/4 47/2/4
f 68/17/4 46/13/4 55/14/4
f 55/14/4 46/13/4 44/12/4
f 55/14/4 44/12/4 56/12/4
f 40/11/4 61/15/4 59/16/4
f 40/11/4 59/16/4 38/10/4
f 56/12/4 44/12/4 42/11/4
f 59/16/4 42/11/4 38/10/4
f 56/12/4 42/11/4 58/15/4
f 58/15/4 42/11/4 59/16/4
f 71/18/18 70/18/18 69/18/18
f 70/18/18 71/18/18 72/18/18
f 72/18/18 71/18/18 73/18/18
f 72/18/18 73/18/18 74/18/18
f 74/18/18 73/18/18 75/18/18
f 74/18/18 75/18/18 76/18/18
f 70/18/26 77/19/25 69/18/25
f 77/19/25 70/18/26 78/19/26
f 73/18/27 80/19/28 79/19/27
f 80/19/28 73/18/27 71/18/28
f 69/18/25 80/19/28 71/18/28
f 80/19/28 69/18/25 77/19/25
f 81/19/11 77/19/11 78/19/11
f 77/19/11 81/19/11 80/19/11
f 80/19/11 81/19/11 82/19/11
f 80/19/11 82/19/11 79/19/11
f 79/19/11 82/19/11 83/19/11
f 79/19/11 83/19/11 84/19/11
f 72/18/29 78/19/26 70/18/26
f 78/19/26 72/18/29 81/19/29
f 82/19/31 76/18/30 83/19/30
f 76/18/30 82/19/31 74/18/31
f 83/19/30 75/18/32 84/19/32
f 75/18/32 83/19/30 76/18/30
f 84/19/32 73/18/27 79/19/27
f 73/18/27 84/19/32 75/18/32
f 72/18/29 82/19/31 81/19/29
f 82/19/31 72/18/29 74/18/31
f 87/18/18 86/18/18 85/18/18
f 86/18/18 87/18/18 88/18/18
f 88/18/18 87/18/18 89/18/18
f 88/18/18 89/18/18 90/18/18
f 90/18/18 89/18/18 91/18/18
f 90/18/18 91/18/18 92/18/18
f 94/19/35 91/18/34 93/19/33
f 91/18/34 94/19/35 92/18/36
f 93/19/33 89/18/38 95/19/37
f 89/18/38 93/19/33 91/18/34
f 87/18/41 97/19/40 96/19/39
f 97/19/40 87/18/41 85/18/42
f 85/18/42 98/19/43 97/19/40
f 98/19/43 85/18/42 86/18/44
f 89/18/38 96/19/39 95/19/37
f 96/19/39 89/18/38 87/18/41
f 94/19/35 90/18/45 92/18/36
f 90/18/45 94/19/35 99/19/46
f 88/18/47 98/19/43 86/18/44
f 98/19/43 88/18/47 100/19/48
f 88/18/47 99/19/46 100/19/48
f 99/19/46 88/18/47 90/18/45
f 103/18/50 102/18/49 101/18/49
f 102/18/49 103/18/50 104/18/50
f 107/20/51 106/21/52 105/20/51
f 106/21/52 107/20/51 108/21/52
f 111/21/53 110/20/54 109/21/53
f 110/20/54 111/21/53 112/20/54
f 115/19/56 114/19/55 113/19/55
f 114/19/55 115/19/56 116/19/56
f 108/21/52 103/18/50 106/21/52
f 103/18/50 108/21/52 104/18/50
f 112/20/54 114/19/55 110/20/54
f 114/19/55 112/20/54 113/19/55
f 115/19/56 105/20/51 116/19/56
f 105/20/51 115/19/56 107/20/51
f 102/18/49 109/21/53 101/18/49
f 109/21/53 102/18/49 111/21/53
f 112/20/4 115/19/4 113/19/4
f 115/19/4 112/20/4 107/20/4
f 107/20/4 112/20/4 111/21/4
f 107/20/4 111/21/4 108/21/4
f 108/21/4 111/21/4 102/18/4
f 108/21/4 102/18/4 104/18/4
f 105/20/3 114/19/3 116/19/3
f 114/19/3 105/20/3 110/20/3
f 110/20/3 105/20/3 106/21/3
f 110/20/3 106/21/3 109/21/3
f 109/21/3 106/21/3 103/18/3
f 109/21/3 103/18/3 101/18/3
f 16/22/57 118/23/58 117/22/57
f 118/23/58 16/22/57 21/23/58
f 120/24/60 15/24/59 119/24/59
f 15/24/59 120/24/60 17/24/60
f 18/22/61 120/24/60 121/22/61
f 120/24/60 18/22/61 17/24/60
f 15/24/59 117/22/57 119/24/59
f 117/22/57 15/24/59 16/22/57
f 117/22/4 120/24/4 119/24/4
f 120/24/4 117/22/4 121/22/4
f 121/22/4 117/22/4 122/23/4
f 122/23/4 117/22/4 118/23/4
f 122/23/4 118/23/4 123/25/4
f 122/23/4 123/25/4 124/25/4
f 22/23/62 121/22/61 122/23/62
f 121/22/61 22/23/62 18/22/61
f 24/25/64 123/25/63 23/25/63
f 123/25/63 24/25/64 124/25/64
f 23/25/63 118/23/58 21/23/58
f 118/23/58 23/25/63 123/25/63
f 22/23/62 124/25/64 24/25/64
f 124/25/64 22/23/62 122/23/62

