# Created by Kenney (www.kenney.nl)

mtllib gravestone-decorative.mtl

g gravestone-decorative

v 0.175 0.45 0.075 1 1 1
v 0.175 0.45 -0.075 1 1 1
v -0.175 0.45 0.075 1 1 1
v -0.175 0.45 -0.075 1 1 1
v -0.175 0.5 -0.075 1 1 1
v -0.175 0.5 0.075 1 1 1
v 0.175 0.5 -0.075 1 1 1
v 0.175 0.5 0.075 1 1 1
v 0.04153675 0.5942413 -0.075 1 1 1
v 0.04153675 0.5942413 0.075 1 1 1
v -0.04153675 0.5942413 -0.075 1 1 1
v -0.04153675 0.5942413 0.075 1 1 1
v 0.175 0.2995527 -0.075 1 1 1
v 0.175 0.1 -0.075 1 1 1
v 0.175 0.2995527 0.075 1 1 1
v 0.175 0.1 0.075 1 1 1
v -0.175 0.1 -0.075 1 1 1
v 0.1539063 0.3370527 -0.075 1 1 1
v 0.175 0.3745527 -0.075 1 1 1
v -0.175 0.1 0.075 1 1 1
v 0.1539063 0.3370527 0.075 1 1 1
v 0.175 0.3745527 0.075 1 1 1
v 0.225 0.1 -0.075 1 1 1
v 0.225 0.1 0.075 1 1 1
v 0.175 0.1 -0.125 1 1 1
v 0.175 0.1 0.125 1 1 1
v -0.175 0.1 -0.125 1 1 1
v -0.175 0.1 0.125 1 1 1
v -0.225 0.1 -0.075 1 1 1
v -0.225 0.1 0.075 1 1 1
v 0.225 0 -0.075 1 1 1
v 0.225 0 0.075 1 1 1
v -0.175 0 -0.125 1 1 1
v 0.175 0 -0.125 1 1 1
v 0.175 0 0.125 1 1 1
v -0.175 0 0.125 1 1 1
v -0.225 0 0.075 1 1 1
v -0.225 0 -0.075 1 1 1
v -0.2550397 0.475 -0.1 1 1 1
v -0.19 0.5400397 -0.1 1 1 1
v -0.2550397 0.475 0.1 1 1 1
v -0.19 0.5400397 0.1 1 1 1
v -0.19 0.4099603 0.1 1 1 1
v -0.1249603 0.475 0.1 1 1 1
v -0.1249603 0.475 -0.1 1 1 1
v -0.19 0.4099603 -0.1 1 1 1
v 0.1249603 0.475 -0.1 1 1 1
v 0.19 0.5400397 -0.1 1 1 1
v 0.1249603 0.475 0.1 1 1 1
v 0.19 0.5400397 0.1 1 1 1
v 0.19 0.4099603 0.1 1 1 1
v 0.2550397 0.475 0.1 1 1 1
v 0.2550397 0.475 -0.1 1 1 1
v 0.19 0.4099603 -0.1 1 1 1

vn 0 -1 0
vn -1 0 0
vn 1 0 0
vn 0.3025922 0.9531201 0
vn -0.3025922 0.9531201 0
vn 0 0 1
vn -0.5768135 0.8168759 0
vn 0.5768135 0.8168759 0
vn 0 0 -1
vn 0.8715755 -0.4902612 0
vn 0.8715755 0.4902612 0
vn 0 1 0
vn 0.9238795 0 -0.3826834
vn 0.9238795 0 0.3826834
vn -0.3826834 0 -0.9238795
vn 0.3826834 0 -0.9238795
vn 0.3826834 0 0.9238795
vn -0.9238795 0 0.3826834
vn -0.3826834 0 0.9238795
vn -0.9238795 0 -0.3826834
vn -0.7071068 0.7071068 0
vn 0.7071068 -0.7071068 0
vn 0.7071068 0.7071068 0
vn -0.7071068 -0.7071068 0

vt 0.96875 0.145
vt 0.96875 0.1727313
vt 0.96875 0.225
vt 0.96875 0.1109699
vt 0.96875 0.025
vt 0.96875 0.08954132
vt 0.96875 0.06811273
vt 0.96875 0.175
vt 0.96875 0.075
vt 0.96875 0.125

usemtl colormap

f 3/1/1 2/1/1 1/1/1
f 2/1/1 3/1/1 4/1/1
f 3/1/2 5/2/2 4/1/2
f 5/2/2 3/1/2 6/2/2
f 8/2/3 2/1/3 7/2/3
f 2/1/3 8/2/3 1/1/3
f 11/3/5 10/3/4 9/3/4
f 10/3/4 11/3/5 12/3/5
f 8/2/6 3/1/6 1/1/6
f 3/1/6 8/2/6 6/2/6
f 6/2/6 8/2/6 10/3/6
f 6/2/6 10/3/6 12/3/6
f 5/2/7 12/3/5 11/3/5
f 12/3/5 5/2/7 6/2/7
f 9/3/4 8/2/8 7/2/8
f 8/2/8 9/3/4 10/3/4
f 5/2/9 2/1/9 4/1/9
f 2/1/9 5/2/9 7/2/9
f 7/2/9 5/2/9 11/3/9
f 7/2/9 11/3/9 9/3/9
f 15/4/3 14/3/3 13/4/3
f 14/3/3 15/4/3 16/3/3
f 4/5/9 14/3/9 17/3/9
f 14/3/9 4/5/9 13/4/9
f 13/4/9 4/5/9 18/6/9
f 18/6/9 4/5/9 19/7/9
f 19/7/9 4/5/9 2/5/9
f 20/3/2 4/5/2 17/3/2
f 4/5/2 20/3/2 3/5/2
f 15/4/6 20/3/6 16/3/6
f 20/3/6 15/4/6 3/5/6
f 3/5/6 15/4/6 21/6/6
f 3/5/6 21/6/6 22/7/6
f 3/5/6 22/7/6 1/5/6
f 22/7/10 18/6/3 19/7/10
f 18/6/3 22/7/10 21/6/3
f 21/6/3 13/4/11 18/6/3
f 13/4/11 21/6/3 15/4/11
f 1/5/3 19/7/3 2/5/3
f 19/7/3 1/5/3 22/7/3
f 25/8/12 24/8/12 23/8/12
f 24/8/12 25/8/12 26/8/12
f 26/8/12 25/8/12 27/8/12
f 26/8/12 27/8/12 28/8/12
f 28/8/12 27/8/12 29/8/12
f 28/8/12 29/8/12 30/8/12
f 24/8/14 31/9/13 23/8/13
f 31/9/13 24/8/14 32/9/14
f 27/8/15 34/9/16 33/9/15
f 34/9/16 27/8/15 25/8/16
f 23/8/13 34/9/16 25/8/16
f 34/9/16 23/8/13 31/9/13
f 35/9/1 31/9/1 32/9/1
f 31/9/1 35/9/1 34/9/1
f 34/9/1 35/9/1 36/9/1
f 34/9/1 36/9/1 33/9/1
f 33/9/1 36/9/1 37/9/1
f 33/9/1 37/9/1 38/9/1
f 26/8/17 32/9/14 24/8/14
f 32/9/14 26/8/17 35/9/17
f 36/9/19 30/8/18 37/9/18
f 30/8/18 36/9/19 28/8/19
f 37/9/18 29/8/20 38/9/20
f 29/8/20 37/9/18 30/8/18
f 38/9/20 27/8/15 33/9/15
f 27/8/15 38/9/20 29/8/20
f 26/8/17 36/9/19 35/9/17
f 36/9/19 26/8/17 28/8/19
f 41/10/21 40/8/21 39/10/21
f 40/8/21 41/10/21 42/8/21
f 44/10/6 41/10/6 43/9/6
f 41/10/6 44/10/6 42/8/6
f 44/10/22 46/9/22 45/10/22
f 46/9/22 44/10/22 43/9/22
f 40/8/23 44/10/23 45/10/23
f 44/10/23 40/8/23 42/8/23
f 39/10/9 45/10/9 46/9/9
f 45/10/9 39/10/9 40/8/9
f 41/10/24 46/9/24 43/9/24
f 46/9/24 41/10/24 39/10/24
f 49/10/21 48/8/21 47/10/21
f 48/8/21 49/10/21 50/8/21
f 52/10/6 49/10/6 51/9/6
f 49/10/6 52/10/6 50/8/6
f 52/10/22 54/9/22 53/10/22
f 54/9/22 52/10/22 51/9/22
f 48/8/23 52/10/23 53/10/23
f 52/10/23 48/8/23 50/8/23
f 47/10/9 53/10/9 54/9/9
f 53/10/9 47/10/9 48/8/9
f 49/10/24 54/9/24 51/9/24
f 54/9/24 49/10/24 47/10/24

g gravestone-decorative




usemtl colormap

f 3/1/1 2/1/1 1/1/1
f 2/1/1 3/1/1 4/1/1
f 3/1/2 5/2/2 4/1/2
f 5/2/2 3/1/2 6/2/2
f 8/2/3 2/1/3 7/2/3
f 2/1/3 8/2/3 1/1/3
f 11/3/5 10/3/4 9/3/4
f 10/3/4 11/3/5 12/3/5
f 8/2/6 3/1/6 1/1/6
f 3/1/6 8/2/6 6/2/6
f 6/2/6 8/2/6 10/3/6
f 6/2/6 10/3/6 12/3/6
f 5/2/7 12/3/5 11/3/5
f 12/3/5 5/2/7 6/2/7
f 9/3/4 8/2/8 7/2/8
f 8/2/8 9/3/4 10/3/4
f 5/2/9 2/1/9 4/1/9
f 2/1/9 5/2/9 7/2/9
f 7/2/9 5/2/9 11/3/9
f 7/2/9 11/3/9 9/3/9
f 15/4/3 14/3/3 13/4/3
f 14/3/3 15/4/3 16/3/3
f 4/5/9 14/3/9 17/3/9
f 14/3/9 4/5/9 13/4/9
f 13/4/9 4/5/9 18/6/9
f 18/6/9 4/5/9 19/7/9
f 19/7/9 4/5/9 2/5/9
f 20/3/2 4/5/2 17/3/2
f 4/5/2 20/3/2 3/5/2
f 15/4/6 20/3/6 16/3/6
f 20/3/6 15/4/6 3/5/6
f 3/5/6 15/4/6 21/6/6
f 3/5/6 21/6/6 22/7/6
f 3/5/6 22/7/6 1/5/6
f 22/7/10 18/6/3 19/7/10
f 18/6/3 22/7/10 21/6/3
f 21/6/3 13/4/11 18/6/3
f 13/4/11 21/6/3 15/4/11
f 1/5/3 19/7/3 2/5/3
f 19/7/3 1/5/3 22/7/3
f 25/8/12 24/8/12 23/8/12
f 24/8/12 25/8/12 26/8/12
f 26/8/12 25/8/12 27/8/12
f 26/8/12 27/8/12 28/8/12
f 28/8/12 27/8/12 29/8/12
f 28/8/12 29/8/12 30/8/12
f 24/8/14 31/9/13 23/8/13
f 31/9/13 24/8/14 32/9/14
f 27/8/15 34/9/16 33/9/15
f 34/9/16 27/8/15 25/8/16
f 23/8/13 34/9/16 25/8/16
f 34/9/16 23/8/13 31/9/13
f 35/9/1 31/9/1 32/9/1
f 31/9/1 35/9/1 34/9/1
f 34/9/1 35/9/1 36/9/1
f 34/9/1 36/9/1 33/9/1
f 33/9/1 36/9/1 37/9/1
f 33/9/1 37/9/1 38/9/1
f 26/8/17 32/9/14 24/8/14
f 32/9/14 26/8/17 35/9/17
f 36/9/19 30/8/18 37/9/18
f 30/8/18 36/9/19 28/8/19
f 37/9/18 29/8/20 38/9/20
f 29/8/20 37/9/18 30/8/18
f 38/9/20 27/8/15 33/9/15
f 27/8/15 38/9/20 29/8/20
f 26/8/17 36/9/19 35/9/17
f 36/9/19 26/8/17 28/8/19
f 41/10/21 40/8/21 39/10/21
f 40/8/21 41/10/21 42/8/21
f 44/10/6 41/10/6 43/9/6
f 41/10/6 44/10/6 42/8/6
f 44/10/22 46/9/22 45/10/22
f 46/9/22 44/10/22 43/9/22
f 40/8/23 44/10/23 45/10/23
f 44/10/23 40/8/23 42/8/23
f 39/10/9 45/10/9 46/9/9
f 45/10/9 39/10/9 40/8/9
f 41/10/24 46/9/24 43/9/24
f 46/9/24 41/10/24 39/10/24
f 49/10/21 48/8/21 47/10/21
f 48/8/21 49/10/21 50/8/21
f 52/10/6 49/10/6 51/9/6
f 49/10/6 52/10/6 50/8/6
f 52/10/22 54/9/22 53/10/22
f 54/9/22 52/10/22 51/9/22
f 48/8/23 52/10/23 53/10/23
f 52/10/23 48/8/23 50/8/23
f 47/10/9 53/10/9 54/9/9
f 53/10/9 47/10/9 48/8/9
f 49/10/24 54/9/24 51/9/24
f 54/9/24 49/10/24 47/10/24

