# Created by Kenney (www.kenney.nl)

mtllib gravestone-broken.mtl

g gravestone-broken

v 0.1447493 0.2993 0.075 1 1 1
v 0.175 0.2993 0.075 1 1 1
v 0.1158751 0.244601 0.075 1 1 1
v 0.175 0.1 0.075 1 1 1
v 0.04746327 0.209603 0.075 1 1 1
v 0.07554092 0.244601 0.075 1 1 1
v -0.175 0.1 0.075 1 1 1
v -0.01303802 0.209603 0.075 1 1 1
v -0.06608556 0.232601 0.075 1 1 1
v -0.03583489 0.232601 0.075 1 1 1
v -0.175 0.341081 0.075 1 1 1
v -0.127688 0.312673 0.075 1 1 1
v -0.1075209 0.312673 0.075 1 1 1
v -0.1456075 0.341081 0.075 1 1 1
v -0.1456075 0.341081 -0.075 1 1 1
v -0.175 0.341081 -0.075 1 1 1
v -0.127688 0.312673 -0.075 1 1 1
v -0.06608556 0.232601 -0.075 1 1 1
v -0.1075209 0.312673 -0.075 1 1 1
v -0.175 0.1 -0.075 1 1 1
v 0.175 0.1 -0.075 1 1 1
v -0.01303802 0.209603 -0.075 1 1 1
v -0.03583489 0.232601 -0.075 1 1 1
v 0.04746327 0.209603 -0.075 1 1 1
v 0.1158751 0.244601 -0.075 1 1 1
v 0.07554092 0.244601 -0.075 1 1 1
v 0.175 0.2993 -0.075 1 1 1
v 0.1447493 0.2993 -0.075 1 1 1
v 0.225 0.1 -0.075 1 1 1
v 0.225 0.1 0.075 1 1 1
v 0.175 0.1 -0.125 1 1 1
v 0.175 0.1 0.125 1 1 1
v -0.175 0.1 -0.125 1 1 1
v -0.175 0.1 0.125 1 1 1
v -0.225 0.1 -0.075 1 1 1
v -0.225 0.1 0.075 1 1 1
v 0.225 0 -0.075 1 1 1
v 0.225 0 0.075 1 1 1
v -0.175 0 -0.125 1 1 1
v 0.175 0 -0.125 1 1 1
v 0.175 0 0.125 1 1 1
v -0.175 0 0.125 1 1 1
v -0.225 0 0.075 1 1 1
v -0.225 0 -0.075 1 1 1
v 0.2729827 0 0.1910981 1 1 1
v 0.1837241 0 0.2361859 1 1 1
v 0.2729827 0.05 0.1910981 1 1 1
v 0.1837241 0.05 0.2361859 1 1 1
v 0.1275937 0 0.1805139 1 1 1
v 0.1275937 0.05 0.1805139 1 1 1
v 0.1501375 0 0.2251432 1 1 1
v 0.1501375 0.05 0.2251432 1 1 1
v 0.1386364 0 0.1469273 1 1 1
v 0.2278949 0 0.1018396 1 1 1
v 0.1386364 0.05 0.1469273 1 1 1
v 0.2278949 0.05 0.1018396 1 1 1
v 0.2614815 0.05 0.1128823 1 1 1
v 0.2614815 0 0.1128823 1 1 1
v 0.2840254 0.05 0.1575116 1 1 1
v 0.2840254 0 0.1575116 1 1 1
v 0.05315189 0 0.2665452 1 1 1
v 0.004855603 0 0.2536042 1 1 1
v 0.05315189 0.05 0.2665452 1 1 1
v 0.004855603 0.05 0.2536042 1 1 1
v 0.0001188852 0 0.1746893 1 1 1
v 0.0001188852 0.05 0.1746893 1 1 1
v -0.01282207 0 0.2229856 1 1 1
v -0.01282207 0.05 0.2229856 1 1 1
v 0.03073751 0 0.1570117 1 1 1
v 0.07903379 0 0.1699526 1 1 1
v 0.03073751 0.05 0.1570117 1 1 1
v 0.07903379 0.05 0.1699526 1 1 1
v 0.09671146 0.05 0.2005712 1 1 1
v 0.09671146 0 0.2005712 1 1 1
v 0.08377051 0.05 0.2488675 1 1 1
v 0.08377051 0 0.2488675 1 1 1

vn 0 0 1
vn 0 0 -1
vn 1 0 0
vn 0 1 0
vn -0.5146368 0.8574083 0
vn -0.8843492 0.466826 0
vn -0.4314684 0.902128 0
vn -0.7800065 0.6257714 0
vn 0.3839004 0.9233745 0
vn 0.7102053 0.7039947 0
vn 0.5181041 0.8553175 0
vn 0.8881327 0.4595871 0
vn 0.4815102 0.8764405 0
vn 0.8457901 0.5335158 0
vn -1 0 0
vn 0.9238795 0 -0.3826834
vn 0.9238795 0 0.3826834
vn -0.3826834 0 -0.9238795
vn 0.3826834 0 -0.9238795
vn 0 -1 0
vn 0.3826834 0 0.9238795
vn -0.9238795 0 0.3826834
vn -0.3826834 0 0.9238795
vn -0.9238795 0 -0.3826834
vn 0.7581344 0 0.6520984
vn 0.07497874 0 0.9971851
vn -0.9971851 0 0.07497874
vn -0.6520984 0 0.7581344
vn -0.7581344 0 -0.6520984
vn -0.07497874 0 -0.9971851
vn 0.6520984 0 -0.7581344
vn 0.9971851 0 -0.07497874
vn 0.1305262 0 0.9914448
vn -0.6087614 0 0.7933533
vn -0.7933533 0 -0.6087614
vn -0.9914448 0 0.1305262
vn -0.1305262 0 -0.9914448
vn 0.6087614 0 -0.7933533
vn 0.9914448 0 -0.1305262
vn 0.7933533 0 0.6087614

vt 0.96875 0.1903386
vt 0.96875 0.1449605
vt 0.96875 0.025
vt 0.96875 0.1159263
vt 0.96875 0.1350054
vt 0.96875 0.225
vt 0.96875 0.2014328
vt 0.96875 0.175
vt 0.96875 0.075

usemtl colormap

f 3/2/1 2/1/1 1/1/1
f 3/2/1 4/3/1 2/1/1
f 5/4/1 4/3/1 3/2/1
f 6/2/1 5/4/1 3/2/1
f 4/3/1 5/4/1 7/3/1
f 8/4/1 7/3/1 5/4/1
f 9/5/1 7/3/1 8/4/1
f 9/5/1 8/4/1 10/5/1
f 7/3/1 9/5/1 11/6/1
f 11/6/1 9/5/1 12/7/1
f 12/7/1 9/5/1 13/7/1
f 11/6/1 12/7/1 14/6/1
f 17/7/2 16/6/2 15/6/2
f 18/5/2 16/6/2 17/7/2
f 19/7/2 18/5/2 17/7/2
f 18/5/2 20/3/2 16/6/2
f 20/3/2 18/5/2 21/3/2
f 21/3/2 18/5/2 22/4/2
f 23/5/2 22/4/2 18/5/2
f 24/4/2 21/3/2 22/4/2
f 25/2/2 21/3/2 24/4/2
f 25/2/2 24/4/2 26/2/2
f 21/3/2 25/2/2 27/1/2
f 27/1/2 25/2/2 28/1/2
f 2/1/3 21/3/3 27/1/3
f 21/3/3 2/1/3 4/3/3
f 28/1/5 2/1/4 27/1/4
f 2/1/4 28/1/5 1/1/5
f 3/2/6 28/1/5 25/2/6
f 28/1/5 3/2/6 1/1/5
f 26/2/7 3/2/4 25/2/4
f 3/2/4 26/2/7 6/2/7
f 5/4/8 26/2/7 24/4/8
f 26/2/7 5/4/8 6/2/7
f 22/4/4 5/4/4 24/4/4
f 5/4/4 22/4/4 8/4/4
f 10/5/9 22/4/10 23/5/9
f 22/4/10 10/5/9 8/4/10
f 18/5/4 10/5/9 23/5/9
f 10/5/9 18/5/4 9/5/4
f 13/7/11 18/5/12 19/7/11
f 18/5/12 13/7/11 9/5/12
f 17/7/4 13/7/11 19/7/11
f 13/7/11 17/7/4 12/7/4
f 14/6/13 17/7/14 15/6/13
f 17/7/14 14/6/13 12/7/14
f 16/6/4 14/6/13 15/6/13
f 14/6/13 16/6/4 11/6/4
f 7/3/15 16/6/15 20/3/15
f 16/6/15 7/3/15 11/6/15
f 31/8/4 30/8/4 29/8/4
f 30/8/4 31/8/4 32/8/4
f 32/8/4 31/8/4 33/8/4
f 32/8/4 33/8/4 34/8/4
f 34/8/4 33/8/4 35/8/4
f 34/8/4 35/8/4 36/8/4
f 30/8/17 37/9/16 29/8/16
f 37/9/16 30/8/17 38/9/17
f 33/8/18 40/9/19 39/9/18
f 40/9/19 33/8/18 31/8/19
f 29/8/16 40/9/19 31/8/19
f 40/9/19 29/8/16 37/9/16
f 41/9/20 37/9/20 38/9/20
f 37/9/20 41/9/20 40/9/20
f 40/9/20 41/9/20 42/9/20
f 40/9/20 42/9/20 39/9/20
f 39/9/20 42/9/20 43/9/20
f 39/9/20 43/9/20 44/9/20
f 32/8/21 38/9/17 30/8/17
f 38/9/17 32/8/21 41/9/21
f 42/9/23 36/8/22 43/9/22
f 36/8/22 42/9/23 34/8/23
f 43/9/22 35/8/24 44/9/24
f 35/8/24 43/9/22 36/8/22
f 44/9/24 33/8/18 39/9/18
f 33/8/18 44/9/24 35/8/24
f 32/8/21 42/9/23 41/9/21
f 42/9/23 32/8/21 34/8/23
f 47/8/25 46/9/26 45/9/25
f 46/9/26 47/8/25 48/8/26
f 51/9/28 50/8/27 49/9/27
f 50/8/27 51/9/28 52/8/28
f 55/8/29 54/9/30 53/9/29
f 54/9/30 55/8/29 56/8/30
f 59/8/32 58/9/31 57/8/31
f 58/9/31 59/8/32 60/9/32
f 46/9/26 52/8/28 51/9/28
f 52/8/28 46/9/26 48/8/26
f 49/9/27 55/8/29 53/9/29
f 55/8/29 49/9/27 50/8/27
f 47/8/25 60/9/32 59/8/32
f 60/9/32 47/8/25 45/9/25
f 57/8/31 54/9/30 56/8/30
f 54/9/30 57/8/31 58/9/31
f 56/8/4 59/8/4 57/8/4
f 59/8/4 56/8/4 47/8/4
f 47/8/4 56/8/4 55/8/4
f 47/8/4 55/8/4 48/8/4
f 48/8/4 55/8/4 50/8/4
f 48/8/4 50/8/4 52/8/4
f 45/9/20 58/9/20 60/9/20
f 58/9/20 45/9/20 54/9/20
f 54/9/20 45/9/20 46/9/20
f 54/9/20 46/9/20 53/9/20
f 53/9/20 46/9/20 51/9/20
f 53/9/20 51/9/20 49/9/20
f 63/8/33 62/9/34 61/9/33
f 62/9/34 63/8/33 64/8/34
f 67/9/36 66/8/35 65/9/35
f 66/8/35 67/9/36 68/8/36
f 71/8/37 70/9/38 69/9/37
f 70/9/38 71/8/37 72/8/38
f 75/8/40 74/9/39 73/8/39
f 74/9/39 75/8/40 76/9/40
f 62/9/34 68/8/36 67/9/36
f 68/8/36 62/9/34 64/8/34
f 65/9/35 71/8/37 69/9/37
f 71/8/37 65/9/35 66/8/35
f 75/8/40 61/9/33 76/9/40
f 61/9/33 75/8/40 63/8/33
f 73/8/39 70/9/38 72/8/38
f 70/9/38 73/8/39 74/9/39
f 73/8/4 63/8/4 75/8/4
f 63/8/4 73/8/4 72/8/4
f 63/8/4 72/8/4 71/8/4
f 63/8/4 71/8/4 64/8/4
f 64/8/4 71/8/4 68/8/4
f 68/8/4 71/8/4 66/8/4
f 61/9/20 74/9/20 76/9/20
f 74/9/20 61/9/20 70/9/20
f 70/9/20 61/9/20 69/9/20
f 69/9/20 61/9/20 62/9/20
f 69/9/20 62/9/20 67/9/20
f 69/9/20 67/9/20 65/9/20

g gravestone-broken




usemtl colormap

f 3/2/1 2/1/1 1/1/1
f 3/2/1 4/3/1 2/1/1
f 5/4/1 4/3/1 3/2/1
f 6/2/1 5/4/1 3/2/1
f 4/3/1 5/4/1 7/3/1
f 8/4/1 7/3/1 5/4/1
f 9/5/1 7/3/1 8/4/1
f 9/5/1 8/4/1 10/5/1
f 7/3/1 9/5/1 11/6/1
f 11/6/1 9/5/1 12/7/1
f 12/7/1 9/5/1 13/7/1
f 11/6/1 12/7/1 14/6/1
f 17/7/2 16/6/2 15/6/2
f 18/5/2 16/6/2 17/7/2
f 19/7/2 18/5/2 17/7/2
f 18/5/2 20/3/2 16/6/2
f 20/3/2 18/5/2 21/3/2
f 21/3/2 18/5/2 22/4/2
f 23/5/2 22/4/2 18/5/2
f 24/4/2 21/3/2 22/4/2
f 25/2/2 21/3/2 24/4/2
f 25/2/2 24/4/2 26/2/2
f 21/3/2 25/2/2 27/1/2
f 27/1/2 25/2/2 28/1/2
f 2/1/3 21/3/3 27/1/3
f 21/3/3 2/1/3 4/3/3
f 28/1/5 2/1/4 27/1/4
f 2/1/4 28/1/5 1/1/5
f 3/2/6 28/1/5 25/2/6
f 28/1/5 3/2/6 1/1/5
f 26/2/7 3/2/4 25/2/4
f 3/2/4 26/2/7 6/2/7
f 5/4/8 26/2/7 24/4/8
f 26/2/7 5/4/8 6/2/7
f 22/4/4 5/4/4 24/4/4
f 5/4/4 22/4/4 8/4/4
f 10/5/9 22/4/10 23/5/9
f 22/4/10 10/5/9 8/4/10
f 18/5/4 10/5/9 23/5/9
f 10/5/9 18/5/4 9/5/4
f 13/7/11 18/5/12 19/7/11
f 18/5/12 13/7/11 9/5/12
f 17/7/4 13/7/11 19/7/11
f 13/7/11 17/7/4 12/7/4
f 14/6/13 17/7/14 15/6/13
f 17/7/14 14/6/13 12/7/14
f 16/6/4 14/6/13 15/6/13
f 14/6/13 16/6/4 11/6/4
f 7/3/15 16/6/15 20/3/15
f 16/6/15 7/3/15 11/6/15
f 31/8/4 30/8/4 29/8/4
f 30/8/4 31/8/4 32/8/4
f 32/8/4 31/8/4 33/8/4
f 32/8/4 33/8/4 34/8/4
f 34/8/4 33/8/4 35/8/4
f 34/8/4 35/8/4 36/8/4
f 30/8/17 37/9/16 29/8/16
f 37/9/16 30/8/17 38/9/17
f 33/8/18 40/9/19 39/9/18
f 40/9/19 33/8/18 31/8/19
f 29/8/16 40/9/19 31/8/19
f 40/9/19 29/8/16 37/9/16
f 41/9/20 37/9/20 38/9/20
f 37/9/20 41/9/20 40/9/20
f 40/9/20 41/9/20 42/9/20
f 40/9/20 42/9/20 39/9/20
f 39/9/20 42/9/20 43/9/20
f 39/9/20 43/9/20 44/9/20
f 32/8/21 38/9/17 30/8/17
f 38/9/17 32/8/21 41/9/21
f 42/9/23 36/8/22 43/9/22
f 36/8/22 42/9/23 34/8/23
f 43/9/22 35/8/24 44/9/24
f 35/8/24 43/9/22 36/8/22
f 44/9/24 33/8/18 39/9/18
f 33/8/18 44/9/24 35/8/24
f 32/8/21 42/9/23 41/9/21
f 42/9/23 32/8/21 34/8/23
f 47/8/25 46/9/26 45/9/25
f 46/9/26 47/8/25 48/8/26
f 51/9/28 50/8/27 49/9/27
f 50/8/27 51/9/28 52/8/28
f 55/8/29 54/9/30 53/9/29
f 54/9/30 55/8/29 56/8/30
f 59/8/32 58/9/31 57/8/31
f 58/9/31 59/8/32 60/9/32
f 46/9/26 52/8/28 51/9/28
f 52/8/28 46/9/26 48/8/26
f 49/9/27 55/8/29 53/9/29
f 55/8/29 49/9/27 50/8/27
f 47/8/25 60/9/32 59/8/32
f 60/9/32 47/8/25 45/9/25
f 57/8/31 54/9/30 56/8/30
f 54/9/30 57/8/31 58/9/31
f 56/8/4 59/8/4 57/8/4
f 59/8/4 56/8/4 47/8/4
f 47/8/4 56/8/4 55/8/4
f 47/8/4 55/8/4 48/8/4
f 48/8/4 55/8/4 50/8/4
f 48/8/4 50/8/4 52/8/4
f 45/9/20 58/9/20 60/9/20
f 58/9/20 45/9/20 54/9/20
f 54/9/20 45/9/20 46/9/20
f 54/9/20 46/9/20 53/9/20
f 53/9/20 46/9/20 51/9/20
f 53/9/20 51/9/20 49/9/20
f 63/8/33 62/9/34 61/9/33
f 62/9/34 63/8/33 64/8/34
f 67/9/36 66/8/35 65/9/35
f 66/8/35 67/9/36 68/8/36
f 71/8/37 70/9/38 69/9/37
f 70/9/38 71/8/37 72/8/38
f 75/8/40 74/9/39 73/8/39
f 74/9/39 75/8/40 76/9/40
f 62/9/34 68/8/36 67/9/36
f 68/8/36 62/9/34 64/8/34
f 65/9/35 71/8/37 69/9/37
f 71/8/37 65/9/35 66/8/35
f 75/8/40 61/9/33 76/9/40
f 61/9/33 75/8/40 63/8/33
f 73/8/39 70/9/38 72/8/38
f 70/9/38 73/8/39 74/9/39
f 73/8/4 63/8/4 75/8/4
f 63/8/4 73/8/4 72/8/4
f 63/8/4 72/8/4 71/8/4
f 63/8/4 71/8/4 64/8/4
f 64/8/4 71/8/4 68/8/4
f 68/8/4 71/8/4 66/8/4
f 61/9/20 74/9/20 76/9/20
f 74/9/20 61/9/20 70/9/20
f 70/9/20 61/9/20 69/9/20
f 69/9/20 61/9/20 62/9/20
f 69/9/20 62/9/20 67/9/20
f 69/9/20 67/9/20 65/9/20

