# Created by Kenney (www.kenney.nl)

mtllib pillar-square.mtl

g pillar-square

v 0.125 0 0.175 1 1 1
v -0.125 0 0.175 1 1 1
v 0.125 0.1 0.175 1 1 1
v -0.125 0.1 0.175 1 1 1
v 0.175 0.1 -0.125 1 1 1
v 0.175 0 -0.125 1 1 1
v 0.175 0.1 0.125 1 1 1
v 0.175 0 0.125 1 1 1
v -0.125 0 -0.175 1 1 1
v 0.125 0 -0.175 1 1 1
v -0.125 0.1 -0.175 1 1 1
v 0.125 0.1 -0.175 1 1 1
v -0.175 0 -0.125 1 1 1
v -0.175 0.1 -0.125 1 1 1
v -0.175 0 0.125 1 1 1
v -0.175 0.1 0.125 1 1 1
v -0.125 0.1 -0.125 1 1 1
v -0.125 0.2 -0.125 1 1 1
v -0.125 0.1 0.125 1 1 1
v -0.125 0.2 0.125 1 1 1
v 0.125 0.1 -0.125 1 1 1
v 0.125 0.2 -0.125 1 1 1
v 0.125 0.2 0.125 1 1 1
v 0.125 0.1 0.125 1 1 1
v 0.125 0.2 0.175 1 1 1
v -0.125 0.2 0.175 1 1 1
v 0.125 0.3 0.175 1 1 1
v -0.125 0.3 0.175 1 1 1
v 0.175 0.3 -0.125 1 1 1
v 0.175 0.2 -0.125 1 1 1
v 0.175 0.3 0.125 1 1 1
v 0.175 0.2 0.125 1 1 1
v -0.125 0.2 -0.175 1 1 1
v 0.125 0.2 -0.175 1 1 1
v -0.125 0.3 -0.175 1 1 1
v 0.125 0.3 -0.175 1 1 1
v -0.175 0.2 -0.125 1 1 1
v -0.175 0.3 -0.125 1 1 1
v -0.175 0.2 0.125 1 1 1
v -0.175 0.3 0.125 1 1 1
v 0.125 0.9499999 0.175 1 1 1
v -0.125 0.9499999 0.175 1 1 1
v 0.125 1.05 0.175 1 1 1
v -0.125 1.05 0.175 1 1 1
v 0.175 1.05 -0.125 1 1 1
v 0.175 0.9499999 -0.125 1 1 1
v 0.175 1.05 0.125 1 1 1
v 0.175 0.9499999 0.125 1 1 1
v -0.125 0.9499999 -0.175 1 1 1
v 0.125 0.9499999 -0.175 1 1 1
v -0.125 1.05 -0.175 1 1 1
v 0.125 1.05 -0.175 1 1 1
v -0.175 0.9499999 -0.125 1 1 1
v -0.175 1.05 -0.125 1 1 1
v -0.175 0.9499999 0.125 1 1 1
v -0.175 1.05 0.125 1 1 1
v -0.125 0.85 -0.125 1 1 1
v -0.125 0.95 -0.125 1 1 1
v -0.125 0.85 0.125 1 1 1
v -0.125 0.95 0.125 1 1 1
v 0.125 0.85 -0.125 1 1 1
v 0.125 0.95 -0.125 1 1 1
v 0.125 0.95 0.125 1 1 1
v 0.125 0.85 0.125 1 1 1
v 0.125 0.75 0.175 1 1 1
v -0.125 0.75 0.175 1 1 1
v 0.125 0.85 0.175 1 1 1
v -0.125 0.85 0.175 1 1 1
v 0.175 0.85 -0.125 1 1 1
v 0.175 0.75 -0.125 1 1 1
v 0.175 0.85 0.125 1 1 1
v 0.175 0.75 0.125 1 1 1
v -0.125 0.75 -0.175 1 1 1
v 0.125 0.75 -0.175 1 1 1
v -0.125 0.85 -0.175 1 1 1
v 0.125 0.85 -0.175 1 1 1
v -0.175 0.75 -0.125 1 1 1
v -0.175 0.85 -0.125 1 1 1
v -0.175 0.75 0.125 1 1 1
v -0.175 0.85 0.125 1 1 1
v 0.125 1.05 0.125 1 1 1
v -0.125 1.05 0.125 1 1 1
v 0.109375 1.1 0.109375 1 1 1
v -0.109375 1.1 0.109375 1 1 1
v 0.125 1.05 -0.125 1 1 1
v 0.109375 1.1 -0.109375 1 1 1
v -0.125 1.05 -0.125 1 1 1
v -0.109375 1.1 -0.109375 1 1 1
v 0.04136545 1.15 -0.04136545 1 1 1
v 0.04136545 1.15 0.04136545 1 1 1
v -0.04136545 1.15 -0.04136545 1 1 1
v -0.04136545 1.15 0.04136545 1 1 1
v 0.1445527 0.75 -0.1196958 1 1 1
v 0.1445527 0.3 -0.1196958 1 1 1
v 0.125 0.75 -0.05859375 1 1 1
v 0.125 0.3 -0.05859375 1 1 1
v 0.1196958 0.3 0.1445527 1 1 1
v 0.05859375 0.3 0.125 1 1 1
v 0.1196958 0.75 0.1445527 1 1 1
v 0.05859375 0.75 0.125 1 1 1
v -0.1196958 0.3 -0.1445527 1 1 1
v -0.05859375 0.3 -0.125 1 1 1
v -0.1196958 0.75 -0.1445527 1 1 1
v -0.05859375 0.75 -0.125 1 1 1
v -0.125 0.3 0.05859375 1 1 1
v -0.125 0.75 0.05859375 1 1 1
v -0.1445527 0.3 0.1196958 1 1 1
v -0.1445527 0.75 0.1196958 1 1 1
v -0.05859375 0.3 0.125 1 1 1
v -0.1196958 0.3 0.1445527 1 1 1
v -0.05859375 0.75 0.125 1 1 1
v -0.1196958 0.75 0.1445527 1 1 1
v 0.05859375 0.3 -0.125 1 1 1
v 0.1196958 0.3 -0.1445527 1 1 1
v 0.05859375 0.75 -0.125 1 1 1
v 0.1196958 0.75 -0.1445527 1 1 1
v 0.125 0.75 0.05859375 1 1 1
v 0.125 0.3 0.05859375 1 1 1
v 0.1445527 0.75 0.1196958 1 1 1
v 0.1445527 0.3 0.1196958 1 1 1
v -0.1445527 0.3 -0.1196958 1 1 1
v -0.1445527 0.75 -0.1196958 1 1 1
v -0.125 0.3 -0.05859375 1 1 1
v -0.125 0.75 -0.05859375 1 1 1

vn 0.3826834 0 0.9238795
vn -0.3826834 0 0.9238795
vn 0.9238795 0 -0.3826834
vn 0.9238795 0 0.3826834
vn -0.3826834 0 -0.9238795
vn 0.3826834 0 -0.9238795
vn -0.9238795 0 -0.3826834
vn -0.9238795 0 0.3826834
vn 0 -1 0
vn 0 1 0
vn -1 0 0
vn 0 0 -1
vn 1 0 0
vn 0 0 1
vn 0 0.298275 0.95448
vn 0 0.4838324 0.8751606
vn 0.95448 0.298275 0
vn 0.8751606 0.4838324 0
vn 0 0.298275 -0.95448
vn 0 0.4838324 -0.8751606
vn -0.95448 0.298275 0
vn -0.8751606 0.4838324 0
vn 0.5923365 0.8056907 0
vn 0 0.8056907 0.5923365
vn -0.5923365 0.8056907 0
vn 0 0.8056907 -0.5923365
vn 0.9718473 0 -0.2356113
vn 0.9524242 0 0.3047757
vn 0.2356113 0 0.9718473
vn -0.3047757 0 0.9524242
vn -0.2356113 0 -0.9718473
vn 0.3047757 0 -0.9524242
vn -0.9524242 0 -0.3047757
vn -0.9718473 0 0.2356113
vn 0.3047757 0 0.9524242
vn -0.2356113 0 0.9718473
vn -0.3047757 0 -0.9524242
vn 0.2356113 0 -0.9718473
vn 0.9524242 0 -0.3047757
vn 0.9718473 0 0.2356113
vn -0.9718473 0 -0.2356113
vn -0.9524242 0 0.3047757

vt 0.96875 0.075
vt 0.96875 0.175
vt 0.96875 0.125
vt 0.09375 0.075
vt 0.09375 0.175

usemtl colormap

f 3/2/1 2/1/2 1/1/1
f 2/1/2 3/2/1 4/2/2
f 7/2/4 6/1/3 5/2/3
f 6/1/3 7/2/4 8/1/4
f 11/2/5 10/1/6 9/1/5
f 10/1/6 11/2/5 12/2/6
f 15/1/8 14/2/7 13/1/7
f 14/2/7 15/1/8 16/2/8
f 5/2/3 10/1/6 12/2/6
f 10/1/6 5/2/3 6/1/3
f 3/2/1 8/1/4 7/2/4
f 8/1/4 3/2/1 1/1/1
f 13/1/7 11/2/5 9/1/5
f 11/2/5 13/1/7 14/2/7
f 2/1/2 16/2/8 15/1/8
f 16/2/8 2/1/2 4/2/2
f 1/1/9 6/1/9 8/1/9
f 6/1/9 1/1/9 10/1/9
f 10/1/9 1/1/9 2/1/9
f 10/1/9 2/1/9 9/1/9
f 9/1/9 2/1/9 15/1/9
f 9/1/9 15/1/9 13/1/9
f 12/2/10 7/2/10 5/2/10
f 7/2/10 12/2/10 3/2/10
f 3/2/10 12/2/10 11/2/10
f 3/2/10 11/2/10 4/2/10
f 4/2/10 11/2/10 14/2/10
f 4/2/10 14/2/10 16/2/10
f 19/1/11 18/2/11 17/1/11
f 18/2/11 19/1/11 20/2/11
f 18/2/12 21/1/12 17/1/12
f 21/1/12 18/2/12 22/2/12
f 23/2/13 21/1/13 22/2/13
f 21/1/13 23/2/13 24/1/13
f 23/2/14 19/1/14 24/1/14
f 19/1/14 23/2/14 20/2/14
f 27/2/1 26/1/2 25/1/1
f 26/1/2 27/2/1 28/2/2
f 31/2/4 30/1/3 29/2/3
f 30/1/3 31/2/4 32/1/4
f 35/2/5 34/1/6 33/1/5
f 34/1/6 35/2/5 36/2/6
f 39/1/8 38/2/7 37/1/7
f 38/2/7 39/1/8 40/2/8
f 29/2/3 34/1/6 36/2/6
f 34/1/6 29/2/3 30/1/3
f 27/2/1 32/1/4 31/2/4
f 32/1/4 27/2/1 25/1/1
f 37/1/7 35/2/5 33/1/5
f 35/2/5 37/1/7 38/2/7
f 26/1/2 40/2/8 39/1/8
f 40/2/8 26/1/2 28/2/2
f 25/1/9 30/1/9 32/1/9
f 30/1/9 25/1/9 34/1/9
f 34/1/9 25/1/9 26/1/9
f 34/1/9 26/1/9 33/1/9
f 33/1/9 26/1/9 39/1/9
f 33/1/9 39/1/9 37/1/9
f 36/2/10 31/2/10 29/2/10
f 31/2/10 36/2/10 27/2/10
f 27/2/10 36/2/10 35/2/10
f 27/2/10 35/2/10 28/2/10
f 28/2/10 35/2/10 38/2/10
f 28/2/10 38/2/10 40/2/10
f 43/2/1 42/1/2 41/1/1
f 42/1/2 43/2/1 44/2/2
f 47/2/4 46/1/3 45/2/3
f 46/1/3 47/2/4 48/1/4
f 51/2/5 50/1/6 49/1/5
f 50/1/6 51/2/5 52/2/6
f 55/1/8 54/2/7 53/1/7
f 54/2/7 55/1/8 56/2/8
f 45/2/3 50/1/6 52/2/6
f 50/1/6 45/2/3 46/1/3
f 43/2/1 48/1/4 47/2/4
f 48/1/4 43/2/1 41/1/1
f 53/1/7 51/2/5 49/1/5
f 51/2/5 53/1/7 54/2/7
f 42/1/2 56/2/8 55/1/8
f 56/2/8 42/1/2 44/2/2
f 41/1/9 46/1/9 48/1/9
f 46/1/9 41/1/9 50/1/9
f 50/1/9 41/1/9 42/1/9
f 50/1/9 42/1/9 49/1/9
f 49/1/9 42/1/9 55/1/9
f 49/1/9 55/1/9 53/1/9
f 52/2/10 47/2/10 45/2/10
f 47/2/10 52/2/10 43/2/10
f 43/2/10 52/2/10 51/2/10
f 43/2/10 51/2/10 44/2/10
f 44/2/10 51/2/10 54/2/10
f 44/2/10 54/2/10 56/2/10
f 59/1/11 58/2/11 57/1/11
f 58/2/11 59/1/11 60/2/11
f 58/2/12 61/1/12 57/1/12
f 61/1/12 58/2/12 62/2/12
f 63/2/13 61/1/13 62/2/13
f 61/1/13 63/2/13 64/1/13
f 63/2/14 59/1/14 64/1/14
f 59/1/14 63/2/14 60/2/14
f 67/2/1 66/1/2 65/1/1
f 66/1/2 67/2/1 68/2/2
f 71/2/4 70/1/3 69/2/3
f 70/1/3 71/2/4 72/1/4
f 75/2/5 74/1/6 73/1/5
f 74/1/6 75/2/5 76/2/6
f 79/1/8 78/2/7 77/1/7
f 78/2/7 79/1/8 80/2/8
f 69/2/3 74/1/6 76/2/6
f 74/1/6 69/2/3 70/1/3
f 67/2/1 72/1/4 71/2/4
f 72/1/4 67/2/1 65/1/1
f 77/1/7 75/2/5 73/1/5
f 75/2/5 77/1/7 78/2/7
f 66/1/2 80/2/8 79/1/8
f 80/2/8 66/1/2 68/2/2
f 65/1/9 70/1/9 72/1/9
f 70/1/9 65/1/9 74/1/9
f 74/1/9 65/1/9 66/1/9
f 74/1/9 66/1/9 73/1/9
f 73/1/9 66/1/9 79/1/9
f 73/1/9 79/1/9 77/1/9
f 76/2/10 71/2/10 69/2/10
f 71/2/10 76/2/10 67/2/10
f 67/2/10 76/2/10 75/2/10
f 67/2/10 75/2/10 68/2/10
f 68/2/10 75/2/10 78/2/10
f 68/2/10 78/2/10 80/2/10
f 83/3/16 82/1/15 81/1/15
f 82/1/15 83/3/16 84/3/16
f 86/3/18 81/1/17 85/1/17
f 81/1/17 86/3/18 83/3/18
f 88/3/20 85/1/19 87/1/19
f 85/1/19 88/3/20 86/3/20
f 91/2/10 90/2/10 89/2/10
f 90/2/10 91/2/10 92/2/10
f 82/1/21 88/3/22 87/1/21
f 88/3/22 82/1/21 84/3/22
f 89/2/23 83/3/18 86/3/18
f 83/3/18 89/2/23 90/2/23
f 90/2/24 84/3/16 83/3/16
f 84/3/16 90/2/24 92/2/24
f 88/3/22 92/2/25 91/2/25
f 92/2/25 88/3/22 84/3/22
f 88/3/20 89/2/26 86/3/20
f 89/2/26 88/3/20 91/2/26
f 95/2/28 94/1/27 93/2/27
f 94/1/27 95/2/28 96/1/28
f 99/2/29 98/1/30 97/1/29
f 98/1/30 99/2/29 100/2/30
f 103/2/31 102/1/32 101/1/31
f 102/1/32 103/2/31 104/2/32
f 107/1/34 106/2/33 105/1/33
f 106/2/33 107/1/34 108/2/34
f 111/2/35 110/1/36 109/1/35
f 110/1/36 111/2/35 112/2/36
f 115/2/37 114/1/38 113/1/37
f 114/1/38 115/2/37 116/2/38
f 119/2/40 118/1/39 117/2/39
f 118/1/39 119/2/40 120/1/40
f 123/1/42 122/2/41 121/1/41
f 122/2/41 123/1/42 124/2/42
f 110/1/36 108/2/34 107/1/34
f 108/2/34 110/1/36 112/2/36
f 99/2/29 120/1/40 119/2/40
f 120/1/40 99/2/29 97/1/29
f 121/1/41 103/2/31 101/1/31
f 103/2/31 121/1/41 122/2/41
f 93/2/27 114/1/38 116/2/38
f 114/1/38 93/2/27 94/1/27
f 100/5/14 109/4/14 98/4/14
f 109/4/14 100/5/14 111/5/14
f 117/5/13 96/4/13 95/5/13
f 96/4/13 117/5/13 118/4/13
f 104/5/12 113/4/12 102/4/12
f 113/4/12 104/5/12 115/5/12
f 105/4/11 124/5/11 123/4/11
f 124/5/11 105/4/11 106/5/11

g pillar-square




usemtl colormap

f 3/2/1 2/1/2 1/1/1
f 2/1/2 3/2/1 4/2/2
f 7/2/4 6/1/3 5/2/3
f 6/1/3 7/2/4 8/1/4
f 11/2/5 10/1/6 9/1/5
f 10/1/6 11/2/5 12/2/6
f 15/1/8 14/2/7 13/1/7
f 14/2/7 15/1/8 16/2/8
f 5/2/3 10/1/6 12/2/6
f 10/1/6 5/2/3 6/1/3
f 3/2/1 8/1/4 7/2/4
f 8/1/4 3/2/1 1/1/1
f 13/1/7 11/2/5 9/1/5
f 11/2/5 13/1/7 14/2/7
f 2/1/2 16/2/8 15/1/8
f 16/2/8 2/1/2 4/2/2
f 1/1/9 6/1/9 8/1/9
f 6/1/9 1/1/9 10/1/9
f 10/1/9 1/1/9 2/1/9
f 10/1/9 2/1/9 9/1/9
f 9/1/9 2/1/9 15/1/9
f 9/1/9 15/1/9 13/1/9
f 12/2/10 7/2/10 5/2/10
f 7/2/10 12/2/10 3/2/10
f 3/2/10 12/2/10 11/2/10
f 3/2/10 11/2/10 4/2/10
f 4/2/10 11/2/10 14/2/10
f 4/2/10 14/2/10 16/2/10
f 19/1/11 18/2/11 17/1/11
f 18/2/11 19/1/11 20/2/11
f 18/2/12 21/1/12 17/1/12
f 21/1/12 18/2/12 22/2/12
f 23/2/13 21/1/13 22/2/13
f 21/1/13 23/2/13 24/1/13
f 23/2/14 19/1/14 24/1/14
f 19/1/14 23/2/14 20/2/14
f 27/2/1 26/1/2 25/1/1
f 26/1/2 27/2/1 28/2/2
f 31/2/4 30/1/3 29/2/3
f 30/1/3 31/2/4 32/1/4
f 35/2/5 34/1/6 33/1/5
f 34/1/6 35/2/5 36/2/6
f 39/1/8 38/2/7 37/1/7
f 38/2/7 39/1/8 40/2/8
f 29/2/3 34/1/6 36/2/6
f 34/1/6 29/2/3 30/1/3
f 27/2/1 32/1/4 31/2/4
f 32/1/4 27/2/1 25/1/1
f 37/1/7 35/2/5 33/1/5
f 35/2/5 37/1/7 38/2/7
f 26/1/2 40/2/8 39/1/8
f 40/2/8 26/1/2 28/2/2
f 25/1/9 30/1/9 32/1/9
f 30/1/9 25/1/9 34/1/9
f 34/1/9 25/1/9 26/1/9
f 34/1/9 26/1/9 33/1/9
f 33/1/9 26/1/9 39/1/9
f 33/1/9 39/1/9 37/1/9
f 36/2/10 31/2/10 29/2/10
f 31/2/10 36/2/10 27/2/10
f 27/2/10 36/2/10 35/2/10
f 27/2/10 35/2/10 28/2/10
f 28/2/10 35/2/10 38/2/10
f 28/2/10 38/2/10 40/2/10
f 43/2/1 42/1/2 41/1/1
f 42/1/2 43/2/1 44/2/2
f 47/2/4 46/1/3 45/2/3
f 46/1/3 47/2/4 48/1/4
f 51/2/5 50/1/6 49/1/5
f 50/1/6 51/2/5 52/2/6
f 55/1/8 54/2/7 53/1/7
f 54/2/7 55/1/8 56/2/8
f 45/2/3 50/1/6 52/2/6
f 50/1/6 45/2/3 46/1/3
f 43/2/1 48/1/4 47/2/4
f 48/1/4 43/2/1 41/1/1
f 53/1/7 51/2/5 49/1/5
f 51/2/5 53/1/7 54/2/7
f 42/1/2 56/2/8 55/1/8
f 56/2/8 42/1/2 44/2/2
f 41/1/9 46/1/9 48/1/9
f 46/1/9 41/1/9 50/1/9
f 50/1/9 41/1/9 42/1/9
f 50/1/9 42/1/9 49/1/9
f 49/1/9 42/1/9 55/1/9
f 49/1/9 55/1/9 53/1/9
f 52/2/10 47/2/10 45/2/10
f 47/2/10 52/2/10 43/2/10
f 43/2/10 52/2/10 51/2/10
f 43/2/10 51/2/10 44/2/10
f 44/2/10 51/2/10 54/2/10
f 44/2/10 54/2/10 56/2/10
f 59/1/11 58/2/11 57/1/11
f 58/2/11 59/1/11 60/2/11
f 58/2/12 61/1/12 57/1/12
f 61/1/12 58/2/12 62/2/12
f 63/2/13 61/1/13 62/2/13
f 61/1/13 63/2/13 64/1/13
f 63/2/14 59/1/14 64/1/14
f 59/1/14 63/2/14 60/2/14
f 67/2/1 66/1/2 65/1/1
f 66/1/2 67/2/1 68/2/2
f 71/2/4 70/1/3 69/2/3
f 70/1/3 71/2/4 72/1/4
f 75/2/5 74/1/6 73/1/5
f 74/1/6 75/2/5 76/2/6
f 79/1/8 78/2/7 77/1/7
f 78/2/7 79/1/8 80/2/8
f 69/2/3 74/1/6 76/2/6
f 74/1/6 69/2/3 70/1/3
f 67/2/1 72/1/4 71/2/4
f 72/1/4 67/2/1 65/1/1
f 77/1/7 75/2/5 73/1/5
f 75/2/5 77/1/7 78/2/7
f 66/1/2 80/2/8 79/1/8
f 80/2/8 66/1/2 68/2/2
f 65/1/9 70/1/9 72/1/9
f 70/1/9 65/1/9 74/1/9
f 74/1/9 65/1/9 66/1/9
f 74/1/9 66/1/9 73/1/9
f 73/1/9 66/1/9 79/1/9
f 73/1/9 79/1/9 77/1/9
f 76/2/10 71/2/10 69/2/10
f 71/2/10 76/2/10 67/2/10
f 67/2/10 76/2/10 75/2/10
f 67/2/10 75/2/10 68/2/10
f 68/2/10 75/2/10 78/2/10
f 68/2/10 78/2/10 80/2/10
f 83/3/16 82/1/15 81/1/15
f 82/1/15 83/3/16 84/3/16
f 86/3/18 81/1/17 85/1/17
f 81/1/17 86/3/18 83/3/18
f 88/3/20 85/1/19 87/1/19
f 85/1/19 88/3/20 86/3/20
f 91/2/10 90/2/10 89/2/10
f 90/2/10 91/2/10 92/2/10
f 82/1/21 88/3/22 87/1/21
f 88/3/22 82/1/21 84/3/22
f 89/2/23 83/3/18 86/3/18
f 83/3/18 89/2/23 90/2/23
f 90/2/24 84/3/16 83/3/16
f 84/3/16 90/2/24 92/2/24
f 88/3/22 92/2/25 91/2/25
f 92/2/25 88/3/22 84/3/22
f 88/3/20 89/2/26 86/3/20
f 89/2/26 88/3/20 91/2/26
f 95/2/28 94/1/27 93/2/27
f 94/1/27 95/2/28 96/1/28
f 99/2/29 98/1/30 97/1/29
f 98/1/30 99/2/29 100/2/30
f 103/2/31 102/1/32 101/1/31
f 102/1/32 103/2/31 104/2/32
f 107/1/34 106/2/33 105/1/33
f 106/2/33 107/1/34 108/2/34
f 111/2/35 110/1/36 109/1/35
f 110/1/36 111/2/35 112/2/36
f 115/2/37 114/1/38 113/1/37
f 114/1/38 115/2/37 116/2/38
f 119/2/40 118/1/39 117/2/39
f 118/1/39 119/2/40 120/1/40
f 123/1/42 122/2/41 121/1/41
f 122/2/41 123/1/42 124/2/42
f 110/1/36 108/2/34 107/1/34
f 108/2/34 110/1/36 112/2/36
f 99/2/29 120/1/40 119/2/40
f 120/1/40 99/2/29 97/1/29
f 121/1/41 103/2/31 101/1/31
f 103/2/31 121/1/41 122/2/41
f 93/2/27 114/1/38 116/2/38
f 114/1/38 93/2/27 94/1/27
f 100/5/14 109/4/14 98/4/14
f 109/4/14 100/5/14 111/5/14
f 117/5/13 96/4/13 95/5/13
f 96/4/13 117/5/13 118/4/13
f 104/5/12 113/4/12 102/4/12
f 113/4/12 104/5/12 115/5/12
f 105/4/11 124/5/11 123/4/11
f 124/5/11 105/4/11 106/5/11

