# Created by Kenney (www.kenney.nl)

mtllib pillar-small.mtl

g pillar-small

v 0.0605 0.1815 0.0605 1 1 1
v 0.0605 0.1815 -0.0605 1 1 1
v -0.0605 0.1815 0.0605 1 1 1
v -0.0605 0.1815 -0.0605 1 1 1
v 0.0462099 0.455 -0.0462099 1 1 1
v 0.0462099 0.455 0.0462099 1 1 1
v -0.0462099 0.455 -0.0462099 1 1 1
v -0.0462099 0.455 0.0462099 1 1 1
v -0.0605 0 -0.09075001 1 1 1
v 0.0605 0 -0.09075001 1 1 1
v -0.0605 0.1815 -0.09075001 1 1 1
v 0.0605 0.1815 -0.09075001 1 1 1
v 0.0605 0 0.09075001 1 1 1
v -0.0605 0 0.09075001 1 1 1
v 0.0605 0.1815 0.09075001 1 1 1
v -0.0605 0.1815 0.09075001 1 1 1
v -0.09075001 0 -0.0605 1 1 1
v -0.09075001 0.1815 -0.0605 1 1 1
v -0.09075001 0 0.0605 1 1 1
v -0.09075001 0.1815 0.0605 1 1 1
v 0.09075001 0.1815 -0.0605 1 1 1
v 0.09075001 0 -0.0605 1 1 1
v 0.09075001 0.1815 0.0605 1 1 1
v 0.09075001 0 0.0605 1 1 1
v -0.0605 0.48525 -0.09075001 1 1 1
v 0.0605 0.48525 -0.09075001 1 1 1
v -0.0605 0.576 -0.09075001 1 1 1
v 0.0605 0.576 -0.09075001 1 1 1
v 0.0605 0.48525 0.09075001 1 1 1
v -0.0605 0.48525 0.09075001 1 1 1
v 0.0605 0.576 0.09075001 1 1 1
v -0.0605 0.576 0.09075001 1 1 1
v -0.09075001 0.48525 -0.0605 1 1 1
v -0.09075001 0.576 -0.0605 1 1 1
v -0.09075001 0.48525 0.0605 1 1 1
v -0.09075001 0.576 0.0605 1 1 1
v 0.09075001 0.576 -0.0605 1 1 1
v 0.09075001 0.48525 -0.0605 1 1 1
v 0.09075001 0.576 0.0605 1 1 1
v 0.09075001 0.48525 0.0605 1 1 1
v 0.0605 0.455 0.04797004 1 1 1
v 0.0605 0.455 -0.04797004 1 1 1
v 0.04797004 0.455 0.0605 1 1 1
v 0.04797004 0.455 -0.0605 1 1 1
v -0.04797004 0.455 0.0605 1 1 1
v -0.04797004 0.455 -0.0605 1 1 1
v -0.0605 0.455 0.04797004 1 1 1
v -0.0605 0.455 -0.04797004 1 1 1
v 0.05963258 0.627546 0.05963258 1 1 1
v -0.05963258 0.627546 0.05963258 1 1 1
v -6.278374E-16 0.7564111 1.70608E-15 1 1 1
v -0.05963258 0.627546 -0.05963258 1 1 1
v 0.05963258 0.627546 -0.05963258 1 1 1
v 0.03975505 0.576 0.03975505 1 1 1
v -0.03975505 0.576 0.03975505 1 1 1
v 0.03975505 0.576 -0.03975505 1 1 1
v -0.03975505 0.576 -0.03975505 1 1 1

vn 0 -1 0
vn 0 1 0
vn 0 0.05217782 -0.9986377
vn 0.9986377 0.05217782 0
vn -0.9986377 0.05217782 0
vn 0 0.05217782 0.9986377
vn -0.3826834 0 -0.9238795
vn 0.3826834 0 -0.9238795
vn 0.3826834 0 0.9238795
vn -0.3826834 0 0.9238795
vn -0.9238795 0 -0.3826834
vn -0.9238795 0 0.3826834
vn 0.9238795 0 -0.3826834
vn 0.9238795 0 0.3826834
vn -0.3556998 -0.3688517 -0.8587352
vn 0.3556998 -0.3688517 -0.8587352
vn 0.3556998 -0.3688517 0.8587352
vn -0.3556998 -0.3688517 0.8587352
vn -0.8587352 -0.3688517 -0.3556998
vn -0.8587352 -0.3688517 0.3556998
vn 0.8587352 -0.3688517 -0.3556998
vn 0.8587352 -0.3688517 0.3556998
vn 0.4043856 -0.8991193 0.167502
vn 0.4043856 -0.8991193 -0.167502
vn 0.167502 -0.8991193 0.4043856
vn 0.167502 -0.8991193 -0.4043856
vn -0.167502 -0.8991193 0.4043856
vn -0.167502 -0.8991193 -0.4043856
vn -0.4043856 -0.8991193 0.167502
vn -0.4043856 -0.8991193 -0.167502
vn 0 0.02805483 0.9996064
vn 0 0.4199661 0.9075397
vn 0 0.02805483 -0.9996064
vn 0 0.4199661 -0.9075397
vn -0.9996064 0.02805483 0
vn -0.9075397 0.4199661 0
vn 0.9075397 0.4199661 0
vn 0.9996064 0.02805483 0
vn 0 -0.3598011 0.933029
vn 0.933029 -0.3598011 0
vn -0.933029 -0.3598011 0
vn 0 -0.3598011 -0.933029

vt 0.96875 0.075
vt 0.96875 0.175
vt 0.96875 0.1
vt 0.96875 0.1035714

usemtl colormap

f 3/1/1 2/1/1 1/1/1
f 2/1/1 3/1/1 4/1/1
f 7/2/2 6/2/2 5/2/2
f 6/2/2 7/2/2 8/2/2
f 7/2/3 2/1/3 4/1/3
f 2/1/3 7/2/3 5/2/3
f 5/2/4 1/1/4 2/1/4
f 1/1/4 5/2/4 6/2/4
f 3/1/5 7/2/5 4/1/5
f 7/2/5 3/1/5 8/2/5
f 6/2/6 3/1/6 1/1/6
f 3/1/6 6/2/6 8/2/6
f 11/2/7 10/1/8 9/1/7
f 10/1/8 11/2/7 12/2/8
f 15/2/9 14/1/10 13/1/9
f 14/1/10 15/2/9 16/2/10
f 19/1/12 18/2/11 17/1/11
f 18/2/11 19/1/12 20/2/12
f 23/2/14 22/1/13 21/2/13
f 22/1/13 23/2/14 24/1/14
f 16/2/10 19/1/12 14/1/10
f 19/1/12 16/2/10 20/2/12
f 23/2/14 13/1/9 24/1/14
f 13/1/9 23/2/14 15/2/9
f 12/2/8 22/1/13 10/1/8
f 22/1/13 12/2/8 21/2/13
f 18/2/11 9/1/7 17/1/11
f 9/1/7 18/2/11 11/2/7
f 13/1/1 22/1/1 24/1/1
f 22/1/1 13/1/1 10/1/1
f 10/1/1 13/1/1 14/1/1
f 10/1/1 14/1/1 9/1/1
f 9/1/1 14/1/1 19/1/1
f 9/1/1 19/1/1 17/1/1
f 12/2/2 23/2/2 21/2/2
f 23/2/2 12/2/2 15/2/2
f 15/2/2 12/2/2 11/2/2
f 15/2/2 11/2/2 16/2/2
f 16/2/2 11/2/2 18/2/2
f 16/2/2 18/2/2 20/2/2
f 27/2/7 26/3/16 25/3/15
f 26/3/16 27/2/7 28/2/8
f 31/2/9 30/3/18 29/3/17
f 30/3/18 31/2/9 32/2/10
f 35/3/20 34/2/11 33/3/19
f 34/2/11 35/3/20 36/2/12
f 39/2/14 38/3/21 37/2/13
f 38/3/21 39/2/14 40/3/22
f 32/2/10 35/3/20 30/3/18
f 35/3/20 32/2/10 36/2/12
f 39/2/14 29/3/17 40/3/22
f 29/3/17 39/2/14 31/2/9
f 34/2/11 25/3/15 33/3/19
f 25/3/15 34/2/11 27/2/7
f 28/2/2 39/2/2 37/2/2
f 39/2/2 28/2/2 31/2/2
f 31/2/2 28/2/2 27/2/2
f 31/2/2 27/2/2 32/2/2
f 32/2/2 27/2/2 34/2/2
f 32/2/2 34/2/2 36/2/2
f 28/2/8 38/3/21 26/3/16
f 38/3/21 28/2/8 37/2/13
f 43/1/25 42/1/24 41/1/23
f 42/1/24 43/1/25 44/1/26
f 44/1/26 43/1/25 45/1/27
f 44/1/26 45/1/27 46/1/28
f 46/1/28 45/1/27 47/1/29
f 46/1/28 47/1/29 48/1/30
f 41/1/23 38/3/21 40/3/22
f 38/3/21 41/1/23 42/1/24
f 48/1/30 25/3/15 46/1/28
f 25/3/15 48/1/30 33/3/19
f 29/3/17 41/1/23 40/3/22
f 41/1/23 29/3/17 43/1/25
f 25/3/15 44/1/26 46/1/28
f 44/1/26 25/3/15 26/3/16
f 30/3/18 47/1/29 45/1/27
f 47/1/29 30/3/18 35/3/20
f 42/1/24 26/3/16 38/3/21
f 26/3/16 42/1/24 44/1/26
f 29/3/17 45/1/27 43/1/25
f 45/1/27 29/3/17 30/3/18
f 35/3/20 48/1/30 47/1/29
f 48/1/30 35/3/20 33/3/19
f 51/2/32 50/4/31 49/4/31
f 51/2/34 53/4/33 52/4/33
f 50/4/35 51/2/36 52/4/35
f 49/4/38 53/4/38 51/2/37
f 49/4/31 55/1/39 54/1/39
f 55/1/39 49/4/31 50/4/31
f 49/4/38 56/1/40 53/4/38
f 56/1/40 49/4/38 54/1/40
f 57/1/41 50/4/35 52/4/35
f 50/4/35 57/1/41 55/1/41
f 52/4/33 56/1/42 57/1/42
f 56/1/42 52/4/33 53/4/33

g pillar-small




usemtl colormap

f 3/1/1 2/1/1 1/1/1
f 2/1/1 3/1/1 4/1/1
f 7/2/2 6/2/2 5/2/2
f 6/2/2 7/2/2 8/2/2
f 7/2/3 2/1/3 4/1/3
f 2/1/3 7/2/3 5/2/3
f 5/2/4 1/1/4 2/1/4
f 1/1/4 5/2/4 6/2/4
f 3/1/5 7/2/5 4/1/5
f 7/2/5 3/1/5 8/2/5
f 6/2/6 3/1/6 1/1/6
f 3/1/6 6/2/6 8/2/6
f 11/2/7 10/1/8 9/1/7
f 10/1/8 11/2/7 12/2/8
f 15/2/9 14/1/10 13/1/9
f 14/1/10 15/2/9 16/2/10
f 19/1/12 18/2/11 17/1/11
f 18/2/11 19/1/12 20/2/12
f 23/2/14 22/1/13 21/2/13
f 22/1/13 23/2/14 24/1/14
f 16/2/10 19/1/12 14/1/10
f 19/1/12 16/2/10 20/2/12
f 23/2/14 13/1/9 24/1/14
f 13/1/9 23/2/14 15/2/9
f 12/2/8 22/1/13 10/1/8
f 22/1/13 12/2/8 21/2/13
f 18/2/11 9/1/7 17/1/11
f 9/1/7 18/2/11 11/2/7
f 13/1/1 22/1/1 24/1/1
f 22/1/1 13/1/1 10/1/1
f 10/1/1 13/1/1 14/1/1
f 10/1/1 14/1/1 9/1/1
f 9/1/1 14/1/1 19/1/1
f 9/1/1 19/1/1 17/1/1
f 12/2/2 23/2/2 21/2/2
f 23/2/2 12/2/2 15/2/2
f 15/2/2 12/2/2 11/2/2
f 15/2/2 11/2/2 16/2/2
f 16/2/2 11/2/2 18/2/2
f 16/2/2 18/2/2 20/2/2
f 27/2/7 26/3/16 25/3/15
f 26/3/16 27/2/7 28/2/8
f 31/2/9 30/3/18 29/3/17
f 30/3/18 31/2/9 32/2/10
f 35/3/20 34/2/11 33/3/19
f 34/2/11 35/3/20 36/2/12
f 39/2/14 38/3/21 37/2/13
f 38/3/21 39/2/14 40/3/22
f 32/2/10 35/3/20 30/3/18
f 35/3/20 32/2/10 36/2/12
f 39/2/14 29/3/17 40/3/22
f 29/3/17 39/2/14 31/2/9
f 34/2/11 25/3/15 33/3/19
f 25/3/15 34/2/11 27/2/7
f 28/2/2 39/2/2 37/2/2
f 39/2/2 28/2/2 31/2/2
f 31/2/2 28/2/2 27/2/2
f 31/2/2 27/2/2 32/2/2
f 32/2/2 27/2/2 34/2/2
f 32/2/2 34/2/2 36/2/2
f 28/2/8 38/3/21 26/3/16
f 38/3/21 28/2/8 37/2/13
f 43/1/25 42/1/24 41/1/23
f 42/1/24 43/1/25 44/1/26
f 44/1/26 43/1/25 45/1/27
f 44/1/26 45/1/27 46/1/28
f 46/1/28 45/1/27 47/1/29
f 46/1/28 47/1/29 48/1/30
f 41/1/23 38/3/21 40/3/22
f 38/3/21 41/1/23 42/1/24
f 48/1/30 25/3/15 46/1/28
f 25/3/15 48/1/30 33/3/19
f 29/3/17 41/1/23 40/3/22
f 41/1/23 29/3/17 43/1/25
f 25/3/15 44/1/26 46/1/28
f 44/1/26 25/3/15 26/3/16
f 30/3/18 47/1/29 45/1/27
f 47/1/29 30/3/18 35/3/20
f 42/1/24 26/3/16 38/3/21
f 26/3/16 42/1/24 44/1/26
f 29/3/17 45/1/27 43/1/25
f 45/1/27 29/3/17 30/3/18
f 35/3/20 48/1/30 47/1/29
f 48/1/30 35/3/20 33/3/19
f 51/2/32 50/4/31 49/4/31
f 51/2/34 53/4/33 52/4/33
f 50/4/35 51/2/36 52/4/35
f 49/4/38 53/4/38 51/2/37
f 49/4/31 55/1/39 54/1/39
f 55/1/39 49/4/31 50/4/31
f 49/4/38 56/1/40 53/4/38
f 56/1/40 49/4/38 54/1/40
f 57/1/41 50/4/35 52/4/35
f 50/4/35 57/1/41 55/1/41
f 52/4/33 56/1/42 57/1/42
f 56/1/42 52/4/33 53/4/33

