# Created by Kenney (www.kenney.nl)

mtllib pillar-large.mtl

g pillar-large

v 1.804779E-16 1.1253 4.511947E-16 1 1 1
v 0.03094689 1.105189 0.05360159 1 1 1
v -0.03094689 1.105189 0.05360159 1 1 1
v 0.03094689 0.9348105 0.05360159 1 1 1
v 0.06189379 0.9348105 4.511947E-16 1 1 1
v 1.804779E-16 0.9147 4.511947E-16 1 1 1
v -0.06189379 1.105189 4.511947E-16 1 1 1
v 0.06189379 1.105189 4.511947E-16 1 1 1
v -0.03094689 0.9348105 0.05360159 1 1 1
v 0.03094689 0.9348105 -0.05360159 1 1 1
v -0.03094689 0.9348105 -0.05360159 1 1 1
v -0.06189379 0.9348105 4.511947E-16 1 1 1
v 0.03094689 1.105189 -0.05360159 1 1 1
v -0.03094689 1.105189 -0.05360159 1 1 1
v -0.05007312 0.9874605 -0.0867292 1 1 1
v -0.1001462 0.9874605 4.511947E-16 1 1 1
v 0.05007312 0.9874605 -0.0867292 1 1 1
v 0.1001462 0.9874605 4.511947E-16 1 1 1
v 0.05007312 1.052539 -0.0867292 1 1 1
v 0.1001462 1.052539 4.511947E-16 1 1 1
v -0.05007312 1.052539 -0.0867292 1 1 1
v -0.1001462 1.052539 4.511947E-16 1 1 1
v 0.05007312 1.052539 0.0867292 1 1 1
v -0.05007312 1.052539 0.0867292 1 1 1
v 0.05007312 0.9874605 0.0867292 1 1 1
v -0.05007312 0.9874605 0.0867292 1 1 1
v -0.0805 0.8600001 -0.11075 1 1 1
v 0.0805 0.8600001 -0.11075 1 1 1
v -0.0805 0.95 -0.11075 1 1 1
v 0.0805 0.95 -0.11075 1 1 1
v -0.11075 0.8600001 -0.0805 1 1 1
v -0.11075 0.95 -0.0805 1 1 1
v 0.0805 0.8600001 0.11075 1 1 1
v -0.0805 0.8600001 0.11075 1 1 1
v 0.0805 0.95 0.11075 1 1 1
v -0.0805 0.95 0.11075 1 1 1
v -0.11075 0.8600001 0.0805 1 1 1
v -0.11075 0.95 0.0805 1 1 1
v 0.11075 0.95 -0.0805 1 1 1
v 0.11075 0.8600001 -0.0805 1 1 1
v 0.11075 0.95 0.0805 1 1 1
v 0.11075 0.8600001 0.0805 1 1 1
v -0.08859999 0.8200001 -0.06439999 1 1 1
v -0.08859999 0.8200001 0.06439999 1 1 1
v -0.06439999 0.8200001 0.08859999 1 1 1
v 0.06439999 0.8200001 0.08859999 1 1 1
v 0.06439999 0.8200001 -0.08859999 1 1 1
v 0.08859999 0.8200001 -0.06439999 1 1 1
v 0.08859999 0.8200001 0.06439999 1 1 1
v -0.06439999 0.8200001 -0.08859999 1 1 1
v -0.0805 0 -0.11075 1 1 1
v 0.0805 0 -0.11075 1 1 1
v -0.0805 0.21 -0.11075 1 1 1
v 0.0805 0.21 -0.11075 1 1 1
v 0.0805 0 0.11075 1 1 1
v -0.0805 0 0.11075 1 1 1
v 0.0805 0.21 0.11075 1 1 1
v -0.0805 0.21 0.11075 1 1 1
v -0.11075 0 -0.0805 1 1 1
v -0.11075 0.21 -0.0805 1 1 1
v -0.11075 0 0.0805 1 1 1
v -0.11075 0.21 0.0805 1 1 1
v 0.11075 0.21 -0.0805 1 1 1
v 0.11075 0 -0.0805 1 1 1
v 0.11075 0.21 0.0805 1 1 1
v 0.11075 0 0.0805 1 1 1
v 0.08859999 0.25 -0.06439999 1 1 1
v 0.08859999 0.25 0.06439999 1 1 1
v 0.06439999 0.25 -0.08859999 1 1 1
v 0.06439999 0.25 0.08859999 1 1 1
v -0.06439999 0.25 -0.08859999 1 1 1
v -0.06439999 0.25 0.08859999 1 1 1
v -0.08859999 0.25 -0.06439999 1 1 1
v -0.08859999 0.25 0.06439999 1 1 1
v 0.0786 0.82 0 1 1 1
v 0.0786 0.25 0 1 1 1
v 0.0686 0.82 0.0686 1 1 1
v 0.0686 0.25 0.0686 1 1 1
v 7.219114E-15 0.25 0.0786 1 1 1
v 7.219114E-15 0.82 0.0786 1 1 1
v -0.0786 0.25 0 1 1 1
v -0.0786 0.82 0 1 1 1
v -0.0686 0.25 0.0686 1 1 1
v -0.0686 0.82 0.0686 1 1 1
v -0.0686 0.25 -0.0686 1 1 1
v 7.219114E-15 0.25 -0.0786 1 1 1
v -0.0686 0.82 -0.0686 1 1 1
v 7.219114E-15 0.82 -0.0786 1 1 1
v 0.0686 0.82 -0.0686 1 1 1
v 0.0686 0.25 -0.0686 1 1 1

vn 0 1 0
vn 0.3233102 0.762812 0.5599896
vn -0.3233102 0.762812 0.5599896
vn 0.3233102 -0.762812 0.5599896
vn 0.6466204 -0.762812 0
vn 0 -1 0
vn -0.6466204 0.762812 0
vn 0.6466204 0.762812 0
vn -0.3233102 -0.762812 0.5599896
vn 0.3233102 -0.762812 -0.5599896
vn -0.3233102 -0.762812 -0.5599896
vn -0.6466204 -0.762812 0
vn 0.3233102 0.762812 -0.5599896
vn -0.3233102 0.762812 -0.5599896
vn -0.4794991 -0.2834124 -0.8305168
vn -0.9589981 -0.2834124 0
vn 0.4794991 -0.2834124 -0.8305168
vn 0.9589981 -0.2834124 0
vn 0.4794991 0.2834124 -0.8305168
vn 0.9589981 0.2834124 0
vn -0.4794991 0.2834124 -0.8305168
vn -0.9589981 0.2834124 0
vn 0.4794991 0.2834124 0.8305168
vn -0.4794991 0.2834124 0.8305168
vn 0.4794991 -0.2834124 0.8305168
vn -0.4794991 -0.2834124 0.8305168
vn -0.3826834 0 -0.9238795
vn 0.3826834 0 -0.9238795
vn -0.9238795 0 -0.3826834
vn 0.3826834 0 0.9238795
vn -0.3826834 0 0.9238795
vn -0.9238795 0 0.3826834
vn 0.9238795 0 -0.3826834
vn 0.9238795 0 0.3826834
vn -0.7587938 -0.5564416 -0.3385331
vn -0.7587938 -0.5564416 0.3385331
vn -0.7837852 -0.5500602 -0.2882959
vn -0.7837852 -0.5500602 0.2882959
vn -0.2882959 -0.5500602 0.7837852
vn -0.3385331 -0.5564416 0.7587938
vn 0.2882959 -0.5500602 0.7837852
vn 0.3385331 -0.5564416 0.7587938
vn 0.3385331 -0.5564416 -0.7587938
vn 0.2882959 -0.5500602 -0.7837852
vn 0.7587938 -0.5564416 -0.3385331
vn 0.7837852 -0.5500602 -0.2882959
vn 0.7587938 -0.5564416 0.3385331
vn 0.7837852 -0.5500602 0.2882959
vn -0.2882959 -0.5500602 -0.7837852
vn -0.3385331 -0.5564416 -0.7587938
vn -0.3385331 0.5564416 -0.7587938
vn -0.2882959 0.5500602 -0.7837852
vn -0.7587938 0.5564416 -0.3385331
vn -0.7837852 0.5500602 -0.2882959
vn -0.7587938 0.5564416 0.3385331
vn -0.7837852 0.5500602 0.2882959
vn 0.3385331 0.5564416 -0.7587938
vn 0.7587938 0.5564416 -0.3385331
vn 0.2882959 0.5500602 -0.7837852
vn 0.7837852 0.5500602 -0.2882959
vn 0.7587938 0.5564416 0.3385331
vn 0.3385331 0.5564416 0.7587938
vn 0.7837852 0.5500602 0.2882959
vn 0.2882959 0.5500602 0.7837852
vn -0.2882959 0.5500602 0.7837852
vn -0.3385331 0.5564416 0.7587938
vn 1 0 0
vn 0.9895415 0 0.144248
vn 0.144248 0 0.9895415
vn 0 0 1
vn -1 0 0
vn -0.9895415 0 0.144248
vn -0.144248 0 -0.9895415
vn 0 0 -1
vn -0.144248 0 0.9895415
vn 0.9895415 0 -0.144248
vn 0.144248 0 -0.9895415
vn -0.9895415 0 -0.144248

vt 0.96875 0.225
vt 0.96875 0.2059017
vt 0.96875 0.0440983
vt 0.96875 0.025
vt 0.96875 0.0940983
vt 0.96875 0.1559017
vt 0.96875 0.1057692
vt 0.96875 0.175
vt 0.96875 0.075
vt 0.96875 0.159
vt 0.21875 0.275
vt 0.21875 0.475

usemtl colormap

f 3/2/3 2/2/2 1/1/1
f 6/4/6 5/3/5 4/3/4
f 7/2/7 3/2/3 1/1/1
f 1/1/1 2/2/2 8/2/8
f 9/3/9 6/4/6 4/3/4
f 11/3/11 10/3/10 6/4/6
f 6/4/6 10/3/10 5/3/5
f 12/3/12 11/3/11 6/4/6
f 1/1/1 8/2/8 13/2/13
f 7/2/7 1/1/1 14/2/14
f 12/3/12 6/4/6 9/3/9
f 14/2/14 1/1/1 13/2/13
f 11/3/11 16/5/16 15/5/15
f 16/5/16 11/3/11 12/3/12
f 19/6/19 18/5/18 17/5/17
f 18/5/18 19/6/19 20/6/20
f 14/2/14 19/6/19 21/6/21
f 19/6/19 14/2/14 13/2/13
f 22/6/22 14/2/14 21/6/21
f 14/2/14 22/6/22 7/2/7
f 16/5/16 21/6/21 15/5/15
f 21/6/21 16/5/16 22/6/22
f 2/2/2 24/6/24 23/6/23
f 24/6/24 2/2/2 3/2/3
f 21/6/21 17/5/17 15/5/15
f 17/5/17 21/6/21 19/6/19
f 18/5/18 10/3/10 17/5/17
f 10/3/10 18/5/18 5/3/5
f 2/2/2 20/6/20 8/2/8
f 20/6/20 2/2/2 23/6/23
f 15/5/15 10/3/10 11/3/11
f 10/3/10 15/5/15 17/5/17
f 13/2/13 20/6/20 19/6/19
f 20/6/20 13/2/13 8/2/8
f 25/5/25 9/3/9 4/3/4
f 9/3/9 25/5/25 26/5/26
f 23/6/23 26/5/26 25/5/25
f 26/5/26 23/6/23 24/6/24
f 23/6/23 18/5/18 20/6/20
f 18/5/18 23/6/23 25/5/25
f 25/5/25 5/3/5 18/5/18
f 5/3/5 25/5/25 4/3/4
f 24/6/24 7/2/7 22/6/22
f 7/2/7 24/6/24 3/2/3
f 26/5/26 22/6/22 16/5/16
f 22/6/22 26/5/26 24/6/24
f 9/3/9 16/5/16 12/3/12
f 16/5/16 9/3/9 26/5/26
f 29/8/27 28/7/28 27/7/27
f 28/7/28 29/8/27 30/8/28
f 32/8/29 27/7/27 31/7/29
f 27/7/27 32/8/29 29/8/27
f 35/8/30 34/7/31 33/7/30
f 34/7/31 35/8/30 36/8/31
f 36/8/31 37/7/32 34/7/31
f 37/7/32 36/8/31 38/8/32
f 41/8/34 40/7/33 39/8/33
f 40/7/33 41/8/34 42/7/34
f 30/8/28 40/7/33 28/7/28
f 40/7/33 30/8/28 39/8/33
f 41/8/34 33/7/30 42/7/34
f 33/7/30 41/8/34 35/8/30
f 30/8/1 41/8/1 39/8/1
f 41/8/1 30/8/1 35/8/1
f 35/8/1 30/8/1 29/8/1
f 35/8/1 29/8/1 36/8/1
f 36/8/1 29/8/1 32/8/1
f 36/8/1 32/8/1 38/8/1
f 37/7/32 32/8/29 31/7/29
f 32/8/29 37/7/32 38/8/32
f 43/9/37 37/7/36 31/7/35
f 37/7/36 43/9/37 44/9/38
f 34/7/40 44/9/38 45/9/39
f 44/9/38 34/7/40 37/7/36
f 33/7/42 45/9/39 46/9/41
f 45/9/39 33/7/42 34/7/40
f 40/7/45 47/9/44 28/7/43
f 47/9/44 40/7/45 48/9/46
f 42/7/47 48/9/46 40/7/45
f 48/9/46 42/7/47 49/9/48
f 27/7/50 47/9/44 50/9/49
f 47/9/44 27/7/50 28/7/43
f 31/7/35 50/9/49 43/9/37
f 50/9/49 31/7/35 27/7/50
f 42/7/47 46/9/41 49/9/48
f 46/9/41 42/7/47 33/7/42
f 46/9/6 48/9/6 49/9/6
f 48/9/6 46/9/6 47/9/6
f 47/9/6 46/9/6 45/9/6
f 47/9/6 45/9/6 50/9/6
f 50/9/6 45/9/6 44/9/6
f 50/9/6 44/9/6 43/9/6
f 53/10/27 52/9/28 51/9/27
f 52/9/28 53/10/27 54/10/28
f 57/10/30 56/9/31 55/9/30
f 56/9/31 57/10/30 58/10/31
f 61/9/32 60/10/29 59/9/29
f 60/10/29 61/9/32 62/10/32
f 65/10/34 64/9/33 63/10/33
f 64/9/33 65/10/34 66/9/34
f 58/10/31 61/9/32 56/9/31
f 61/9/32 58/10/31 62/10/32
f 65/10/34 55/9/30 66/9/34
f 55/9/30 65/10/34 57/10/30
f 54/10/28 64/9/33 52/9/28
f 64/9/33 54/10/28 63/10/33
f 60/10/29 51/9/27 59/9/29
f 51/9/27 60/10/29 53/10/27
f 55/9/6 64/9/6 66/9/6
f 64/9/6 55/9/6 52/9/6
f 52/9/6 55/9/6 56/9/6
f 52/9/6 56/9/6 51/9/6
f 51/9/6 56/9/6 61/9/6
f 51/9/6 61/9/6 59/9/6
f 69/8/1 68/8/1 67/8/1
f 68/8/1 69/8/1 70/8/1
f 70/8/1 69/8/1 71/8/1
f 70/8/1 71/8/1 72/8/1
f 72/8/1 71/8/1 73/8/1
f 72/8/1 73/8/1 74/8/1
f 60/10/53 71/8/52 53/10/51
f 71/8/52 60/10/53 73/8/54
f 62/10/55 73/8/54 60/10/53
f 73/8/54 62/10/55 74/8/56
f 69/8/59 63/10/58 54/10/57
f 63/10/58 69/8/59 67/8/60
f 68/8/63 57/10/62 65/10/61
f 57/10/62 68/8/63 70/8/64
f 67/8/60 65/10/61 63/10/58
f 65/10/61 67/8/60 68/8/63
f 62/10/55 72/8/65 74/8/56
f 72/8/65 62/10/55 58/10/66
f 71/8/52 54/10/57 53/10/51
f 54/10/57 71/8/52 69/8/59
f 70/8/64 58/10/66 57/10/62
f 58/10/66 70/8/64 72/8/65
f 77/11/68 76/12/67 75/11/67
f 76/12/67 77/11/68 78/12/68
f 77/11/69 79/12/70 78/12/69
f 79/12/70 77/11/69 80/11/70
f 83/12/72 82/11/71 81/12/71
f 82/11/71 83/12/72 84/11/72
f 87/11/73 86/12/74 85/12/73
f 86/12/74 87/11/73 88/11/74
f 80/11/70 83/12/75 79/12/70
f 83/12/75 80/11/70 84/11/75
f 75/11/67 90/12/76 89/11/76
f 90/12/76 75/11/67 76/12/67
f 88/11/74 90/12/77 86/12/74
f 90/12/77 88/11/74 89/11/77
f 81/12/71 87/11/78 85/12/78
f 87/11/78 81/12/71 82/11/71

g pillar-large




usemtl colormap

f 3/2/3 2/2/2 1/1/1
f 6/4/6 5/3/5 4/3/4
f 7/2/7 3/2/3 1/1/1
f 1/1/1 2/2/2 8/2/8
f 9/3/9 6/4/6 4/3/4
f 11/3/11 10/3/10 6/4/6
f 6/4/6 10/3/10 5/3/5
f 12/3/12 11/3/11 6/4/6
f 1/1/1 8/2/8 13/2/13
f 7/2/7 1/1/1 14/2/14
f 12/3/12 6/4/6 9/3/9
f 14/2/14 1/1/1 13/2/13
f 11/3/11 16/5/16 15/5/15
f 16/5/16 11/3/11 12/3/12
f 19/6/19 18/5/18 17/5/17
f 18/5/18 19/6/19 20/6/20
f 14/2/14 19/6/19 21/6/21
f 19/6/19 14/2/14 13/2/13
f 22/6/22 14/2/14 21/6/21
f 14/2/14 22/6/22 7/2/7
f 16/5/16 21/6/21 15/5/15
f 21/6/21 16/5/16 22/6/22
f 2/2/2 24/6/24 23/6/23
f 24/6/24 2/2/2 3/2/3
f 21/6/21 17/5/17 15/5/15
f 17/5/17 21/6/21 19/6/19
f 18/5/18 10/3/10 17/5/17
f 10/3/10 18/5/18 5/3/5
f 2/2/2 20/6/20 8/2/8
f 20/6/20 2/2/2 23/6/23
f 15/5/15 10/3/10 11/3/11
f 10/3/10 15/5/15 17/5/17
f 13/2/13 20/6/20 19/6/19
f 20/6/20 13/2/13 8/2/8
f 25/5/25 9/3/9 4/3/4
f 9/3/9 25/5/25 26/5/26
f 23/6/23 26/5/26 25/5/25
f 26/5/26 23/6/23 24/6/24
f 23/6/23 18/5/18 20/6/20
f 18/5/18 23/6/23 25/5/25
f 25/5/25 5/3/5 18/5/18
f 5/3/5 25/5/25 4/3/4
f 24/6/24 7/2/7 22/6/22
f 7/2/7 24/6/24 3/2/3
f 26/5/26 22/6/22 16/5/16
f 22/6/22 26/5/26 24/6/24
f 9/3/9 16/5/16 12/3/12
f 16/5/16 9/3/9 26/5/26
f 29/8/27 28/7/28 27/7/27
f 28/7/28 29/8/27 30/8/28
f 32/8/29 27/7/27 31/7/29
f 27/7/27 32/8/29 29/8/27
f 35/8/30 34/7/31 33/7/30
f 34/7/31 35/8/30 36/8/31
f 36/8/31 37/7/32 34/7/31
f 37/7/32 36/8/31 38/8/32
f 41/8/34 40/7/33 39/8/33
f 40/7/33 41/8/34 42/7/34
f 30/8/28 40/7/33 28/7/28
f 40/7/33 30/8/28 39/8/33
f 41/8/34 33/7/30 42/7/34
f 33/7/30 41/8/34 35/8/30
f 30/8/1 41/8/1 39/8/1
f 41/8/1 30/8/1 35/8/1
f 35/8/1 30/8/1 29/8/1
f 35/8/1 29/8/1 36/8/1
f 36/8/1 29/8/1 32/8/1
f 36/8/1 32/8/1 38/8/1
f 37/7/32 32/8/29 31/7/29
f 32/8/29 37/7/32 38/8/32
f 43/9/37 37/7/36 31/7/35
f 37/7/36 43/9/37 44/9/38
f 34/7/40 44/9/38 45/9/39
f 44/9/38 34/7/40 37/7/36
f 33/7/42 45/9/39 46/9/41
f 45/9/39 33/7/42 34/7/40
f 40/7/45 47/9/44 28/7/43
f 47/9/44 40/7/45 48/9/46
f 42/7/47 48/9/46 40/7/45
f 48/9/46 42/7/47 49/9/48
f 27/7/50 47/9/44 50/9/49
f 47/9/44 27/7/50 28/7/43
f 31/7/35 50/9/49 43/9/37
f 50/9/49 31/7/35 27/7/50
f 42/7/47 46/9/41 49/9/48
f 46/9/41 42/7/47 33/7/42
f 46/9/6 48/9/6 49/9/6
f 48/9/6 46/9/6 47/9/6
f 47/9/6 46/9/6 45/9/6
f 47/9/6 45/9/6 50/9/6
f 50/9/6 45/9/6 44/9/6
f 50/9/6 44/9/6 43/9/6
f 53/10/27 52/9/28 51/9/27
f 52/9/28 53/10/27 54/10/28
f 57/10/30 56/9/31 55/9/30
f 56/9/31 57/10/30 58/10/31
f 61/9/32 60/10/29 59/9/29
f 60/10/29 61/9/32 62/10/32
f 65/10/34 64/9/33 63/10/33
f 64/9/33 65/10/34 66/9/34
f 58/10/31 61/9/32 56/9/31
f 61/9/32 58/10/31 62/10/32
f 65/10/34 55/9/30 66/9/34
f 55/9/30 65/10/34 57/10/30
f 54/10/28 64/9/33 52/9/28
f 64/9/33 54/10/28 63/10/33
f 60/10/29 51/9/27 59/9/29
f 51/9/27 60/10/29 53/10/27
f 55/9/6 64/9/6 66/9/6
f 64/9/6 55/9/6 52/9/6
f 52/9/6 55/9/6 56/9/6
f 52/9/6 56/9/6 51/9/6
f 51/9/6 56/9/6 61/9/6
f 51/9/6 61/9/6 59/9/6
f 69/8/1 68/8/1 67/8/1
f 68/8/1 69/8/1 70/8/1
f 70/8/1 69/8/1 71/8/1
f 70/8/1 71/8/1 72/8/1
f 72/8/1 71/8/1 73/8/1
f 72/8/1 73/8/1 74/8/1
f 60/10/53 71/8/52 53/10/51
f 71/8/52 60/10/53 73/8/54
f 62/10/55 73/8/54 60/10/53
f 73/8/54 62/10/55 74/8/56
f 69/8/59 63/10/58 54/10/57
f 63/10/58 69/8/59 67/8/60
f 68/8/63 57/10/62 65/10/61
f 57/10/62 68/8/63 70/8/64
f 67/8/60 65/10/61 63/10/58
f 65/10/61 67/8/60 68/8/63
f 62/10/55 72/8/65 74/8/56
f 72/8/65 62/10/55 58/10/66
f 71/8/52 54/10/57 53/10/51
f 54/10/57 71/8/52 69/8/59
f 70/8/64 58/10/66 57/10/62
f 58/10/66 70/8/64 72/8/65
f 77/11/68 76/12/67 75/11/67
f 76/12/67 77/11/68 78/12/68
f 77/11/69 79/12/70 78/12/69
f 79/12/70 77/11/69 80/11/70
f 83/12/72 82/11/71 81/12/71
f 82/11/71 83/12/72 84/11/72
f 87/11/73 86/12/74 85/12/73
f 86/12/74 87/11/73 88/11/74
f 80/11/70 83/12/75 79/12/70
f 83/12/75 80/11/70 84/11/75
f 75/11/67 90/12/76 89/11/76
f 90/12/76 75/11/67 76/12/67
f 88/11/74 90/12/77 86/12/74
f 90/12/77 88/11/74 89/11/77
f 81/12/71 87/11/78 85/12/78
f 87/11/78 81/12/71 82/11/71

