# Created by Kenney (www.kenney.nl)

mtllib stone-wall.mtl

g stone-wall

v -0.5 0.2 -0.48 1 1 1
v -0.5 0.55 -0.467 1 1 1
v -0.5 0.2 -0.32 1 1 1
v -0.5 0.55 -0.333 1 1 1
v 0.5 0.2 -0.32 1 1 1
v 0.5 0.55 -0.333 1 1 1
v 0.5 0.2 -0.48 1 1 1
v 0.5 0.55 -0.467 1 1 1
v 0.5 0 -0.3 1 1 1
v 0.5 0 -0.5 1 1 1
v -0.5 0 -0.3 1 1 1
v -0.5 0 -0.5 1 1 1
v 0.5 0.18 -0.3 1 1 1
v -0.5 0.18 -0.3 1 1 1
v -0.5 0.18 -0.5 1 1 1
v 0.5 0.18 -0.5 1 1 1
v -0.5 0.57 -0.487 1 1 1
v 0.5 0.57 -0.487 1 1 1
v -0.5 0.68 -0.5 1 1 1
v 0.5 0.68 -0.5 1 1 1
v 0.5 0.57 -0.313 1 1 1
v -0.5 0.57 -0.313 1 1 1
v 0.5 0.68 -0.3 1 1 1
v -0.5 0.68 -0.3 1 1 1
v 0.5 0.7 -0.48 1 1 1
v 0.5 0.725 -0.4 1 1 1
v -0.5 0.7 -0.48 1 1 1
v -0.5 0.725 -0.4 1 1 1
v 0.5 0.7 -0.32 1 1 1
v -0.5 0.7 -0.32 1 1 1

vn -1 0 0
vn 0 0.03711726 0.9993109
vn 1 0 0
vn 0 0.03711726 -0.9993109
vn 0 -1 0
vn 0 0.9238795 -0.3826834
vn 0 0.9238795 0.3826834
vn 0 0.3826834 0.9238795
vn 0 0.3826834 -0.9238795
vn 0 0 1
vn 0 0 -1
vn 0 -0.9238795 0.3826834
vn 0 -0.9238795 -0.3826834
vn 0 -0.1173651 -0.9930889
vn 0 -0.1173651 0.9930889
vn 0 0.855572 -0.5176837
vn 0 1 0
vn 0 -0.7071068 -0.7071068
vn 0 -0.7071068 0.7071068
vn 0 0.7071068 0.7071068
vn 0 0.855572 0.5176837
vn 0 0.7071068 -0.7071068

vt 0.09375 0.225
vt 0.09375 0.025
vt 0.96875 0.075
vt 0.96875 0.175
vt 0.96875 0.165
vt 0.96875 0.08642857
vt 0.96875 0.1492857
vt 0.96875 0.1607143

usemtl colormap

f 3/1/1 2/2/1 1/1/1
f 2/2/1 3/1/1 4/2/1
f 6/2/2 3/1/2 5/1/2
f 3/1/2 6/2/2 4/2/2
f 8/2/3 5/1/3 7/1/3
f 5/1/3 8/2/3 6/2/3
f 2/2/4 7/1/4 1/1/4
f 7/1/4 2/2/4 8/2/4
f 11/3/5 10/3/5 9/3/5
f 10/3/5 11/3/5 12/3/5
f 1/4/6 5/4/7 7/4/6
f 5/4/7 1/4/6 3/4/7
f 5/4/7 14/5/8 13/5/8
f 14/5/8 5/4/7 3/4/7
f 1/4/6 16/5/9 15/5/9
f 16/5/9 1/4/6 7/4/6
f 13/5/8 11/3/10 9/3/10
f 11/3/10 13/5/8 14/5/8
f 15/5/9 10/3/11 12/3/11
f 10/3/11 15/5/9 16/5/9
f 7/4/3 10/3/3 16/5/3
f 10/3/3 7/4/3 9/3/3
f 9/3/3 7/4/3 5/4/3
f 9/3/3 5/4/3 13/5/3
f 11/3/1 15/5/1 12/3/1
f 15/5/1 11/3/1 1/4/1
f 1/4/1 11/3/1 3/4/1
f 3/4/1 11/3/1 14/5/1
f 4/3/12 8/3/13 6/3/12
f 8/3/13 4/3/12 2/3/13
f 19/7/14 18/6/14 17/6/14
f 18/6/14 19/7/14 20/7/14
f 23/7/15 22/6/15 21/6/15
f 22/6/15 23/7/15 24/7/15
f 27/8/16 26/4/17 25/8/16
f 26/4/17 27/8/16 28/4/17
f 17/6/18 8/3/13 2/3/13
f 8/3/13 17/6/18 18/6/18
f 21/6/19 4/3/12 6/3/12
f 4/3/12 21/6/19 22/6/19
f 29/8/21 24/7/20 23/7/20
f 24/7/20 29/8/21 30/8/21
f 27/8/16 20/7/22 19/7/22
f 20/7/22 27/8/16 25/8/16
f 17/6/1 27/8/1 19/7/1
f 27/8/1 17/6/1 2/3/1
f 27/8/1 2/3/1 28/4/1
f 28/4/1 2/3/1 4/3/1
f 28/4/1 4/3/1 30/8/1
f 30/8/1 4/3/1 22/6/1
f 30/8/1 22/6/1 24/7/1
f 25/8/3 18/6/3 20/7/3
f 18/6/3 25/8/3 8/3/3
f 8/3/3 25/8/3 26/4/3
f 8/3/3 26/4/3 6/3/3
f 6/3/3 26/4/3 29/8/3
f 6/3/3 29/8/3 21/6/3
f 21/6/3 29/8/3 23/7/3
f 28/4/17 29/8/21 26/4/17
f 29/8/21 28/4/17 30/8/21

g stone-wall




usemtl colormap

f 3/1/1 2/2/1 1/1/1
f 2/2/1 3/1/1 4/2/1
f 6/2/2 3/1/2 5/1/2
f 3/1/2 6/2/2 4/2/2
f 8/2/3 5/1/3 7/1/3
f 5/1/3 8/2/3 6/2/3
f 2/2/4 7/1/4 1/1/4
f 7/1/4 2/2/4 8/2/4
f 11/3/5 10/3/5 9/3/5
f 10/3/5 11/3/5 12/3/5
f 1/4/6 5/4/7 7/4/6
f 5/4/7 1/4/6 3/4/7
f 5/4/7 14/5/8 13/5/8
f 14/5/8 5/4/7 3/4/7
f 1/4/6 16/5/9 15/5/9
f 16/5/9 1/4/6 7/4/6
f 13/5/8 11/3/10 9/3/10
f 11/3/10 13/5/8 14/5/8
f 15/5/9 10/3/11 12/3/11
f 10/3/11 15/5/9 16/5/9
f 7/4/3 10/3/3 16/5/3
f 10/3/3 7/4/3 9/3/3
f 9/3/3 7/4/3 5/4/3
f 9/3/3 5/4/3 13/5/3
f 11/3/1 15/5/1 12/3/1
f 15/5/1 11/3/1 1/4/1
f 1/4/1 11/3/1 3/4/1
f 3/4/1 11/3/1 14/5/1
f 4/3/12 8/3/13 6/3/12
f 8/3/13 4/3/12 2/3/13
f 19/7/14 18/6/14 17/6/14
f 18/6/14 19/7/14 20/7/14
f 23/7/15 22/6/15 21/6/15
f 22/6/15 23/7/15 24/7/15
f 27/8/16 26/4/17 25/8/16
f 26/4/17 27/8/16 28/4/17
f 17/6/18 8/3/13 2/3/13
f 8/3/13 17/6/18 18/6/18
f 21/6/19 4/3/12 6/3/12
f 4/3/12 21/6/19 22/6/19
f 29/8/21 24/7/20 23/7/20
f 24/7/20 29/8/21 30/8/21
f 27/8/16 20/7/22 19/7/22
f 20/7/22 27/8/16 25/8/16
f 17/6/1 27/8/1 19/7/1
f 27/8/1 17/6/1 2/3/1
f 27/8/1 2/3/1 28/4/1
f 28/4/1 2/3/1 4/3/1
f 28/4/1 4/3/1 30/8/1
f 30/8/1 4/3/1 22/6/1
f 30/8/1 22/6/1 24/7/1
f 25/8/3 18/6/3 20/7/3
f 18/6/3 25/8/3 8/3/3
f 8/3/3 25/8/3 26/4/3
f 8/3/3 26/4/3 6/3/3
f 6/3/3 26/4/3 29/8/3
f 6/3/3 29/8/3 21/6/3
f 21/6/3 29/8/3 23/7/3
f 28/4/17 29/8/21 26/4/17
f 29/8/21 28/4/17 30/8/21

