# Created by Kenney (www.kenney.nl)

mtllib stone-wall-damaged.mtl

g stone-wall-damaged

v -0.2515433 0.3472691 -0.47453 1 1 1
v -0.2515433 0.3472691 -0.32547 1 1 1
v -0.4568647 0.3046542 -0.4761129 1 1 1
v -0.4568647 0.3046542 -0.3238872 1 1 1
v -0.01814985 0.4528347 -0.470609 1 1 1
v 0.03613898 0.5150584 -0.4682978 1 1 1
v -0.01814985 0.4528347 -0.329391 1 1 1
v 0.03613898 0.5150584 -0.3317022 1 1 1
v -0.1836286 0.4174326 -0.4719239 1 1 1
v -0.1836286 0.4174326 -0.3280761 1 1 1
v 0.15 0.55 -0.467 1 1 1
v 0.15 0.55 -0.333 1 1 1
v -0.5 0.2628335 -0.4776662 1 1 1
v -0.5 0.2628335 -0.3223338 1 1 1
v 0.5 0.2 -0.32 1 1 1
v -0.5 0.2 -0.32 1 1 1
v 0.5 0.55 -0.333 1 1 1
v 0.5 0.2 -0.48 1 1 1
v 0.5 0.55 -0.467 1 1 1
v -0.5 0.2 -0.48 1 1 1
v 0.1197396 0.5242385 -0.3782295 1 1 1
v 0.157699 0.5242385 -0.4061536 1 1 1
v 0.07657692 0.5242385 -0.3971412 1 1 1
v 0.1524957 0.5242385 -0.4529895 1 1 1
v 0.07137362 0.5242385 -0.4439771 1 1 1
v 0.109333 0.5242385 -0.4719012 1 1 1
v 0.1179705 0.562566 -0.3941537 1 1 1
v 0.08948311 0.562566 -0.4066355 1 1 1
v 0.1430237 0.562566 -0.4125836 1 1 1
v 0.1395895 0.562566 -0.4434953 1 1 1
v 0.08604894 0.562566 -0.4375471 1 1 1
v 0.1111021 0.562566 -0.455977 1 1 1
v 0.0408667 0.4330166 -0.3824619 1 1 1
v 0.01329916 0.4330166 -0.4302103 1 1 1
v 0.01329916 0.4330166 -0.3347135 1 1 1
v -0.04183592 0.4330166 -0.4302103 1 1 1
v -0.04183592 0.4330166 -0.3347135 1 1 1
v -0.06940345 0.4330166 -0.3824619 1 1 1
v 0.02212077 0.4707656 -0.3824619 1 1 1
v 0.003926196 0.4707656 -0.350948 1 1 1
v 0.003926196 0.4707656 -0.4139759 1 1 1
v -0.03246295 0.4707656 -0.4139759 1 1 1
v -0.03246295 0.4707656 -0.350948 1 1 1
v -0.05065753 0.4707656 -0.3824619 1 1 1
v -0.3199782 0.3193554 -0.3449416 1 1 1
v -0.2706803 0.3193554 -0.3812067 1 1 1
v -0.3760336 0.3193554 -0.3695023 1 1 1
v -0.2774378 0.3193554 -0.4420325 1 1 1
v -0.3827912 0.3193554 -0.4303281 1 1 1
v -0.3334933 0.3193554 -0.4665932 1 1 1
v -0.3222758 0.3691314 -0.3656224 1 1 1
v -0.3592724 0.3691314 -0.3818325 1 1 1
v -0.2897391 0.3691314 -0.3895574 1 1 1
v -0.2941991 0.3691314 -0.4297024 1 1 1
v -0.3637323 0.3691314 -0.4219775 1 1 1
v -0.3311957 0.3691314 -0.4459124 1 1 1
v 0.15 0.57 -0.487 1 1 1
v 0.5 0.57 -0.487 1 1 1
v 0.15 0.68 -0.5 1 1 1
v 0.5 0.68 -0.5 1 1 1
v 0.5 0.57 -0.313 1 1 1
v 0.15 0.57 -0.313 1 1 1
v 0.5 0.68 -0.3 1 1 1
v 0.15 0.68 -0.3 1 1 1
v 0.5 0.7 -0.48 1 1 1
v 0.5 0.725 -0.4 1 1 1
v 0.15 0.7 -0.48 1 1 1
v 0.15 0.725 -0.4 1 1 1
v 0.5 0.7 -0.32 1 1 1
v 0.15 0.7 -0.32 1 1 1
v 0.5 0 -0.3 1 1 1
v 0.5 0 -0.5 1 1 1
v -0.5 0 -0.3 1 1 1
v -0.5 0 -0.5 1 1 1
v 0.5 0.2 -0.32 1 1 1
v -0.5 0.2 -0.32 1 1 1
v 0.5 0.18 -0.3 1 1 1
v -0.5 0.18 -0.3 1 1 1
v -0.5 0.18 -0.5 1 1 1
v 0.5 0.18 -0.5 1 1 1

vn -0.203221 0.979133 0
vn -0.7535179 0.6574273 0
vn -0.5472597 0.8369628 0
vn -0.718528 0.695498 0
vn -0.4877753 0.8729692 0
vn -0.2933757 0.9559972 0
vn -0.6960823 0.717962 0
vn -0.9241545 0.3820192 0
vn 0 0.03711726 0.9993109
vn 1 0 0
vn -0.2092029 0.9778723 0
vn -1 0 0
vn 0 0.03711726 -0.9993109
vn 0 -1 0
vn 0 1 0
vn 0.7431973 0.385689 -0.5467191
vn -0.101874 0.3856891 -0.9169872
vn 0.8450713 0.385689 0.3702681
vn 0.101874 0.3856891 0.9169872
vn -0.8450713 0.385689 -0.3702681
vn -0.7431973 0.385689 0.5467191
vn -0.4478221 0.4447714 -0.7756506
vn -0.8956441 0.4447714 -3.440871E-13
vn 0.4478221 0.4447714 -0.7756506
vn 0.8956441 0.4447714 3.440871E-13
vn -0.4478221 0.4447714 0.7756506
vn 0.4478221 0.4447714 0.7756506
vn -0.101874 0.3856891 -0.9169873
vn 0.8450713 0.385689 0.3702681
vn 0.101874 0.3856891 0.9169873
vn -0.8450713 0.385689 -0.3702681
vn 0 -0.9238795 0.3826834
vn 0 -0.9238795 -0.3826834
vn 0 -0.1173651 -0.9930889
vn 0 -0.1173651 0.9930889
vn 0 0.855572 -0.5176837
vn 0 -0.7071068 -0.7071068
vn 0 -0.7071068 0.7071068
vn 0 0.7071068 0.7071068
vn 0 0.855572 0.5176837
vn 0 0.7071068 -0.7071068
vn 0 0.9238795 -0.3826834
vn 0 0.9238795 0.3826834
vn 0 0.3826834 0.9238795
vn 0 0.3826834 -0.9238795
vn 0 0 1
vn 0 0 -1

vt 0.09375 0.1408462
vt 0.09375 0.1651976
vt 0.09375 0.08052306
vt 0.09375 0.04496662
vt 0.09375 0.1007528
vt 0.09375 0.025
vt 0.09375 0.1890951
vt 0.09375 0.225
vt 0.09375 0.075
vt 0.09375 0.175
vt 0.96875 0.075
vt 0.96875 0.08642857
vt 0.96875 0.1492857
vt 0.96875 0.1607143
vt 0.96875 0.175
vt 0.96875 0.165

usemtl colormap

f 3/2/1 2/1/1 1/1/1
f 2/1/1 3/2/1 4/2/1
f 7/3/2 6/4/3 5/3/2
f 6/4/3 7/3/2 8/4/3
f 2/1/4 9/5/5 1/1/4
f 9/5/5 2/1/4 10/5/5
f 6/4/3 12/6/6 11/6/6
f 12/6/6 6/4/3 8/4/3
f 13/7/8 4/2/7 3/2/7
f 4/2/7 13/7/8 14/7/8
f 17/6/9 16/8/9 15/8/9
f 16/8/9 17/6/9 14/7/9
f 14/7/9 17/6/9 2/1/9
f 14/7/9 2/1/9 4/2/9
f 2/1/9 17/6/9 10/5/9
f 10/5/9 17/6/9 7/3/9
f 7/3/9 17/6/9 8/4/9
f 8/4/9 17/6/9 12/6/9
f 19/6/10 15/8/10 18/8/10
f 15/8/10 19/6/10 17/6/10
f 9/5/5 7/3/11 5/3/11
f 7/3/11 9/5/5 10/5/5
f 16/8/12 13/7/8 20/8/12
f 13/7/8 16/8/12 14/7/8
f 13/7/13 18/8/13 20/8/13
f 18/8/13 13/7/13 19/6/13
f 19/6/13 13/7/13 1/1/13
f 1/1/13 13/7/13 3/2/13
f 19/6/13 1/1/13 9/5/13
f 19/6/13 9/5/13 5/3/13
f 19/6/13 5/3/13 6/4/13
f 19/6/13 6/4/13 11/6/13
f 23/9/14 22/9/14 21/9/14
f 22/9/14 23/9/14 24/9/14
f 24/9/14 23/9/14 25/9/14
f 24/9/14 25/9/14 26/9/14
f 29/10/15 28/10/15 27/10/15
f 28/10/15 29/10/15 30/10/15
f 28/10/15 30/10/15 31/10/15
f 31/10/15 30/10/15 32/10/15
f 26/9/17 30/10/16 24/9/16
f 30/10/16 26/9/17 32/10/17
f 29/10/18 21/9/19 22/9/18
f 21/9/19 29/10/18 27/10/19
f 26/9/17 31/10/20 32/10/17
f 31/10/20 26/9/17 25/9/20
f 28/10/21 21/9/19 27/10/19
f 21/9/19 28/10/21 23/9/21
f 30/10/16 22/9/18 24/9/16
f 22/9/18 30/10/16 29/10/18
f 28/10/21 25/9/20 23/9/21
f 25/9/20 28/10/21 31/10/20
f 35/9/14 34/9/14 33/9/14
f 34/9/14 35/9/14 36/9/14
f 36/9/14 35/9/14 37/9/14
f 36/9/14 37/9/14 38/9/14
f 41/10/15 40/10/15 39/10/15
f 40/10/15 41/10/15 42/10/15
f 40/10/15 42/10/15 43/10/15
f 43/10/15 42/10/15 44/10/15
f 38/9/23 42/10/22 36/9/22
f 42/10/22 38/9/23 44/10/23
f 41/10/24 33/9/25 34/9/24
f 33/9/25 41/10/24 39/10/25
f 38/9/23 43/10/26 44/10/23
f 43/10/26 38/9/23 37/9/26
f 40/10/27 33/9/25 39/10/25
f 33/9/25 40/10/27 35/9/27
f 42/10/22 34/9/24 36/9/22
f 34/9/24 42/10/22 41/10/24
f 40/10/27 37/9/26 35/9/27
f 37/9/26 40/10/27 43/10/26
f 47/9/14 46/9/14 45/9/14
f 46/9/14 47/9/14 48/9/14
f 48/9/14 47/9/14 49/9/14
f 48/9/14 49/9/14 50/9/14
f 53/10/15 52/10/15 51/10/15
f 52/10/15 53/10/15 54/10/15
f 52/10/15 54/10/15 55/10/15
f 55/10/15 54/10/15 56/10/15
f 50/9/28 54/10/16 48/9/16
f 54/10/16 50/9/28 56/10/28
f 53/10/29 45/9/30 46/9/29
f 45/9/30 53/10/29 51/10/30
f 50/9/28 55/10/31 56/10/28
f 55/10/31 50/9/28 49/9/31
f 52/10/21 45/9/30 51/10/30
f 45/9/30 52/10/21 47/9/21
f 54/10/16 46/9/29 48/9/16
f 46/9/29 54/10/16 53/10/29
f 52/10/21 49/9/31 47/9/21
f 49/9/31 52/10/21 55/10/31
f 12/11/32 19/11/33 17/11/32
f 19/11/33 12/11/32 11/11/33
f 59/13/34 58/12/34 57/12/34
f 58/12/34 59/13/34 60/13/34
f 63/13/35 62/12/35 61/12/35
f 62/12/35 63/13/35 64/13/35
f 67/14/36 66/15/15 65/14/36
f 66/15/15 67/14/36 68/15/15
f 57/12/37 19/11/33 11/11/33
f 19/11/33 57/12/37 58/12/37
f 61/12/38 12/11/32 17/11/32
f 12/11/32 61/12/38 62/12/38
f 69/14/40 64/13/39 63/13/39
f 64/13/39 69/14/40 70/14/40
f 67/14/36 60/13/41 59/13/41
f 60/13/41 67/14/36 65/14/36
f 57/12/12 67/14/12 59/13/12
f 67/14/12 57/12/12 11/11/12
f 67/14/12 11/11/12 68/15/12
f 68/15/12 11/11/12 12/11/12
f 68/15/12 12/11/12 70/14/12
f 70/14/12 12/11/12 62/12/12
f 70/14/12 62/12/12 64/13/12
f 65/14/10 58/12/10 60/13/10
f 58/12/10 65/14/10 19/11/10
f 19/11/10 65/14/10 66/15/10
f 19/11/10 66/15/10 17/11/10
f 17/11/10 66/15/10 69/14/10
f 17/11/10 69/14/10 61/12/10
f 61/12/10 69/14/10 63/13/10
f 68/15/15 69/14/40 66/15/15
f 69/14/40 68/15/15 70/14/40
f 73/11/14 72/11/14 71/11/14
f 72/11/14 73/11/14 74/11/14
f 20/15/42 75/15/43 18/15/42
f 75/15/43 20/15/42 76/15/43
f 75/15/43 78/16/44 77/16/44
f 78/16/44 75/15/43 76/15/43
f 20/15/42 80/16/45 79/16/45
f 80/16/45 20/15/42 18/15/42
f 77/16/44 73/11/46 71/11/46
f 73/11/46 77/16/44 78/16/44
f 79/16/45 72/11/47 74/11/47
f 72/11/47 79/16/45 80/16/45
f 18/15/10 72/11/10 80/16/10
f 72/11/10 18/15/10 71/11/10
f 71/11/10 18/15/10 75/15/10
f 71/11/10 75/15/10 77/16/10
f 73/11/12 79/16/12 74/11/12
f 79/16/12 73/11/12 20/15/12
f 20/15/12 73/11/12 76/15/12
f 76/15/12 73/11/12 78/16/12

g stone-wall-damaged




usemtl colormap

f 3/2/1 2/1/1 1/1/1
f 2/1/1 3/2/1 4/2/1
f 7/3/2 6/4/3 5/3/2
f 6/4/3 7/3/2 8/4/3
f 2/1/4 9/5/5 1/1/4
f 9/5/5 2/1/4 10/5/5
f 6/4/3 12/6/6 11/6/6
f 12/6/6 6/4/3 8/4/3
f 13/7/8 4/2/7 3/2/7
f 4/2/7 13/7/8 14/7/8
f 17/6/9 16/8/9 15/8/9
f 16/8/9 17/6/9 14/7/9
f 14/7/9 17/6/9 2/1/9
f 14/7/9 2/1/9 4/2/9
f 2/1/9 17/6/9 10/5/9
f 10/5/9 17/6/9 7/3/9
f 7/3/9 17/6/9 8/4/9
f 8/4/9 17/6/9 12/6/9
f 19/6/10 15/8/10 18/8/10
f 15/8/10 19/6/10 17/6/10
f 9/5/5 7/3/11 5/3/11
f 7/3/11 9/5/5 10/5/5
f 16/8/12 13/7/8 20/8/12
f 13/7/8 16/8/12 14/7/8
f 13/7/13 18/8/13 20/8/13
f 18/8/13 13/7/13 19/6/13
f 19/6/13 13/7/13 1/1/13
f 1/1/13 13/7/13 3/2/13
f 19/6/13 1/1/13 9/5/13
f 19/6/13 9/5/13 5/3/13
f 19/6/13 5/3/13 6/4/13
f 19/6/13 6/4/13 11/6/13
f 23/9/14 22/9/14 21/9/14
f 22/9/14 23/9/14 24/9/14
f 24/9/14 23/9/14 25/9/14
f 24/9/14 25/9/14 26/9/14
f 29/10/15 28/10/15 27/10/15
f 28/10/15 29/10/15 30/10/15
f 28/10/15 30/10/15 31/10/15
f 31/10/15 30/10/15 32/10/15
f 26/9/17 30/10/16 24/9/16
f 30/10/16 26/9/17 32/10/17
f 29/10/18 21/9/19 22/9/18
f 21/9/19 29/10/18 27/10/19
f 26/9/17 31/10/20 32/10/17
f 31/10/20 26/9/17 25/9/20
f 28/10/21 21/9/19 27/10/19
f 21/9/19 28/10/21 23/9/21
f 30/10/16 22/9/18 24/9/16
f 22/9/18 30/10/16 29/10/18
f 28/10/21 25/9/20 23/9/21
f 25/9/20 28/10/21 31/10/20
f 35/9/14 34/9/14 33/9/14
f 34/9/14 35/9/14 36/9/14
f 36/9/14 35/9/14 37/9/14
f 36/9/14 37/9/14 38/9/14
f 41/10/15 40/10/15 39/10/15
f 40/10/15 41/10/15 42/10/15
f 40/10/15 42/10/15 43/10/15
f 43/10/15 42/10/15 44/10/15
f 38/9/23 42/10/22 36/9/22
f 42/10/22 38/9/23 44/10/23
f 41/10/24 33/9/25 34/9/24
f 33/9/25 41/10/24 39/10/25
f 38/9/23 43/10/26 44/10/23
f 43/10/26 38/9/23 37/9/26
f 40/10/27 33/9/25 39/10/25
f 33/9/25 40/10/27 35/9/27
f 42/10/22 34/9/24 36/9/22
f 34/9/24 42/10/22 41/10/24
f 40/10/27 37/9/26 35/9/27
f 37/9/26 40/10/27 43/10/26
f 47/9/14 46/9/14 45/9/14
f 46/9/14 47/9/14 48/9/14
f 48/9/14 47/9/14 49/9/14
f 48/9/14 49/9/14 50/9/14
f 53/10/15 52/10/15 51/10/15
f 52/10/15 53/10/15 54/10/15
f 52/10/15 54/10/15 55/10/15
f 55/10/15 54/10/15 56/10/15
f 50/9/28 54/10/16 48/9/16
f 54/10/16 50/9/28 56/10/28
f 53/10/29 45/9/30 46/9/29
f 45/9/30 53/10/29 51/10/30
f 50/9/28 55/10/31 56/10/28
f 55/10/31 50/9/28 49/9/31
f 52/10/21 45/9/30 51/10/30
f 45/9/30 52/10/21 47/9/21
f 54/10/16 46/9/29 48/9/16
f 46/9/29 54/10/16 53/10/29
f 52/10/21 49/9/31 47/9/21
f 49/9/31 52/10/21 55/10/31
f 12/11/32 19/11/33 17/11/32
f 19/11/33 12/11/32 11/11/33
f 59/13/34 58/12/34 57/12/34
f 58/12/34 59/13/34 60/13/34
f 63/13/35 62/12/35 61/12/35
f 62/12/35 63/13/35 64/13/35
f 67/14/36 66/15/15 65/14/36
f 66/15/15 67/14/36 68/15/15
f 57/12/37 19/11/33 11/11/33
f 19/11/33 57/12/37 58/12/37
f 61/12/38 12/11/32 17/11/32
f 12/11/32 61/12/38 62/12/38
f 69/14/40 64/13/39 63/13/39
f 64/13/39 69/14/40 70/14/40
f 67/14/36 60/13/41 59/13/41
f 60/13/41 67/14/36 65/14/36
f 57/12/12 67/14/12 59/13/12
f 67/14/12 57/12/12 11/11/12
f 67/14/12 11/11/12 68/15/12
f 68/15/12 11/11/12 12/11/12
f 68/15/12 12/11/12 70/14/12
f 70/14/12 12/11/12 62/12/12
f 70/14/12 62/12/12 64/13/12
f 65/14/10 58/12/10 60/13/10
f 58/12/10 65/14/10 19/11/10
f 19/11/10 65/14/10 66/15/10
f 19/11/10 66/15/10 17/11/10
f 17/11/10 66/15/10 69/14/10
f 17/11/10 69/14/10 61/12/10
f 61/12/10 69/14/10 63/13/10
f 68/15/15 69/14/40 66/15/15
f 69/14/40 68/15/15 70/14/40
f 73/11/14 72/11/14 71/11/14
f 72/11/14 73/11/14 74/11/14
f 20/15/42 75/15/43 18/15/42
f 75/15/43 20/15/42 76/15/43
f 75/15/43 78/16/44 77/16/44
f 78/16/44 75/15/43 76/15/43
f 20/15/42 80/16/45 79/16/45
f 80/16/45 20/15/42 18/15/42
f 77/16/44 73/11/46 71/11/46
f 73/11/46 77/16/44 78/16/44
f 79/16/45 72/11/47 74/11/47
f 72/11/47 79/16/45 80/16/45
f 18/15/10 72/11/10 80/16/10
f 72/11/10 18/15/10 71/11/10
f 71/11/10 18/15/10 75/15/10
f 71/11/10 75/15/10 77/16/10
f 73/11/12 79/16/12 74/11/12
f 79/16/12 73/11/12 20/15/12
f 20/15/12 73/11/12 76/15/12
f 76/15/12 73/11/12 78/16/12

