# Created by Kenney (www.kenney.nl)

mtllib stone-wall-curve.mtl

g stone-wall-curve

v 0.04445883 0.2 -0.3148402 1 1 1
v 0.1929646 0.2 -0.1929646 1 1 1
v 0.03723641 0.55 -0.3040311 1 1 1
v 0.1837723 0.55 -0.1837723 1 1 1
v 0.3148402 0.2 -0.04445883 1 1 1
v 0.3040311 0.55 -0.03723641 1 1 1
v -0.3088115 0.2 -0.4611696 1 1 1
v -0.1249702 0.2 -0.4054019 1 1 1
v -0.3113477 0.55 -0.4484194 1 1 1
v -0.1299451 0.55 -0.3933915 1 1 1
v 0.4611696 0.2 0.3088115 1 1 1
v 0.48 0.2 0.5 1 1 1
v 0.4484194 0.55 0.3113477 1 1 1
v 0.467 0.55 0.5 1 1 1
v -0.5 0.2 -0.48 1 1 1
v -0.5 0.55 -0.467 1 1 1
v 0.4054019 0.2 0.1249702 1 1 1
v 0.3933915 0.55 0.1299451 1 1 1
v 0.32 0.2 0.5 1 1 1
v 0.333 0.55 0.5 1 1 1
v -0.5 0.2 -0.32 1 1 1
v -0.5 0.55 -0.333 1 1 1
v 0.3169941 0.55 0.3374898 1 1 1
v 0.3042439 0.2 0.3400259 1 1 1
v 0.07982756 0.2 -0.07982756 1 1 1
v -0.04443241 0.2 -0.1818051 1 1 1
v 0.08901995 0.55 -0.08901995 1 1 1
v -0.03721 0.55 -0.1926142 1 1 1
v -0.1861996 0.2 -0.2575812 1 1 1
v -0.1812247 0.55 -0.2695917 1 1 1
v 0.1926142 0.55 0.03721 1 1 1
v 0.2695917 0.55 0.1812247 1 1 1
v 0.1818051 0.2 0.04443241 1 1 1
v 0.2575812 0.2 0.1861996 1 1 1
v -0.3400259 0.2 -0.3042439 1 1 1
v -0.3374898 0.55 -0.3169941 1 1 1
v 0.5 0 0.5 1 1 1
v 0.4807853 0 0.3049097 1 1 1
v 0.3 0 0.5 1 1 1
v 0.4238795 0 0.1173166 1 1 1
v 0.3314696 0 -0.05557023 1 1 1
v 0.2846282 0 0.3439277 1 1 1
v 0.2071068 0 -0.2071068 1 1 1
v 0.2391036 0 0.1938533 1 1 1
v 0.1651757 0 0.05554381 1 1 1
v 0.05557023 0 -0.3314696 1 1 1
v 0.06568542 0 -0.06568542 1 1 1
v -0.05554381 0 -0.1651757 1 1 1
v -0.1173166 0 -0.4238795 1 1 1
v -0.1938533 0 -0.2391036 1 1 1
v -0.3049097 0 -0.4807853 1 1 1
v -0.3439277 0 -0.2846282 1 1 1
v -0.5 0 -0.5 1 1 1
v -0.5 0 -0.3 1 1 1
v 0.06568542 0.18 -0.06568542 1 1 1
v -0.05554381 0.18 -0.1651757 1 1 1
v -0.1938533 0.18 -0.2391036 1 1 1
v -0.3439277 0.18 -0.2846282 1 1 1
v 0.1651757 0.18 0.05554381 1 1 1
v 0.2071068 0.18 -0.2071068 1 1 1
v 0.3314696 0.18 -0.05557023 1 1 1
v -0.3049097 0.18 -0.4807853 1 1 1
v -0.1173166 0.18 -0.4238795 1 1 1
v 0.4807853 0.18 0.3049097 1 1 1
v 0.5 0.18 0.5 1 1 1
v -0.5 0.18 -0.5 1 1 1
v 0.2846282 0.18 0.3439277 1 1 1
v 0.3 0.18 0.5 1 1 1
v -0.5 0.18 -0.3 1 1 1
v 0.05557023 0.18 -0.3314696 1 1 1
v 0.2391036 0.18 0.1938533 1 1 1
v 0.4238795 0.18 0.1173166 1 1 1
v 0.4611696 0.2 0.3088115 1 1 1
v 0.4054019 0.2 0.1249702 1 1 1
v -0.1249702 0.2 -0.4054019 1 1 1
v -0.3088115 0.2 -0.4611696 1 1 1
v -0.5 0.2 -0.48 1 1 1
v 0.48 0.2 0.5 1 1 1
v 0.2575812 0.2 0.1861996 1 1 1
v 0.32 0.2 0.5 1 1 1
v -0.5 0.2 -0.32 1 1 1
v 0.1818051 0.2 0.04443241 1 1 1
v -0.1861996 0.2 -0.2575812 1 1 1
v 0.07982755 0.2 -0.07982755 1 1 1
v -0.04443241 0.2 -0.1818051 1 1 1
v 0.1929646 0.7 -0.1929646 1 1 1
v 0.1363961 0.725 -0.1363961 1 1 1
v 0.04445883 0.7 -0.3148402 1 1 1
v 1.320972E-05 0.725 -0.2483227 1 1 1
v 0.4611696 0.7 0.3088115 1 1 1
v 0.3827068 0.725 0.3244187 1 1 1
v 0.4054019 0.7 0.1249702 1 1 1
v 0.3314916 0.725 0.1555849 1 1 1
v 0.48 0.7 0.5 1 1 1
v 0.4 0.725 0.5 1 1 1
v 0.3148402 0.7 -0.04445883 1 1 1
v 0.2483227 0.725 -1.320972E-05 1 1 1
v -0.1249702 0.7 -0.4054019 1 1 1
v -0.1555849 0.725 -0.3314916 1 1 1
v -0.3088115 0.7 -0.4611696 1 1 1
v -0.3244187 0.725 -0.3827068 1 1 1
v -0.5 0.7 -0.48 1 1 1
v -0.5 0.725 -0.4 1 1 1
v 0.3042439 0.7 0.3400259 1 1 1
v 0.2575812 0.7 0.1861996 1 1 1
v 0.1818051 0.7 0.04443241 1 1 1
v 0.07982755 0.7 -0.07982755 1 1 1
v 0.32 0.7 0.5 1 1 1
v -0.3400259 0.7 -0.3042439 1 1 1
v -0.5 0.7 -0.32 1 1 1
v -0.04443241 0.7 -0.1818051 1 1 1
v -0.1861996 0.7 -0.2575812 1 1 1
v 0.4807853 0.68 0.3049097 1 1 1
v 0.5 0.68 0.5 1 1 1
v -0.5 0.68 -0.5 1 1 1
v -0.5 0.57 -0.487 1 1 1
v -0.5 0.55 -0.467 1 1 1
v -0.5 0.55 -0.333 1 1 1
v -0.5 0.57 -0.313 1 1 1
v -0.5 0.68 -0.3 1 1 1
v 0.4238795 0.68 0.1173166 1 1 1
v 0.05557023 0.68 -0.3314696 1 1 1
v -0.1173166 0.68 -0.4238795 1 1 1
v 0.3314696 0.68 -0.05557023 1 1 1
v 0.2071068 0.68 -0.2071068 1 1 1
v -0.3049097 0.68 -0.4807853 1 1 1
v -0.1222915 0.57 -0.4118691 1 1 1
v -0.3074458 0.57 -0.4680351 1 1 1
v -0.1299451 0.55 -0.3933915 1 1 1
v -0.3113477 0.55 -0.4484194 1 1 1
v 0.04834782 0.57 -0.3206605 1 1 1
v 0.03723641 0.55 -0.3040311 1 1 1
v 0.3206605 0.57 -0.04834782 1 1 1
v 0.1979144 0.57 -0.1979144 1 1 1
v 0.3040311 0.55 -0.03723641 1 1 1
v 0.1837723 0.55 -0.1837723 1 1 1
v 0.4680351 0.57 0.3074458 1 1 1
v 0.4118691 0.57 0.1222915 1 1 1
v 0.4484194 0.55 0.3113477 1 1 1
v 0.3933915 0.55 0.1299451 1 1 1
v 0.2973784 0.57 0.3413916 1 1 1
v 0.2846282 0.68 0.3439277 1 1 1
v 0.313 0.57 0.5 1 1 1
v 0.3 0.68 0.5 1 1 1
v 0.1759848 0.57 0.0483214 1 1 1
v 0.1651757 0.68 0.05554381 1 1 1
v 0.251114 0.57 0.1888784 1 1 1
v 0.2391036 0.68 0.1938533 1 1 1
v -0.3439277 0.68 -0.2846282 1 1 1
v 0.06568542 0.68 -0.06568542 1 1 1
v -0.05554381 0.68 -0.1651757 1 1 1
v -0.1938533 0.68 -0.2391036 1 1 1
v 0.487 0.57 0.5 1 1 1
v 0.1926142 0.55 0.03721 1 1 1
v 0.07487781 0.57 -0.07487781 1 1 1
v -0.03721 0.55 -0.1926142 1 1 1
v -0.0483214 0.57 -0.1759848 1 1 1
v 0.467 0.55 0.5 1 1 1
v 0.333 0.55 0.5 1 1 1
v -0.3413916 0.57 -0.2973784 1 1 1
v -0.1888784 0.57 -0.251114 1 1 1

vn 0.5551875 0.03711726 -0.8308967
vn 0.7066195 0.03711726 -0.7066195
vn 0.8308967 0.03711726 -0.5551875
vn 0.1949559 0.03711726 -0.9801095
vn 0.3824197 0.03711726 -0.9232429
vn 0.9801095 0.03711726 -0.1949559
vn 0.9945056 0.03693878 -0.09795026
vn 0.09795026 0.03693878 -0.9945056
vn 0.9232429 0.03711726 -0.3824197
vn 0 0 1
vn -1 0 0
vn -0.9801095 0.03711726 0.1949559
vn -0.9945056 0.03693878 0.09795026
vn -0.7066195 0.03711726 0.7066195
vn -0.5551875 0.03711726 0.8308967
vn -0.3824197 0.03711726 0.9232429
vn -0.8308967 0.03711726 0.5551875
vn -0.9232429 0.03711726 0.3824197
vn -0.1949559 0.03711726 0.9801095
vn -0.09795026 0.03693878 0.9945056
vn 0 -1 0
vn -0.7071068 0 0.7071068
vn -0.5555702 0 0.8314696
vn -0.6506963 0.3913933 0.6506963
vn -0.5112488 0.3913933 0.7651379
vn -0.3826834 0 0.9238795
vn -0.1950903 0 0.9807853
vn -0.3521543 0.3913932 0.8501757
vn -0.1795267 0.3913933 0.9025417
vn -0.8314696 0 0.5555702
vn -0.7651379 0.3913933 0.5112488
vn 0.6556516 0.374489 -0.6556516
vn 0.7071068 0 -0.7071068
vn 0.7709646 0.374489 -0.5151421
vn 0.8314696 0 -0.5555702
vn 0.1950903 0 -0.9807853
vn 0.3826834 0 -0.9238795
vn 0.1808939 0.3744891 -0.9094148
vn 0.3548361 0.3744891 -0.8566501
vn 0.9094148 0.3744891 -0.1808939
vn 0.9807853 0 -0.1950903
vn 0.9233887 0.3729371 -0.09094586
vn 0.9951847 0 -0.09801714
vn 0.09801714 0 -0.9951847
vn 0.09094586 0.3729371 -0.9233887
vn -0.9807853 0 0.1950903
vn -0.9025417 0.3913933 0.1795267
vn -0.9951847 0 0.09801714
vn -0.9164671 0.3897956 0.09026413
vn -0.09801714 0 0.9951847
vn -0.09026413 0.3897956 0.9164671
vn 0.5555702 0 -0.8314696
vn 0.5151421 0.374489 -0.7709646
vn -0.9238795 0 0.3826834
vn -0.8501757 0.3913932 0.3521543
vn 0.8566501 0.3744891 -0.3548361
vn 0.9238795 0 -0.3826834
vn 0.5 0.7071068 -0.5
vn 0.3928475 0.7071068 -0.5879378
vn 0.6935199 0.7071068 -0.1379497
vn 0.6532815 0.7071068 -0.2705981
vn 0.2705981 0.7071068 -0.6532815
vn 0.1379497 0.7071068 -0.6935199
vn 0.06947567 0.7053982 -0.7053982
vn 0.5879378 0.7071068 -0.3928475
vn 0.7053982 0.7053982 -0.06947567
vn -0.6935199 0.7071068 0.1379497
vn -0.6532815 0.7071068 0.2705981
vn -0.7053982 0.7053982 0.06947567
vn -0.1379497 0.7071068 0.6935199
vn -0.06947567 0.7053982 0.7053982
vn -0.5879378 0.7071068 0.3928475
vn -0.2705981 0.7071068 0.6532815
vn -0.5 0.7071068 0.5
vn -0.3928475 0.7071068 0.5879378
vn 0.3736666 0.8489679 -0.3736666
vn 0.01317784 0.9998264 -0.01317784
vn 0.293588 0.8489679 -0.4393854
vn 0.01035376 0.9998264 -0.0154955
vn 0.5182905 0.8489679 -0.1030944
vn 0.01827819 0.9998264 -0.003635758
vn 0.488219 0.8489679 -0.2022269
vn 0.01721768 0.9998264 -0.007131795
vn 0.52773 0.8478203 -0.05197687
vn 0.01863625 0.9998247 -0.00183551
vn 0.4393854 0.8489679 -0.293588
vn 0.0154955 0.9998264 -0.01035376
vn 0.2022269 0.8489679 -0.488219
vn 0.007131795 0.9998264 -0.01721768
vn 0.1030944 0.8489679 -0.5182905
vn 0.003635758 0.9998264 -0.01827819
vn 0.05197687 0.8478203 -0.52773
vn 0.00183551 0.9998247 -0.01863625
vn -0.4968567 0.8621867 0.09883093
vn -0.4680288 0.8621867 0.1938639
vn -0.4212148 0.8621867 0.2814467
vn -0.3582137 0.8621867 0.3582137
vn -0.5059612 0.8611155 0.04983283
vn -0.09883093 0.8621867 0.4968567
vn -0.04983283 0.8611155 0.5059612
vn -0.2814467 0.8621867 0.4212148
vn -0.1938639 0.8621867 0.4680288
vn 0.2705981 -0.7071068 -0.6532815
vn 0.1379497 -0.7071068 -0.6935199
vn 0.3928475 -0.7071068 -0.5879378
vn 0.5879378 -0.7071068 -0.3928475
vn 0.5 -0.7071068 -0.5
vn 0.06947567 -0.7053982 -0.7053982
vn 0.6935199 -0.7071068 -0.1379497
vn 0.6532815 -0.7071068 -0.2705981
vn -0.9740069 -0.117365 0.193742
vn -0.9883723 -0.1168076 0.09734618
vn -0.8257232 -0.1173651 0.5517306
vn -0.9174945 -0.117365 0.3800386
vn 0.7022198 -0.1173651 -0.7022198
vn 0.8257232 -0.1173651 -0.5517306
vn 0.3800386 -0.117365 -0.9174945
vn 0.5517306 -0.1173651 -0.8257232
vn 0.9174945 -0.117365 -0.3800386
vn 0.9740069 -0.117365 -0.193742
vn 0.193742 -0.117365 -0.9740069
vn 0.09734618 -0.1168076 -0.9883723
vn 0.9883723 -0.1168076 -0.09734618
vn -0.6532815 -0.7071068 0.2705981
vn -0.5879378 -0.7071068 0.3928475
vn -0.5 -0.7071068 0.5
vn -0.3928475 -0.7071068 0.5879378
vn -0.7022198 -0.1173651 0.7022198
vn -0.193742 -0.117365 0.9740069
vn -0.09734618 -0.1168076 0.9883723
vn -0.1379497 -0.7071068 0.6935199
vn -0.06947567 -0.7053982 0.7053982
vn -0.7053982 -0.7053982 0.06947567
vn -0.6935199 -0.7071068 0.1379497
vn -0.5517306 -0.1173651 0.8257232
vn -0.3800386 -0.117365 0.9174945
vn -0.2705981 -0.7071068 0.6532815
vn 0.7053982 -0.7053982 -0.06947567

vt 0.09375 0.225
vt 0.09375 0.025
vt 0.96875 0.075
vt 0.96875 0.165
vt 0.96875 0.175
vt 0.96875 0.1607143
vt 0.96875 0.1492857
vt 0.96875 0.08642857

usemtl colormap

f 3/2/1 2/1/2 1/1/1
f 2/1/2 3/2/1 4/2/2
f 4/2/2 5/1/3 2/1/2
f 5/1/3 4/2/2 6/2/3
f 9/2/4 8/1/5 7/1/4
f 8/1/5 9/2/4 10/2/5
f 13/2/6 12/1/7 11/1/6
f 12/1/7 13/2/6 14/2/7
f 16/2/8 7/1/4 15/1/8
f 7/1/4 16/2/8 9/2/4
f 18/2/9 11/1/6 17/1/9
f 11/1/6 18/2/9 13/2/6
f 10/2/5 1/1/1 8/1/5
f 1/1/1 10/2/5 3/2/1
f 6/2/3 17/1/9 5/1/3
f 17/1/9 6/2/3 18/2/9
f 14/2/10 19/1/10 12/1/10
f 19/1/10 14/2/10 20/2/10
f 21/1/11 16/2/11 15/1/11
f 16/2/11 21/1/11 22/2/11
f 24/1/12 20/2/13 23/2/12
f 20/2/13 24/1/12 19/1/13
f 27/2/14 26/1/15 25/1/14
f 26/1/15 27/2/14 28/2/15
f 28/2/15 29/1/16 26/1/15
f 29/1/16 28/2/15 30/2/16
f 33/1/17 32/2/18 31/2/17
f 32/2/18 33/1/17 34/1/18
f 34/1/18 23/2/12 32/2/18
f 23/2/12 34/1/18 24/1/12
f 30/2/16 35/1/19 29/1/16
f 35/1/19 30/2/16 36/2/19
f 25/1/14 31/2/17 27/2/14
f 31/2/17 25/1/14 33/1/17
f 36/2/19 21/1/20 35/1/19
f 21/1/20 36/2/19 22/2/20
f 39/3/21 38/3/21 37/3/21
f 38/3/21 39/3/21 40/3/21
f 40/3/21 39/3/21 41/3/21
f 41/3/21 39/3/21 42/3/21
f 41/3/21 42/3/21 43/3/21
f 43/3/21 42/3/21 44/3/21
f 43/3/21 44/3/21 45/3/21
f 43/3/21 45/3/21 46/3/21
f 46/3/21 45/3/21 47/3/21
f 46/3/21 47/3/21 48/3/21
f 46/3/21 48/3/21 49/3/21
f 49/3/21 48/3/21 50/3/21
f 49/3/21 50/3/21 51/3/21
f 51/3/21 50/3/21 52/3/21
f 51/3/21 52/3/21 53/3/21
f 53/3/21 52/3/21 54/3/21
f 55/4/24 48/3/23 47/3/22
f 48/3/23 55/4/24 56/4/25
f 57/4/28 52/3/27 50/3/26
f 52/3/27 57/4/28 58/4/29
f 45/3/30 55/4/24 47/3/22
f 55/4/24 45/3/30 59/4/31
f 56/4/25 50/3/26 48/3/23
f 50/3/26 56/4/25 57/4/28
f 61/4/34 43/3/33 60/4/32
f 43/3/33 61/4/34 41/3/35
f 62/4/38 49/3/37 51/3/36
f 49/3/37 62/4/38 63/4/39
f 65/4/42 38/3/41 64/4/40
f 38/3/41 65/4/42 37/3/43
f 66/4/45 51/3/36 53/3/44
f 51/3/36 66/4/45 62/4/38
f 39/3/48 67/4/47 42/3/46
f 67/4/47 39/3/48 68/4/49
f 58/4/29 54/3/50 52/3/27
f 54/3/50 58/4/29 69/4/51
f 63/4/39 46/3/52 49/3/37
f 46/3/52 63/4/39 70/4/53
f 42/3/46 71/4/55 44/3/54
f 71/4/55 42/3/46 67/4/47
f 44/3/54 59/4/31 45/3/30
f 59/4/31 44/3/54 71/4/55
f 72/4/56 41/3/35 61/4/34
f 41/3/35 72/4/56 40/3/57
f 64/4/40 40/3/57 72/4/56
f 40/3/57 64/4/40 38/3/41
f 70/4/53 43/3/33 46/3/52
f 43/3/33 70/4/53 60/4/32
f 70/4/53 2/5/58 60/4/32
f 2/5/58 70/4/53 1/5/59
f 72/4/56 73/5/60 64/4/40
f 73/5/60 72/4/56 74/5/61
f 62/4/38 75/5/62 63/4/39
f 75/5/62 62/4/38 76/5/63
f 77/5/64 62/4/38 66/4/45
f 62/4/38 77/5/64 76/5/63
f 60/4/32 5/5/65 61/4/34
f 5/5/65 60/4/32 2/5/58
f 61/4/34 74/5/61 72/4/56
f 74/5/61 61/4/34 5/5/65
f 63/4/39 1/5/59 70/4/53
f 1/5/59 63/4/39 75/5/62
f 73/5/60 65/4/42 64/4/40
f 65/4/42 73/5/60 78/5/66
f 79/5/68 67/4/47 24/5/67
f 67/4/47 79/5/68 71/4/55
f 67/4/47 80/5/69 24/5/67
f 80/5/69 67/4/47 68/4/49
f 81/5/71 58/4/29 35/5/70
f 58/4/29 81/5/71 69/4/51
f 82/5/72 71/4/55 79/5/68
f 71/4/55 82/5/72 59/4/31
f 35/5/70 57/4/28 83/5/73
f 57/4/28 35/5/70 58/4/29
f 85/5/75 55/4/24 84/5/74
f 55/4/24 85/5/75 56/4/25
f 83/5/73 56/4/25 85/5/75
f 56/4/25 83/5/73 57/4/28
f 84/5/74 59/4/31 82/5/72
f 59/4/31 84/5/74 55/4/24
f 65/4/10 39/3/10 37/3/10
f 39/3/10 65/4/10 68/4/10
f 68/4/10 65/4/10 78/5/10
f 68/4/10 78/5/10 80/5/10
f 54/3/11 66/4/11 53/3/11
f 66/4/11 54/3/11 77/5/11
f 77/5/11 54/3/11 81/5/11
f 81/5/11 54/3/11 69/4/11
f 88/6/78 87/5/77 86/6/76
f 87/5/77 88/6/78 89/5/79
f 92/6/82 91/5/81 90/6/80
f 91/5/81 92/6/82 93/5/83
f 90/6/80 95/5/85 94/6/84
f 95/5/85 90/6/80 91/5/81
f 86/6/76 97/5/87 96/6/86
f 97/5/87 86/6/76 87/5/77
f 96/6/86 93/5/83 92/6/82
f 93/5/83 96/6/86 97/5/87
f 98/6/88 89/5/79 88/6/78
f 89/5/79 98/6/88 99/5/89
f 100/6/90 99/5/89 98/6/88
f 99/5/89 100/6/90 101/5/91
f 102/6/92 101/5/91 100/6/90
f 101/5/91 102/6/92 103/5/93
f 93/5/83 104/6/94 91/5/81
f 104/6/94 93/5/83 105/6/95
f 87/5/77 106/6/96 97/5/87
f 106/6/96 87/5/77 107/6/97
f 97/5/87 105/6/95 93/5/83
f 105/6/95 97/5/87 106/6/96
f 91/5/81 108/6/98 95/5/85
f 108/6/98 91/5/81 104/6/94
f 103/5/93 109/6/99 101/5/91
f 109/6/99 103/5/93 110/6/100
f 99/5/89 111/6/101 89/5/79
f 111/6/101 99/5/89 112/6/102
f 89/5/79 107/6/97 87/5/77
f 107/6/97 89/5/79 111/6/101
f 101/5/91 112/6/102 99/5/89
f 112/6/102 101/5/91 109/6/99
f 90/6/80 114/7/66 113/7/60
f 114/7/66 90/6/80 94/6/84
f 116/8/11 102/6/11 115/7/11
f 102/6/11 116/8/11 117/3/11
f 102/6/11 117/3/11 103/5/11
f 103/5/11 117/3/11 118/3/11
f 103/5/11 118/3/11 110/6/11
f 110/6/11 118/3/11 119/8/11
f 110/6/11 119/8/11 120/7/11
f 121/7/61 90/6/80 113/7/60
f 90/6/80 121/7/61 92/6/82
f 123/7/62 88/6/78 122/7/59
f 88/6/78 123/7/62 98/6/88
f 125/7/58 96/6/86 124/7/65
f 96/6/86 125/7/58 86/6/76
f 124/7/65 92/6/82 121/7/61
f 92/6/82 124/7/65 96/6/86
f 122/7/59 86/6/76 125/7/58
f 86/6/76 122/7/59 88/6/78
f 102/6/92 126/7/63 115/7/64
f 126/7/63 102/6/92 100/6/90
f 126/7/63 98/6/88 123/7/62
f 98/6/88 126/7/63 100/6/90
f 129/3/103 128/8/104 127/8/103
f 128/8/104 129/3/103 130/3/104
f 132/3/105 127/8/103 131/8/105
f 127/8/103 132/3/105 129/3/103
f 135/3/106 134/8/107 133/8/106
f 134/8/107 135/3/106 136/3/107
f 130/3/104 116/8/108 128/8/104
f 116/8/108 130/3/104 117/3/108
f 136/3/107 131/8/105 134/8/107
f 131/8/105 136/3/107 132/3/105
f 139/3/109 138/8/110 137/8/109
f 138/8/110 139/3/109 140/3/110
f 140/3/110 133/8/106 138/8/110
f 133/8/106 140/3/110 135/3/106
f 143/8/112 142/7/111 141/8/111
f 142/7/111 143/8/112 144/7/112
f 147/8/114 146/7/113 145/8/113
f 146/7/113 147/8/114 148/7/114
f 110/6/100 149/7/70 109/6/99
f 149/7/70 110/6/100 120/7/71
f 124/7/116 134/8/115 125/7/115
f 134/8/115 124/7/116 133/8/116
f 107/6/97 146/7/72 106/6/96
f 146/7/72 107/6/97 150/7/74
f 111/6/101 150/7/74 107/6/97
f 150/7/74 111/6/101 151/7/75
f 106/6/96 148/7/68 105/6/95
f 148/7/68 106/6/96 146/7/72
f 109/6/99 152/7/73 112/6/102
f 152/7/73 109/6/99 149/7/70
f 112/6/102 151/7/75 111/6/101
f 151/7/75 112/6/102 152/7/73
f 105/6/95 142/7/67 104/6/94
f 142/7/67 105/6/95 148/7/68
f 104/6/94 144/7/69 108/6/98
f 144/7/69 104/6/94 142/7/67
f 123/7/117 131/8/118 127/8/117
f 131/8/118 123/7/117 122/7/118
f 121/7/119 133/8/116 124/7/116
f 133/8/116 121/7/119 138/8/119
f 113/7/120 138/8/119 121/7/119
f 138/8/119 113/7/120 137/8/120
f 126/7/121 127/8/117 128/8/121
f 127/8/117 126/7/121 123/7/117
f 122/7/118 134/8/115 131/8/118
f 134/8/115 122/7/118 125/7/115
f 115/7/122 128/8/121 116/8/122
f 128/8/121 115/7/122 126/7/121
f 114/7/123 137/8/120 113/7/120
f 137/8/120 114/7/123 153/8/123
f 147/8/124 154/3/125 32/3/124
f 154/3/125 147/8/124 145/8/125
f 145/8/125 27/3/126 154/3/125
f 27/3/126 145/8/125 155/8/126
f 155/8/126 156/3/127 27/3/126
f 156/3/127 155/8/126 157/8/127
f 153/8/10 159/3/10 158/3/10
f 159/3/10 153/8/10 143/8/10
f 143/8/10 153/8/10 114/7/10
f 143/8/10 114/7/10 144/7/10
f 144/7/10 114/7/10 94/6/10
f 144/7/10 94/6/10 108/6/10
f 108/6/10 94/6/10 95/5/10
f 145/8/113 150/7/128 155/8/128
f 150/7/128 145/8/113 146/7/113
f 149/7/129 119/8/130 160/8/129
f 119/8/130 149/7/129 120/7/130
f 160/8/131 118/3/132 36/3/131
f 118/3/132 160/8/131 119/8/132
f 143/8/133 23/3/134 159/3/133
f 23/3/134 143/8/133 141/8/134
f 141/8/111 148/7/114 147/8/114
f 148/7/114 141/8/111 142/7/111
f 141/8/134 32/3/124 23/3/134
f 32/3/124 141/8/134 147/8/124
f 151/7/135 161/8/136 157/8/135
f 161/8/136 151/7/135 152/7/136
f 157/8/127 30/3/137 156/3/127
f 30/3/137 157/8/127 161/8/137
f 152/7/136 160/8/129 161/8/136
f 160/8/129 152/7/136 149/7/129
f 161/8/137 36/3/131 30/3/137
f 36/3/131 161/8/137 160/8/131
f 150/7/128 157/8/135 155/8/128
f 157/8/135 150/7/128 151/7/135
f 153/8/138 139/3/109 137/8/109
f 139/3/109 153/8/138 158/3/138

g stone-wall-curve




usemtl colormap

f 3/2/1 2/1/2 1/1/1
f 2/1/2 3/2/1 4/2/2
f 4/2/2 5/1/3 2/1/2
f 5/1/3 4/2/2 6/2/3
f 9/2/4 8/1/5 7/1/4
f 8/1/5 9/2/4 10/2/5
f 13/2/6 12/1/7 11/1/6
f 12/1/7 13/2/6 14/2/7
f 16/2/8 7/1/4 15/1/8
f 7/1/4 16/2/8 9/2/4
f 18/2/9 11/1/6 17/1/9
f 11/1/6 18/2/9 13/2/6
f 10/2/5 1/1/1 8/1/5
f 1/1/1 10/2/5 3/2/1
f 6/2/3 17/1/9 5/1/3
f 17/1/9 6/2/3 18/2/9
f 14/2/10 19/1/10 12/1/10
f 19/1/10 14/2/10 20/2/10
f 21/1/11 16/2/11 15/1/11
f 16/2/11 21/1/11 22/2/11
f 24/1/12 20/2/13 23/2/12
f 20/2/13 24/1/12 19/1/13
f 27/2/14 26/1/15 25/1/14
f 26/1/15 27/2/14 28/2/15
f 28/2/15 29/1/16 26/1/15
f 29/1/16 28/2/15 30/2/16
f 33/1/17 32/2/18 31/2/17
f 32/2/18 33/1/17 34/1/18
f 34/1/18 23/2/12 32/2/18
f 23/2/12 34/1/18 24/1/12
f 30/2/16 35/1/19 29/1/16
f 35/1/19 30/2/16 36/2/19
f 25/1/14 31/2/17 27/2/14
f 31/2/17 25/1/14 33/1/17
f 36/2/19 21/1/20 35/1/19
f 21/1/20 36/2/19 22/2/20
f 39/3/21 38/3/21 37/3/21
f 38/3/21 39/3/21 40/3/21
f 40/3/21 39/3/21 41/3/21
f 41/3/21 39/3/21 42/3/21
f 41/3/21 42/3/21 43/3/21
f 43/3/21 42/3/21 44/3/21
f 43/3/21 44/3/21 45/3/21
f 43/3/21 45/3/21 46/3/21
f 46/3/21 45/3/21 47/3/21
f 46/3/21 47/3/21 48/3/21
f 46/3/21 48/3/21 49/3/21
f 49/3/21 48/3/21 50/3/21
f 49/3/21 50/3/21 51/3/21
f 51/3/21 50/3/21 52/3/21
f 51/3/21 52/3/21 53/3/21
f 53/3/21 52/3/21 54/3/21
f 55/4/24 48/3/23 47/3/22
f 48/3/23 55/4/24 56/4/25
f 57/4/28 52/3/27 50/3/26
f 52/3/27 57/4/28 58/4/29
f 45/3/30 55/4/24 47/3/22
f 55/4/24 45/3/30 59/4/31
f 56/4/25 50/3/26 48/3/23
f 50/3/26 56/4/25 57/4/28
f 61/4/34 43/3/33 60/4/32
f 43/3/33 61/4/34 41/3/35
f 62/4/38 49/3/37 51/3/36
f 49/3/37 62/4/38 63/4/39
f 65/4/42 38/3/41 64/4/40
f 38/3/41 65/4/42 37/3/43
f 66/4/45 51/3/36 53/3/44
f 51/3/36 66/4/45 62/4/38
f 39/3/48 67/4/47 42/3/46
f 67/4/47 39/3/48 68/4/49
f 58/4/29 54/3/50 52/3/27
f 54/3/50 58/4/29 69/4/51
f 63/4/39 46/3/52 49/3/37
f 46/3/52 63/4/39 70/4/53
f 42/3/46 71/4/55 44/3/54
f 71/4/55 42/3/46 67/4/47
f 44/3/54 59/4/31 45/3/30
f 59/4/31 44/3/54 71/4/55
f 72/4/56 41/3/35 61/4/34
f 41/3/35 72/4/56 40/3/57
f 64/4/40 40/3/57 72/4/56
f 40/3/57 64/4/40 38/3/41
f 70/4/53 43/3/33 46/3/52
f 43/3/33 70/4/53 60/4/32
f 70/4/53 2/5/58 60/4/32
f 2/5/58 70/4/53 1/5/59
f 72/4/56 73/5/60 64/4/40
f 73/5/60 72/4/56 74/5/61
f 62/4/38 75/5/62 63/4/39
f 75/5/62 62/4/38 76/5/63
f 77/5/64 62/4/38 66/4/45
f 62/4/38 77/5/64 76/5/63
f 60/4/32 5/5/65 61/4/34
f 5/5/65 60/4/32 2/5/58
f 61/4/34 74/5/61 72/4/56
f 74/5/61 61/4/34 5/5/65
f 63/4/39 1/5/59 70/4/53
f 1/5/59 63/4/39 75/5/62
f 73/5/60 65/4/42 64/4/40
f 65/4/42 73/5/60 78/5/66
f 79/5/68 67/4/47 24/5/67
f 67/4/47 79/5/68 71/4/55
f 67/4/47 80/5/69 24/5/67
f 80/5/69 67/4/47 68/4/49
f 81/5/71 58/4/29 35/5/70
f 58/4/29 81/5/71 69/4/51
f 82/5/72 71/4/55 79/5/68
f 71/4/55 82/5/72 59/4/31
f 35/5/70 57/4/28 83/5/73
f 57/4/28 35/5/70 58/4/29
f 85/5/75 55/4/24 84/5/74
f 55/4/24 85/5/75 56/4/25
f 83/5/73 56/4/25 85/5/75
f 56/4/25 83/5/73 57/4/28
f 84/5/74 59/4/31 82/5/72
f 59/4/31 84/5/74 55/4/24
f 65/4/10 39/3/10 37/3/10
f 39/3/10 65/4/10 68/4/10
f 68/4/10 65/4/10 78/5/10
f 68/4/10 78/5/10 80/5/10
f 54/3/11 66/4/11 53/3/11
f 66/4/11 54/3/11 77/5/11
f 77/5/11 54/3/11 81/5/11
f 81/5/11 54/3/11 69/4/11
f 88/6/78 87/5/77 86/6/76
f 87/5/77 88/6/78 89/5/79
f 92/6/82 91/5/81 90/6/80
f 91/5/81 92/6/82 93/5/83
f 90/6/80 95/5/85 94/6/84
f 95/5/85 90/6/80 91/5/81
f 86/6/76 97/5/87 96/6/86
f 97/5/87 86/6/76 87/5/77
f 96/6/86 93/5/83 92/6/82
f 93/5/83 96/6/86 97/5/87
f 98/6/88 89/5/79 88/6/78
f 89/5/79 98/6/88 99/5/89
f 100/6/90 99/5/89 98/6/88
f 99/5/89 100/6/90 101/5/91
f 102/6/92 101/5/91 100/6/90
f 101/5/91 102/6/92 103/5/93
f 93/5/83 104/6/94 91/5/81
f 104/6/94 93/5/83 105/6/95
f 87/5/77 106/6/96 97/5/87
f 106/6/96 87/5/77 107/6/97
f 97/5/87 105/6/95 93/5/83
f 105/6/95 97/5/87 106/6/96
f 91/5/81 108/6/98 95/5/85
f 108/6/98 91/5/81 104/6/94
f 103/5/93 109/6/99 101/5/91
f 109/6/99 103/5/93 110/6/100
f 99/5/89 111/6/101 89/5/79
f 111/6/101 99/5/89 112/6/102
f 89/5/79 107/6/97 87/5/77
f 107/6/97 89/5/79 111/6/101
f 101/5/91 112/6/102 99/5/89
f 112/6/102 101/5/91 109/6/99
f 90/6/80 114/7/66 113/7/60
f 114/7/66 90/6/80 94/6/84
f 116/8/11 102/6/11 115/7/11
f 102/6/11 116/8/11 117/3/11
f 102/6/11 117/3/11 103/5/11
f 103/5/11 117/3/11 118/3/11
f 103/5/11 118/3/11 110/6/11
f 110/6/11 118/3/11 119/8/11
f 110/6/11 119/8/11 120/7/11
f 121/7/61 90/6/80 113/7/60
f 90/6/80 121/7/61 92/6/82
f 123/7/62 88/6/78 122/7/59
f 88/6/78 123/7/62 98/6/88
f 125/7/58 96/6/86 124/7/65
f 96/6/86 125/7/58 86/6/76
f 124/7/65 92/6/82 121/7/61
f 92/6/82 124/7/65 96/6/86
f 122/7/59 86/6/76 125/7/58
f 86/6/76 122/7/59 88/6/78
f 102/6/92 126/7/63 115/7/64
f 126/7/63 102/6/92 100/6/90
f 126/7/63 98/6/88 123/7/62
f 98/6/88 126/7/63 100/6/90
f 129/3/103 128/8/104 127/8/103
f 128/8/104 129/3/103 130/3/104
f 132/3/105 127/8/103 131/8/105
f 127/8/103 132/3/105 129/3/103
f 135/3/106 134/8/107 133/8/106
f 134/8/107 135/3/106 136/3/107
f 130/3/104 116/8/108 128/8/104
f 116/8/108 130/3/104 117/3/108
f 136/3/107 131/8/105 134/8/107
f 131/8/105 136/3/107 132/3/105
f 139/3/109 138/8/110 137/8/109
f 138/8/110 139/3/109 140/3/110
f 140/3/110 133/8/106 138/8/110
f 133/8/106 140/3/110 135/3/106
f 143/8/112 142/7/111 141/8/111
f 142/7/111 143/8/112 144/7/112
f 147/8/114 146/7/113 145/8/113
f 146/7/113 147/8/114 148/7/114
f 110/6/100 149/7/70 109/6/99
f 149/7/70 110/6/100 120/7/71
f 124/7/116 134/8/115 125/7/115
f 134/8/115 124/7/116 133/8/116
f 107/6/97 146/7/72 106/6/96
f 146/7/72 107/6/97 150/7/74
f 111/6/101 150/7/74 107/6/97
f 150/7/74 111/6/101 151/7/75
f 106/6/96 148/7/68 105/6/95
f 148/7/68 106/6/96 146/7/72
f 109/6/99 152/7/73 112/6/102
f 152/7/73 109/6/99 149/7/70
f 112/6/102 151/7/75 111/6/101
f 151/7/75 112/6/102 152/7/73
f 105/6/95 142/7/67 104/6/94
f 142/7/67 105/6/95 148/7/68
f 104/6/94 144/7/69 108/6/98
f 144/7/69 104/6/94 142/7/67
f 123/7/117 131/8/118 127/8/117
f 131/8/118 123/7/117 122/7/118
f 121/7/119 133/8/116 124/7/116
f 133/8/116 121/7/119 138/8/119
f 113/7/120 138/8/119 121/7/119
f 138/8/119 113/7/120 137/8/120
f 126/7/121 127/8/117 128/8/121
f 127/8/117 126/7/121 123/7/117
f 122/7/118 134/8/115 131/8/118
f 134/8/115 122/7/118 125/7/115
f 115/7/122 128/8/121 116/8/122
f 128/8/121 115/7/122 126/7/121
f 114/7/123 137/8/120 113/7/120
f 137/8/120 114/7/123 153/8/123
f 147/8/124 154/3/125 32/3/124
f 154/3/125 147/8/124 145/8/125
f 145/8/125 27/3/126 154/3/125
f 27/3/126 145/8/125 155/8/126
f 155/8/126 156/3/127 27/3/126
f 156/3/127 155/8/126 157/8/127
f 153/8/10 159/3/10 158/3/10
f 159/3/10 153/8/10 143/8/10
f 143/8/10 153/8/10 114/7/10
f 143/8/10 114/7/10 144/7/10
f 144/7/10 114/7/10 94/6/10
f 144/7/10 94/6/10 108/6/10
f 108/6/10 94/6/10 95/5/10
f 145/8/113 150/7/128 155/8/128
f 150/7/128 145/8/113 146/7/113
f 149/7/129 119/8/130 160/8/129
f 119/8/130 149/7/129 120/7/130
f 160/8/131 118/3/132 36/3/131
f 118/3/132 160/8/131 119/8/132
f 143/8/133 23/3/134 159/3/133
f 23/3/134 143/8/133 141/8/134
f 141/8/111 148/7/114 147/8/114
f 148/7/114 141/8/111 142/7/111
f 141/8/134 32/3/124 23/3/134
f 32/3/124 141/8/134 147/8/124
f 151/7/135 161/8/136 157/8/135
f 161/8/136 151/7/135 152/7/136
f 157/8/127 30/3/137 156/3/127
f 30/3/137 157/8/127 161/8/137
f 152/7/136 160/8/129 161/8/136
f 160/8/129 152/7/136 149/7/129
f 161/8/137 36/3/131 30/3/137
f 36/3/131 161/8/137 160/8/131
f 150/7/128 157/8/135 155/8/128
f 157/8/135 150/7/128 151/7/135
f 153/8/138 139/3/109 137/8/109
f 139/3/109 153/8/138 158/3/138

