# Created by Kenney (www.kenney.nl)

mtllib urn-square.mtl

g urn-square

v 0.1 0 9.902926E-14 1 1 1
v 0.0882353 0 -0.0882353 1 1 1
v 0.0882353 0 0.0882353 1 1 1
v -3.216752E-15 0 0.1 1 1 1
v -3.216752E-15 0 -0.1 1 1 1
v -0.0882353 0 0.0882353 1 1 1
v -0.0882353 0 -0.0882353 1 1 1
v -0.1 0 9.902926E-14 1 1 1
v -0.1 0.05 9.902926E-14 1 1 1
v -0.0882353 0.05 0.0882353 1 1 1
v -0.0882353 0.05 -0.0882353 1 1 1
v -3.216752E-15 0.05 -0.1 1 1 1
v 0.0882353 0.05 -0.0882353 1 1 1
v 0.1 0.05 9.902926E-14 1 1 1
v 0.0882353 0.05 0.0882353 1 1 1
v -3.216752E-15 0.05 0.1 1 1 1
v 0.075 0.075 9.77553E-14 1 1 1
v 0.06617647 0.075 0.06617647 1 1 1
v 0.06617647 0.075 -0.06617647 1 1 1
v -2.579772E-15 0.075 -0.075 1 1 1
v -2.579772E-15 0.075 0.075 1 1 1
v -0.06617647 0.075 -0.06617647 1 1 1
v -0.06617647 0.075 0.06617647 1 1 1
v -0.075 0.075 9.77553E-14 1 1 1
v 0.0585 0.125 8.927638E-14 1 1 1
v 0.05 0.075 9.505167E-14 1 1 1
v 0.05161765 0.125 0.05161765 1 1 1
v 0.04411765 0.075 0.04411765 1 1 1
v -0.04411765 0.075 -0.04411765 1 1 1
v -2.225894E-15 0.075 -0.05 1 1 1
v -0.05161765 0.125 -0.05161765 1 1 1
v -2.466531E-15 0.125 -0.0585 1 1 1
v -2.225894E-15 0.075 0.05 1 1 1
v -2.466531E-15 0.125 0.0585 1 1 1
v -0.0585 0.125 8.927638E-14 1 1 1
v -0.05 0.075 9.505167E-14 1 1 1
v 0.04411765 0.075 -0.04411765 1 1 1
v 0.05161765 0.125 -0.05161765 1 1 1
v -0.05161765 0.125 0.05161765 1 1 1
v -0.04411765 0.075 0.04411765 1 1 1
v 0.07700001 0.125 1.092739E-14 1 1 1
v 0.06794117 0.125 -0.06794117 1 1 1
v 0.06794117 0.125 0.06794117 1 1 1
v -2.494297E-15 0.125 0.07700001 1 1 1
v -2.494297E-15 0.125 -0.07700001 1 1 1
v -0.06794117 0.125 0.06794117 1 1 1
v -0.06794117 0.125 -0.06794117 1 1 1
v -0.07700001 0.125 1.092739E-14 1 1 1
v -0.1 0.175 1.18776E-14 1 1 1
v -0.0882353 0.175 0.0882353 1 1 1
v -0.0882353 0.175 -0.0882353 1 1 1
v 0.0882353 0.175 0.0882353 1 1 1
v -2.494297E-15 0.175 0.1 1 1 1
v 0.1 0.175 1.18776E-14 1 1 1
v -2.494297E-15 0.175 -0.1 1 1 1
v 0.0882353 0.175 -0.0882353 1 1 1
v 0.117 0.275 1.045229E-14 1 1 1
v 0.1032353 0.275 0.1032353 1 1 1
v 0.1032353 0.275 -0.1032353 1 1 1
v 0.09177876 0.275 1.092739E-14 1 1 1
v 0.08098125 0.275 -0.08098125 1 1 1
v 0.08098125 0.275 0.08098125 1 1 1
v -1.78164E-15 0.275 -0.117 1 1 1
v -1.78164E-15 0.275 -0.09177876 1 1 1
v -1.78164E-15 0.275 0.117 1 1 1
v -1.425312E-15 0.275 0.09177876 1 1 1
v -0.08098125 0.275 0.08098125 1 1 1
v -0.1032353 0.275 -0.1032353 1 1 1
v -0.1032353 0.275 0.1032353 1 1 1
v -0.08098125 0.275 -0.08098125 1 1 1
v -0.09177876 0.275 1.045229E-14 1 1 1
v -0.117 0.275 1.045229E-14 1 1 1
v 0.07617637 0.175 1.045229E-14 1 1 1
v 0.06721444 0.175 0.06721444 1 1 1
v 0.06721444 0.175 -0.06721444 1 1 1
v -1.068984E-15 0.175 0.07617637 1 1 1
v -1.425312E-15 0.175 -0.07617637 1 1 1
v -0.06721444 0.175 0.06721444 1 1 1
v -0.06721444 0.175 -0.06721444 1 1 1
v -0.07617637 0.175 9.502083E-15 1 1 1

vn 0 -1 0
vn -1 0 0
vn -0.9221056 0.3869381 0
vn -0.9912279 0 0.1321637
vn -0.9360594 0.3289619 0.1248079
vn -0.9912279 0 -0.1321637
vn -0.9360594 0.3289619 -0.1248079
vn -0.1321637 0 -0.9912279
vn 0 0 -1
vn -0.1248079 0.3289619 -0.9360594
vn 0 0.3869381 -0.9221056
vn 0.1321637 0 -0.9912279
vn 0.1248079 0.3289619 -0.9360594
vn 0.9360594 0.3289619 -0.1248079
vn 0.9912279 0 -0.1321637
vn 0.9221056 0.3869381 0
vn 1 0 0
vn 0.9360594 0.3289619 0.1248079
vn 0.9912279 0 0.1321637
vn 0.1321637 0 0.9912279
vn 0 0 1
vn 0.1248079 0.3289619 0.9360594
vn 0 0.3869381 0.9221056
vn -0.1321637 0 0.9912279
vn -0.1248079 0.3289619 0.9360594
vn 0 1 0
vn -0.7071068 0.7071068 0
vn -0.7039849 0.7039849 0.09386464
vn -0.7039849 0.7039849 -0.09386464
vn 0 0.7071068 0.7071068
vn -0.09386464 0.7039849 0.7039849
vn -0.09386464 0.7039849 -0.7039849
vn 0 0.7071068 -0.7071068
vn 0.7071068 0.7071068 0
vn 0.7039849 0.7039849 0.09386464
vn 0.09386464 0.7039849 0.7039849
vn 0.7039849 0.7039849 -0.09386464
vn 0.09386464 0.7039849 -0.7039849
vn 0.9858559 -0.1675955 0
vn 0.9774476 -0.1661661 0.1303264
vn -0.1303264 -0.1661661 -0.9774476
vn 0 -0.1675955 -0.9858559
vn 0.1303264 -0.1661661 0.9774476
vn 0 -0.1675955 0.9858559
vn -0.9774476 -0.1661661 -0.1303264
vn -0.9858559 -0.1675955 0
vn 0.1303264 -0.1661661 -0.9774476
vn 0.9774476 -0.1661661 -0.1303264
vn -0.9774476 -0.1661661 0.1303264
vn -0.1303264 -0.1661661 0.9774476
vn -0.9084904 -0.4179056 0
vn -0.9555171 -0.2949359 0
vn -0.9018978 -0.414873 0.120253
vn -0.9513966 -0.2806293 0.1268529
vn -0.9513966 -0.2806293 -0.1268529
vn -0.9018978 -0.414873 -0.120253
vn 0.120253 -0.414873 0.9018978
vn 0 -0.4179056 0.9084904
vn 0.1268529 -0.2806293 0.9513966
vn 0 -0.2949359 0.9555171
vn 0.9084904 -0.4179056 0
vn 0.9018978 -0.414873 0.120253
vn 0.9555171 -0.2949359 0
vn 0.9513966 -0.2806293 0.1268529
vn -0.120253 -0.414873 -0.9018978
vn 0 -0.4179056 -0.9084904
vn -0.1268529 -0.2806293 -0.9513966
vn 0 -0.2949359 -0.9555171
vn 0.9513966 -0.2806293 -0.1268529
vn 0.9018978 -0.414873 -0.120253
vn -0.120253 -0.414873 0.9018978
vn -0.1268529 -0.2806293 0.9513966
vn 0.120253 -0.414873 -0.9018978
vn 0.1268529 -0.2806293 -0.9513966
vn -0.9858559 -0.1675955 0
vn -0.9774476 -0.1661661 0.1303264
vn 0.9774476 -0.1661661 -0.1303264
vn 0.9858559 -0.1675955 0
vn 0 -0.1675955 0.9858559
vn -0.1303264 -0.1661661 0.9774476
vn 0.1303264 -0.1661661 0.9774476
vn 0 -0.1675955 -0.9858559
vn 0.1303264 -0.1661661 -0.9774476
vn 0.9774476 -0.1661661 0.1303264
vn -0.1303264 -0.1661661 -0.9774476
vn -0.9774476 -0.1661661 -0.1303264
vn -0.5900744 0.8073489 0
vn -0.4715553 0.7451652 -0.4715553
vn -0.4715553 0.7451652 0.4715553
vn 0 0.8073489 -0.5900744
vn 0 0.8073489 0.5900744
vn 0.4715553 0.7451652 -0.4715553
vn 0.4715553 0.7451652 0.4715553
vn 0.5900744 0.8073489 0
vn -0.9880461 0.1541588 0
vn -0.6940746 0.1911039 -0.6940746
vn 0.6940746 0.1911039 0.6940746
vn 0.9880461 0.1541588 0
vn 0 0.1541588 0.9880461
vn -0.6940746 0.1911039 0.6940746
vn 0.6940746 0.1911039 -0.6940746
vn 0 0.1541588 -0.9880461

vt 0.96875 0.025
vt 0.96875 0.1583333
vt 0.96875 0.225
vt 0.96875 0.075
vt 0.96875 0.1083333
vt 0.96875 0.175
vt 0.09375 0.1083333
vt 0.09375 0.175

usemtl colormap

f 3/1/1 2/1/1 1/1/1
f 2/1/1 3/1/1 4/1/1
f 2/1/1 4/1/1 5/1/1
f 5/1/1 4/1/1 6/1/1
f 5/1/1 6/1/1 7/1/1
f 7/1/1 6/1/1 8/1/1
f 6/1/4 9/2/3 8/1/2
f 9/2/3 6/1/4 10/2/5
f 8/1/2 11/2/7 7/1/6
f 11/2/7 8/1/2 9/2/3
f 11/2/10 5/1/9 7/1/8
f 5/1/9 11/2/10 12/2/11
f 12/2/11 2/1/12 5/1/9
f 2/1/12 12/2/11 13/2/13
f 14/2/16 2/1/15 13/2/14
f 2/1/15 14/2/16 1/1/17
f 15/2/18 1/1/17 14/2/16
f 1/1/17 15/2/18 3/1/19
f 15/2/22 4/1/21 3/1/20
f 4/1/21 15/2/22 16/2/23
f 16/2/23 6/1/24 4/1/21
f 6/1/24 16/2/23 10/2/25
f 19/3/26 18/3/26 17/3/26
f 18/3/26 19/3/26 20/3/26
f 18/3/26 20/3/26 21/3/26
f 21/3/26 20/3/26 22/3/26
f 21/3/26 22/3/26 23/3/26
f 23/3/26 22/3/26 24/3/26
f 9/2/3 23/3/28 24/3/27
f 23/3/28 9/2/3 10/2/5
f 9/2/3 22/3/29 11/2/7
f 22/3/29 9/2/3 24/3/27
f 21/3/30 10/2/25 16/2/23
f 10/2/25 21/3/30 23/3/31
f 22/3/32 12/2/11 11/2/10
f 12/2/11 22/3/32 20/3/33
f 18/3/35 14/2/16 17/3/34
f 14/2/16 18/3/35 15/2/18
f 18/3/36 16/2/23 15/2/22
f 16/2/23 18/3/36 21/3/30
f 19/3/37 14/2/16 13/2/14
f 14/2/16 19/3/37 17/3/34
f 20/3/33 13/2/13 12/2/11
f 13/2/13 20/3/33 19/3/38
f 27/1/40 26/3/39 25/1/39
f 26/3/39 27/1/40 28/3/40
f 31/1/41 30/3/42 29/3/41
f 30/3/42 31/1/41 32/1/42
f 27/1/43 33/3/44 28/3/43
f 33/3/44 27/1/43 34/1/44
f 29/3/45 35/1/46 31/1/45
f 35/1/46 29/3/45 36/3/46
f 32/1/42 37/3/47 30/3/42
f 37/3/47 32/1/42 38/1/47
f 25/1/39 37/3/48 38/1/48
f 37/3/48 25/1/39 26/3/39
f 36/3/46 39/1/49 35/1/46
f 39/1/49 36/3/46 40/3/49
f 34/1/44 40/3/50 33/3/44
f 40/3/50 34/1/44 39/1/50
f 43/4/1 42/4/1 41/4/1
f 42/4/1 43/4/1 44/4/1
f 42/4/1 44/4/1 45/4/1
f 45/4/1 44/4/1 46/4/1
f 45/4/1 46/4/1 47/4/1
f 47/4/1 46/4/1 48/4/1
f 46/4/53 49/5/52 48/4/51
f 49/5/52 46/4/53 50/5/54
f 47/4/56 49/5/52 51/5/55
f 49/5/52 47/4/56 48/4/51
f 52/5/59 44/4/58 43/4/57
f 44/4/58 52/5/59 53/5/60
f 54/5/63 43/4/62 41/4/61
f 43/4/62 54/5/63 52/5/64
f 51/5/67 45/4/66 47/4/65
f 45/4/66 51/5/67 55/5/68
f 54/5/63 42/4/70 56/5/69
f 42/4/70 54/5/63 41/4/61
f 53/5/60 46/4/71 44/4/58
f 46/4/71 53/5/60 50/5/72
f 55/5/68 42/4/73 45/4/66
f 42/4/73 55/5/68 56/5/74
f 59/6/26 58/6/26 57/6/26
f 58/6/26 59/6/26 60/6/26
f 60/6/26 59/6/26 61/6/26
f 62/6/26 58/6/26 60/6/26
f 61/6/26 59/6/26 63/6/26
f 61/6/26 63/6/26 64/6/26
f 58/6/26 62/6/26 65/6/26
f 65/6/26 62/6/26 66/6/26
f 65/6/26 66/6/26 67/6/26
f 64/6/26 63/6/26 68/6/26
f 65/6/26 67/6/26 69/6/26
f 64/6/26 68/6/26 70/6/26
f 69/6/26 67/6/26 71/6/26
f 70/6/26 68/6/26 71/6/26
f 69/6/26 71/6/26 68/6/26
f 69/6/26 68/6/26 72/6/26
f 49/5/52 69/6/76 72/6/75
f 69/6/76 49/5/52 50/5/54
f 57/6/78 56/5/69 59/6/77
f 56/5/69 57/6/78 54/5/63
f 65/6/79 50/5/72 53/5/60
f 50/5/72 65/6/79 69/6/80
f 58/6/81 53/5/60 52/5/59
f 53/5/60 58/6/81 65/6/79
f 63/6/82 56/5/74 55/5/68
f 56/5/74 63/6/82 59/6/83
f 58/6/84 54/5/63 57/6/78
f 54/5/63 58/6/84 52/5/64
f 68/6/85 55/5/68 51/5/67
f 55/5/68 68/6/85 63/6/82
f 51/5/55 72/6/75 68/6/86
f 72/6/75 51/5/55 49/5/52
f 75/7/89 74/7/88 73/7/87
f 74/7/88 75/7/89 76/7/90
f 76/7/90 75/7/89 77/7/91
f 76/7/90 77/7/91 78/7/92
f 78/7/92 77/7/91 79/7/93
f 78/7/92 79/7/93 80/7/94
f 74/7/88 60/8/95 73/7/87
f 60/8/95 74/7/88 62/8/96
f 71/8/98 79/7/93 70/8/97
f 79/7/93 71/8/98 80/7/94
f 64/8/99 79/7/93 77/7/91
f 79/7/93 64/8/99 70/8/97
f 61/8/100 77/7/91 75/7/89
f 77/7/91 61/8/100 64/8/99
f 67/8/101 76/7/90 78/7/92
f 76/7/90 67/8/101 66/8/102
f 75/7/89 60/8/95 61/8/100
f 60/8/95 75/7/89 73/7/87
f 66/8/102 74/7/88 76/7/90
f 74/7/88 66/8/102 62/8/96
f 71/8/98 78/7/92 80/7/94
f 78/7/92 71/8/98 67/8/101

g urn-square




usemtl colormap

f 3/1/1 2/1/1 1/1/1
f 2/1/1 3/1/1 4/1/1
f 2/1/1 4/1/1 5/1/1
f 5/1/1 4/1/1 6/1/1
f 5/1/1 6/1/1 7/1/1
f 7/1/1 6/1/1 8/1/1
f 6/1/4 9/2/3 8/1/2
f 9/2/3 6/1/4 10/2/5
f 8/1/2 11/2/7 7/1/6
f 11/2/7 8/1/2 9/2/3
f 11/2/10 5/1/9 7/1/8
f 5/1/9 11/2/10 12/2/11
f 12/2/11 2/1/12 5/1/9
f 2/1/12 12/2/11 13/2/13
f 14/2/16 2/1/15 13/2/14
f 2/1/15 14/2/16 1/1/17
f 15/2/18 1/1/17 14/2/16
f 1/1/17 15/2/18 3/1/19
f 15/2/22 4/1/21 3/1/20
f 4/1/21 15/2/22 16/2/23
f 16/2/23 6/1/24 4/1/21
f 6/1/24 16/2/23 10/2/25
f 19/3/26 18/3/26 17/3/26
f 18/3/26 19/3/26 20/3/26
f 18/3/26 20/3/26 21/3/26
f 21/3/26 20/3/26 22/3/26
f 21/3/26 22/3/26 23/3/26
f 23/3/26 22/3/26 24/3/26
f 9/2/3 23/3/28 24/3/27
f 23/3/28 9/2/3 10/2/5
f 9/2/3 22/3/29 11/2/7
f 22/3/29 9/2/3 24/3/27
f 21/3/30 10/2/25 16/2/23
f 10/2/25 21/3/30 23/3/31
f 22/3/32 12/2/11 11/2/10
f 12/2/11 22/3/32 20/3/33
f 18/3/35 14/2/16 17/3/34
f 14/2/16 18/3/35 15/2/18
f 18/3/36 16/2/23 15/2/22
f 16/2/23 18/3/36 21/3/30
f 19/3/37 14/2/16 13/2/14
f 14/2/16 19/3/37 17/3/34
f 20/3/33 13/2/13 12/2/11
f 13/2/13 20/3/33 19/3/38
f 27/1/40 26/3/39 25/1/39
f 26/3/39 27/1/40 28/3/40
f 31/1/41 30/3/42 29/3/41
f 30/3/42 31/1/41 32/1/42
f 27/1/43 33/3/44 28/3/43
f 33/3/44 27/1/43 34/1/44
f 29/3/45 35/1/46 31/1/45
f 35/1/46 29/3/45 36/3/46
f 32/1/42 37/3/47 30/3/42
f 37/3/47 32/1/42 38/1/47
f 25/1/39 37/3/48 38/1/48
f 37/3/48 25/1/39 26/3/39
f 36/3/46 39/1/49 35/1/46
f 39/1/49 36/3/46 40/3/49
f 34/1/44 40/3/50 33/3/44
f 40/3/50 34/1/44 39/1/50
f 43/4/1 42/4/1 41/4/1
f 42/4/1 43/4/1 44/4/1
f 42/4/1 44/4/1 45/4/1
f 45/4/1 44/4/1 46/4/1
f 45/4/1 46/4/1 47/4/1
f 47/4/1 46/4/1 48/4/1
f 46/4/53 49/5/52 48/4/51
f 49/5/52 46/4/53 50/5/54
f 47/4/56 49/5/52 51/5/55
f 49/5/52 47/4/56 48/4/51
f 52/5/59 44/4/58 43/4/57
f 44/4/58 52/5/59 53/5/60
f 54/5/63 43/4/62 41/4/61
f 43/4/62 54/5/63 52/5/64
f 51/5/67 45/4/66 47/4/65
f 45/4/66 51/5/67 55/5/68
f 54/5/63 42/4/70 56/5/69
f 42/4/70 54/5/63 41/4/61
f 53/5/60 46/4/71 44/4/58
f 46/4/71 53/5/60 50/5/72
f 55/5/68 42/4/73 45/4/66
f 42/4/73 55/5/68 56/5/74
f 59/6/26 58/6/26 57/6/26
f 58/6/26 59/6/26 60/6/26
f 60/6/26 59/6/26 61/6/26
f 62/6/26 58/6/26 60/6/26
f 61/6/26 59/6/26 63/6/26
f 61/6/26 63/6/26 64/6/26
f 58/6/26 62/6/26 65/6/26
f 65/6/26 62/6/26 66/6/26
f 65/6/26 66/6/26 67/6/26
f 64/6/26 63/6/26 68/6/26
f 65/6/26 67/6/26 69/6/26
f 64/6/26 68/6/26 70/6/26
f 69/6/26 67/6/26 71/6/26
f 70/6/26 68/6/26 71/6/26
f 69/6/26 71/6/26 68/6/26
f 69/6/26 68/6/26 72/6/26
f 49/5/52 69/6/76 72/6/75
f 69/6/76 49/5/52 50/5/54
f 57/6/78 56/5/69 59/6/77
f 56/5/69 57/6/78 54/5/63
f 65/6/79 50/5/72 53/5/60
f 50/5/72 65/6/79 69/6/80
f 58/6/81 53/5/60 52/5/59
f 53/5/60 58/6/81 65/6/79
f 63/6/82 56/5/74 55/5/68
f 56/5/74 63/6/82 59/6/83
f 58/6/84 54/5/63 57/6/78
f 54/5/63 58/6/84 52/5/64
f 68/6/85 55/5/68 51/5/67
f 55/5/68 68/6/85 63/6/82
f 51/5/55 72/6/75 68/6/86
f 72/6/75 51/5/55 49/5/52
f 75/7/89 74/7/88 73/7/87
f 74/7/88 75/7/89 76/7/90
f 76/7/90 75/7/89 77/7/91
f 76/7/90 77/7/91 78/7/92
f 78/7/92 77/7/91 79/7/93
f 78/7/92 79/7/93 80/7/94
f 74/7/88 60/8/95 73/7/87
f 60/8/95 74/7/88 62/8/96
f 71/8/98 79/7/93 70/8/97
f 79/7/93 71/8/98 80/7/94
f 64/8/99 79/7/93 77/7/91
f 79/7/93 64/8/99 70/8/97
f 61/8/100 77/7/91 75/7/89
f 77/7/91 61/8/100 64/8/99
f 67/8/101 76/7/90 78/7/92
f 76/7/90 67/8/101 66/8/102
f 75/7/89 60/8/95 61/8/100
f 60/8/95 75/7/89 73/7/87
f 66/8/102 74/7/88 76/7/90
f 74/7/88 66/8/102 62/8/96
f 71/8/98 78/7/92 80/7/94
f 78/7/92 71/8/98 67/8/101

g lid

v 0.0295 0.384 -4.620234E-16 1 1 1
v 0.02085965 0.384 0.02085965 1 1 1
v 0.02085965 0.384 -0.02085965 1 1 1
v -4.908997E-16 0.384 -0.0295 1 1 1
v -4.908997E-16 0.384 0.0295 1 1 1
v -0.02085965 0.384 -0.02085965 1 1 1
v -0.02085965 0.384 0.02085965 1 1 1
v -0.0295 0.384 -4.620234E-16 1 1 1
v 0.04425 0.3545 -1.739807E-15 1 1 1
v 0.0295 0.325 -4.620234E-16 1 1 1
v 0.03128947 0.3545 0.03128947 1 1 1
v 0.02085965 0.325 0.02085965 1 1 1
v -0.02085965 0.325 -0.02085965 1 1 1
v -4.908997E-16 0.325 -0.0295 1 1 1
v -0.03128947 0.3545 -0.03128947 1 1 1
v 5.739196E-16 0.3545 -0.04425 1 1 1
v -0.04425 0.3545 -1.739807E-15 1 1 1
v -0.03128947 0.3545 0.03128947 1 1 1
v -0.0295 0.325 -4.620234E-16 1 1 1
v -0.02085965 0.325 0.02085965 1 1 1
v 0.02085965 0.325 -0.02085965 1 1 1
v 0.03128947 0.3545 -0.03128947 1 1 1
v -4.908997E-16 0.325 0.0295 1 1 1
v 5.739196E-16 0.3545 0.04425 1 1 1
v 0.1166559 0.275 0.1166559 1 1 1
v -1.624301E-15 0.275 0.13221 1 1 1
v 0.1166559 0.3 0.1166559 1 1 1
v -1.624301E-15 0.3 0.13221 1 1 1
v 0.13221 0.3 1.010676E-14 1 1 1
v 0.1051502 0.325 1.299441E-14 1 1 1
v 0.09277958 0.325 0.09277958 1 1 1
v -0.09277958 0.325 0.09277958 1 1 1
v -0.1166559 0.3 0.1166559 1 1 1
v -0.1051502 0.325 1.299441E-14 1 1 1
v -0.13221 0.3 1.010676E-14 1 1 1
v -0.09277958 0.325 -0.09277958 1 1 1
v -0.1166559 0.3 -0.1166559 1 1 1
v -0.1166559 0.275 -0.1166559 1 1 1
v -1.624301E-15 0.275 -0.13221 1 1 1
v -1.624301E-15 0.3 -0.13221 1 1 1
v 0.13221 0.275 1.010676E-14 1 1 1
v 0.1166559 0.275 -0.1166559 1 1 1
v -0.1166559 0.275 0.1166559 1 1 1
v -0.13221 0.275 1.010676E-14 1 1 1
v 0.09277958 0.325 -0.09277958 1 1 1
v -2.165734E-15 0.325 -0.1051502 1 1 1
v -2.165734E-15 0.325 0.1051502 1 1 1
v 0.1166559 0.3 -0.1166559 1 1 1

vn 0.8944272 -0.4472136 0
vn 0.7071068 0 0.7071068
vn 0.6324555 -0.4472136 0.6324555
vn -0.6324555 -0.4472136 -0.6324555
vn 0 -0.4472136 -0.8944272
vn -0.7071068 0 -0.7071068
vn -0.7071068 0 0.7071068
vn -0.8944272 -0.4472136 0
vn -0.6324555 -0.4472136 0.6324555
vn 0.6324555 -0.4472136 -0.6324555
vn 0.7071068 0 -0.7071068
vn 0 -0.4472136 0.8944272
vn -0.8944272 0.4472136 0
vn -0.6324555 0.4472136 0.6324555
vn -0.6324555 0.4472136 -0.6324555
vn 0 0.4472136 -0.8944272
vn 0.6324555 0.4472136 -0.6324555
vn 0.8944272 0.4472136 0
vn 0.6324555 0.4472136 0.6324555
vn 0 0.4472136 0.8944272
vn 0.1251954 0.3204207 0.9389657
vn 0 0.3889877 0.921243
vn 0.921243 0.3889877 0
vn 0.9389657 0.3204207 0.1251954
vn 0.6785983 0.7345095 0
vn 0.6758375 0.7315213 0.09011168
vn -0.6758375 0.7315213 0.09011168
vn -0.9389657 0.3204207 0.1251954
vn -0.6785983 0.7345095 0
vn -0.921243 0.3889877 0
vn -0.6758375 0.7315213 -0.09011168
vn -0.9389657 0.3204207 -0.1251954
vn -0.1251954 0.3204207 -0.9389657
vn 0 0.3889877 -0.921243
vn 0 0.7345095 -0.6785983
vn -0.09011168 0.7315213 -0.6758375
vn 0.09011168 0.7315213 0.6758375
vn 0 0.7345095 0.6785983
vn 0.1251954 0.3204207 -0.9389657
vn 0.9389657 0.3204207 -0.1251954
vn -0.1251954 0.3204207 0.9389657
vn -0.09011168 0.7315213 0.6758375
vn 0.09011168 0.7315213 -0.6758375
vn 0.6758375 0.7315213 -0.09011168

vt 0.96875 0.105
vt 0.96875 0.065
vt 0.96875 0.125

usemtl colormap

f 83/9/26 82/9/26 81/9/26
f 82/9/26 83/9/26 84/9/26
f 82/9/26 84/9/26 85/9/26
f 85/9/26 84/9/26 86/9/26
f 85/9/26 86/9/26 87/9/26
f 87/9/26 86/9/26 88/9/26
f 91/10/104 90/1/103 89/10/17
f 90/1/103 91/10/104 92/1/105
f 95/10/108 94/1/107 93/1/106
f 94/1/107 95/10/108 96/10/9
f 99/1/110 98/10/109 97/10/2
f 98/10/109 99/1/110 100/1/111
f 96/10/9 101/1/112 94/1/107
f 101/1/112 96/10/9 102/10/113
f 91/10/104 103/1/114 92/1/105
f 103/1/114 91/10/104 104/10/21
f 89/10/17 101/1/112 102/10/113
f 101/1/112 89/10/17 90/1/103
f 104/10/21 100/1/111 103/1/114
f 100/1/111 104/10/21 98/10/109
f 93/1/106 97/10/2 95/10/108
f 97/10/2 93/1/106 99/1/110
f 98/10/109 88/9/115 97/10/2
f 88/9/115 98/10/109 87/9/116
f 97/10/2 86/9/117 95/10/108
f 86/9/117 97/10/2 88/9/115
f 84/9/118 102/10/113 96/10/9
f 102/10/113 84/9/118 83/9/119
f 83/9/119 89/10/17 102/10/113
f 89/10/17 83/9/119 81/9/120
f 82/9/121 104/10/21 91/10/104
f 104/10/21 82/9/121 85/9/122
f 86/9/117 96/10/9 95/10/108
f 96/10/9 86/9/117 84/9/118
f 81/9/120 91/10/104 89/10/17
f 91/10/104 81/9/120 82/9/121
f 85/9/122 98/10/109 104/10/21
f 98/10/109 85/9/122 87/9/116
f 107/11/123 106/4/21 105/4/20
f 106/4/21 107/11/123 108/11/124
f 110/6/127 107/11/126 109/11/125
f 107/11/126 110/6/127 111/6/128
f 114/6/131 113/11/130 112/6/129
f 113/11/130 114/6/131 115/11/132
f 117/11/134 114/6/131 116/6/133
f 114/6/131 117/11/134 115/11/132
f 117/11/135 119/4/9 118/4/8
f 119/4/9 117/11/135 120/11/136
f 105/4/1 122/4/1 121/4/1
f 122/4/1 105/4/1 106/4/1
f 122/4/1 106/4/1 119/4/1
f 119/4/1 106/4/1 123/4/1
f 119/4/1 123/4/1 118/4/1
f 118/4/1 123/4/1 124/4/1
f 125/6/26 111/6/26 110/6/26
f 111/6/26 125/6/26 126/6/26
f 111/6/26 126/6/26 127/6/26
f 127/6/26 126/6/26 116/6/26
f 127/6/26 116/6/26 112/6/26
f 112/6/26 116/6/26 114/6/26
f 124/4/2 117/11/134 118/4/6
f 117/11/134 124/4/2 115/11/132
f 117/11/135 126/6/137 120/11/136
f 126/6/137 117/11/135 116/6/138
f 111/6/139 108/11/124 107/11/123
f 108/11/124 111/6/139 127/6/140
f 120/11/136 122/4/12 119/4/9
f 122/4/12 120/11/136 128/11/141
f 109/11/125 122/4/15 128/11/142
f 122/4/15 109/11/125 121/4/17
f 127/6/140 113/11/143 108/11/124
f 113/11/143 127/6/140 112/6/144
f 120/11/136 125/6/145 128/11/141
f 125/6/145 120/11/136 126/6/137
f 128/11/142 110/6/127 109/11/125
f 110/6/127 128/11/142 125/6/146
f 123/4/4 115/11/132 124/4/2
f 115/11/132 123/4/4 113/11/130
f 107/11/126 121/4/17 109/11/125
f 121/4/17 107/11/126 105/4/19
f 108/11/124 123/4/24 106/4/21
f 123/4/24 108/11/124 113/11/143

